<?xml version="1.0" encoding="utf-8"?>
<!-- Generator: Adobe Illustrator 25.4.1, SVG Export Plug-In . SVG Version: 6.00 Build 0)  -->
<svg version="1.1" id="Ebene_1" xmlns="http://www.w3.org/2000/svg" xmlns:xlink="http://www.w3.org/1999/xlink" x="0px" y="0px"
	 viewBox="0 0 250 66" style="enable-background:new 0 0 250 66;" xml:space="preserve">
<style type="text/css">
	.st0{fill:#FFFFFF;}
</style>
<g id="Gruppe_1140" transform="translate(0 62.008)">
	<g>
		<g id="Gruppe_1107" transform="translate(0 -62.008)">
			<g id="Gruppe_1106">
				<path id="Pfad_661" class="st0" d="M32.9,65.9C14.7,65.9,0,51.2,0,33C0,14.8,14.7,0.1,32.9,0.1c18.2,0,32.9,14.7,32.9,32.9
					C65.8,51.2,51.1,65.9,32.9,65.9 M32.9,2.2C15.9,2.2,2.1,16,2.1,33c0,17,13.8,30.8,30.8,30.8c17,0,30.8-13.8,30.8-30.8
					C63.7,16,49.9,2.2,32.9,2.2"/>
			</g>
		</g>
	</g>
	<path id="Pfad_663" class="st0" d="M33.9-11h-2.1v-28.2h2.1V-11z"/>
	<g>
		<g id="Gruppe_1116" transform="translate(0 -62.008)">
			<g id="Gruppe_1108" transform="translate(36.828 22.703)">
				<path id="Pfad_664" class="st0" d="M0,15.2v-2.1c3,0,5.5-2.5,5.5-5.5c0-3-2.4-5.5-5.5-5.5V0.1c4.2,0,7.5,3.4,7.5,7.6
					C7.5,11.8,4.1,15.2,0,15.2"/>
			</g>
			<g id="Gruppe_1109" transform="translate(21.479 35.781)">
				<path id="Pfad_665" class="st0" d="M7.5,15.2C3.3,15.2,0,11.8,0,7.7c0-4.2,3.4-7.5,7.5-7.6v2.1C4.5,2.2,2,4.6,2,7.7
					c0,3,2.4,5.5,5.5,5.5V15.2z"/>
			</g>
			<g id="Gruppe_1110" transform="translate(28.997 14.902)">
				<path id="Pfad_666" class="st0" d="M7.8,4H5.7c0-1-0.8-1.8-1.9-1.8C2.9,2.2,2.1,3,2,4H0c0-2.2,1.8-3.9,3.9-3.9
					C6.1,0.1,7.8,1.8,7.8,4"/>
			</g>
			<g id="Gruppe_1111" transform="translate(164.236 44.774)">
				<path id="Pfad_667" class="st0" d="M2.7,15.1c0,1-0.4,1.6-1.2,1.6c-0.4,0-0.7-0.1-1.1-0.3l-0.1-0.1l-0.4,1.5l0.1,0
					c0.5,0.3,1.1,0.4,1.7,0.4c1.7,0,2.6-1.1,2.6-3V0.1H2.7V15.1z"/>
			</g>
			<g id="Gruppe_1112" transform="translate(127.112 44.584)">
				<path id="Pfad_668" class="st0" d="M9.8,2.2C8.8,0.9,7.2,0,5.5,0.1c-3.3,0-5.5,2.7-5.5,6.6s2.3,6.6,5.5,6.6
					c1.7,0.1,3.3-0.8,4.3-2.2v2h1.6V0.3H9.8V2.2z M9.8,6.7c0,3-1.6,5-4.1,5s-4.1-2-4.1-5s1.6-5,4.1-5S9.8,3.7,9.8,6.7"/>
			</g>
			<g id="Gruppe_1113" transform="translate(171.69 44.584)">
				<path id="Pfad_669" class="st0" d="M5.6,0.1c-3.4,0-5.6,2.7-5.6,6.6c0,4,2.3,6.6,5.7,6.6c1.8,0.1,3.5-0.7,4.7-2l0.1-0.1
					l-0.9-1.1l-0.1,0.1c-0.9,1-2.2,1.6-3.6,1.6c-2.4,0-4-1.7-4.1-4.5h9.2l0-0.1c0-0.1,0-0.3,0-0.5C10.9,2.7,8.7,0.1,5.6,0.1
					 M1.6,5.9c0.3-2.6,1.8-4.2,3.9-4.2c2.1,0,3.5,1.7,3.7,4.2H1.6z"/>
			</g>
			<g id="Gruppe_1114" transform="translate(154.835 40.899)">
				<path id="Pfad_670" class="st0" d="M9.7,15.8L9,14.5l-0.1,0.1c-0.7,0.5-1.5,0.8-2.3,0.8c-1.5,0-2.4-0.9-2.4-2.6V5.5h5V4h-5V0.1
					H2.5V4h-2.6v1.5h2.6v7.3c0,2.7,1.4,4.1,3.8,4.1C7.5,17,8.7,16.6,9.7,15.8L9.7,15.8z"/>
			</g>
			<g id="Gruppe_1115" transform="translate(238.987 44.584)">
				<path id="Pfad_671" class="st0" d="M5.4,0.1C3.9,0,2.4,0.7,1.5,2V0.3h-1.6v12.9h1.7V5.3C1.5,3.4,2.9,1.8,4.8,1.7
					c0.1,0,0.2,0,0.2,0c1.8-0.1,3.3,1.2,3.4,2.9c0,0.2,0,0.4,0,0.6v7.9h1.7V4.8c0.2-2.4-1.6-4.5-4.1-4.7C5.8,0.1,5.6,0.1,5.4,0.1"/>
			</g>
		</g>
	</g>
	<path id="Pfad_673" class="st0" d="M85.4-10.7h33.9v-1.5H85.4V-10.7z"/>
	<g>
		<g id="Gruppe_1122" transform="translate(0 -62.008)">
			<g id="Gruppe_1117" transform="translate(142.46 44.584)">
				<path id="Pfad_674" class="st0" d="M5.5,0.1C3.9,0,2.5,0.7,1.6,2V0.3h-1.6v12.9h1.7V5.3C1.5,3.4,3,1.8,4.8,1.7
					c0.1,0,0.2,0,0.2,0c1.8-0.1,3.3,1.2,3.4,2.9c0,0.2,0,0.4,0,0.6v7.9h1.7V4.8c0.2-2.4-1.6-4.5-4.1-4.7C5.9,0.1,5.7,0.1,5.5,0.1"/>
			</g>
			<g id="Gruppe_1118" transform="translate(166.713 39.205)">
				<path id="Pfad_675" class="st0" d="M1,0.1c-0.6,0-1.1,0.5-1.1,1.1c0,0,0,0,0,0c0,0.6,0.5,1.1,1.1,1.1c0,0,0,0,0,0
					c0.6,0,1.1-0.5,1.1-1.1c0,0,0,0,0,0C2.1,0.6,1.6,0.1,1,0.1C1,0.1,1,0.1,1,0.1"/>
			</g>
			<g id="Gruppe_1119" transform="translate(210.954 44.584)">
				<path id="Pfad_676" class="st0" d="M5.5,0.1c-3.4,0-5.6,2.7-5.6,6.6c0,4,2.3,6.6,5.7,6.6c1.8,0.1,3.5-0.7,4.7-2l0.1-0.1
					l-0.9-1.1l-0.1,0.1c-0.9,1-2.2,1.6-3.6,1.6c-2.4,0-4-1.7-4.1-4.5h9.2l0-0.1c0-0.1,0-0.3,0-0.5C10.9,2.7,8.7,0.1,5.5,0.1
					 M1.6,5.9c0.3-2.6,1.8-4.2,3.9-4.2c2.1,0,3.5,1.7,3.7,4.2H1.6z"/>
			</g>
			<g id="Gruppe_1120" transform="translate(191.745 44.584)">
				<path id="Pfad_677" class="st0" d="M5.8,0.1C4.1,0,2.5,0.9,1.5,2.2v-2h-1.6v18h1.7v-7.1c1,1.4,2.6,2.2,4.3,2.1
					c3.3,0,5.5-2.7,5.5-6.6S9.1,0.1,5.8,0.1 M9.7,6.7c0,3-1.6,5-4.1,5s-4.1-2-4.1-5s1.7-5,4.1-5S9.7,3.7,9.7,6.7"/>
			</g>
			<g id="Gruppe_1121" transform="translate(224.985 38.074)">
				<path id="Pfad_678" class="st0" d="M5.4,6.6c-1.5,0-2.9,0.6-3.9,1.8V0.1h-1.7v19.6h1.7v-7.9C1.5,9.9,2.9,8.3,4.8,8.2
					c0.1,0,0.2,0,0.2,0c2.2,0,3.4,1.3,3.4,3.5v8h1.7v-8.4C10.3,8.9,8.5,6.8,6,6.6C5.8,6.6,5.6,6.6,5.4,6.6"/>
			</g>
		</g>
	</g>
	<path id="Pfad_680" class="st0" d="M206.1-4.3h1.7v-19.6h-1.7V-4.3z"/>
	<g id="Gruppe_1123" transform="translate(162.342 -40.551)">
		<path id="Pfad_681" class="st0" d="M9.8,11.4H2.1l7.6-10l0,0V0.1H0.2v1.5h7.4l-7.6,10.1l0,0V13h9.9L9.8,11.4z"/>
	</g>
	<g>
		<g id="Gruppe_1129" transform="translate(0 -62.008)">
			<g id="Gruppe_1124" transform="translate(240.557 21.282)">
				<path id="Pfad_682" class="st0" d="M5.8,6L4.4,5.8C2.7,5.5,1.9,4.8,1.9,3.7c0-1.3,1.1-2.1,2.8-2.1C6,1.6,7.3,2,8.3,2.7l0.1,0.1
					l0.8-1.2L9.1,1.5C7.8,0.6,6.3,0.1,4.7,0.1C2,0.1,0.2,1.5,0.2,3.8c0,1.9,1.2,3.1,3.6,3.5l1.4,0.3c1.7,0.3,2.5,1,2.5,2.1
					c0,1.4-1.2,2.2-3.2,2.2c-1.4,0.1-2.7-0.4-3.7-1.3l-0.1-0.1l-0.8,1.2l0.1,0.1c1.3,1.1,2.9,1.6,4.6,1.6c3,0,4.9-1.5,4.9-3.8
					C9.4,7.6,8.2,6.5,5.8,6"/>
			</g>
			<g id="Gruppe_1125" transform="translate(98.623 21.27)">
				<path id="Pfad_683" class="st0" d="M5.5,13.3c1.7,0.1,3.3-0.8,4.3-2.2v2h1.6V0.3H9.8v2c-1-1.4-2.6-2.2-4.3-2.2
					c-3.3,0-5.5,2.7-5.5,6.6S2.2,13.3,5.5,13.3 M5.7,11.7c-2.4,0-4.1-2-4.1-5s1.6-5,4.1-5s4.1,2,4.1,5S8.2,11.7,5.7,11.7"/>
			</g>
			<g id="Gruppe_1126" transform="translate(85.467 14.759)">
				<path id="Pfad_684" class="st0" d="M1.6,11.8C1.5,9.9,3,8.3,4.9,8.2c0.1,0,0.2,0,0.2,0c2.2,0,3.4,1.3,3.4,3.5v8h1.7v-8.4
					c0.2-2.4-1.7-4.5-4.1-4.7c-0.2,0-0.4,0-0.6,0C4,6.6,2.6,7.2,1.6,8.4V0.1H0v19.6h1.7V11.8z"/>
			</g>
			<g id="Gruppe_1127" transform="translate(126.773 21.282)">
				<path id="Pfad_685" class="st0" d="M9.5,9.5c0-1.9-1.2-3.1-3.6-3.5L4.5,5.8C2.8,5.5,2,4.8,2,3.7c0-1.3,1.1-2.1,2.8-2.1
					c1.3,0,2.5,0.4,3.5,1.1l0.1,0.1l0.8-1.2L9.1,1.5C7.9,0.6,6.4,0.1,4.8,0.1c-2.7,0-4.5,1.4-4.5,3.7c0,1.9,1.2,3.1,3.6,3.5l1.4,0.3
					c1.7,0.3,2.5,1,2.5,2.1c0,1.4-1.2,2.2-3.2,2.2c-1.4,0.1-2.7-0.4-3.7-1.3l-0.1-0.1l-0.8,1.2L0,11.7c1.3,1.1,2.9,1.6,4.6,1.6
					C7.6,13.3,9.5,11.8,9.5,9.5"/>
			</g>
			<g id="Gruppe_1128" transform="translate(113.85 21.458)">
				<path id="Pfad_686" class="st0" d="M8.5,8c0.2,1.8-1.1,3.4-2.8,3.6c-0.2,0-0.4,0-0.6,0c-1.8,0.1-3.3-1.2-3.5-3
					c0-0.2,0-0.4,0-0.6V0.1h-1.6v8c-0.2,2.6,1.8,4.9,4.4,5.1c0.2,0,0.4,0,0.7,0c2.6,0.2,4.9-1.8,5.1-4.4c0-0.2,0-0.4,0-0.7v-8H8.5V8
					z"/>
			</g>
		</g>
	</g>
	<path id="Pfad_688" class="st0" d="M235.9-27.6h1.7v-12.9h-1.7V-27.6z"/>
	<g>
		<g id="Gruppe_1131" transform="translate(0 -62.008)">
			<g id="Gruppe_1130" transform="translate(200.69 21.269)">
				<path id="Pfad_689" class="st0" d="M6.5,2.2l0.5-1.6l-0.1,0c-0.6-0.3-1.3-0.4-2-0.4c-1.3,0-2.6,0.6-3.4,1.7V0.3h-1.6v12.9h1.7
					V5.5c0-2.2,1.2-3.7,3.1-3.7c0.6,0,1.2,0.1,1.7,0.4L6.5,2.2z"/>
			</g>
		</g>
	</g>
	<g id="Gruppe_1132" transform="translate(222.43 -40.551)">
		<path id="Pfad_691" class="st0" d="M9.4,12.9L9.4,12.9l2,0L6.7,6.4l4.3-6.1l0.1-0.2H9.3L5.6,5.2L2,0.1h-2l4.5,6.3L-0.1,13h1.9
			l3.8-5.3L9.4,12.9z"/>
	</g>
	<g>
		<g id="Gruppe_1139" transform="translate(0 -62.008)">
			<g id="Gruppe_1133" transform="translate(186.191 21.27)">
				<path id="Pfad_692" class="st0" d="M11.4,6.7c0-3.9-2.3-6.6-5.5-6.6c-1.7,0-3.3,0.8-4.3,2.2v-2h-1.6v18h1.7v-7.1
					c1,1.4,2.6,2.2,4.3,2.1C9.1,13.3,11.4,10.6,11.4,6.7 M1.5,6.7c0-3,1.6-5,4.1-5s4.1,2,4.1,5s-1.6,5-4.1,5S1.5,9.7,1.5,6.7"/>
			</g>
			<g id="Gruppe_1134" transform="translate(138.344 21.269)">
				<path id="Pfad_693" class="st0" d="M9.7,11.1v2h1.6V0.3H9.7v2c-1-1.4-2.6-2.2-4.3-2.2c-3.3,0-5.5,2.7-5.5,6.6s2.3,6.6,5.5,6.6
					C7.2,13.4,8.8,12.6,9.7,11.1 M9.8,6.7c0,3-1.6,5-4.1,5s-4.1-2-4.1-5s1.6-5,4.1-5S9.8,3.7,9.8,6.7"/>
			</g>
			<g id="Gruppe_1135" transform="translate(208.817 21.269)">
				<path id="Pfad_694" class="st0" d="M9.7,11.1v2h1.6V0.3H9.7v2c-1-1.4-2.6-2.2-4.3-2.2c-3.3,0-5.5,2.7-5.5,6.6s2.3,6.6,5.5,6.6
					C7.1,13.4,8.7,12.5,9.7,11.1 M1.6,6.7c0-3,1.6-5,4.1-5s4.1,2,4.1,5s-1.6,5-4.1,5S1.6,9.7,1.6,6.7"/>
			</g>
			<g id="Gruppe_1136" transform="translate(153.692 21.269)">
				<path id="Pfad_695" class="st0" d="M1.6,5.5c0-2.2,1.2-3.7,3.1-3.7c0.6,0,1.2,0.1,1.7,0.4l0.1,0.1L7,0.6l-0.1,0
					c-0.6-0.3-1.3-0.4-2-0.4c-1.3,0-2.6,0.6-3.4,1.7V0.3h-1.6v12.9h1.7V5.5z"/>
			</g>
			<g id="Gruppe_1137" transform="translate(174.098 17.584)">
				<path id="Pfad_696" class="st0" d="M8.8,14.6c-0.7,0.5-1.5,0.8-2.3,0.8c-1.5,0-2.4-0.9-2.4-2.6V5.5h5V4h-5V0.1H2.5V4h-2.6v1.5
					h2.6v7.3c0,2.7,1.4,4.1,3.8,4.1c1.2,0,2.4-0.4,3.3-1.1l0.1-0.1L8.8,14.6L8.8,14.6z"/>
			</g>
			<g id="Gruppe_1138" transform="translate(235.799 15.888)">
				<path id="Pfad_697" class="st0" d="M1,0.1c-0.6,0-1.1,0.5-1.1,1.1c0,0,0,0,0,0c0,0.6,0.5,1.1,1.1,1.1c0,0,0,0,0,0
					c0.6,0,1.1-0.5,1.1-1.1c0,0,0,0,0,0C2.1,0.6,1.6,0.1,1,0.1C1,0.1,1,0.1,1,0.1"/>
			</g>
		</g>
	</g>
</g>
</svg>
