<?xml version="1.0" encoding="utf-8"?>
<!-- Generator: Adobe Illustrator 25.4.1, SVG Export Plug-In . SVG Version: 6.00 Build 0)  -->
<svg version="1.1" id="Ebene_1" xmlns="http://www.w3.org/2000/svg" xmlns:xlink="http://www.w3.org/1999/xlink" x="0px" y="0px"
	 viewBox="0 0 700 700" style="enable-background:new 0 0 700 700;" xml:space="preserve">
<style type="text/css">
	.st0{fill:#FFFFFF;}
</style>
<g id="Gruppe_953" transform="translate(0 426.402)">
	<g>
		<g id="Gruppe_938" transform="translate(0 -426.402)">
			<g id="Gruppe_937" transform="translate(0)">
				<path id="Pfad_573" class="st0" d="M350.1,699.9c-193,0-350-157-350-350s157-350,350-350s350,157,350,350
					S543.1,699.9,350.1,699.9 M350.1,21.8c-180.9,0-328,147.2-328,328s147.2,328.1,328,328.1s328-147.2,328-328.1
					S531,21.8,350.1,21.8"/>
			</g>
		</g>
	</g>
	<path id="Pfad_575" class="st0" d="M361.1,115h-22v-300.2h22V115z"/>
	<g>
		<g id="Gruppe_942" transform="translate(0 -426.402)">
			<g id="Gruppe_939" transform="translate(391.634 241.422)">
				<path id="Pfad_576" class="st0" d="M0.1,160.9V139c32,0,58-26.3,58-58.6s-26-58.6-58-58.6v-22c44.1,0,80,36.1,80,80.5
					S44.2,160.9,0.1,160.9"/>
			</g>
			<g id="Gruppe_940" transform="translate(228.405 380.498)">
				<path id="Pfad_577" class="st0" d="M80,160.9c-44.1,0-80-36.1-80-80.5S35.9-0.1,80-0.1v21.9c-32,0-58,26.3-58,58.6
					S48,139,80,139V160.9z"/>
			</g>
			<g id="Gruppe_941" transform="translate(308.362 158.471)">
				<path id="Pfad_578" class="st0" d="M83.3,41.3H61.4c-0.1-10.8-8.9-19.6-19.7-19.5c-10.8,0-19.6,8.7-19.7,19.5H0.1
					C0.1,18.4,18.8-0.1,41.7-0.1C64.7-0.1,83.3,18.4,83.3,41.3"/>
			</g>
		</g>
	</g>
</g>
</svg>
