<?xml version="1.0" encoding="utf-8"?>
<!-- Generator: Adobe Illustrator 25.4.1, SVG Export Plug-In . SVG Version: 6.00 Build 0)  -->
<svg version="1.1" id="Ebene_1" xmlns="http://www.w3.org/2000/svg" xmlns:xlink="http://www.w3.org/1999/xlink" x="0px" y="0px"
	 viewBox="0 0 550 550" style="enable-background:new 0 0 550 550;" xml:space="preserve">
<style type="text/css">
	.st0{clip-path:url(#SVGID_00000111904027458536261280000001821349635686023605_);}
	.st1{clip-path:url(#SVGID_00000143610066176779251110000001438257667028494987_);}
	.st2{clip-path:url(#SVGID_00000041985616449530883380000002640797475955885745_);}
	.st3{clip-path:url(#SVGID_00000011019335348793933380000003518522556695379861_);}
	.st4{clip-path:url(#SVGID_00000167375891741548622360000016881254627479017637_);fill:none;stroke:#FFFFFF;stroke-width:14.445;}
	.st5{clip-path:url(#SVGID_00000053531185095020604390000014581760771181694140_);fill:none;stroke:#FFFFFF;stroke-width:14.445;}
	.st6{clip-path:url(#SVGID_00000036224824122171917950000011738616531074312090_);fill:none;stroke:#FFFFFF;stroke-width:10.834;}
	.st7{clip-path:url(#SVGID_00000021831440051863412650000011611517174327586176_);fill:none;stroke:#FFFFFF;stroke-width:10.834;}
	.st8{clip-path:url(#SVGID_00000019679659445233795950000002538797348531169972_);fill:none;stroke:#FFFFFF;stroke-width:10.834;}
	.st9{clip-path:url(#SVGID_00000106844092603577654050000016035327979192541365_);fill:none;stroke:#FFFFFF;stroke-width:14.431;}
	.st10{clip-path:url(#SVGID_00000165230097543495213960000002536147750257384589_);fill:none;stroke:#FFFFFF;stroke-width:14.431;}
	.st11{clip-path:url(#SVGID_00000096040544021933848130000017261601535691640996_);fill:none;stroke:#FFFFFF;stroke-width:10.834;}
	.st12{clip-path:url(#SVGID_00000001643551194085893660000004439438987284035212_);fill:#1C355E;}
	.st13{clip-path:url(#SVGID_00000031176364758987952800000001895924551891917991_);fill:#1C355E;}
	.st14{clip-path:url(#SVGID_00000016042916546755175100000000347735727652748450_);fill:#1C355E;}
	.st15{clip-path:url(#SVGID_00000150786523408121072720000004638585587262095774_);fill:#1C355E;}
	.st16{clip-path:url(#SVGID_00000000917765581635773920000009227322354848082059_);fill:#1C355E;}
	.st17{clip-path:url(#SVGID_00000052075506177048940280000011351299868810024104_);fill:#1C355E;}
	.st18{clip-path:url(#SVGID_00000004534258464005889200000017796805456801638281_);fill:#1C355E;}
	.st19{clip-path:url(#SVGID_00000124158455211005447910000013350986281059451011_);fill:#1C355E;}
	.st20{clip-path:url(#SVGID_00000111168424508784005700000008361816161327724732_);fill:none;stroke:#FFFFFF;stroke-width:10.834;}
	.st21{clip-path:url(#SVGID_00000049182854722269503340000004070303562671492004_);fill:none;stroke:#FFFFFF;stroke-width:10.834;}
	.st22{clip-path:url(#SVGID_00000031206705077167592150000014405816569448687489_);fill:none;stroke:#FFFFFF;stroke-width:10.834;}
	.st23{clip-path:url(#SVGID_00000002360856146014383300000016746301138066901126_);fill:none;stroke:#FFFFFF;stroke-width:10.834;}
	.st24{clip-path:url(#SVGID_00000166639261625739483350000018086773132588472449_);fill:#1C355E;}
	.st25{clip-path:url(#SVGID_00000000196791461243523230000004858166929544498088_);fill:#1C355E;}
	.st26{clip-path:url(#SVGID_00000111193306635547307400000003961938868798790830_);}
	.st27{clip-path:url(#SVGID_00000003089466699962054180000006396076727339856532_);fill:#1C355E;}
	.st28{clip-path:url(#SVGID_00000088816723488317149190000016230936203689139856_);fill:#1C355E;}
	.st29{clip-path:url(#SVGID_00000145044150095073492270000012994614911560023968_);fill:#1C355E;}
	.st30{clip-path:url(#SVGID_00000062902519350897987900000003089454843805935233_);fill:#1C355E;}
</style>
<g>
	<defs>
		<rect id="SVGID_1_" width="550" height="550"/>
	</defs>
	<clipPath id="SVGID_00000161599915950550846550000011973019167934222475_">
		<use xlink:href="#SVGID_1_"  style="overflow:visible;"/>
	</clipPath>
	<g style="clip-path:url(#SVGID_00000161599915950550846550000011973019167934222475_);">
		<g>
			<defs>
				<rect id="SVGID_00000130641943806035827940000010229975657313200277_" x="-30" width="842" height="550"/>
			</defs>
			<clipPath id="SVGID_00000130636148152191179250000004138615558282879919_">
				<use xlink:href="#SVGID_00000130641943806035827940000010229975657313200277_"  style="overflow:visible;"/>
			</clipPath>
			<g style="clip-path:url(#SVGID_00000130636148152191179250000004138615558282879919_);">
				<g>
					<defs>
						<rect id="SVGID_00000121999649063784746600000008784891220747272869_" x="-30" width="842" height="550"/>
					</defs>
					<clipPath id="SVGID_00000009562908613348692470000003410497551659676593_">
						<use xlink:href="#SVGID_00000121999649063784746600000008784891220747272869_"  style="overflow:visible;"/>
					</clipPath>
					<g style="clip-path:url(#SVGID_00000009562908613348692470000003410497551659676593_);">
						<g>
							<g>
								<defs>
									<rect id="SVGID_00000066496232346806574430000001944948673909942409_" x="-39" y="-7" width="860" height="558"/>
								</defs>
								<clipPath id="SVGID_00000140014220442377582130000000682250033987029914_">
									<use xlink:href="#SVGID_00000066496232346806574430000001944948673909942409_"  style="overflow:visible;"/>
								</clipPath>
								<g style="clip-path:url(#SVGID_00000140014220442377582130000000682250033987029914_);">
									<g>
										<defs>
											<rect id="SVGID_00000163766089596446182170000013165443763295414929_" x="-30" width="842" height="550"/>
										</defs>
										<clipPath id="SVGID_00000020372969892740084200000012898336838389326239_">
											<use xlink:href="#SVGID_00000163766089596446182170000013165443763295414929_"  style="overflow:visible;"/>
										</clipPath>
										
											<polyline style="clip-path:url(#SVGID_00000020372969892740084200000012898336838389326239_);fill:none;stroke:#FFFFFF;stroke-width:14.445;" points="
											294.8,-18.8 376.5,188.1 348.5,413.3 545.6,593.4 										"/>
									</g>
									<g>
										<defs>
											<rect id="SVGID_00000005981582674960481510000005084306342034194616_" x="-30" width="842" height="550"/>
										</defs>
										<clipPath id="SVGID_00000065780440046559524760000014079541106499813542_">
											<use xlink:href="#SVGID_00000005981582674960481510000005084306342034194616_"  style="overflow:visible;"/>
										</clipPath>
										
											<line style="clip-path:url(#SVGID_00000065780440046559524760000014079541106499813542_);fill:none;stroke:#FFFFFF;stroke-width:14.445;" x1="214.7" y1="580.7" x2="347.1" y2="413.3"/>
									</g>
									<g>
										<defs>
											<rect id="SVGID_00000167359219442734940250000014808890041499022259_" x="-30" width="842" height="550"/>
										</defs>
										<clipPath id="SVGID_00000079447887656361186040000009004015326031439787_">
											<use xlink:href="#SVGID_00000167359219442734940250000014808890041499022259_"  style="overflow:visible;"/>
										</clipPath>
										
											<path style="clip-path:url(#SVGID_00000079447887656361186040000009004015326031439787_);fill:none;stroke:#FFFFFF;stroke-width:10.834;" d="
											M341,100l-36.2,94.9l-25.2,169.2c0,0-2,23.2-36.2,34.8c-34.1,11.6-197.9,39.6-197.9,39.6l-94.9,13.3"/>
									</g>
									<g>
										<defs>
											<rect id="SVGID_00000124143655252847217550000002123749973781413025_" x="-30" width="842" height="550"/>
										</defs>
										<clipPath id="SVGID_00000124135824156939725730000016611436186832981389_">
											<use xlink:href="#SVGID_00000124143655252847217550000002123749973781413025_"  style="overflow:visible;"/>
										</clipPath>
										
											<path style="clip-path:url(#SVGID_00000124135824156939725730000016611436186832981389_);fill:none;stroke:#FFFFFF;stroke-width:10.834;" d="
											M370.3,260.4l66.2-2.7c0,0,20.5-2.7,29.3,15c8.9,17.7,17.7,36.9,17.7,36.9"/>
									</g>
									<g>
										<defs>
											<rect id="SVGID_00000130628103485230901050000011761740906578209714_" x="-30" width="842" height="550"/>
										</defs>
										<clipPath id="SVGID_00000088109158650057584220000002219221888402512267_">
											<use xlink:href="#SVGID_00000130628103485230901050000011761740906578209714_"  style="overflow:visible;"/>
										</clipPath>
										
											<path style="clip-path:url(#SVGID_00000088109158650057584220000002219221888402512267_);fill:none;stroke:#FFFFFF;stroke-width:10.834;" d="
											M179.2,224.9l15.7-91.4l-12.3-14.3l-86,104.4c0,0-32.8,77.8-43.7,96.2C48,328.1,42,335.2,5.1,339.3s-59.4,10.2-59.4,10.2"
											/>
									</g>
									<g>
										<defs>
											<rect id="SVGID_00000088834940560313756450000007075934450256956545_" x="-30" width="842" height="550"/>
										</defs>
										<clipPath id="SVGID_00000127759912193932352370000009131227620650883755_">
											<use xlink:href="#SVGID_00000088834940560313756450000007075934450256956545_"  style="overflow:visible;"/>
										</clipPath>
										
											<path style="clip-path:url(#SVGID_00000127759912193932352370000009131227620650883755_);fill:none;stroke:#FFFFFF;stroke-width:14.431;" d="
											M292.5,599.5c-0.5-0.6-54.7-61.2-97.8-82.5c-47.4-23.4-189.8,6.6-243.3,17.9c-7.7,1.6-14,2.9-18.5,3.8"/>
									</g>
									<g>
										<defs>
											<rect id="SVGID_00000016060831144221196720000002235685718642896530_" x="-30" width="842" height="550"/>
										</defs>
										<clipPath id="SVGID_00000146480840558819427590000002580448335092595586_">
											<use xlink:href="#SVGID_00000016060831144221196720000002235685718642896530_"  style="overflow:visible;"/>
										</clipPath>
										
											<path style="clip-path:url(#SVGID_00000146480840558819427590000002580448335092595586_);fill:none;stroke:#FFFFFF;stroke-width:14.431;" d="
											M314.1,580.3c-2.4-2.7-58.4-65.5-106.6-89.2c-49.7-24.5-160.4-5.9-262.1,15.5c-7.5,1.6-13.6,2.9-18,3.7"/>
									</g>
									<g>
										<defs>
											<rect id="SVGID_00000148653236034820436020000009023514687846259617_" x="-30" width="842" height="550"/>
										</defs>
										<clipPath id="SVGID_00000008142962859360653250000007478188898891738255_">
											<use xlink:href="#SVGID_00000148653236034820436020000009023514687846259617_"  style="overflow:visible;"/>
										</clipPath>
										
											<line style="clip-path:url(#SVGID_00000008142962859360653250000007478188898891738255_);fill:none;stroke:#FFFFFF;stroke-width:10.834;" x1="40.7" y1="104.8" x2="-60.3" y2="113"/>
									</g>
									<g>
										<defs>
											<rect id="SVGID_00000086671521759322704640000000298750095004550285_" x="-30" width="842" height="550"/>
										</defs>
										<clipPath id="SVGID_00000041295220548089424580000007114359008693151159_">
											<use xlink:href="#SVGID_00000086671521759322704640000000298750095004550285_"  style="overflow:visible;"/>
										</clipPath>
										<path style="clip-path:url(#SVGID_00000041295220548089424580000007114359008693151159_);fill:#1C355E;" d="M351.9,234.6
											l-4.6-0.6c-1.3-0.2-2.1-1.2-1.9-2.4c0.2-1.3,1-2,2.4-1.8l4.6,0.6l0.1-0.9l-4.6-0.6c-1.3-0.2-2.1-1.2-1.9-2.4
											c0.2-1.3,1-2,2.4-1.8l4.6,0.6l0.1-0.9l-4.9-0.6c-1.7-0.2-2.8,0.8-3,2.4c-0.1,1.1,0.2,2.2,1.1,2.8
											c-0.9,0.3-1.5,1.1-1.7,2.2c-0.1,0.9,0.1,1.9,0.9,2.5l-1-0.1l-0.1,0.8l7.5,0.9V234.6z M351.2,240.2l-4.5-0.5
											c-1.3-0.2-2.2-1-2-2.1c0-0.4,0.2-0.8,0.4-1l-0.8-0.3c-0.2,0.3-0.3,0.7-0.4,1.1c-0.1,0.9,0.2,1.7,0.9,2.2l-1-0.1l-0.1,0.8
											l7.5,0.9V240.2z M350.6,246.4c0.2-1.7-0.6-3.1-2.6-3.3l-4.7-0.6l-0.1,0.9l4.6,0.6c1.4,0.2,2.1,1.1,1.9,2.4
											c-0.2,1.2-1,2-2.4,1.8l-4.6-0.6l-0.1,0.9l4.7,0.6C349.2,249.2,350.4,248.1,350.6,246.4 M349.7,253l-10.3-1.3l0.4-3.5
											l-0.9-0.1l-1,7.9l0.9,0.1l0.4-3.5l10.3,1.3L349.7,253z M348.3,264.2l-4.5-0.5c-1.3-0.2-2.2-1-2-2.1c0-0.4,0.2-0.8,0.4-1
											l-0.8-0.3c-0.2,0.3-0.3,0.7-0.4,1.1c-0.1,0.9,0.2,1.7,0.9,2.2l-1-0.1l-0.1,0.8l7.5,0.9V264.2z M343.1,271.9
											c-1.6-0.3-2.5-1.4-2.3-2.7c0.2-1.3,1.3-2,2.9-1.9L343.1,271.9z M347.7,270c0.1-1,0-1.9-0.8-2.9l-0.6,0.4
											c0.5,0.6,0.8,1.4,0.7,2.3c-0.2,1.4-1.3,2.3-3.1,2.2l0.7-5.5c-0.1,0-0.2,0-0.3-0.1c-2.3-0.3-4,0.8-4.2,2.6
											c-0.2,1.9,1.1,3.5,3.5,3.7C345.8,273.2,347.4,272,347.7,270 M345.7,278.4c-0.2,1.5-1.5,2.3-3.3,2.1
											c-1.8-0.2-2.8-1.4-2.7-2.8c0.2-1.4,1.5-2.3,3.3-2.1S345.9,277,345.7,278.4 M349.6,279.1c0.2-1.9-0.7-3.6-3-3.8l-7.1-0.9
											l-0.1,0.8l1.2,0.2c-0.9,0.5-1.5,1.3-1.7,2.4c-0.2,1.8,1.1,3.4,3.4,3.6c2.3,0.3,4-0.9,4.2-2.7c0.1-1.2-0.2-2.1-1-2.8
											l1.1,0.1c1.8,0.2,2.5,1.5,2.3,2.9c-0.1,1-0.6,1.8-1.2,2.3l0.6,0.5C349,281.2,349.5,280.2,349.6,279.1 M345.9,283.8
											l-7.5-0.9l-0.1,0.9l7.5,0.9L345.9,283.8z M336.2,283c0-0.3-0.2-0.6-0.5-0.7c-0.3,0-0.6,0.2-0.7,0.5c0,0.3,0.2,0.6,0.5,0.7
											C335.9,283.6,336.2,283.4,336.2,283 M345.5,286.7l-0.8-0.1l-0.6,4.6l-5.5-5.3l-0.7-0.1l-0.7,5.5l0.8,0.1l0.5-4.4l5.5,5.3
											l0.7,0.1L345.5,286.7z M343.5,297c-0.2,1.5-1.5,2.3-3.3,2.1c-1.8-0.2-2.9-1.4-2.7-2.8c0.2-1.5,1.5-2.3,3.3-2.1
											C342.6,294.4,343.7,295.5,343.5,297 M347,299.9l-4.3-0.5c0.9-0.4,1.6-1.2,1.7-2.4c0.2-1.8-1.2-3.4-3.4-3.7
											c-2.3-0.3-4,0.9-4.2,2.7c-0.1,1.2,0.3,2.1,1.1,2.8l-1.3-0.2l-0.1,0.8l10.5,1.3L347,299.9z M343.5,302.8l-7.5-0.9l-0.1,0.9
											l7.5,0.9L343.5,302.8z M333.9,302.1c0-0.3-0.2-0.6-0.5-0.7c-0.3,0-0.6,0.2-0.7,0.5c0,0.3,0.2,0.6,0.5,0.7
											C333.6,302.6,333.9,302.4,333.9,302.1 M338.3,310.6c-1.6-0.3-2.5-1.4-2.3-2.7c0.2-1.3,1.3-2,2.9-1.9L338.3,310.6z
											 M342.9,308.6c0.1-1,0-1.9-0.8-2.9l-0.6,0.4c0.5,0.6,0.8,1.4,0.7,2.3c-0.2,1.4-1.3,2.3-3.1,2.2l0.7-5.5
											c-0.1,0-0.2,0-0.3-0.1c-2.3-0.3-4,0.8-4.2,2.6c-0.2,1.9,1.1,3.5,3.5,3.7C341,311.8,342.7,310.6,342.9,308.6 M342.3,312.9
											l-0.9-0.1l-0.7,5.6l-10.3-1.3l-0.1,0.9l11.1,1.4L342.3,312.9z M339.5,335.6l-4.6-0.6c-1.3-0.2-2.1-1.2-1.9-2.4
											c0.2-1.3,1-2,2.4-1.8l4.6,0.6l0.1-0.9l-4.6-0.6c-1.3-0.2-2.1-1.2-1.9-2.4c0.2-1.3,1-2,2.4-1.8l4.6,0.6l0.1-0.9l-4.9-0.6
											c-1.7-0.2-2.8,0.8-3,2.4c-0.1,1.1,0.2,2.2,1.1,2.8c-0.9,0.3-1.5,1.1-1.7,2.2c-0.1,0.9,0.1,1.9,0.9,2.5l-1-0.1l-0.1,0.8
											l7.5,0.9V335.6z M328.5,341.3l6.3-1.4l-0.5,4.3L328.5,341.3z M338.2,346.2l-3.1-1.5l0.6-5l3.4-0.8l0.1-1l-11.6,2.7
											l-0.1,1.1l10.6,5.4L338.2,346.2z"/>
									</g>
									<g>
										<defs>
											<rect id="SVGID_00000060012963235658277320000005747728159585708212_" x="-30" width="842" height="550"/>
										</defs>
										<clipPath id="SVGID_00000167357807104462883920000013006433152006440632_">
											<use xlink:href="#SVGID_00000060012963235658277320000005747728159585708212_"  style="overflow:visible;"/>
										</clipPath>
										<path style="clip-path:url(#SVGID_00000167357807104462883920000013006433152006440632_);fill:#1C355E;" d="M380.9,148.3
											l4.3-1.7c1.2-0.5,2.4,0,2.8,1.2c0.5,1.2,0,2.2-1.2,2.7l-4.3,1.8l0.3,0.8l4.3-1.7c1.2-0.5,2.4,0,2.8,1.2
											c0.5,1.2,0,2.2-1.2,2.7l-4.3,1.8l0.3,0.8l4.6-1.8c1.6-0.6,2.1-2,1.5-3.6c-0.4-1-1.2-1.8-2.3-1.9c0.7-0.7,0.8-1.7,0.4-2.8
											c-0.4-0.9-1-1.6-2-1.8l1-0.4l-0.3-0.8l-7,2.8L380.9,148.3z M378.8,143.1l4.2-1.7c1.2-0.5,2.4-0.2,2.8,0.9
											c0.1,0.3,0.2,0.8,0.2,1.1l0.9-0.1c0-0.4,0-0.8-0.2-1.2c-0.3-0.8-1-1.4-1.9-1.5l1-0.4l-0.3-0.8l-7,2.8L378.8,143.1z
											 M376.4,137.4c0.6,1.6,2.1,2.4,3.8,1.6l4.4-1.8l-0.3-0.8l-4.3,1.7c-1.3,0.5-2.3,0-2.8-1.1c-0.5-1.2-0.1-2.2,1.2-2.8
											l4.3-1.7l-0.3-0.8l-4.4,1.8C376.2,134.2,375.7,135.8,376.4,137.4 M374,131.1l9.6-3.9l1.3,3.2l0.8-0.3l-3-7.4l-0.8,0.3
											l1.3,3.2l-9.6,3.9L374,131.1z M369.7,120.7l4.2-1.7c1.2-0.5,2.4-0.2,2.8,0.9c0.1,0.3,0.2,0.7,0.2,1.1l0.9-0.1
											c0-0.4,0-0.8-0.2-1.2c-0.3-0.8-1-1.4-1.9-1.5l1-0.4l-0.3-0.8l-7,2.8L369.7,120.7z M370.5,111.4c1.6-0.5,2.8,0,3.3,1.2
											s-0.2,2.4-1.6,3.1L370.5,111.4z M367.5,115.3c0.4,0.9,1,1.7,2.1,2.1l0.4-0.7c-0.7-0.3-1.4-0.8-1.7-1.7
											c-0.5-1.3,0-2.6,1.6-3.4l2.1,5.1c0.1,0,0.2-0.1,0.3-0.1c2.2-0.9,3.1-2.7,2.4-4.3c-0.7-1.8-2.7-2.5-4.8-1.6
											C367.6,111.6,366.7,113.4,367.5,115.3 M365.1,107c-0.6-1.4,0.2-2.7,1.8-3.4c1.6-0.7,3.1-0.2,3.7,1.2
											c0.5,1.4-0.2,2.8-1.8,3.4C367.2,108.8,365.7,108.3,365.1,107 M361.4,108.3c0.7,1.8,2.4,2.8,4.5,1.9l6.7-2.7l-0.3-0.8
											l-1.2,0.5c0.6-0.8,0.7-1.9,0.3-2.9c-0.7-1.7-2.6-2.4-4.7-1.5c-2.2,0.9-3,2.7-2.4,4.4c0.4,1.1,1.2,1.7,2.2,1.9l-1,0.4
											c-1.7,0.7-2.9-0.1-3.4-1.4c-0.4-0.9-0.3-1.9-0.1-2.6l-0.8-0.1C360.9,106.2,361,107.3,361.4,108.3 M362.4,102.4l7-2.8
											l-0.3-0.8l-7,2.8L362.4,102.4z M371.1,98.4c0.1,0.3,0.5,0.5,0.8,0.3c0.3-0.1,0.5-0.5,0.3-0.8c-0.1-0.3-0.5-0.4-0.8-0.3
											C371.2,97.7,371,98.1,371.1,98.4 M361.3,99.7l0.7-0.3l-1.7-4.3l7.4,2l0.6-0.2l-2.1-5.2l-0.7,0.3l1.7,4.2l-7.4-2l-0.6,0.2
											L361.3,99.7z M358,89.7c-0.5-1.4,0.2-2.8,1.9-3.5c1.7-0.7,3.2-0.2,3.8,1.2c0.6,1.4-0.2,2.8-1.9,3.5
											C360.1,91.5,358.5,91.1,358,89.7 M353.6,88.8l4-1.6c-0.6,0.8-0.8,1.8-0.3,2.9c0.7,1.7,2.7,2.4,4.8,1.5
											c2.1-0.9,3.1-2.7,2.4-4.4c-0.4-1.1-1.3-1.7-2.3-1.9l1.2-0.5l-0.3-0.8l-9.8,4L353.6,88.8z M355.2,84.6l7-2.8l-0.3-0.8
											l-7,2.8L355.2,84.6z M364,80.6c0.1,0.3,0.5,0.5,0.8,0.3c0.3-0.1,0.5-0.5,0.3-0.8c-0.1-0.3-0.5-0.4-0.8-0.3
											C364,80,363.8,80.3,364,80.6 M356,75.3c1.6-0.5,2.8,0,3.3,1.2s-0.2,2.4-1.6,3.1L356,75.3z M352.9,79.2
											c0.4,0.9,1,1.7,2.1,2.1l0.4-0.7c-0.7-0.3-1.4-0.8-1.7-1.7c-0.5-1.3,0-2.6,1.6-3.4l2.1,5.1c0.1,0,0.2-0.1,0.3-0.1
											c2.2-0.9,3.1-2.7,2.4-4.3c-0.7-1.8-2.7-2.5-4.8-1.6C353,75.6,352.1,77.4,352.9,79.2 M351.4,75.2l0.8-0.3l-2.1-5.3l9.6-3.9
											l-0.3-0.9L349,69L351.4,75.2z M342.8,53.9l4.3-1.7c1.2-0.5,2.4,0,2.8,1.2c0.5,1.2,0,2.2-1.2,2.7l-4.3,1.8l0.3,0.8L349,57
											c1.2-0.5,2.4,0,2.8,1.2c0.5,1.2,0,2.2-1.2,2.7l-4.3,1.8l0.3,0.8l4.6-1.8c1.6-0.6,2.1-2,1.5-3.6c-0.4-1-1.2-1.8-2.3-1.9
											c0.7-0.7,0.8-1.7,0.4-2.8c-0.4-0.9-1-1.6-2-1.8l1-0.4l-0.3-0.8l-7,2.8L342.8,53.9z M349.7,43.6l-4.9,4.3l-1.6-4.1
											L349.7,43.6z M338.8,44.1l3.4-0.1l1.9,4.6l-2.6,2.3l0.4,0.9l8.9-8l-0.4-1l-11.9,0.4L338.8,44.1z"/>
									</g>
									<g>
										<defs>
											<rect id="SVGID_00000151525940935421388140000002862349102174066614_" x="-30" width="842" height="550"/>
										</defs>
										<clipPath id="SVGID_00000073720830059526163470000000101320983303089280_">
											<use xlink:href="#SVGID_00000151525940935421388140000002862349102174066614_"  style="overflow:visible;"/>
										</clipPath>
										<path style="clip-path:url(#SVGID_00000073720830059526163470000000101320983303089280_);fill:#1C355E;" d="M708.2,250.9
											c1.3-1,2.7-0.9,3.6,0.1c0.8,1,0.6,2.3-0.5,3.4L708.2,250.9z M706.6,255.6c0.6,0.7,1.5,1.3,2.7,1.3l0.1-0.7
											c-0.8,0-1.6-0.3-2.2-1c-0.9-1.1-0.8-2.5,0.5-3.7l3.6,4.2c0.1-0.1,0.2-0.1,0.3-0.2c1.8-1.5,2-3.5,0.9-4.9
											c-1.3-1.4-3.3-1.5-5.1,0.1C705.5,252.1,705.3,254.1,706.6,255.6 M701.5,249.8c1.1,1.2,2.8,1.4,4.3,0.1
											c1.1-0.9,1.4-2.4,0.8-3.3c0.8,0.5,2.1,0.4,3.1-0.5c1.4-1.2,1.4-3,0.2-4.4c-1.3-1.6-3.1-1.5-4.5-0.3l-6.3,5.5l0.6,0.7
											l6.3-5.5c1.2-1,2.4-0.9,3.3,0.1c0.9,1,0.9,2.2-0.2,3.2c-1.2,1-2.3,0.7-3.1-0.2l-0.3-0.3l-0.6,0.5l0.4,0.4
											c0.9,1,0.9,2.3-0.3,3.3s-2.4,0.9-3.2,0c-0.4-0.4-0.6-0.9-0.6-1.2l-0.7,0.3C700.8,248.7,701.1,249.3,701.5,249.8
											 M696,242.2c-1-1.1-0.7-2.7,0.7-3.9s3-1.2,3.9-0.1c1,1.1,0.7,2.7-0.7,3.9C698.6,243.3,697,243.3,696,242.2 M695.3,242.6
											c0.8,0.9,1.8,1.2,2.8,1l-1,0.9l0.6,0.6l5.7-4.9l-0.6-0.6l-1,0.9c0.3-1,0.1-2-0.6-2.9c-1.2-1.4-3.3-1.4-5.1,0.1
											C694.3,239.1,694.1,241.2,695.3,242.6 M690.6,237.1l3.4-3c1-0.9,2.2-0.9,3-0.1c0.2,0.3,0.4,0.6,0.5,0.9l0.8-0.4
											c-0.1-0.4-0.3-0.7-0.6-1c-0.6-0.7-1.4-1-2.2-0.8l0.8-0.7l-0.6-0.6l-5.7,4.9L690.6,237.1z M687.7,233.9
											c0.5,0.6,1.1,0.9,1.8,1l0.3-0.7c-0.5-0.1-0.9-0.3-1.3-0.7c-0.6-0.7-0.6-1.4,0.3-2.2l3.3-2.9l2,2.3l0.6-0.5l-2-2.3l1.7-1.5
											l-0.6-0.7l-1.7,1.5l-1-1.2l-0.6,0.5l1,1.2l-3.3,2.9C686.9,231.7,686.8,232.9,687.7,233.9 M682.8,228.2
											c1.1,1.3,2.5,1.6,3.5,0.7c0.8-0.7,0.9-1.7,0.1-2.9l-0.4-0.7c-0.6-0.9-0.5-1.6,0-2c0.6-0.5,1.5-0.3,2.2,0.5
											c0.6,0.6,0.8,1.5,0.9,2.1l0.8-0.1c0-0.8-0.4-1.7-1.1-2.5c-1-1.2-2.3-1.4-3.3-0.6c-0.8,0.7-0.9,1.6-0.2,2.9l0.4,0.7
											c0.5,0.9,0.6,1.6,0,2c-0.7,0.6-1.6,0.3-2.3-0.6c-0.7-0.8-0.9-1.5-0.9-2.2l-0.8,0.1C681.7,226.5,682.1,227.4,682.8,228.2
											 M676.6,220.9l3.5-3c1-0.9,2.3-0.7,3.1,0.2c0.9,1,0.8,2.1-0.3,3l-3.5,3.1l0.6,0.7l3.7-3.2c1.3-1.1,1.3-2.6,0.3-3.8
											c-0.6-0.7-1.5-1.2-2.5-1l0.9-0.8l-0.6-0.6l-5.7,4.9L676.6,220.9z M674.4,218.4l5.7-4.9l-0.6-0.7l-5.7,4.9L674.4,218.4z
											 M681.4,211.8c0.2,0.3,0.6,0.3,0.8,0.1c0.3-0.2,0.3-0.6,0.1-0.8s-0.6-0.3-0.8-0.1C681.2,211.2,681.2,211.5,681.4,211.8
											 M671.5,215.3c0.5,0.6,1.1,0.9,1.8,1l0.3-0.7c-0.5-0.1-0.9-0.3-1.3-0.7c-0.6-0.7-0.6-1.4,0.3-2.2l3.3-2.9l2,2.3l0.6-0.5
											l-2-2.3l1.7-1.5l-0.6-0.7l-1.7,1.5l-1-1.2l-0.6,0.5l1,1.2L672,212C670.7,213.1,670.6,214.2,671.5,215.3 M666.5,209.3
											l3.4-3c1-0.9,2.2-0.9,3-0.1c0.2,0.3,0.4,0.6,0.5,0.9l0.8-0.4c-0.1-0.4-0.3-0.7-0.6-1c-0.6-0.7-1.4-1-2.2-0.8l0.8-0.7
											l-0.6-0.6l-5.7,4.9L666.5,209.3z M662.7,203.8c-1-1.1-0.7-2.7,0.7-3.9s3-1.2,3.9-0.1c1,1.1,0.7,2.7-0.7,3.9
											S663.6,204.9,662.7,203.8 M661.9,204.2c0.8,0.9,1.8,1.2,2.8,1l-1,0.9l0.6,0.6l5.7-4.9l-0.6-0.6l-1,0.9
											c0.3-1,0.1-2-0.6-2.9c-1.2-1.4-3.3-1.4-5.1,0.1C661,200.8,660.7,202.8,661.9,204.2 M652.5,193.2l7.5-6.5l-3.5,7.9l0.6,0.7
											l8.3-2.4l-7.5,6.5l0.6,0.7l8.5-7.4l-0.9-1l-8.4,2.4l3.5-8l-0.9-1l-8.5,7.4L652.5,193.2z"/>
									</g>
									<g>
										<defs>
											<rect id="SVGID_00000030473240241126791190000016445077008036406205_" x="-30" width="842" height="550"/>
										</defs>
										<clipPath id="SVGID_00000097495508173670422800000010625524801584619959_">
											<use xlink:href="#SVGID_00000030473240241126791190000016445077008036406205_"  style="overflow:visible;"/>
										</clipPath>
										<path style="clip-path:url(#SVGID_00000097495508173670422800000010625524801584619959_);fill:#1C355E;" d="M445.8,242.2
											c0.4,0,0.7-0.3,0.6-0.7c0-0.4-0.3-0.7-0.7-0.6c-0.4,0-0.7,0.3-0.6,0.7C445.1,241.9,445.4,242.2,445.8,242.2 M439.1,242.4
											c2.8-0.1,4.6-2.4,4.4-5.8c0-0.1,0-0.2,0-0.4l-4.2,0.1v0.8l3.3-0.1c0,2.7-1.3,4.3-3.5,4.4c-2.2,0.1-4-1.6-4.1-4.7
											c-0.1-3,1.5-4.9,3.8-4.9c1.3,0,2.4,0.5,3.1,1.6l0.7-0.6c-0.9-1.3-2.3-2-3.9-1.9c-2.8,0.1-4.8,2.4-4.7,5.9
											C434.1,240.5,436.4,242.5,439.1,242.4 M423.3,238.6c0.1-1.6,1-2.7,2.3-2.7s2.2,1,2.3,2.6L423.3,238.6z M426,242.9
											c1,0,1.9-0.3,2.7-1.3l-0.5-0.6c-0.5,0.6-1.2,1-2.2,1.1c-1.4,0-2.5-0.9-2.6-2.7l5.5-0.2c0-0.1,0-0.2,0-0.3
											c-0.1-2.4-1.4-3.8-3.3-3.7s-3.2,1.6-3.2,4C422.6,241.5,424,242.9,426,242.9 M421.3,242.9v-0.8l-4.6,0.2l4.4-6.2v-0.7
											l-5.6,0.2v0.8l4.5-0.2l-4.4,6.2v0.7L421.3,242.9z M411.2,243.3l-0.2-4.5c0-1.3,0.7-2.3,1.8-2.3c0.4,0,0.8,0.1,1.1,0.2
											l0.2-0.8c-0.3-0.2-0.7-0.2-1.2-0.2c-0.9,0-1.6,0.5-2,1.2v-1.1h-0.8l0.3,7.5L411.2,243.3z M405,243.6
											c1.7-0.1,2.9-1.1,2.9-3l-0.2-4.7h-0.9l0.2,4.6c0,1.4-0.8,2.2-2,2.3c-1.3,0-2.1-0.7-2.2-2.1l-0.2-4.6h-0.9l0.2,4.7
											C402,242.7,403.3,243.7,405,243.6 M394.2,243.9l-0.2-5.2h1.2l4.7,5h1.2l-5.2-5.5l4.5-5.7h-1.1l-4.1,5.3h-1.3l-0.2-5.1
											h-0.9l0.4,11.2H394.2z"/>
									</g>
									<g>
										<defs>
											<rect id="SVGID_00000171711918911163879470000016598111929841505444_" x="-30" width="842" height="550"/>
										</defs>
										<clipPath id="SVGID_00000008115210504561160760000015019698646780849046_">
											<use xlink:href="#SVGID_00000171711918911163879470000016598111929841505444_"  style="overflow:visible;"/>
										</clipPath>
										<path style="clip-path:url(#SVGID_00000008115210504561160760000015019698646780849046_);fill:#1C355E;" d="M722.1,97.6
											c-0.6-1.5-0.2-2.8,1-3.4c1.1-0.6,2.4,0,3.2,1.4L722.1,97.6z M726.2,100.4c0.9-0.4,1.6-1.1,2-2.3l-0.7-0.3
											c-0.2,0.8-0.7,1.4-1.5,1.8c-1.3,0.6-2.6,0.2-3.5-1.4l5-2.4c0-0.1-0.1-0.2-0.1-0.3c-1-2.1-2.9-2.9-4.5-2.1
											c-1.7,0.8-2.3,2.8-1.3,4.9C722.5,100.5,724.4,101.3,726.2,100.4 M719.3,103.8c1.5-0.7,2.1-2.3,1.2-4.1
											c-0.6-1.3-1.9-2-3-1.7c0.7-0.7,0.9-1.9,0.3-3.2c-0.8-1.6-2.5-2.1-4.2-1.3c-1.8,0.9-2.2,2.6-1.4,4.3l3.7,7.5l0.8-0.4
											l-3.7-7.5c-0.7-1.4-0.3-2.6,1-3.2c1.2-0.6,2.4-0.3,3.1,1.1c0.7,1.4,0.1,2.5-1,3l-0.4,0.2l0.3,0.7l0.5-0.2
											c1.2-0.6,2.5-0.2,3.1,1.1c0.7,1.4,0.2,2.5-0.9,3.1c-0.5,0.3-1,0.3-1.4,0.3l0.1,0.8C718.1,104.2,718.6,104.1,719.3,103.8
											 M710.5,107.1c-1.3,0.6-2.8,0-3.6-1.6s-0.4-3.2,0.9-3.8c1.3-0.6,2.8,0,3.6,1.6C712.2,105,711.8,106.5,710.5,107.1
											 M710.7,108c1.1-0.5,1.6-1.4,1.7-2.4l0.6,1.2l0.8-0.4l-3.3-6.8l-0.8,0.4l0.6,1.2c-0.9-0.5-1.9-0.6-3-0.1
											c-1.7,0.8-2.2,2.8-1.2,4.9C707.1,108,709,108.8,710.7,108 M704.2,111l-2-4c-0.6-1.2-0.3-2.4,0.7-2.9
											c0.3-0.2,0.7-0.3,1.1-0.3l-0.2-0.9c-0.4,0-0.8,0.1-1.1,0.3c-0.8,0.4-1.3,1.1-1.3,2l-0.5-0.9l-0.8,0.4l3.3,6.8L704.2,111z
											 M700.4,113c0.7-0.3,1.2-0.9,1.4-1.4l-0.6-0.4c-0.2,0.4-0.6,0.8-1.1,1.1c-0.8,0.4-1.5,0.2-2-0.8l-1.9-3.9l2.7-1.3
											l-0.4-0.7l-2.7,1.3l-1-2.1L694,105l1,2.1l-1.4,0.7l0.4,0.7l1.4-0.7l1.9,4C698,113.3,699.1,113.6,700.4,113 M693.6,116.3
											c1.5-0.7,2.2-2,1.6-3.2c-0.5-1-1.4-1.3-2.8-0.9l-0.8,0.2c-1,0.3-1.6,0.1-1.9-0.5c-0.4-0.7,0.1-1.5,1-2
											c0.8-0.4,1.6-0.4,2.2-0.3l0.1-0.8c-0.8-0.2-1.7-0.1-2.7,0.4c-1.4,0.7-2,1.9-1.4,3.1c0.4,0.9,1.3,1.3,2.8,0.9l0.8-0.2
											c1-0.3,1.7-0.1,2,0.5c0.4,0.8-0.1,1.6-1.2,2.1c-0.9,0.5-1.7,0.5-2.4,0.3l-0.1,0.8C691.6,116.9,692.6,116.8,693.6,116.3
											 M688.6,118.7c0.7-0.3,1.2-0.9,1.4-1.4l-0.6-0.4c-0.2,0.4-0.6,0.8-1.1,1.1c-0.8,0.4-1.5,0.2-2-0.8l-1.9-3.9l2.7-1.3
											l-0.4-0.7l-2.7,1.3l-1-2.1l-0.8,0.4l1,2.1l-1.4,0.7l0.3,0.7l1.4-0.7l1.9,4C686.2,119,687.4,119.3,688.6,118.7
											 M681.8,122.1c1.5-0.7,2.2-2,1.6-3.2c-0.5-1-1.4-1.3-2.8-0.9l-0.8,0.2c-1,0.3-1.6,0.1-1.9-0.5c-0.4-0.7,0.1-1.5,1-2
											c0.8-0.4,1.6-0.4,2.2-0.3l0.1-0.8c-0.8-0.2-1.7-0.1-2.7,0.4c-1.4,0.7-2,1.9-1.4,3.1c0.4,0.9,1.3,1.3,2.8,0.9l0.8-0.2
											c1-0.3,1.7-0.1,2,0.5c0.4,0.8-0.1,1.6-1.2,2.1c-0.9,0.5-1.7,0.5-2.4,0.3l-0.1,0.8C679.8,122.7,680.8,122.5,681.8,122.1
											 M675.1,125.3c1.5-0.7,2.2-2.2,1.4-3.9l-2.1-4.2l-0.8,0.4l2,4.2c0.6,1.3,0.2,2.3-0.9,2.9c-1.1,0.6-2.2,0.2-2.9-1l-2-4.2
											l-0.8,0.4l2.1,4.2C672,125.7,673.6,126.1,675.1,125.3 M666.9,128.3c-1.3,0.6-2.8,0-3.5-1.6c-0.8-1.6-0.4-3.1,0.9-3.8
											c1.3-0.6,2.8,0,3.5,1.6C668.6,126.1,668.2,127.6,666.9,128.3 M668.5,131.9c1.7-0.8,2.6-2.6,1.6-4.6l-3.2-6.5l-0.8,0.4
											l0.5,1.1c-0.9-0.5-1.9-0.6-2.9-0.1c-1.6,0.8-2.2,2.7-1.2,4.8s2.9,2.8,4.5,2c1-0.5,1.6-1.4,1.8-2.4l0.5,1
											c0.8,1.6,0.1,2.9-1.2,3.5c-0.9,0.4-1.8,0.5-2.5,0.2l-0.1,0.8C666.4,132.5,667.5,132.4,668.5,131.9 M660,132.7
											c1.5-0.7,2.2-2.2,1.4-3.9l-2.1-4.2l-0.8,0.4l2,4.2c0.6,1.3,0.2,2.3-0.9,2.9c-1.1,0.6-2.2,0.2-2.9-1l-2-4.2l-0.8,0.4
											l2.1,4.2C656.9,133.1,658.5,133.4,660,132.7 M647.4,127.3l4.7,4.5l-3.9,1.9L647.4,127.3z M648.6,138.1l-0.4-3.4l4.5-2.2
											l2.5,2.4l0.9-0.4l-8.6-8.3l-1,0.5l1.3,11.9L648.6,138.1z"/>
									</g>
									<g>
										<defs>
											<rect id="SVGID_00000147212446122519830530000016299244764866958777_" x="-30" width="842" height="550"/>
										</defs>
										<clipPath id="SVGID_00000153705293634811929520000005782370695698155162_">
											<use xlink:href="#SVGID_00000147212446122519830530000016299244764866958777_"  style="overflow:visible;"/>
										</clipPath>
										<path style="clip-path:url(#SVGID_00000153705293634811929520000005782370695698155162_);fill:#1C355E;" d="M494,521.8
											l3-3.3c0.9-1,2.1-1.2,2.9-0.4c0.3,0.2,0.5,0.6,0.6,0.9l0.7-0.5c-0.1-0.3-0.4-0.7-0.7-1c-0.7-0.6-1.5-0.8-2.3-0.5l0.7-0.8
											l-0.6-0.6l-5.1,5.6L494,521.8z M490.7,513.1c1.2-1.1,2.6-1.2,3.5-0.3s0.9,2.2-0.1,3.5L490.7,513.1z M489.6,517.9
											c0.7,0.7,1.6,1.1,2.8,1v-0.8c-0.8,0.1-1.6-0.1-2.3-0.8c-1-1-1.1-2.4,0-3.8l4.1,3.7c0.1-0.1,0.2-0.1,0.2-0.2
											c1.6-1.7,1.6-3.7,0.3-5c-1.4-1.3-3.5-1.1-5.1,0.6C488.2,514.6,488.1,516.6,489.6,517.9 M483.6,512.4
											c1.2,1.1,2.9,1.3,4.2-0.2l3.2-3.5l-0.6-0.6l-3.1,3.4c-1,1.1-2.1,1-3,0.2s-1-2-0.1-3l3.1-3.4l-0.6-0.6l-3.2,3.5
											C482.1,509.7,482.3,511.3,483.6,512.4 M477.8,506c-1.1-1-1-2.6,0.2-3.9s2.8-1.6,3.9-0.6s1,2.6-0.2,3.9
											C480.4,506.7,478.8,507,477.8,506 M477.1,506.5c0.9,0.8,1.9,1,2.9,0.7l-0.9,1l0.6,0.6l5.1-5.6l-0.6-0.6l-0.9,1
											c0.2-1-0.1-2-1-2.8c-1.4-1.3-3.4-1-5,0.7C475.8,503.1,475.7,505.2,477.1,506.5 M465.9,496.1l3.1-3.4c0.9-1,2.2-1,3.1-0.2
											c1,0.9,1,2,0.1,3l-3.2,3.4l0.6,0.6l3.1-3.4c0.9-1,2.2-1,3.1-0.2c1,0.9,1,2,0.1,3l-3.2,3.4l0.6,0.6l3.3-3.6
											c1.1-1.3,1-2.8-0.2-3.9c-0.8-0.7-1.9-1.1-2.9-0.8c0.3-0.9,0-1.9-0.9-2.7c-0.7-0.6-1.6-1-2.6-0.8l0.7-0.8l-0.6-0.6
											l-5.1,5.6L465.9,496.1z M461.7,492.4c1.2,1.1,2.7,1.3,3.6,0.3c0.8-0.8,0.7-1.8-0.2-2.9l-0.5-0.7c-0.7-0.9-0.7-1.5-0.3-2
											c0.6-0.6,1.4-0.5,2.2,0.2c0.6,0.6,1,1.4,1.1,1.9l0.7-0.2c-0.1-0.8-0.6-1.6-1.3-2.3c-1.1-1-2.5-1.2-3.4-0.2
											c-0.7,0.8-0.8,1.7,0.2,2.9l0.5,0.7c0.6,0.9,0.7,1.5,0.3,2c-0.6,0.7-1.5,0.5-2.4-0.3c-0.8-0.7-1.1-1.4-1.1-2.1l-0.7,0.2
											C460.5,490.8,461,491.7,461.7,492.4 M456.3,487.4c1.2,1.1,2.9,1.3,4.2-0.2l3.2-3.5l-0.6-0.6l-3.1,3.4c-1,1-2.1,1-3,0.2
											s-1-2-0.1-3l3.1-3.4l-0.6-0.6l-3.2,3.5C454.8,484.6,455,486.2,456.3,487.4 M450.4,480.9c-1.1-1-1-2.6,0.2-3.9
											s2.8-1.6,3.9-0.6s1,2.6-0.2,3.9C453.1,481.7,451.5,481.9,450.4,480.9 M449.8,481.4c0.9,0.8,1.9,1,2.9,0.7l-0.9,1l0.6,0.6
											l5.1-5.6l-0.6-0.6l-0.9,1c0.2-1-0.1-2-1-2.8c-1.4-1.3-3.4-1-5,0.7C448.4,478.1,448.4,480.2,449.8,481.4 M442.3,474.5
											l3.1-3.4c0.9-1,2.2-1,3.1-0.2c1,0.9,1,2,0.1,3l-3.2,3.4l0.6,0.6l3.3-3.6c1.1-1.3,1-2.8-0.2-3.9c-0.7-0.6-1.6-1-2.6-0.7
											l3.4-3.7l-0.6-0.6l-7.8,8.5L442.3,474.5z M436.2,468.9l3.1-3.4c0.9-1,2.2-1,3.1-0.2c1,0.9,1,2,0.1,3l-3.2,3.4l0.6,0.6
											l3.3-3.6c1.1-1.3,1-2.8-0.2-3.8c-0.7-0.7-1.7-1-2.6-0.7l0.8-0.8l-0.6-0.6l-5.1,5.6L436.2,468.9z M432.9,460.1
											c1.2-1.1,2.6-1.2,3.5-0.3c0.9,0.9,0.9,2.2-0.1,3.5L432.9,460.1z M431.8,465c0.7,0.7,1.6,1.1,2.8,1v-0.8
											c-0.8,0.1-1.6-0.1-2.3-0.8c-1-1-1.1-2.4,0-3.8l4.1,3.7c0.1-0.1,0.2-0.1,0.2-0.2c1.6-1.7,1.6-3.7,0.3-5
											c-1.4-1.3-3.5-1.1-5.1,0.6C430.3,461.6,430.3,463.6,431.8,465 M426.3,459.9c1.2,1.1,2.7,1.3,3.6,0.3
											c0.8-0.8,0.7-1.8-0.2-2.9l-0.5-0.7c-0.7-0.9-0.7-1.5-0.3-2c0.6-0.6,1.4-0.5,2.2,0.2c0.6,0.6,1,1.4,1.1,1.9l0.7-0.2
											c-0.1-0.8-0.6-1.6-1.3-2.3c-1.1-1-2.5-1.2-3.4-0.2c-0.7,0.8-0.8,1.7,0.2,2.9l0.5,0.7c0.6,0.9,0.7,1.5,0.3,2
											c-0.6,0.7-1.5,0.5-2.4-0.3c-0.8-0.7-1.1-1.4-1.1-2.1l-0.7,0.2C425,458.3,425.5,459.2,426.3,459.9 M423,456.8l5.1-5.6
											l-0.6-0.6l-5.1,5.6L423,456.8z M429.2,449.3c0.2,0.2,0.6,0.2,0.8,0c0.2-0.2,0.2-0.6,0-0.8c-0.2-0.2-0.6-0.2-0.8,0
											C428.9,448.8,429,449.1,429.2,449.3 M418.6,451.8c-1.1-1-1-2.6,0.2-3.9s2.8-1.6,3.9-0.6s1,2.6-0.2,3.9
											C421.3,452.5,419.7,452.7,418.6,451.8 M417.9,452.3c0.9,0.8,1.9,1,2.9,0.7l-0.9,1l0.6,0.6l5.1-5.6l-0.6-0.6l-0.9,1
											c0.2-1-0.1-2-1-2.8c-1.4-1.3-3.4-1-5,0.7C416.6,448.9,416.6,451,417.9,452.3 M407.8,442.8l8.8-5.3l-4.5,9.2l0.8,0.8l10-6
											l-0.7-0.6l-9,5.5l4.7-9.4l-0.7-0.7l-9,5.5l4.7-9.4l-0.7-0.7l-5.1,10.5L407.8,442.8z M399.2,435l3-3.3
											c0.9-1,2.1-1.2,2.9-0.4c0.3,0.2,0.5,0.6,0.6,0.9l0.7-0.5c-0.1-0.3-0.4-0.7-0.7-1c-0.7-0.6-1.5-0.8-2.3-0.5l0.7-0.8
											l-0.6-0.6l-5.1,5.6L399.2,435z M396,426.3c1.2-1.1,2.6-1.2,3.5-0.3c0.9,0.9,0.9,2.2-0.1,3.5L396,426.3z M394.9,431.1
											c0.7,0.7,1.6,1.1,2.8,1v-0.8c-0.8,0.1-1.6-0.1-2.3-0.8c-1-1-1.1-2.4,0-3.8l4.1,3.7c0.1-0.1,0.2-0.1,0.2-0.2
											c1.6-1.7,1.6-3.7,0.3-5c-1.4-1.3-3.5-1.1-5.1,0.6C393.4,427.7,393.4,429.8,394.9,431.1 M389.1,424.7c-1.1-1-1-2.6,0.2-3.9
											s2.8-1.6,3.9-0.6s1,2.6-0.2,3.9C391.7,425.5,390.1,425.7,389.1,424.7 M388.4,425.2c0.9,0.8,1.9,1,2.8,0.8l-0.8,0.9
											l0.6,0.6l7.8-8.5l-0.6-0.6l-3.5,3.8c0.1-1-0.2-2-1-2.7c-1.4-1.3-3.4-1-5,0.7C387.1,421.9,387,423.9,388.4,425.2
											 M378.3,415.8l3.1-3.4c0.9-1,2.2-1,3.1-0.2c1,0.9,1,2,0.1,3l-3.2,3.4l0.6,0.6l3.3-3.6c1.1-1.2,1-2.8-0.2-3.8
											c-0.7-0.7-1.7-1-2.6-0.7l0.8-0.8l-0.6-0.6l-5.1,5.6L378.3,415.8z M380.1,403.5l-2.5,6l-3.2-3L380.1,403.5z M370.5,408.6
											l3-1.6l3.7,3.4l-1.3,3.2l0.7,0.7l4.6-11l-0.8-0.8l-10.6,5.5L370.5,408.6z"/>
									</g>
									<g>
										<defs>
											<rect id="SVGID_00000002349186559007415490000006008237548245093297_" x="-30" width="842" height="550"/>
										</defs>
										<clipPath id="SVGID_00000059997716132515228890000004208699976375297679_">
											<use xlink:href="#SVGID_00000002349186559007415490000006008237548245093297_"  style="overflow:visible;"/>
										</clipPath>
										<path style="clip-path:url(#SVGID_00000059997716132515228890000004208699976375297679_);fill:#1C355E;" d="M287,200.9
											c-0.2,1.5-1.5,2.3-3.3,2c-1.8-0.2-2.8-1.4-2.6-2.9c0.2-1.4,1.5-2.3,3.3-2C286.1,198.3,287.2,199.5,287,200.9 M290.9,201.6
											c0.3-1.9-0.7-3.6-3-3.9l-7.1-1l-0.1,0.8l1.2,0.2c-0.9,0.4-1.6,1.3-1.7,2.4c-0.3,1.8,1,3.4,3.3,3.7s4-0.8,4.2-2.6
											c0.2-1.2-0.2-2.1-1-2.8l1.1,0.1c1.8,0.2,2.5,1.5,2.3,3c-0.1,1-0.6,1.8-1.2,2.2l0.6,0.5
											C290.2,203.7,290.7,202.7,290.9,201.6 M286.4,211.2l-4.6-0.6c-1.3-0.2-2-1.2-1.9-2.4c0.2-1.3,1.1-2,2.4-1.8l4.6,0.6
											l0.1-0.9l-4.9-0.7c-1.7-0.2-2.9,0.7-3.1,2.3c-0.1,1,0.1,1.9,0.9,2.6l-1.1-0.2l-0.1,0.8l7.5,1L286.4,211.2z M285.9,214.5
											l-7.5-1l-0.1,0.9l7.5,1L285.9,214.5z M276.3,213.6c0-0.3-0.2-0.6-0.5-0.7c-0.3,0-0.6,0.2-0.7,0.5c0,0.3,0.2,0.6,0.5,0.7
											C276,214.1,276.3,213.9,276.3,213.6 M285.1,220.1l-4.5-0.6c-1.3-0.2-2.2-1.1-2-2.2c0.1-0.4,0.2-0.8,0.4-1l-0.8-0.4
											c-0.2,0.3-0.3,0.7-0.4,1.1c-0.1,0.9,0.2,1.7,0.9,2.2l-1-0.1l-0.1,0.8l7.5,1V220.1z M284.5,225.6c0.2-1.7-0.4-2.9-1.8-3.1
											c-1.1-0.2-1.9,0.5-2.3,1.8l-0.3,0.8c-0.3,1-0.8,1.4-1.5,1.3c-0.8-0.1-1.2-0.9-1.1-1.9c0.1-0.8,0.5-1.6,1-2L278,222
											c-0.6,0.5-1,1.4-1.2,2.4c-0.2,1.5,0.4,2.7,1.7,2.9c1,0.1,1.8-0.4,2.3-1.8l0.3-0.8c0.3-1,0.8-1.5,1.5-1.4
											c0.9,0.1,1.2,1,1.1,2.2c-0.1,1-0.6,1.7-1.1,2.1l0.6,0.5C283.9,227.5,284.3,226.6,284.5,225.6 M283.4,232.9
											c0.2-1.7-0.6-3.1-2.5-3.3l-4.6-0.7l-0.1,0.9l4.6,0.6c1.4,0.2,2,1.2,1.9,2.4c-0.2,1.2-1,2-2.5,1.8l-4.6-0.6l-0.1,0.9
											l4.7,0.7C282,235.8,283.2,234.6,283.4,232.9 M281.4,241.4c-0.2,1.5-1.6,2.3-3.4,2s-2.9-1.4-2.7-2.9c0.2-1.5,1.5-2.3,3.4-2
											C280.6,238.8,281.6,239.9,281.4,241.4 M282.2,241.7c0.2-1.2-0.3-2.1-1.1-2.8l1.3,0.2l0.1-0.8l-7.5-1v0.7l1.3,0.2
											c-0.9,0.4-1.6,1.2-1.8,2.4c-0.3,1.9,1.1,3.4,3.4,3.7C280.2,244.6,282,243.5,282.2,241.7 M280.7,251.7l-4.6-0.6
											c-1.3-0.2-2-1.2-1.9-2.4c0.2-1.3,1.1-1.9,2.4-1.8l4.6,0.7l0.1-0.9l-4.9-0.7c-1.7-0.2-2.9,0.7-3.1,2.3
											c-0.1,0.9,0.1,1.9,0.9,2.5l-5-0.7l-0.1,0.9l11.4,1.6L280.7,251.7z M279.5,260l-4.6-0.6c-1.3-0.2-2-1.2-1.9-2.4
											c0.2-1.3,1.1-2,2.4-1.8l4.6,0.6l0.1-0.9l-4.9-0.7c-1.7-0.2-2.9,0.7-3.1,2.3c-0.1,1,0.1,1.9,0.9,2.6l-1.1-0.2l-0.1,0.8
											l7.5,1L279.5,260z M274.2,267.6c-1.6-0.4-2.5-1.4-2.3-2.7c0.2-1.3,1.3-2,2.9-1.9L274.2,267.6z M278.8,265.8
											c0.1-1,0-1.9-0.8-2.9l-0.6,0.4c0.5,0.6,0.8,1.4,0.7,2.3c-0.2,1.4-1.3,2.3-3.1,2.1l0.8-5.5c-0.1,0-0.2,0-0.3-0.1
											c-2.3-0.3-4,0.8-4.3,2.6c-0.3,1.9,1.1,3.5,3.4,3.8C276.9,268.9,278.6,267.8,278.8,265.8 M277.8,273.2
											c0.2-1.7-0.4-2.9-1.8-3.1c-1.1-0.2-1.9,0.5-2.3,1.8l-0.3,0.8c-0.3,1-0.8,1.4-1.5,1.3c-0.8-0.1-1.2-0.9-1.1-1.9
											c0.1-0.8,0.5-1.6,1-2l-0.6-0.5c-0.6,0.5-1,1.4-1.2,2.4c-0.2,1.5,0.4,2.7,1.7,2.9c1,0.1,1.8-0.4,2.3-1.8l0.3-0.8
											c0.3-1,0.8-1.5,1.5-1.4c0.9,0.1,1.2,1,1.1,2.2c-0.1,1-0.6,1.7-1.1,2.1l0.6,0.5C277.2,275.2,277.6,274.3,277.8,273.2
											 M277,277.7l-7.5-1l-0.1,0.9l7.5,1L277,277.7z M267.4,276.8c0-0.3-0.2-0.6-0.5-0.7c-0.3,0-0.6,0.2-0.7,0.5
											c0,0.3,0.2,0.6,0.5,0.7C267.1,277.3,267.4,277.1,267.4,276.8 M275.4,284.2c-0.2,1.5-1.6,2.3-3.4,2s-2.9-1.4-2.7-2.9
											c0.2-1.5,1.5-2.3,3.4-2C274.6,281.5,275.6,282.7,275.4,284.2 M276.2,284.4c0.2-1.2-0.3-2.1-1.1-2.8l1.3,0.2l0.1-0.8
											l-7.5-1l-0.1,0.8l1.3,0.2c-0.9,0.4-1.6,1.2-1.8,2.4c-0.3,1.9,1.1,3.4,3.4,3.7C274.2,287.4,276,286.3,276.2,284.4
											 M274.2,298.1l-9.3-4.2l10.2-1.5l0.2-1.1l-10.6-4.8l-0.1,0.9l9.6,4.3l-10.4,1.5l-0.1,1l9.6,4.3l-10.4,1.5l-0.1,1l11.5-1.7
											L274.2,298.1z"/>
									</g>
									<g>
										<defs>
											<rect id="SVGID_00000132782331448760387800000002490646270374457507_" x="-30" width="842" height="550"/>
										</defs>
										<clipPath id="SVGID_00000097496357401072264910000011828573597898670527_">
											<use xlink:href="#SVGID_00000132782331448760387800000002490646270374457507_"  style="overflow:visible;"/>
										</clipPath>
										<path style="clip-path:url(#SVGID_00000097496357401072264910000011828573597898670527_);fill:#1C355E;" d="M164.3,108
											c-1.2-1.1-1.4-2.5-0.5-3.5c0.8-1,2.2-1,3.5-0.1L164.3,108z M169.2,108.9c0.6-0.8,1-1.7,0.8-2.9h-0.8
											c0.1,0.8,0,1.6-0.6,2.3c-0.9,1.1-2.3,1.2-3.8,0.2l3.5-4.3c-0.1-0.1-0.2-0.2-0.2-0.2c-1.8-1.5-3.8-1.4-5,0
											c-1.2,1.5-0.9,3.5,0.9,5C166,110.5,168,110.4,169.2,108.9 M164.4,114.8c1-1.3,0.9-3-0.6-4.2c-1.1-0.9-2.6-1-3.4-0.3
											c0.4-0.9,0.1-2.1-1-3c-1.4-1.1-3.2-0.9-4.3,0.5c-1.3,1.6-1,3.3,0.5,4.5l6.5,5.3l0.6-0.7l-6.5-5.3c-1.2-1-1.3-2.2-0.4-3.3
											c0.8-1,2.1-1.3,3.2-0.3c1.2,1,1.1,2.2,0.4,3.1l-0.3,0.3l0.6,0.5l0.4-0.4c0.9-1.1,2.2-1.2,3.3-0.3c1.2,1,1.3,2.2,0.5,3.2
											c-0.4,0.4-0.8,0.7-1.1,0.8l0.4,0.6C163.5,115.7,163.9,115.4,164.4,114.8 M157.8,121.5c-0.9,1.1-2.5,1.1-3.9,0
											c-1.4-1.2-1.7-2.7-0.8-3.9c0.9-1.1,2.5-1.2,3.9,0C158.4,118.8,158.7,120.4,157.8,121.5 M158.3,122.2
											c0.8-0.9,0.9-1.9,0.6-2.9l1,0.8l0.5-0.7l-5.8-4.8l-0.5,0.7l1,0.8c-1-0.1-2,0.2-2.7,1.1c-1.2,1.4-0.9,3.5,0.9,5
											C155,123.7,157.1,123.6,158.3,122.2 M153.6,127.7l-3.5-2.9c-1-0.9-1.3-2-0.6-2.9c0.2-0.3,0.6-0.5,0.9-0.7l-0.5-0.7
											c-0.3,0.1-0.7,0.4-0.9,0.7c-0.6,0.7-0.7,1.5-0.4,2.3l-0.8-0.7l-0.5,0.7l5.8,4.8L153.6,127.7z M151,131
											c0.5-0.6,0.7-1.3,0.7-1.9l-0.8-0.1c0,0.5-0.2,1-0.5,1.4c-0.6,0.7-1.3,0.8-2.2,0.1l-3.4-2.8l1.9-2.3l-0.6-0.5l-1.9,2.3
											l-1.8-1.5l-0.6,0.7l1.8,1.5l-1,1.2l0.6,0.5l1-1.2l3.4,2.8C149,132.2,150.1,132.1,151,131 M146.2,136.9
											c1.1-1.3,1.2-2.7,0.1-3.6c-0.9-0.7-1.8-0.6-2.9,0.3l-0.6,0.5c-0.8,0.7-1.4,0.8-2,0.4c-0.6-0.5-0.6-1.4,0.1-2.2
											c0.5-0.7,1.3-1.1,1.9-1.2l-0.2-0.7c-0.8,0.2-1.6,0.6-2.3,1.4c-1,1.2-1,2.5,0,3.4c0.8,0.7,1.8,0.7,2.9-0.3l0.6-0.5
											c0.8-0.7,1.5-0.8,2-0.4c0.7,0.6,0.5,1.5-0.2,2.4c-0.7,0.8-1.4,1.1-2.1,1.2l0.2,0.7C144.6,138.2,145.5,137.7,146.2,136.9
											 M141.9,142.1c1.1-1.3,1.2-2.7,0.1-3.6c-0.9-0.7-1.8-0.6-2.9,0.3l-0.6,0.5c-0.8,0.7-1.4,0.8-2,0.4
											c-0.6-0.5-0.6-1.4,0.1-2.2c0.5-0.7,1.3-1.1,1.9-1.2l-0.2-0.7c-0.8,0.2-1.6,0.6-2.3,1.4c-1,1.2-1,2.5,0,3.4
											c0.8,0.7,1.8,0.7,2.9-0.3l0.6-0.5c0.8-0.7,1.5-0.8,2-0.4c0.7,0.6,0.5,1.5-0.2,2.4c-0.7,0.8-1.4,1.1-2.1,1.2l0.2,0.7
											C140.4,143.4,141.2,142.9,141.9,142.1 M137.2,147.8c1.1-1.3,1.1-2.9-0.4-4.2l-3.6-3l-0.6,0.7l3.6,2.9c1.1,0.9,1.1,2,0.3,3
											s-1.9,1.1-3,0.2l-3.6-2.9l-0.6,0.7l3.6,3C134.5,149.5,136.1,149.1,137.2,147.8 M131,154c-0.9,1.1-2.5,1.1-3.9,0
											c-1.4-1.2-1.7-2.7-0.8-3.9c0.9-1.1,2.5-1.2,3.9,0C131.7,151.3,132,152.8,131,154 M131.6,154.6c0.8-0.9,0.9-1.9,0.6-2.9
											l1,0.8l0.5-0.7l-5.8-4.8l-0.5,0.7l1,0.8c-1-0.1-2,0.2-2.7,1.1c-1.2,1.4-0.9,3.5,0.9,5C128.3,156.1,130.4,156,131.6,154.6
											 M125,162.4l-3.6-2.9c-1-0.8-1.1-2.1-0.3-3.1s1.9-1.1,3-0.2l3.6,3l0.6-0.7l-3.8-3.1c-1.3-1.1-2.8-0.9-3.8,0.4
											c-0.6,0.7-0.9,1.7-0.6,2.6l-3.9-3.2l-0.6,0.7l8.9,7.3L125,162.4z M121.1,167.3c1.1-1.3,1.1-2.9-0.4-4.2l-3.6-3l-0.6,0.7
											l3.6,2.9c1.1,0.9,1.1,2.1,0.3,3c-0.8,1-1.9,1.1-3,0.2l-3.6-2.9l-0.6,0.7l3.6,3C118.5,168.9,120.1,168.6,121.1,167.3
											 M115,173.4c-0.9,1.1-2.5,1.1-3.9,0c-1.4-1.2-1.7-2.7-0.8-3.9c0.9-1.1,2.5-1.2,3.9,0C115.6,170.7,115.9,172.3,115,173.4
											 M115.5,174c0.8-0.9,0.9-1.9,0.6-2.9l1,0.8l0.5-0.7l-5.8-4.8l-0.5,0.7l1,0.8c-1-0.1-2,0.2-2.7,1.1c-1.2,1.4-0.9,3.5,0.9,5
											C112.3,175.5,114.4,175.5,115.5,174 M110.9,179.5l-3.5-2.9c-1-0.9-1.3-2-0.6-2.9c0.2-0.3,0.6-0.5,0.8-0.7l-0.5-0.7
											c-0.3,0.1-0.6,0.4-0.9,0.7c-0.6,0.7-0.7,1.5-0.4,2.3l-0.8-0.7l-0.5,0.7l5.8,4.8L110.9,179.5z M100.8,183.4l1.8-2.2
											c1-1.3,2.2-1.7,3.4-0.7s1,2.2,0,3.5l-1.8,2.2L100.8,183.4z M96.9,180.2l1.8-2.1c1-1.2,2.1-1.7,3.3-0.7s0.9,2.2-0.1,3.4
											l-1.8,2.1L96.9,180.2z M106.8,184.5c1.4-1.7,1.6-3.4,0-4.7c-1.2-1-2.4-0.9-3.5-0.1c0.5-1.1,0.4-2.2-0.7-3.1
											c-1.6-1.3-3.2-0.7-4.5,0.9l-2.4,2.9l8.6,7.1L106.8,184.5z M93.9,193.5c-1.2-1.1-1.4-2.5-0.5-3.5c0.8-1,2.2-1,3.5-0.1
											L93.9,193.5z M98.8,194.3c0.6-0.8,1-1.7,0.8-2.9h-0.8c0.1,0.8,0,1.6-0.6,2.3c-0.9,1.1-2.3,1.2-3.8,0.2l3.5-4.3
											c-0.1-0.1-0.2-0.1-0.2-0.2c-1.8-1.5-3.8-1.4-5,0c-1.2,1.5-0.9,3.5,0.9,5C95.5,196,97.5,195.9,98.8,194.3 M93.9,200.2
											c1-1.3,0.9-3-0.6-4.2c-1.1-0.9-2.6-1-3.4-0.3c0.4-0.9,0.1-2.1-1-3c-1.4-1.1-3.2-0.9-4.3,0.5c-1.3,1.6-1,3.3,0.5,4.5
											l6.5,5.3l0.6-0.7l-6.5-5.3c-1.2-1-1.3-2.2-0.4-3.3c0.8-1,2.1-1.2,3.2-0.3c1.2,1,1.1,2.2,0.4,3.1l-0.3,0.3l0.6,0.5l0.4-0.4
											c0.9-1.1,2.2-1.2,3.3-0.3c1.2,1,1.3,2.2,0.5,3.2c-0.4,0.5-0.8,0.7-1.1,0.8l0.4,0.6C93,201.1,93.5,200.8,93.9,200.2
											 M87.6,206.7c-0.9,1.1-2.5,1.2-4,0c-1.4-1.2-1.7-2.8-0.7-3.9c0.9-1.1,2.5-1.2,4,0C88.3,203.9,88.5,205.5,87.6,206.7
											 M88.2,207.2c1.3-1.5,1-3.6-0.8-5.1s-3.9-1.4-5.2,0.2c-1.3,1.5-1,3.6,0.8,5.1C84.8,208.8,87,208.7,88.2,207.2 M83.5,212.8
											l-3.5-2.9c-1-0.9-1.3-2-0.6-2.9c0.2-0.3,0.6-0.5,0.8-0.7l-0.5-0.7c-0.3,0.1-0.6,0.4-0.9,0.7c-0.6,0.7-0.7,1.5-0.4,2.3
											l-0.8-0.7l-0.5,0.7l5.8,4.8L83.5,212.8z M78.8,218.6c1.8-2.2,1.2-5-1.4-7.2c-0.1-0.1-0.2-0.2-0.3-0.2l-2.7,3.3L75,215
											l2.1-2.5c2,1.8,2.4,3.9,1,5.5c-1.4,1.7-3.9,1.9-6.2,0c-2.3-1.9-2.6-4.4-1.2-6.1c0.8-1,2-1.4,3.3-1.3v-0.9
											c-1.5-0.2-3,0.4-4,1.6c-1.8,2.2-1.4,5.2,1.3,7.4C74.1,221,77.1,220.7,78.8,218.6"/>
									</g>
									<g>
										<defs>
											<rect id="SVGID_00000064318760576708827520000008215293295263347614_" x="-30" width="842" height="550"/>
										</defs>
										<clipPath id="SVGID_00000104688782570642359750000013964485378955714729_">
											<use xlink:href="#SVGID_00000064318760576708827520000008215293295263347614_"  style="overflow:visible;"/>
										</clipPath>
										
											<polyline style="clip-path:url(#SVGID_00000104688782570642359750000013964485378955714729_);fill:none;stroke:#FFFFFF;stroke-width:10.834;" points="
											491.8,-20.3 489.1,62.9 613.3,173.7 742.9,318.8 837.8,355.6 										"/>
									</g>
									<g>
										<defs>
											<rect id="SVGID_00000089564975843155427240000007350116694983302309_" x="-30" width="842" height="550"/>
										</defs>
										<clipPath id="SVGID_00000057137117644403011610000002524488903539641481_">
											<use xlink:href="#SVGID_00000089564975843155427240000007350116694983302309_"  style="overflow:visible;"/>
										</clipPath>
										
											<line style="clip-path:url(#SVGID_00000057137117644403011610000002524488903539641481_);fill:none;stroke:#FFFFFF;stroke-width:10.834;" x1="820" y1="72.1" x2="611.2" y2="174.4"/>
									</g>
									<g>
										<defs>
											<rect id="SVGID_00000092425259381147781350000015902333365385333941_" x="-30" width="842" height="550"/>
										</defs>
										<clipPath id="SVGID_00000025419905517525688280000014409620911005257662_">
											<use xlink:href="#SVGID_00000092425259381147781350000015902333365385333941_"  style="overflow:visible;"/>
										</clipPath>
										
											<polyline style="clip-path:url(#SVGID_00000025419905517525688280000014409620911005257662_);fill:none;stroke:#FFFFFF;stroke-width:10.834;" points="
											688.1,-18.1 769.5,98 824.1,186 										"/>
									</g>
									<g>
										<defs>
											<rect id="SVGID_00000137837616363758589970000000030133015045560761_" x="-30" width="842" height="550"/>
										</defs>
										<clipPath id="SVGID_00000101787747717568815560000010655637959918054047_">
											<use xlink:href="#SVGID_00000137837616363758589970000000030133015045560761_"  style="overflow:visible;"/>
										</clipPath>
										
											<path style="clip-path:url(#SVGID_00000101787747717568815560000010655637959918054047_);fill:none;stroke:#FFFFFF;stroke-width:10.834;" d="
											M540.9,111L418.8,98.7c0,0-13-74.4,68.9-69.6"/>
									</g>
									<g>
										<defs>
											<rect id="SVGID_00000157987269819482294810000003313291028635212732_" x="-30" width="842" height="550"/>
										</defs>
										<clipPath id="SVGID_00000053530665224052375850000017787790459700987818_">
											<use xlink:href="#SVGID_00000157987269819482294810000003313291028635212732_"  style="overflow:visible;"/>
										</clipPath>
										<path style="clip-path:url(#SVGID_00000053530665224052375850000017787790459700987818_);fill:#1C355E;" d="M400.3,278.1
											c-10.6,0-19.2,8.6-19.2,19.2s8.6,19.2,19.2,19.2s19.2-8.6,19.2-19.2S410.9,278.1,400.3,278.1 M400.3,317.7
											c-11.3,0-20.5-9.2-20.5-20.5s9.2-20.5,20.5-20.5s20.5,9.2,20.5,20.5C420.8,308.6,411.6,317.7,400.3,317.7"/>
									</g>
								</g>
							</g>
							<g>
								<defs>
									<rect id="SVGID_00000053525476203359968970000002736016236051877773_" x="-39" y="-7" width="860" height="558"/>
								</defs>
								<clipPath id="SVGID_00000044889194794764783350000006898006194743342509_">
									<use xlink:href="#SVGID_00000053525476203359968970000002736016236051877773_"  style="overflow:visible;"/>
								</clipPath>
								
									<rect x="399.7" y="290.9" style="clip-path:url(#SVGID_00000044889194794764783350000006898006194743342509_);fill:#1C355E;" width="1.3" height="17.6"/>
							</g>
							<g>
								<defs>
									<rect id="SVGID_00000101797591998930572960000000124447795696651158_" x="-39" y="-7" width="860" height="558"/>
								</defs>
								<clipPath id="SVGID_00000137846895494019322230000010985714517987920054_">
									<use xlink:href="#SVGID_00000101797591998930572960000000124447795696651158_"  style="overflow:visible;"/>
								</clipPath>
								<g style="clip-path:url(#SVGID_00000137846895494019322230000010985714517987920054_);">
									<g>
										<defs>
											<rect id="SVGID_00000127004665774113173150000013545044999760058499_" x="-30" width="842" height="550"/>
										</defs>
										<clipPath id="SVGID_00000089550665355344132340000013781963676613401996_">
											<use xlink:href="#SVGID_00000127004665774113173150000013545044999760058499_"  style="overflow:visible;"/>
										</clipPath>
										<path style="clip-path:url(#SVGID_00000089550665355344132340000013781963676613401996_);fill:#1C355E;" d="M402.8,288.5
											h-1.3c0-0.6-0.5-1.1-1.2-1.1c-0.6,0-1.2,0.5-1.2,1.1h-1.3c0-1.3,1.1-2.4,2.4-2.4C401.7,286.1,402.8,287.2,402.8,288.5"/>
									</g>
									<g>
										<defs>
											<rect id="SVGID_00000075160519250508480710000010758944023690632850_" x="-30" width="842" height="550"/>
										</defs>
										<clipPath id="SVGID_00000115489583224703604920000017276203835504952459_">
											<use xlink:href="#SVGID_00000075160519250508480710000010758944023690632850_"  style="overflow:visible;"/>
										</clipPath>
										<path style="clip-path:url(#SVGID_00000115489583224703604920000017276203835504952459_);fill:#1C355E;" d="M403.3,300.3
											V299c1.9,0,3.4-1.5,3.4-3.4s-1.5-3.4-3.4-3.4v-1.3c2.6,0,4.7,2.1,4.7,4.7C407.9,298.2,405.9,300.3,403.3,300.3"/>
									</g>
									<g>
										<defs>
											<rect id="SVGID_00000134947716585842190370000016591261807021737391_" x="-30" width="842" height="550"/>
										</defs>
										<clipPath id="SVGID_00000165194969972733603900000007720407740417241739_">
											<use xlink:href="#SVGID_00000134947716585842190370000016591261807021737391_"  style="overflow:visible;"/>
										</clipPath>
										<path style="clip-path:url(#SVGID_00000165194969972733603900000007720407740417241739_);fill:#1C355E;" d="M397.4,308.5
											c-2.6,0-4.7-2.1-4.7-4.7s2.1-4.7,4.7-4.7v1.3c-1.9,0-3.4,1.5-3.4,3.4s1.5,3.4,3.4,3.4V308.5z"/>
									</g>
									<g>
										<defs>
											<rect id="SVGID_00000075879791400473632220000016654083715854206128_" x="-30" width="842" height="550"/>
										</defs>
										<clipPath id="SVGID_00000176012493839460854600000011486605229673905846_">
											<use xlink:href="#SVGID_00000075879791400473632220000016654083715854206128_"  style="overflow:visible;"/>
										</clipPath>
										<path style="clip-path:url(#SVGID_00000176012493839460854600000011486605229673905846_);fill:#1C355E;" d="M214.7,473.5
											l1.9-4.1c0.6-1.2,1.7-1.7,2.7-1.2c0.3,0.2,0.7,0.4,0.9,0.7l0.6-0.7c-0.2-0.3-0.5-0.5-0.9-0.7c-0.8-0.4-1.6-0.3-2.4,0.2
											l0.5-1l-0.8-0.4l-3.3,6.8L214.7,473.5z M208.7,466.2c0.8-1.4,2-2,3.2-1.5s1.6,1.8,1.1,3.3L208.7,466.2z M209.3,471.2
											c0.9,0.4,1.9,0.5,3,0l-0.2-0.7c-0.7,0.3-1.5,0.4-2.4,0c-1.3-0.5-1.9-1.9-1.2-3.6l5.1,2.1c0-0.1,0.1-0.2,0.1-0.3
											c0.9-2.2,0.3-4.1-1.4-4.8c-1.8-0.7-3.6,0.1-4.5,2.3C206.8,468.5,207.4,470.4,209.3,471.2 M201.6,468.4
											c1.6,0.5,3.1-0.1,3.7-1.9l1.4-4.5l-0.8-0.3l-1.4,4.4c-0.4,1.4-1.5,1.8-2.7,1.5c-1.2-0.4-1.8-1.4-1.4-2.7l1.4-4.4l-0.8-0.3
											l-1.4,4.5C199,466.5,200,467.9,201.6,468.4 M193.4,465.4c-1.4-0.3-2.1-1.8-1.7-3.5c0.4-1.8,1.7-2.7,3.1-2.4
											c1.4,0.3,2.1,1.8,1.7,3.5C196.1,464.7,194.8,465.7,193.4,465.4 M193.1,466.1c1.2,0.3,2.1-0.1,2.9-0.8l-0.3,1.3l0.8,0.2
											l1.8-7.3l-0.8-0.2l-0.3,1.3c-0.3-1-1.1-1.7-2.2-2c-1.8-0.4-3.5,0.8-4.1,3C190.3,463.8,191.3,465.7,193.1,466.1
											 M178.1,463.3l0.7-4.6c0.2-1.3,1.3-2,2.5-1.8c1.3,0.2,1.9,1.1,1.7,2.4l-0.7,4.6l0.9,0.1l0.7-4.6c0.2-1.3,1.3-2,2.5-1.8
											c1.3,0.2,1.9,1.1,1.7,2.4l-0.7,4.6l0.9,0.1l0.8-4.9c0.3-1.7-0.7-2.9-2.3-3.1c-1.1-0.2-2.2,0.1-2.8,1
											c-0.3-0.9-1.1-1.6-2.2-1.8c-0.9-0.1-1.9,0.1-2.6,0.8l0.2-1l-0.8-0.1l-1.2,7.4L178.1,463.3z M172.5,462.8
											c1.7,0.2,2.9-0.5,3.1-1.9c0.1-1.1-0.6-1.8-1.9-2.2l-0.8-0.2c-1-0.3-1.5-0.8-1.4-1.4c0.1-0.8,0.9-1.2,1.9-1.1
											c0.9,0.1,1.6,0.5,2,0.9l0.5-0.6c-0.6-0.5-1.4-1-2.5-1.1c-1.5-0.2-2.7,0.5-2.8,1.8c-0.1,1,0.4,1.8,1.9,2.2l0.8,0.2
											c1,0.3,1.5,0.8,1.4,1.4c-0.1,0.9-1,1.3-2.1,1.2c-1-0.1-1.7-0.5-2.2-1l-0.5,0.6C170.6,462.3,171.5,462.7,172.5,462.8
											 M165.1,462.2c1.7,0.1,3-0.8,3.2-2.7l0.3-4.7l-0.9-0.1l-0.3,4.6c-0.1,1.4-1,2.1-2.3,2s-2.1-0.9-1.9-2.3l0.3-4.6l-0.9-0.1
											l-0.3,4.7C162.2,461,163.4,462.1,165.1,462.2 M156.5,460.9c-1.5-0.1-2.4-1.3-2.4-3.1c0.1-1.8,1.1-3,2.6-2.9
											s2.4,1.3,2.4,3.1C159.1,459.8,158,461,156.5,460.9 M156.4,461.7c1.2,0,2.1-0.5,2.7-1.3l-0.1,1.3h0.9l0.3-7.5h-0.9
											l-0.1,1.3c-0.5-0.9-1.4-1.5-2.5-1.5c-1.9-0.1-3.3,1.4-3.4,3.7C153.2,460,154.5,461.7,156.4,461.7 M146.2,461.4l0.1-4.6
											c0-1.3,1-2.2,2.2-2.2c1.3,0,2.1,0.8,2.1,2.2l-0.1,4.7h0.9l0.1-4.9c0-1.7-1.1-2.7-2.7-2.8c-1,0-1.8,0.4-2.4,1.2l0.1-5.1
											h-0.9l-0.1,11.5L146.2,461.4z M137.9,461.4v-4.6c0-1.3,0.9-2.2,2.1-2.2c1.3,0,2.1,0.8,2.1,2.1v4.7h0.9v-4.9
											c0-1.7-1.1-2.7-2.7-2.7c-1,0-1.9,0.4-2.4,1.3V454h-0.8l0.1,7.5L137.9,461.4z M129.4,457.4c0.1-1.6,1-2.7,2.3-2.7
											s2.2,1,2.3,2.6L129.4,457.4z M132,461.7c1,0,1.9-0.3,2.7-1.2l-0.5-0.6c-0.5,0.6-1.2,1-2.2,1c-1.4,0-2.5-0.9-2.6-2.7
											l5.5-0.1c0-0.1,0-0.2,0-0.3c-0.1-2.4-1.4-3.8-3.2-3.8c-1.9,0-3.3,1.6-3.2,4C128.6,460.3,130,461.7,132,461.7 M124.5,461.9
											c1.7-0.1,2.8-0.9,2.8-2.3c0-1.1-0.8-1.7-2.2-1.9l-0.8-0.1c-1.1-0.1-1.6-0.5-1.6-1.2c0-0.8,0.7-1.4,1.7-1.4
											c0.9,0,1.7,0.2,2.1,0.6l0.4-0.7c-0.6-0.5-1.5-0.8-2.6-0.7c-1.5,0.1-2.6,0.9-2.5,2.2c0,1,0.7,1.7,2.2,1.9l0.8,0.1
											c1.1,0.1,1.6,0.6,1.6,1.2c0,0.9-0.8,1.4-1.9,1.5c-1,0-1.8-0.3-2.3-0.7l-0.4,0.7C122.5,461.7,123.4,462,124.5,461.9
											 M120,462.1l-0.4-7.5h-0.9l0.4,7.5H120z M119,452.4c0.3,0,0.6-0.3,0.6-0.6c0-0.3-0.3-0.6-0.6-0.6s-0.6,0.3-0.6,0.6
											C118.4,452.2,118.7,452.4,119,452.4 M113.3,461.7c-1.5,0.1-2.6-1.1-2.7-2.9c-0.1-1.8,0.8-3.1,2.3-3.2s2.6,1,2.7,2.9
											S114.8,461.6,113.3,461.7 M113.2,462.6c1.2-0.1,2-0.7,2.5-1.6l0.1,1.3l0.9-0.1l-0.5-7.5l-0.9,0.1l0.1,1.3
											c-0.6-0.8-1.5-1.3-2.7-1.2c-1.9,0.1-3.1,1.8-3,4.1C109.9,461.2,111.4,462.7,113.2,462.6 M99.4,463.5l2.1-10.1l3.7,9.6
											l1.1-0.1l2.3-11.4l-0.9,0.1l-2,10.3l-3.8-9.8l-1,0.1l-2.1,10.3l-3.7-9.8l-1,0.1l4.2,10.9L99.4,463.5z M87.9,464.6
											l-0.5-4.5c-0.1-1.3,0.5-2.3,1.6-2.5c0.4,0,0.8,0,1.1,0.1l0.2-0.9c-0.3-0.1-0.7-0.2-1.2-0.1c-0.9,0.1-1.6,0.6-1.9,1.4
											l-0.1-1l-0.8,0.1l0.8,7.5L87.9,464.6z M79.1,461.4c0-1.6,0.8-2.7,2.1-2.9c1.3-0.1,2.3,0.8,2.5,2.4L79.1,461.4z
											 M82.1,465.4c1-0.1,1.9-0.5,2.6-1.5l-0.5-0.5c-0.5,0.6-1.1,1.1-2.1,1.2c-1.4,0.2-2.5-0.7-2.8-2.5l5.5-0.6
											c0-0.1,0-0.2,0-0.3c-0.3-2.3-1.7-3.7-3.5-3.5c-1.9,0.2-3.1,1.9-2.8,4.2C78.5,464.3,80.1,465.6,82.1,465.4 M73.4,465.6
											c-1.5,0.2-2.6-0.9-2.8-2.7s0.6-3.2,2.1-3.3c1.5-0.2,2.6,0.9,2.8,2.7C75.7,464.1,74.9,465.4,73.4,465.6 M73.4,466.4
											c1.2-0.1,2-0.8,2.4-1.6L76,466l0.8-0.1l-1.4-11.4l-0.9,0.1l0.6,5.2c-0.7-0.7-1.6-1.2-2.7-1c-1.9,0.2-3,1.9-2.7,4.2
											C70,465.3,71.5,466.6,73.4,466.4 M59.7,468.1l-0.6-4.6c-0.2-1.3,0.6-2.3,1.8-2.5c1.3-0.2,2.2,0.5,2.4,1.9l0.6,4.6l0.9-0.1
											l-0.7-4.9c-0.2-1.7-1.5-2.6-3.1-2.3c-1,0.1-1.8,0.7-2.2,1.6l-0.2-1.1l-0.8,0.1l1,7.5L59.7,468.1z M51.3,459l3.1,5.7
											l-4.3,0.6L51.3,459z M49.2,469.6l0.7-3.4l4.9-0.7l1.6,3l1-0.1l-5.7-10.5l-1.1,0.2l-2.4,11.7L49.2,469.6z"/>
									</g>
								</g>
							</g>
						</g>
					</g>
				</g>
			</g>
		</g>
	</g>
</g>
</svg>
