<?xml version="1.0" encoding="utf-8"?>
<!-- Generator: Adobe Illustrator 25.4.1, SVG Export Plug-In . SVG Version: 6.00 Build 0)  -->
<svg version="1.1" id="Ebene_1" xmlns="http://www.w3.org/2000/svg" xmlns:xlink="http://www.w3.org/1999/xlink" x="0px" y="0px"
	 viewBox="0 0 550 550" style="enable-background:new 0 0 550 550;" xml:space="preserve">
<style type="text/css">
	.st0{clip-path:url(#SVGID_00000083806638509531670750000008679149581193090728_);}
	.st1{clip-path:url(#SVGID_00000172426197706506800810000000560613836165357747_);}
	.st2{clip-path:url(#SVGID_00000157267398144712102000000006766388018667777686_);}
	.st3{clip-path:url(#SVGID_00000119827225341674128220000009882797457425722036_);}
	.st4{clip-path:url(#SVGID_00000129178381778654205860000007073410628014880937_);fill:#1C355E;}
	.st5{clip-path:url(#SVGID_00000119827225341674128220000009882797457425722036_);fill:#1C355E;}
	.st6{clip-path:url(#SVGID_00000051372183954149548910000013089410507295613849_);fill:#1C355E;}
	.st7{clip-path:url(#SVGID_00000051372183954149548910000013089410507295613849_);fill:none;stroke:#FFFFFF;stroke-width:15;}
	.st8{clip-path:url(#SVGID_00000119827225341674128220000009882797457425722036_);fill:none;stroke:#FFFFFF;stroke-width:15;}
	.st9{clip-path:url(#SVGID_00000108298289241525825840000011923104020590268555_);fill:none;stroke:#FFFFFF;stroke-width:15;}
	.st10{clip-path:url(#SVGID_00000108298289241525825840000011923104020590268555_);fill:none;stroke:#FFFFFF;stroke-width:10;}
	.st11{clip-path:url(#SVGID_00000119827225341674128220000009882797457425722036_);fill:none;stroke:#FFFFFF;stroke-width:10;}
</style>
<g>
	<defs>
		<rect id="SVGID_1_" y="0" width="550" height="550"/>
	</defs>
	<clipPath id="SVGID_00000158747194172914510090000006059351166408393902_">
		<use xlink:href="#SVGID_1_"  style="overflow:visible;"/>
	</clipPath>
	<g style="clip-path:url(#SVGID_00000158747194172914510090000006059351166408393902_);">
		<defs>
			<rect id="SVGID_00000031208068874417410970000004208539889078240911_" x="-194.1" y="0" width="842" height="550"/>
		</defs>
		<clipPath id="SVGID_00000119817726217575294280000003403362740138268076_">
			<use xlink:href="#SVGID_00000031208068874417410970000004208539889078240911_"  style="overflow:visible;"/>
		</clipPath>
		<g style="clip-path:url(#SVGID_00000119817726217575294280000003403362740138268076_);">
			<defs>
				<rect id="SVGID_00000036253935556784695840000008293198028338996920_" x="-194.1" y="0" width="842" height="550"/>
			</defs>
			<clipPath id="SVGID_00000072269606797971955250000004997107621649741449_">
				<use xlink:href="#SVGID_00000036253935556784695840000008293198028338996920_"  style="overflow:visible;"/>
			</clipPath>
			<g style="clip-path:url(#SVGID_00000072269606797971955250000004997107621649741449_);">
				<g>
					<defs>
						<rect id="SVGID_00000076588619401771760200000002792763114308101807_" x="-203.1" y="-7" width="860" height="558"/>
					</defs>
					<clipPath id="SVGID_00000168110595407056481420000002809187048800421790_">
						<use xlink:href="#SVGID_00000076588619401771760200000002792763114308101807_"  style="overflow:visible;"/>
					</clipPath>
					<g style="clip-path:url(#SVGID_00000168110595407056481420000002809187048800421790_);">
						<defs>
							<rect id="SVGID_00000013150550767856825620000007762194147557086638_" x="-194.1" y="0" width="842" height="550"/>
						</defs>
						<clipPath id="SVGID_00000142888440718942528890000006396734530828181148_">
							<use xlink:href="#SVGID_00000013150550767856825620000007762194147557086638_"  style="overflow:visible;"/>
						</clipPath>
						<path style="clip-path:url(#SVGID_00000142888440718942528890000006396734530828181148_);fill:#1C355E;" d="M510,482.3
							c1.6-0.1,2.7,0.7,2.9,2c0.2,1.3-0.8,2.3-2.3,2.6L510,482.3z M506,485.2c0.1,1,0.5,1.9,1.5,2.6l0.5-0.6
							c-0.6-0.5-1.1-1.1-1.2-2.1c-0.2-1.4,0.7-2.5,2.5-2.9l0.7,5.5c0.1,0,0.2,0,0.3,0c2.3-0.3,3.7-1.8,3.4-3.6
							c-0.2-1.9-1.9-3.1-4.3-2.8C507.1,481.7,505.8,483.3,506,485.2 M505.1,477.6c0.2,1.6,1.5,2.7,3.5,2.5c1.4-0.2,2.5-1.2,2.6-2.3
							c0.4,0.9,1.5,1.5,2.9,1.3c1.8-0.2,2.8-1.7,2.6-3.5c-0.2-2-1.7-3-3.6-2.7l-8.3,1l0.1,0.9l8.3-1c1.5-0.2,2.5,0.6,2.7,1.9
							c0.2,1.3-0.5,2.4-2,2.5c-1.5,0.2-2.4-0.7-2.5-1.9l-0.1-0.4l-0.8,0.1l0.1,0.6c0.2,1.4-0.6,2.4-2.1,2.6
							c-1.5,0.2-2.5-0.6-2.6-1.8c-0.1-0.6,0-1,0.2-1.4l-0.8-0.1C505.1,476.4,505,476.9,505.1,477.6 M504.8,468.2
							c-0.2-1.5,0.9-2.6,2.7-2.8c1.8-0.2,3.1,0.6,3.3,2.1c0.2,1.5-0.9,2.6-2.7,2.8C506.3,470.5,505,469.7,504.8,468.2 M503.9,468.2
							c0.1,1.2,0.8,2,1.7,2.4l-1.3,0.2l0.1,0.9l7.5-0.9l-0.1-0.9l-1.3,0.2c0.8-0.6,1.2-1.6,1.1-2.8c-0.2-1.9-2-3-4.2-2.7
							C505.1,464.8,503.7,466.3,503.9,468.2 M503.2,461l4.5-0.5c1.3-0.2,2.4,0.5,2.5,1.6c0,0.4,0,0.8-0.1,1.1l0.9,0.1
							c0.1-0.3,0.2-0.7,0.1-1.2c-0.1-0.9-0.6-1.6-1.4-1.9l1-0.1l-0.1-0.8l-7.5,0.9L503.2,461z M502.5,456.8c0.1,0.8,0.4,1.4,0.9,1.8
							l0.6-0.5c-0.3-0.3-0.6-0.8-0.7-1.3c-0.1-0.9,0.3-1.5,1.4-1.7l4.4-0.5l0.4,3l0.8-0.1l-0.4-3l2.3-0.3l-0.1-0.9l-2.3,0.3
							l-0.2-1.5l-0.8,0.1l0.2,1.5l-4.4,0.5C503.1,454.5,502.4,455.4,502.5,456.8 M501.6,449.2c0.2,1.7,1.2,2.7,2.5,2.6
							c1.1-0.1,1.7-0.9,1.8-2.3l0-0.8c0.1-1.1,0.4-1.6,1.1-1.7c0.8-0.1,1.4,0.6,1.5,1.6c0.1,0.8-0.1,1.7-0.4,2.2l0.7,0.3
							c0.4-0.7,0.6-1.6,0.5-2.6c-0.2-1.5-1.1-2.5-2.4-2.3c-1,0.1-1.7,0.8-1.8,2.3l-0.1,0.8c-0.1,1.1-0.4,1.6-1.1,1.7
							c-0.9,0.1-1.5-0.6-1.6-1.8c-0.1-1,0.1-1.8,0.5-2.3l-0.7-0.3C501.7,447.2,501.5,448.2,501.6,449.2 M500.9,442.5l4.5-0.5
							c1.3-0.2,2.4,0.5,2.5,1.6c0,0.4,0,0.8-0.1,1.1l0.9,0.1c0.1-0.3,0.2-0.7,0.1-1.2c-0.1-0.9-0.6-1.6-1.4-1.9l1-0.1l-0.1-0.8
							l-7.5,0.9L500.9,442.5z M504.1,433.7c1.6-0.1,2.7,0.7,2.9,2c0.2,1.3-0.8,2.3-2.3,2.6L504.1,433.7z M500.1,436.7
							c0.1,1,0.5,1.9,1.5,2.6l0.5-0.6c-0.6-0.5-1.1-1.1-1.2-2.1c-0.2-1.4,0.7-2.5,2.5-2.9l0.7,5.5c0.1,0,0.2,0,0.3,0
							c2.3-0.3,3.7-1.8,3.4-3.6c-0.2-1.9-1.9-3.1-4.3-2.8C501.2,433.2,499.8,434.7,500.1,436.7 M499.1,427.8l3.5-0.4l0.1,1l-3.2,3.2
							l0.1,1.1l3.6-3.7l3.9,2.7l-0.1-1l-3.5-2.3l-0.1-1l7.1-0.9l-0.1-0.9l-11.4,1.4L499.1,427.8z M498.4,422.2l4.5-0.5
							c1.3-0.2,2.4,0.5,2.5,1.6c0,0.4,0,0.8-0.1,1.1l0.9,0.1c0.1-0.3,0.2-0.7,0.1-1.2c-0.1-0.9-0.6-1.6-1.4-1.9l1-0.1l-0.1-0.8
							l-7.5,0.9L498.4,422.2z M498.3,415.5c-0.2-1.5,0.9-2.6,2.7-2.8c1.8-0.2,3.1,0.6,3.3,2.1c0.2,1.5-0.9,2.6-2.7,2.8
							C499.8,417.8,498.5,417,498.3,415.5 M497.5,415.5c0.1,1.2,0.8,2,1.7,2.4l-1.3,0.2l0.1,0.8l7.5-0.9l-0.1-0.8l-1.3,0.2
							c0.8-0.6,1.2-1.6,1.1-2.8c-0.2-1.9-2-3-4.2-2.7C498.6,412.1,497.2,413.6,497.5,415.5 M507.1,416c0,0.3,0.3,0.6,0.7,0.5
							c0.3,0,0.6-0.3,0.5-0.7c0-0.3-0.3-0.5-0.7-0.5C507.3,415.4,507.1,415.7,507.1,416 M506.8,413.1c0,0.3,0.3,0.5,0.7,0.5
							c0.3,0,0.6-0.3,0.5-0.7c0-0.3-0.3-0.5-0.7-0.5C506.9,412.5,506.7,412.7,506.8,413.1 M495.8,401.1l9.9-1.2l-7.3,4.6l0.1,0.9
							l8.2,2.7l-9.9,1.2l0.1,0.9l11.1-1.4l-0.2-1.3l-8.3-2.7l7.4-4.7l-0.2-1.3l-11.1,1.4L495.8,401.1z M498.5,388.5
							c1.6-0.1,2.7,0.7,2.9,2c0.2,1.3-0.8,2.3-2.3,2.6L498.5,388.5z M494.5,391.5c0.1,1,0.5,1.9,1.5,2.6l0.5-0.6
							c-0.6-0.5-1.1-1.1-1.2-2.1c-0.2-1.4,0.7-2.5,2.5-2.8l0.7,5.5c0.1,0,0.2,0,0.3,0c2.3-0.3,3.7-1.8,3.4-3.6
							c-0.2-1.9-1.9-3.1-4.3-2.8C495.6,388,494.3,389.5,494.5,391.5 M493.6,383.9c0.2,1.6,1.5,2.7,3.5,2.5c1.4-0.2,2.5-1.2,2.6-2.3
							c0.4,0.9,1.5,1.5,2.9,1.3c1.8-0.2,2.8-1.7,2.6-3.5c-0.3-2-1.7-3-3.6-2.7l-8.3,1l0.1,0.9l8.3-1c1.5-0.2,2.5,0.6,2.7,1.9
							c0.2,1.3-0.5,2.4-2,2.5c-1.5,0.2-2.4-0.7-2.5-1.9l0-0.4l-0.8,0.1l0.1,0.6c0.2,1.4-0.6,2.4-2.1,2.6c-1.5,0.2-2.5-0.6-2.6-1.8
							c-0.1-0.6,0-1,0.2-1.4l-0.8-0.1C493.6,382.6,493.5,383.2,493.6,383.9 M493.3,374.9c-0.2-1.5,0.9-2.6,2.7-2.9
							c1.8-0.2,3.2,0.7,3.3,2.1c0.2,1.5-0.9,2.7-2.7,2.9S493.5,376.3,493.3,374.9 M492.5,375c0.2,2,2,3.2,4.3,2.9
							c2.3-0.3,3.7-1.9,3.4-3.9c-0.2-2-2-3.2-4.3-2.9C493.6,371.4,492.3,373,492.5,375 M491.7,367.6l4.5-0.5
							c1.3-0.2,2.4,0.5,2.5,1.6c0,0.4,0,0.8-0.1,1.1l0.9,0.1c0.1-0.3,0.2-0.7,0.1-1.2c-0.1-0.9-0.6-1.6-1.4-1.9l1-0.1l-0.1-0.8
							l-7.5,0.9L491.7,367.6z M490.7,360.3c0.3,2.8,2.8,4.3,6.2,3.9c0.1,0,0.2,0,0.3-0.1l-0.5-4.2l-0.8,0.1l0.4,3.3
							c-2.7,0.2-4.4-0.9-4.7-3.1c-0.3-2.2,1.3-4.1,4.3-4.5c3-0.4,5,1.1,5.3,3.3c0.2,1.3-0.3,2.4-1.3,3.3l0.6,0.6
							c1.2-1,1.8-2.4,1.6-4c-0.3-2.8-2.8-4.6-6.3-4.2C492.2,355.2,490.4,357.6,490.7,360.3"/>
						<path style="clip-path:url(#SVGID_00000142888440718942528890000006396734530828181148_);fill:#1C355E;" d="M358.9,290.7
							c-0.1-1.6,0.6-2.8,1.9-3c1.2-0.2,2.3,0.7,2.6,2.3L358.9,290.7z M362,294.6c1-0.2,1.9-0.6,2.5-1.6l-0.6-0.5
							c-0.5,0.7-1.1,1.2-2,1.3c-1.4,0.2-2.6-0.6-2.9-2.4l5.4-0.9c0-0.1,0-0.2,0-0.3c-0.4-2.3-1.9-3.6-3.7-3.3c-1.9,0.3-3,2-2.6,4.4
							C358.5,293.6,360,294.9,362,294.6 M354.5,295.7c1.6-0.3,2.7-1.6,2.4-3.6c-0.2-1.4-1.3-2.4-2.4-2.5c0.9-0.4,1.4-1.5,1.2-2.9
							c-0.3-1.8-1.8-2.8-3.6-2.5c-2,0.3-2.9,1.8-2.6,3.7l1.3,8.3l0.9-0.1l-1.3-8.3c-0.2-1.5,0.5-2.5,1.8-2.8
							c1.3-0.2,2.4,0.4,2.6,1.9c0.2,1.5-0.6,2.4-1.8,2.6l-0.4,0.1l0.1,0.8l0.6-0.1c1.4-0.2,2.4,0.5,2.7,2c0.2,1.5-0.5,2.5-1.7,2.7
							c-0.6,0.1-1,0-1.4-0.1l-0.1,0.8C353.2,295.8,353.7,295.9,354.5,295.7 M345,296.4c-1.5,0.2-2.7-0.8-2.9-2.6
							c-0.3-1.8,0.5-3.2,2-3.4c1.4-0.2,2.6,0.8,2.9,2.6C347.3,294.8,346.5,296.2,345,296.4 M345,297.2c1.2-0.2,2-0.9,2.4-1.8
							l0.2,1.3l0.8-0.1l-1.2-7.4l-0.8,0.1l0.2,1.3c-0.7-0.8-1.6-1.2-2.8-1c-1.8,0.3-3,2.1-2.6,4.3
							C341.6,296.2,343.2,297.5,345,297.2 M337.9,298.3l-0.7-4.4c-0.2-1.3,0.4-2.4,1.5-2.5c0.4-0.1,0.8,0,1.1,0.1l0.1-0.9
							c-0.3-0.1-0.8-0.1-1.2-0.1c-0.9,0.1-1.5,0.7-1.8,1.5l-0.2-1l-0.8,0.1l1.2,7.4L337.9,298.3z M333.7,299
							c0.8-0.1,1.4-0.5,1.8-0.9l-0.5-0.6c-0.3,0.4-0.8,0.6-1.3,0.7c-0.9,0.1-1.5-0.3-1.7-1.4l-0.7-4.3l2.9-0.5l-0.1-0.8l-2.9,0.5
							l-0.4-2.3l-0.9,0.1l0.4,2.3l-1.5,0.2l0.1,0.8l1.5-0.2l0.7,4.4C331.4,298.6,332.3,299.3,333.7,299 M326.2,300.2
							c1.7-0.3,2.7-1.3,2.5-2.6c-0.2-1.1-1-1.6-2.4-1.7l-0.8,0c-1.1,0-1.6-0.4-1.7-1c-0.1-0.8,0.5-1.4,1.5-1.6
							c0.8-0.1,1.7,0.1,2.2,0.3l0.3-0.7c-0.7-0.4-1.6-0.6-2.6-0.4c-1.5,0.2-2.5,1.2-2.3,2.5c0.2,1,0.9,1.7,2.4,1.7l0.8,0
							c1.1,0,1.6,0.4,1.7,1c0.1,0.9-0.6,1.5-1.7,1.7c-1,0.2-1.8-0.1-2.4-0.4l-0.3,0.7C324.2,300.2,325.1,300.4,326.2,300.2
							 M316.7,301.6l-0.7-4.6c-0.2-1.3,0.6-2.3,1.8-2.5c1.3-0.2,2.2,0.5,2.4,1.8l0.7,4.6l0.9-0.1L321,296c-0.3-1.7-1.5-2.5-3.1-2.3
							c-1,0.2-1.8,0.7-2.2,1.6l-0.2-1.1l-0.8,0.1l1.2,7.4L316.7,301.6z M311.2,302.5l-0.7-4.4c-0.2-1.3,0.4-2.4,1.5-2.5
							c0.4-0.1,0.8,0,1.1,0.1l0.1-0.9c-0.3-0.1-0.8-0.1-1.2-0.1c-0.9,0.1-1.5,0.7-1.8,1.5l-0.2-1l-0.8,0.1l1.2,7.4L311.2,302.5z
							 M302.3,299.6c-0.1-1.6,0.6-2.8,1.9-3c1.2-0.2,2.3,0.7,2.6,2.3L302.3,299.6z M305.4,303.5c1-0.2,1.9-0.6,2.5-1.6l-0.6-0.5
							c-0.5,0.7-1.1,1.2-2,1.3c-1.4,0.2-2.6-0.6-2.9-2.4l5.4-0.9c0-0.1,0-0.2,0-0.3c-0.4-2.3-1.9-3.6-3.7-3.3c-1.9,0.3-3,2-2.6,4.4
							C301.9,302.6,303.4,303.8,305.4,303.5 M299.3,304.5c0.8-0.1,1.4-0.5,1.8-0.9l-0.5-0.6c-0.3,0.4-0.8,0.6-1.3,0.7
							c-0.9,0.1-1.5-0.3-1.7-1.4l-0.7-4.3l2.9-0.5l-0.1-0.8l-2.9,0.5l-0.4-2.3l-0.9,0.1l0.4,2.3l-1.5,0.2l0.1,0.8l1.5-0.2l0.7,4.4
							C296.9,304.1,297.9,304.7,299.3,304.5 M290.7,305.9c2.1-0.3,3.7-1.7,3.3-3.7c-0.3-1.7-1.6-2.4-3.4-2.4l-1.1,0
							c-1.7,0-2.5-0.6-2.7-1.7c-0.2-1.3,0.8-2.3,2.3-2.5c1.3-0.2,2.3,0.1,3.1,0.7l0.5-0.7c-0.9-0.7-2.2-1.1-3.7-0.9
							c-2,0.3-3.4,1.7-3.1,3.6c0.2,1.6,1.4,2.4,3.3,2.4l1.1,0c1.6,0,2.5,0.5,2.7,1.7c0.2,1.4-0.9,2.4-2.5,2.6
							c-1.4,0.2-2.6-0.2-3.4-0.8l-0.5,0.7C287.6,305.6,289.1,306.1,290.7,305.9"/>
						<path style="clip-path:url(#SVGID_00000142888440718942528890000006396734530828181148_);fill:#1C355E;" d="M195.2,480.7
							c0.1,0.4,0.4,0.6,0.8,0.6c0.4-0.1,0.6-0.4,0.6-0.8c-0.1-0.4-0.4-0.6-0.8-0.6C195.4,480,195.1,480.3,195.2,480.7 M194.6,476.6
							l4.4-0.7c1.3-0.2,2.4,0.4,2.5,1.5c0.1,0.4,0,0.8-0.1,1.1l0.9,0.1c0.1-0.3,0.1-0.8,0.1-1.2c-0.1-0.9-0.7-1.5-1.5-1.8l1-0.2
							l-0.1-0.8l-7.4,1.2L194.6,476.6z M193.9,472.4c0.1,0.8,0.5,1.4,0.9,1.8l0.6-0.5c-0.4-0.3-0.6-0.8-0.7-1.3
							c-0.1-0.9,0.3-1.5,1.4-1.7l4.3-0.7l0.5,2.9l0.8-0.1l-0.5-2.9l2.3-0.4l-0.1-0.9l-2.3,0.4l-0.2-1.5l-0.8,0.1l0.2,1.5l-4.4,0.7
							C194.3,470.1,193.7,471,193.9,472.4 M192.5,463.8c0.3,2.1,1.7,3.7,3.7,3.3c1.7-0.3,2.4-1.6,2.4-3.4l0-1.1
							c0-1.7,0.6-2.5,1.7-2.7c1.3-0.2,2.3,0.8,2.5,2.3c0.2,1.3-0.1,2.3-0.7,3.1l0.7,0.5c0.7-0.9,1.1-2.2,0.9-3.7
							c-0.3-2-1.7-3.4-3.6-3.1c-1.6,0.2-2.4,1.4-2.4,3.3l0,1.1c0,1.6-0.5,2.5-1.7,2.7c-1.4,0.2-2.4-0.9-2.6-2.5
							c-0.2-1.4,0.2-2.6,0.8-3.4l-0.7-0.5C192.7,460.8,192.3,462.3,192.5,463.8 M194.5,448.9c1.6-0.1,2.8,0.6,3,1.9
							c0.2,1.2-0.7,2.3-2.3,2.6L194.5,448.9z M190.6,452c0.2,1,0.6,1.9,1.6,2.5l0.5-0.6c-0.7-0.5-1.2-1.1-1.3-2
							c-0.2-1.4,0.6-2.6,2.4-2.9l0.9,5.4c0.1,0,0.2,0,0.3,0c2.3-0.4,3.6-1.9,3.3-3.7c-0.3-1.9-2-3-4.4-2.6
							C191.6,448.4,190.3,450,190.6,452 M189.1,441.8l4.6-0.7c1.3-0.2,2.3,0.6,2.5,1.8c0.2,1.3-0.5,2.2-1.8,2.4l-4.6,0.7l0.1,0.9
							l4.9-0.8c1.7-0.3,2.5-1.5,2.3-3.1c-0.1-0.9-0.7-1.8-1.5-2.2l5-0.8l-0.1-0.9l-11.4,1.8L189.1,441.8z M188.2,436.8
							c0.2,1,0.7,1.8,1.5,2.2l0.5-0.6c-0.6-0.4-1.1-1-1.2-1.7c-0.2-1.4,0.8-2.6,2.6-2.9c1.8-0.3,3.2,0.6,3.4,2
							c0.1,0.8-0.1,1.4-0.6,2l0.6,0.5c0.7-0.7,0.9-1.6,0.8-2.6c-0.3-2-2.1-3.1-4.4-2.7C189.2,433.2,187.9,434.8,188.2,436.8
							 M187,429.3c0.3,1.7,1.3,2.7,2.6,2.5c1.1-0.2,1.6-1,1.7-2.4l0-0.8c0-1.1,0.4-1.6,1-1.7c0.8-0.1,1.4,0.5,1.6,1.5
							c0.1,0.8-0.1,1.7-0.3,2.2l0.7,0.3c0.4-0.7,0.6-1.6,0.4-2.6c-0.2-1.5-1.2-2.5-2.5-2.3c-1,0.2-1.7,0.9-1.7,2.4l0,0.8
							c0,1.1-0.4,1.6-1,1.7c-0.9,0.1-1.5-0.6-1.7-1.7c-0.2-1,0.1-1.8,0.4-2.4l-0.7-0.3C187,427.3,186.9,428.3,187,429.3
							 M186.4,424.8l7.4-1.2l-0.1-0.9l-7.4,1.2L186.4,424.8z M195.9,422.9c0.1,0.3,0.3,0.5,0.7,0.5c0.3-0.1,0.6-0.3,0.5-0.7
							c-0.1-0.3-0.4-0.5-0.7-0.5C196.1,422.3,195.9,422.6,195.9,422.9 M185.1,416.6l4.6-0.7c1.3-0.2,2.3,0.6,2.5,1.8
							c0.2,1.3-0.5,2.2-1.8,2.4l-4.6,0.7l0.1,0.9l4.9-0.8c1.7-0.3,2.5-1.5,2.3-3.1c-0.2-1-0.7-1.8-1.6-2.2l1.1-0.2l-0.1-0.8
							l-7.4,1.2L185.1,416.6z M183.8,408.4l4.6-0.7c1.3-0.2,2.3,0.6,2.5,1.8c0.2,1.3-0.5,2.2-1.8,2.4l-4.6,0.7l0.1,0.9l4.9-0.8
							c1.7-0.3,2.5-1.5,2.3-3.1c-0.2-1-0.7-1.8-1.6-2.2l1.1-0.2l-0.1-0.8l-7.4,1.2L183.8,408.4z M183.5,401.7
							c-0.2-1.5,0.8-2.7,2.6-2.9c1.8-0.3,3.2,0.5,3.4,2c0.2,1.4-0.8,2.6-2.6,2.9C185.1,404,183.7,403.2,183.5,401.7 M182.7,401.7
							c0.2,1.2,0.9,2,1.8,2.4l-1.3,0.2l0.1,0.8l7.4-1.2l-0.1-0.8l-1.3,0.2c0.8-0.7,1.2-1.6,1-2.8c-0.3-1.8-2.1-3-4.3-2.6
							C183.7,398.3,182.4,399.9,182.7,401.7 M191.3,389.5l0.4,2.6c0.3,1.6-0.4,2.7-1.8,2.9c-1.5,0.2-2.4-0.6-2.7-2.2l-0.4-2.6
							L191.3,389.5z M181.1,391.1l4.9-0.8l0.2,1.4l-4.3,4.4l0.2,1.1l4.3-4.5l0,0.2c0.3,2.2,1.7,3.3,3.6,3c2-0.3,2.9-1.8,2.5-4
							l-0.6-3.6l-11.1,1.8L181.1,391.1z"/>
						<path style="clip-path:url(#SVGID_00000142888440718942528890000006396734530828181148_);fill:#1C355E;" d="M-115.7,440.5
							c1.6,0.2,2.6,1.1,2.6,2.5c0,1.3-1.1,2.1-2.7,2.2L-115.7,440.5z M-120.1,442.8c0,1,0.2,1.9,1.1,2.8l0.6-0.5
							c-0.6-0.6-0.9-1.3-0.9-2.2c0-1.4,1.1-2.4,2.9-2.4l-0.2,5.5c0.1,0,0.2,0,0.3,0c2.3,0.1,3.9-1.2,4-3c0.1-1.9-1.4-3.3-3.8-3.4
							C-118.5,439.5-120,440.8-120.1,442.8 M-119.8,436.6c0,0.8,0.2,1.4,0.6,1.9l0.7-0.4c-0.3-0.4-0.5-0.9-0.4-1.4
							c0-0.9,0.6-1.4,1.7-1.4l4.4,0.2l-0.1,3l0.8,0l0.1-3l2.3,0.1l0-0.9l-2.3-0.1l0.1-1.5l-0.8,0l-0.1,1.5l-4.4-0.2
							C-119,434.4-119.8,435.2-119.8,436.6 M-119.5,428.8l4.5,0.2c1.3,0,2.3,0.8,2.2,2c0,0.4-0.1,0.8-0.3,1.1l0.8,0.3
							c0.2-0.3,0.3-0.7,0.3-1.1c0-0.9-0.4-1.6-1.1-2.1l1.1,0l0-0.8l-7.5-0.3L-119.5,428.8z M-118.5,422.2c0.1-1.5,1.3-2.5,3.1-2.4
							c1.8,0.1,3,1.1,3,2.6c-0.1,1.5-1.3,2.4-3.1,2.4C-117.4,424.7-118.6,423.6-118.5,422.2 M-119.3,422c0,1.2,0.5,2.1,1.3,2.7
							l-1.3,0l0,0.9l7.5,0.3l0-0.9l-1.3,0c0.9-0.5,1.5-1.4,1.5-2.5c0.1-1.9-1.5-3.3-3.8-3.4C-117.7,418.8-119.3,420.1-119.3,422
							 M-118.8,408.1l9.7,3.2l-9.9,2.5l0,1.1l11.1,3.7l0-1l-10-3.2l10.2-2.6l0-1l-10-3.3l10.2-2.5l0-1l-11.3,2.9L-118.8,408.1z
							 M-118.4,396.5c-0.1,1.7,0.7,2.9,2.1,2.9c1.1,0,1.8-0.7,2.1-2l0.2-0.8c0.2-1.1,0.7-1.5,1.3-1.5c0.8,0,1.3,0.8,1.3,1.8
							c0,0.9-0.4,1.6-0.8,2.1l0.6,0.4c0.5-0.6,0.9-1.5,0.9-2.5c0.1-1.5-0.7-2.6-2-2.7c-1,0-1.8,0.5-2.1,2l-0.2,0.8
							c-0.2,1-0.7,1.5-1.3,1.5c-0.9,0-1.3-0.9-1.3-2c0-1,0.4-1.7,0.9-2.2l-0.6-0.4C-118.1,394.5-118.4,395.4-118.4,396.5
							 M-117.4,389.1c0.1-1.5,1.3-2.5,3.1-2.4c1.8,0.1,3,1.2,3,2.6c-0.1,1.5-1.3,2.5-3.1,2.4C-116.3,391.7-117.4,390.5-117.4,389.1
							 M-118.2,389c-0.1,2,1.4,3.5,3.8,3.5c2.3,0.1,3.9-1.3,4-3.3c0.1-2-1.4-3.5-3.8-3.5C-116.5,385.7-118.1,387.1-118.2,389
							 M-117.7,378.7l4.6,0.2c1.3,0,2.2,1,2.1,2.2c0,1.3-0.9,2.1-2.2,2l-4.7-0.2l0,0.9l4.9,0.2c1.7,0.1,2.8-1,2.8-2.6
							c0-1-0.3-1.9-1.2-2.4l1.1,0l0-0.8l-7.5-0.3L-117.7,378.7z M-117.6,372.5c-0.1,1.7,0.9,3,2.8,3.1l4.7,0.2l0-0.9l-4.6-0.2
							c-1.4,0-2.2-0.9-2.1-2.2c0-1.3,0.8-2.1,2.3-2l4.6,0.2l0-0.9l-4.7-0.2C-116.5,369.6-117.6,370.8-117.6,372.5 M-117.2,364.9
							l4.5,0.2c1.3,0,2.3,0.8,2.2,2c0,0.4-0.1,0.8-0.3,1.1l0.8,0.3c0.2-0.3,0.3-0.7,0.3-1.1c0-0.9-0.4-1.6-1.1-2.1l1.1,0l0-0.8
							l-7.5-0.3L-117.2,364.9z M-111.6,355.7l-0.1,2.9c-0.1,1.6-0.7,2.7-2.3,2.6c-1.6-0.1-2.2-1.1-2.1-2.8l0.1-2.9L-111.6,355.7z
							 M-106.6,355.8l-0.1,2.8c-0.1,1.6-0.7,2.6-2.2,2.6c-1.6-0.1-2.1-1.1-2-2.7l0.1-2.8L-106.6,355.8z M-117,358.4
							c-0.1,2.2,0.8,3.7,2.9,3.7c1.5,0.1,2.4-0.8,2.8-2.1c0.3,1.2,1.1,2,2.5,2c2,0.1,3-1.3,3-3.5l0.1-3.7l-11.2-0.4L-117,358.4z"/>
						<path style="clip-path:url(#SVGID_00000142888440718942528890000006396734530828181148_);fill:#1C355E;" d="M-30.5,118.2
							c0.8,0,1.4-0.3,1.9-0.7l-0.4-0.7c-0.4,0.3-0.9,0.5-1.4,0.5c-0.9,0-1.5-0.5-1.5-1.6v-4.4h3v-0.8h-3v-2.3h-0.9v2.3h-1.5v0.8h1.5
							v4.4C-32.7,117.4-31.8,118.2-30.5,118.2 M-39.8,118.1v-3.5h1.1l2.8,3.5h1.1l-3.2-4l3.1-3.6H-36l-2.7,3.2h-1.1v-7.2h-0.9v11.5
							H-39.8z M-45.4,118.1v-4.5c0-1.3,0.7-2.3,1.9-2.3c0.4,0,0.8,0.1,1.1,0.2l0.2-0.8c-0.3-0.2-0.7-0.2-1.2-0.2
							c-0.9,0-1.6,0.4-2.1,1.2v-1.1h-0.8v7.5H-45.4z M-52.1,117.4c-1.5,0-2.5-1.2-2.5-3c0-1.8,1-3,2.5-3c1.5,0,2.5,1.2,2.5,3
							C-49.6,116.2-50.6,117.4-52.1,117.4 M-52.2,118.2c1.2,0,2.1-0.6,2.6-1.4v1.3h0.9v-7.5h-0.9v1.3c-0.5-0.9-1.4-1.4-2.6-1.4
							c-1.9,0-3.2,1.6-3.2,3.9C-55.4,116.7-54.1,118.2-52.2,118.2 M-66.7,118.1v-9.9l3.7,7.8h0.9l3.7-7.8v10h0.9v-11.2h-1.3
							l-3.7,7.9l-3.7-7.9h-1.3v11.2H-66.7z M-76,118.1v-4.5c0-1.3,0.7-2.3,1.9-2.3c0.4,0,0.8,0.1,1.1,0.2l0.2-0.8
							c-0.3-0.2-0.7-0.2-1.2-0.2c-0.9,0-1.6,0.4-2.1,1.2v-1.1h-0.8v7.5H-76z M-84.3,113.9c0.1-1.6,1.1-2.6,2.4-2.6
							c1.3,0,2.2,1,2.3,2.6H-84.3z M-81.8,118.2c1,0,1.9-0.3,2.7-1.2l-0.5-0.6c-0.6,0.6-1.3,1-2.2,1c-1.4,0-2.4-1-2.5-2.8h5.5
							c0-0.1,0-0.2,0-0.3c0-2.4-1.3-3.9-3.1-3.9c-1.9,0-3.3,1.5-3.3,3.9C-85.2,116.7-83.8,118.2-81.8,118.2 M-88,118.2
							c0.8,0,1.4-0.3,1.9-0.7l-0.4-0.7c-0.4,0.3-0.9,0.5-1.4,0.5c-0.9,0-1.5-0.5-1.5-1.6v-4.4h3v-0.8h-3v-2.3h-0.9v2.3h-1.5v0.8h1.5
							v4.4C-90.3,117.4-89.4,118.2-88,118.2 M-93.4,106.6h-0.9v11.5h0.9V106.6z M-100.4,107.9l2.2,6.1h-4.4L-100.4,107.9z
							 M-104,118.1l1.2-3.2h5l1.2,3.2h1l-4.1-11.2h-1.1l-4.1,11.2H-104z"/>
						<path style="clip-path:url(#SVGID_00000142888440718942528890000006396734530828181148_);fill:#1C355E;" d="M105.2,164.1
							c0.5,0.6,1.1,1,1.7,1.1l0.3-0.7c-0.5-0.1-0.9-0.4-1.3-0.8c-0.5-0.7-0.5-1.5,0.4-2.2l3.5-2.7l1.8,2.4l0.6-0.5l-1.8-2.4l1.8-1.4
							l-0.5-0.7l-1.8,1.4l-0.9-1.2l-0.6,0.5l0.9,1.2l-3.5,2.7C104.5,161.8,104.4,163,105.2,164.1 M99.5,156.6l2.8-2.2l0.7,0.8
							l-1.1,4.4l0.7,0.8l1.2-5l4.7,0.3l-0.6-0.8l-4.2-0.2L103,154l5.6-4.4l-0.5-0.7L99,156L99.5,156.6z M96.1,152.2l3.5-2.8
							c1.1-0.8,2.3-0.8,3,0.1c0.2,0.3,0.4,0.7,0.5,1l0.8-0.3c-0.1-0.4-0.2-0.7-0.5-1.1c-0.6-0.7-1.3-1-2.2-0.9l0.8-0.6l-0.5-0.7
							l-5.9,4.6L96.1,152.2z M92.6,146.5c-0.9-1.2-0.6-2.7,0.9-3.8c1.4-1.1,3-1.1,3.9,0.1c0.9,1.2,0.6,2.7-0.9,3.8
							C95.1,147.8,93.5,147.7,92.6,146.5 M91.8,146.9c0.7,0.9,1.7,1.3,2.7,1.2l-1,0.8l0.5,0.7l5.9-4.6l-0.5-0.7l-1,0.8
							c0.3-1,0.2-2-0.5-2.9c-1.2-1.5-3.2-1.6-5.1-0.2C91.1,143.4,90.7,145.5,91.8,146.9 M83,135.4l7.8-6.1l-3.9,7.7l0.6,0.7l8.4-1.9
							l-7.9,6.1l0.6,0.7l8.8-6.9l-0.8-1l-8.5,1.9l4-7.8l-0.8-1l-8.8,6.9L83,135.4z M77.3,128.1l3.5-2.8c1.1-0.8,2.3-0.8,3,0.1
							c0.2,0.3,0.4,0.7,0.5,1l0.8-0.3c-0.1-0.4-0.2-0.7-0.5-1.1c-0.6-0.7-1.3-1-2.2-0.9l0.8-0.6l-0.5-0.7l-5.9,4.6L77.3,128.1z
							 M75.5,119c1.4-0.9,2.7-0.8,3.5,0.3c0.8,1,0.5,2.3-0.7,3.4L75.5,119z M73.6,123.6c0.6,0.8,1.4,1.3,2.6,1.4l0.2-0.7
							c-0.8-0.1-1.5-0.4-2.1-1.1c-0.9-1.1-0.7-2.5,0.7-3.7l3.4,4.3c0.1-0.1,0.2-0.1,0.3-0.2c1.9-1.4,2.2-3.4,1.1-4.8
							c-1.2-1.5-3.2-1.7-5.1-0.2C72.7,120,72.4,122,73.6,123.6 M69.8,118.7c0.5,0.6,1.1,1,1.7,1.1l0.3-0.7c-0.5-0.1-0.9-0.4-1.3-0.8
							c-0.5-0.7-0.5-1.5,0.4-2.2l3.5-2.7l1.8,2.4l0.6-0.5l-1.8-2.4l1.8-1.4l-0.5-0.7l-1.8,1.4l-0.9-1.2l-0.6,0.5l0.9,1.2l-3.5,2.7
							C69,116.4,68.9,117.6,69.8,118.7 M66.5,114.4l9.1-7.1l-0.5-0.7l-9.1,7.1L66.5,114.4z M70.3,102.6l-3.5,5.5l-2.7-3.4
							L70.3,102.6z M60,106l3.3-1.1l3.1,3.9l-1.8,2.9l0.6,0.8l6.3-10.1l-0.7-0.9l-11.3,3.7L60,106z"/>
						<path style="clip-path:url(#SVGID_00000142888440718942528890000006396734530828181148_);fill:#1C355E;" d="M338.7,134.6
							c-0.2-1.6,0.5-2.8,1.8-3c1.2-0.2,2.3,0.6,2.7,2.2L338.7,134.6z M342,138.3c1-0.2,1.8-0.6,2.5-1.7l-0.6-0.5
							c-0.4,0.7-1,1.2-2,1.4c-1.4,0.3-2.6-0.5-3-2.3l5.4-1.1c0-0.1,0-0.2,0-0.3c-0.4-2.3-2-3.5-3.8-3.2c-1.9,0.4-2.9,2.1-2.5,4.4
							C338.4,137.5,340,138.7,342,138.3 M334.6,139.8c1.7-0.3,2.6-1.3,2.4-2.7c-0.2-1.1-1.1-1.6-2.5-1.6l-0.8,0
							c-1.1,0-1.6-0.3-1.8-1c-0.2-0.8,0.5-1.4,1.5-1.6c0.8-0.2,1.7,0,2.2,0.3l0.3-0.7c-0.7-0.4-1.6-0.5-2.7-0.3
							c-1.5,0.3-2.4,1.3-2.2,2.6c0.2,1,0.9,1.6,2.4,1.6l0.8,0c1.1,0,1.6,0.3,1.8,1c0.2,0.9-0.5,1.5-1.7,1.7c-1,0.2-1.8,0-2.4-0.3
							l-0.3,0.7C332.6,139.8,333.6,140,334.6,139.8 M328,141.1c1.7-0.3,2.6-1.3,2.4-2.7c-0.2-1.1-1.1-1.6-2.5-1.6l-0.8,0
							c-1.1,0-1.6-0.3-1.8-1c-0.2-0.8,0.5-1.4,1.5-1.6c0.8-0.2,1.7,0,2.2,0.3l0.3-0.7c-0.7-0.4-1.6-0.5-2.7-0.3
							c-1.5,0.3-2.4,1.3-2.2,2.6c0.2,1,0.9,1.6,2.4,1.6l0.8,0c1.1,0,1.6,0.3,1.8,1c0.2,0.9-0.5,1.5-1.7,1.7c-1,0.2-1.8,0-2.4-0.3
							l-0.3,0.7C326,141.1,327,141.3,328,141.1 M320.1,141.7c-1.5,0.3-2.7-0.7-3-2.5c-0.3-1.8,0.4-3.2,1.9-3.5
							c1.4-0.3,2.7,0.7,3,2.5C322.4,140.1,321.6,141.5,320.1,141.7 M320.2,142.6c1.2-0.2,1.9-0.9,2.3-1.9l0.3,1.3l0.8-0.2l-1.4-7.4
							l-0.8,0.2l0.2,1.3c-0.7-0.7-1.7-1.1-2.8-0.9c-1.8,0.4-2.9,2.2-2.4,4.4C316.7,141.7,318.3,142.9,320.2,142.6 M311.7,143.3
							c-1.4,0.3-2.7-0.7-3-2.5c-0.3-1.7,0.4-3.1,1.9-3.4c1.4-0.3,2.7,0.7,3,2.5C313.9,141.6,313.1,143,311.7,143.3 M312.3,147.2
							c1.9-0.4,3.2-1.8,2.7-4.1l-1.4-7.1l-0.8,0.2l0.2,1.2c-0.7-0.7-1.7-1.1-2.8-0.8c-1.8,0.3-2.8,2.1-2.4,4.3
							c0.4,2.3,2.1,3.5,3.8,3.1c1.1-0.2,1.9-0.9,2.3-1.8l0.2,1c0.3,1.8-0.7,2.8-2.1,3.1c-1,0.2-1.9,0-2.5-0.4l-0.3,0.7
							C310.1,147.2,311.2,147.4,312.3,147.2 M301.7,146.1l-0.9-4.5c-0.2-1.3,0.5-2.3,1.7-2.6c1.3-0.3,2.2,0.4,2.5,1.7l0.9,4.6
							l0.9-0.2l-0.9-4.8c-0.3-1.7-1.6-2.5-3.2-2.2c-0.9,0.2-1.7,0.7-2.1,1.6l-1-5l-0.9,0.2l2.2,11.3L301.7,146.1z M296.7,147.1
							c1-0.2,1.8-0.8,2.2-1.6l-0.7-0.4c-0.4,0.6-0.9,1.1-1.7,1.2c-1.4,0.3-2.7-0.7-3-2.5c-0.4-1.8,0.5-3.2,1.9-3.5
							c0.7-0.1,1.4,0.1,2,0.5l0.5-0.6c-0.7-0.6-1.7-0.9-2.6-0.7c-2,0.4-3,2.2-2.6,4.4C293.1,146.3,294.8,147.5,296.7,147.1
							 M289.3,148.6c1.7-0.3,2.6-1.3,2.4-2.7c-0.2-1.1-1.1-1.6-2.5-1.6l-0.8,0c-1.1,0-1.6-0.3-1.8-1c-0.2-0.8,0.5-1.4,1.5-1.6
							c0.8-0.2,1.7,0,2.2,0.3l0.3-0.7c-0.7-0.4-1.6-0.5-2.7-0.3c-1.5,0.3-2.4,1.3-2.2,2.6c0.2,1,0.9,1.6,2.4,1.6l0.8,0
							c1.1,0,1.6,0.3,1.8,1c0.2,0.9-0.5,1.5-1.7,1.7c-1,0.2-1.8,0-2.4-0.3l-0.3,0.7C287.3,148.6,288.3,148.8,289.3,148.6
							 M283.9,149.6c0.8-0.2,1.4-0.5,1.8-1l-0.5-0.6c-0.3,0.4-0.8,0.7-1.3,0.8c-0.9,0.2-1.5-0.2-1.7-1.3l-0.8-4.3l2.9-0.6l-0.2-0.8
							l-2.9,0.6l-0.4-2.3l-0.9,0.2l0.4,2.3l-1.5,0.3l0.2,0.8l1.5-0.3l0.8,4.4C281.6,149.3,282.5,149.9,283.9,149.6 M275.8,151.2
							c1.7-0.3,2.7-1.6,2.4-3.5l-0.9-4.6l-0.8,0.2l0.9,4.5c0.3,1.4-0.4,2.3-1.6,2.5c-1.2,0.2-2.2-0.3-2.5-1.7l-0.9-4.5l-0.8,0.2
							l0.9,4.6C272.7,150.8,274.1,151.5,275.8,151.2 M265.1,153.2l-1-5.1l1.2-0.2l5.4,4.2l1.2-0.2l-6-4.6l3.5-6.3l-1.1,0.2l-3.2,5.8
							l-1.2,0.2l-1-5l-0.9,0.2l2.1,11L265.1,153.2z"/>
						<path style="clip-path:url(#SVGID_00000142888440718942528890000006396734530828181148_);fill:#1C355E;" d="M174.7,134.5
							c-10.6,0-19.2,8.6-19.2,19.2s8.6,19.2,19.2,19.2c10.6,0,19.2-8.6,19.2-19.2S185.3,134.5,174.7,134.5 M174.7,174.1
							c-11.3,0-20.5-9.2-20.5-20.5c0-11.3,9.2-20.5,20.5-20.5c11.3,0,20.5,9.2,20.5,20.5C195.2,165,186,174.1,174.7,174.1"/>
					</g>
					
						<rect x="174.1" y="147.3" style="clip-path:url(#SVGID_00000168110595407056481420000002809187048800421790_);fill:#1C355E;" width="1.3" height="17.6"/>
					<g style="clip-path:url(#SVGID_00000168110595407056481420000002809187048800421790_);">
						<defs>
							<rect id="SVGID_00000143580048145350855260000006906303250523701661_" x="-194.1" y="0" width="842" height="550"/>
						</defs>
						<clipPath id="SVGID_00000183218556571900471600000004581730508582750343_">
							<use xlink:href="#SVGID_00000143580048145350855260000006906303250523701661_"  style="overflow:visible;"/>
						</clipPath>
						<path style="clip-path:url(#SVGID_00000183218556571900471600000004581730508582750343_);fill:#1C355E;" d="M177.2,144.9h-1.3
							c0-0.6-0.5-1.1-1.2-1.1c-0.6,0-1.2,0.5-1.2,1.1h-1.3c0-1.3,1.1-2.4,2.4-2.4C176.1,142.5,177.2,143.5,177.2,144.9"/>
						<path style="clip-path:url(#SVGID_00000183218556571900471600000004581730508582750343_);fill:#1C355E;" d="M177.7,156.7v-1.3
							c1.9,0,3.4-1.5,3.4-3.4s-1.5-3.4-3.4-3.4v-1.3c2.6,0,4.7,2.1,4.7,4.7C182.3,154.6,180.2,156.7,177.7,156.7"/>
						<path style="clip-path:url(#SVGID_00000183218556571900471600000004581730508582750343_);fill:#1C355E;" d="M171.8,164.9
							c-2.6,0-4.7-2.1-4.7-4.7c0-2.6,2.1-4.7,4.7-4.7v1.3c-1.9,0-3.4,1.5-3.4,3.4s1.5,3.4,3.4,3.4V164.9z"/>
						
							<path style="clip-path:url(#SVGID_00000183218556571900471600000004581730508582750343_);fill:none;stroke:#FFFFFF;stroke-width:15;" d="
							M85.6-173.4c0,0-148.3,181.4-20.8,324.6s154,154.5,168.2,420.9l384.6-5.2"/>
						
							<path style="clip-path:url(#SVGID_00000183218556571900471600000004581730508582750343_);fill:none;stroke:#FFFFFF;stroke-width:15;" d="
							M-384.9,176.7c0,0,371.3-70.4,463.9-9.4"/>
						
							<line style="clip-path:url(#SVGID_00000183218556571900471600000004581730508582750343_);fill:none;stroke:#FFFFFF;stroke-width:15;" x1="456.9" y1="-173.4" x2="563.7" y2="699.6"/>
						
							<path style="clip-path:url(#SVGID_00000183218556571900471600000004581730508582750343_);fill:none;stroke:#FFFFFF;stroke-width:15;" d="
							M821.7,226.3l-223.9,51c0,0-15-99.7-19.8-129c-5.7-34-16.1-32.1-101.1-15.6c-98.5,19.2-360,75.1-360,75.1"/>
					</g>
					
						<line style="clip-path:url(#SVGID_00000168110595407056481420000002809187048800421790_);fill:none;stroke:#FFFFFF;stroke-width:15;" x1="512.7" y1="295.7" x2="200.9" y2="337.3"/>
					<g style="clip-path:url(#SVGID_00000168110595407056481420000002809187048800421790_);">
						<defs>
							<rect id="SVGID_00000004531391969624359960000008271341094125202866_" x="-194.1" y="0" width="842" height="550"/>
						</defs>
						<clipPath id="SVGID_00000106111106399208903030000005402665063606644096_">
							<use xlink:href="#SVGID_00000004531391969624359960000008271341094125202866_"  style="overflow:visible;"/>
						</clipPath>
						
							<path style="clip-path:url(#SVGID_00000106111106399208903030000005402665063606644096_);fill:none;stroke:#FFFFFF;stroke-width:15;" d="
							M-383.1,524.4c0,0,315.6-0.9,337.3-0.5c21.7,0.5,52-4.3,51,51c-1,60-1.9,127.6-1.9,127.6"/>
						
							<path style="clip-path:url(#SVGID_00000106111106399208903030000005402665063606644096_);fill:none;stroke:#FFFFFF;stroke-width:15;" d="
							M-93,524.4l7.6-166.3c0,0,8.5-47.2-36.8-52.4c-45.4-5.2-87.9-10.9-87.9-10.9"/>
						
							<path style="clip-path:url(#SVGID_00000106111106399208903030000005402665063606644096_);fill:none;stroke:#FFFFFF;stroke-width:15;" d="
							M-74.1-102.6c0,0,23.6,65.2-61.4,148.8"/>
						
							<path style="clip-path:url(#SVGID_00000106111106399208903030000005402665063606644096_);fill:none;stroke:#FFFFFF;stroke-width:10;" d="
							M488.1,97.3L371,99.2c0,0-17,1.4-17-17.5c0-18.9,0-23.1,19.8-24.1c19.8-0.9,76.5,0,76.5,0"/>
						
							<polygon style="clip-path:url(#SVGID_00000106111106399208903030000005402665063606644096_);fill:none;stroke:#FFFFFF;stroke-width:10;" points="
							611,567.8 628,671.3 805.6,654.3 808.4,570.7 787.7,549.9 						"/>
					</g>
					
						<line style="clip-path:url(#SVGID_00000168110595407056481420000002809187048800421790_);fill:none;stroke:#FFFFFF;stroke-width:10;" x1="594.1" y1="280.5" x2="511.9" y2="298.9"/>
				</g>
			</g>
		</g>
	</g>
</g>
</svg>
