<?xml version="1.0" encoding="utf-8"?>
<!-- Generator: Adobe Illustrator 25.4.1, SVG Export Plug-In . SVG Version: 6.00 Build 0)  -->
<svg version="1.1" id="Ebene_1" xmlns="http://www.w3.org/2000/svg" xmlns:xlink="http://www.w3.org/1999/xlink" x="0px" y="0px"
	 viewBox="0 0 320 320" style="enable-background:new 0 0 320 320;" xml:space="preserve">
<style type="text/css">
	.st0{clip-path:url(#SVGID_00000033360606153027667260000006580060207580770963_);}
	.st1{clip-path:url(#SVGID_00000181061140524001533720000014808801125441824654_);}
	.st2{clip-path:url(#SVGID_00000058548759653250687520000001164083653170172819_);}
	.st3{clip-path:url(#SVGID_00000046297807481206993560000004628228856240137907_);fill:#1C355E;}
	.st4{clip-path:url(#SVGID_00000058548759653250687520000001164083653170172819_);fill:#1C355E;}
	.st5{clip-path:url(#SVGID_00000031192992807185484280000016651624209287694482_);fill:#1C355E;}
	.st6{clip-path:url(#SVGID_00000031192992807185484280000016651624209287694482_);fill:none;stroke:#FFFFFF;stroke-width:12.166;}
	.st7{clip-path:url(#SVGID_00000031192992807185484280000016651624209287694482_);fill:none;stroke:#FFFFFF;stroke-width:8.111;}
</style>
<g>
	<defs>
		<rect id="SVGID_1_" width="320" height="320"/>
	</defs>
	<clipPath id="SVGID_00000168098897423542213880000001279152054381589137_">
		<use xlink:href="#SVGID_1_"  style="overflow:visible;"/>
	</clipPath>
	<g style="clip-path:url(#SVGID_00000168098897423542213880000001279152054381589137_);">
		<defs>
			<rect id="SVGID_00000045584473082162887160000004353583323193549448_" width="320" height="320"/>
		</defs>
		<clipPath id="SVGID_00000110433837542540536910000005591962393675919804_">
			<use xlink:href="#SVGID_00000045584473082162887160000004353583323193549448_"  style="overflow:visible;"/>
		</clipPath>
		<g style="clip-path:url(#SVGID_00000110433837542540536910000005591962393675919804_);">
			<g>
				<defs>
					<rect id="SVGID_00000047049775112395425620000003397602192641765000_" x="-9" y="-7" width="338" height="328"/>
				</defs>
				<clipPath id="SVGID_00000042007770641837347450000001158152292512195990_">
					<use xlink:href="#SVGID_00000047049775112395425620000003397602192641765000_"  style="overflow:visible;"/>
				</clipPath>
				<g style="clip-path:url(#SVGID_00000042007770641837347450000001158152292512195990_);">
					<defs>
						<rect id="SVGID_00000099655665216604713900000007354600542235966396_" width="320" height="320"/>
					</defs>
					<clipPath id="SVGID_00000142858719795085890580000007017825117295561366_">
						<use xlink:href="#SVGID_00000099655665216604713900000007354600542235966396_"  style="overflow:visible;"/>
					</clipPath>
					<path style="clip-path:url(#SVGID_00000142858719795085890580000007017825117295561366_);fill:#1C355E;" d="M144.9,98.1
						c-10.6,0-19.2,8.6-19.2,19.2c0,10.6,8.6,19.2,19.2,19.2c10.6,0,19.2-8.6,19.2-19.2C164.1,106.7,155.5,98.1,144.9,98.1
						 M144.9,137.8c-11.3,0-20.5-9.2-20.5-20.5c0-11.3,9.2-20.5,20.5-20.5c11.3,0,20.5,9.2,20.5,20.5
						C165.4,128.6,156.2,137.8,144.9,137.8"/>
				</g>
				
					<rect x="144.2" y="111" style="clip-path:url(#SVGID_00000042007770641837347450000001158152292512195990_);fill:#1C355E;" width="1.3" height="17.6"/>
				<g style="clip-path:url(#SVGID_00000042007770641837347450000001158152292512195990_);">
					<defs>
						<rect id="SVGID_00000015321760159377360400000016612376031566163356_" width="320" height="320"/>
					</defs>
					<clipPath id="SVGID_00000130624723244140006090000008873384673474771631_">
						<use xlink:href="#SVGID_00000015321760159377360400000016612376031566163356_"  style="overflow:visible;"/>
					</clipPath>
					<path style="clip-path:url(#SVGID_00000130624723244140006090000008873384673474771631_);fill:#1C355E;" d="M147.3,108.5H146
						c0-0.6-0.5-1.1-1.2-1.1c-0.6,0-1.2,0.5-1.2,1.1h-1.3c0-1.3,1.1-2.4,2.4-2.4S147.3,107.2,147.3,108.5"/>
					<path style="clip-path:url(#SVGID_00000130624723244140006090000008873384673474771631_);fill:#1C355E;" d="M147.8,120.4v-1.3
						c1.9,0,3.4-1.5,3.4-3.4c0-1.9-1.5-3.4-3.4-3.4V111c2.6,0,4.7,2.1,4.7,4.7S150.4,120.4,147.8,120.4"/>
					<path style="clip-path:url(#SVGID_00000130624723244140006090000008873384673474771631_);fill:#1C355E;" d="M142,128.5
						c-2.6,0-4.7-2.1-4.7-4.7s2.1-4.7,4.7-4.7v1.3c-1.9,0-3.4,1.5-3.4,3.4c0,1.9,1.5,3.4,3.4,3.4V128.5z"/>
					
						<path style="clip-path:url(#SVGID_00000130624723244140006090000008873384673474771631_);fill:none;stroke:#FFFFFF;stroke-width:12.166;" d="
						M84-149.9c0,0-120.3,147.1-16.9,263.2s124.9,125.3,136.4,341.4l311.9-4.2"/>
					
						<path style="clip-path:url(#SVGID_00000130624723244140006090000008873384673474771631_);fill:none;stroke:#FFFFFF;stroke-width:12.166;" d="
						M-297.6,134c0,0,301.2-57.1,376.3-7.7"/>
					
						<path style="clip-path:url(#SVGID_00000130624723244140006090000008873384673474771631_);fill:none;stroke:#FFFFFF;stroke-width:12.166;" d="
						M681,174.2l-181.6,41.4c0,0-12.1-80.9-16.1-104.6c-4.6-27.6-13-26.1-82-12.6c-79.9,15.5-292,60.9-292,60.9"/>
					
						<line style="clip-path:url(#SVGID_00000130624723244140006090000008873384673474771631_);fill:none;stroke:#FFFFFF;stroke-width:12.166;" x1="430.4" y1="230.6" x2="177.5" y2="264.3"/>
					
						<path style="clip-path:url(#SVGID_00000130624723244140006090000008873384673474771631_);fill:none;stroke:#FFFFFF;stroke-width:8.111;" d="
						M410.5,69.6l-95,1.5c0,0-13.8,1.2-13.8-14.2c0-15.3,0-18.8,16.1-19.5c16.1-0.8,62.1,0,62.1,0"/>
					<path style="clip-path:url(#SVGID_00000130624723244140006090000008873384673474771631_);fill:#1C355E;" d="M267.7,104.9
						c-0.2-1.6,0.5-2.8,1.8-3c1.2-0.2,2.3,0.6,2.7,2.2L267.7,104.9z M271,108.7c1-0.2,1.8-0.6,2.5-1.7l-0.6-0.5
						c-0.4,0.7-1,1.2-2,1.4c-1.4,0.3-2.6-0.5-3-2.3l5.4-1.1c0-0.1,0-0.2,0-0.3c-0.4-2.3-2-3.5-3.8-3.2c-1.9,0.4-2.9,2.1-2.5,4.4
						C267.4,107.8,269,109.1,271,108.7 M263.6,110.1c1.7-0.3,2.6-1.3,2.4-2.7c-0.2-1.1-1.1-1.6-2.5-1.6l-0.8,0c-1.1,0-1.6-0.3-1.8-1
						c-0.2-0.8,0.5-1.4,1.5-1.6c0.8-0.2,1.7,0,2.2,0.3l0.3-0.7c-0.7-0.4-1.6-0.5-2.7-0.3c-1.5,0.3-2.4,1.3-2.2,2.6
						c0.2,1,0.9,1.6,2.4,1.6l0.8,0c1.1,0,1.6,0.3,1.8,1c0.2,0.9-0.5,1.5-1.7,1.7c-1,0.2-1.8,0-2.4-0.3l-0.3,0.7
						C261.6,110.2,262.6,110.3,263.6,110.1 M257,111.4c1.7-0.3,2.6-1.3,2.4-2.7c-0.2-1.1-1.1-1.6-2.5-1.6l-0.8,0
						c-1.1,0-1.6-0.3-1.8-1c-0.2-0.8,0.5-1.4,1.5-1.6c0.8-0.2,1.7,0,2.2,0.3l0.3-0.7c-0.7-0.4-1.6-0.5-2.7-0.3
						c-1.5,0.3-2.4,1.3-2.2,2.6c0.2,1,0.9,1.6,2.4,1.6l0.8,0c1.1,0,1.6,0.3,1.8,1c0.2,0.9-0.5,1.5-1.7,1.7c-1,0.2-1.8,0-2.4-0.3
						l-0.3,0.7C255,111.5,256,111.6,257,111.4 M249.1,112.1c-1.5,0.3-2.7-0.7-3-2.5c-0.3-1.8,0.4-3.2,1.9-3.5c1.4-0.3,2.7,0.7,3,2.5
						C251.3,110.4,250.6,111.8,249.1,112.1 M249.1,112.9c1.2-0.2,1.9-0.9,2.3-1.9l0.3,1.3l0.8-0.2l-1.4-7.4l-0.8,0.2l0.2,1.3
						c-0.7-0.7-1.7-1.1-2.8-0.9c-1.8,0.4-2.9,2.2-2.4,4.4C245.7,112,247.3,113.3,249.1,112.9 M240.7,113.6c-1.4,0.3-2.7-0.7-3-2.5
						c-0.3-1.7,0.4-3.1,1.9-3.4c1.4-0.3,2.7,0.7,3,2.5C242.9,111.9,242.1,113.3,240.7,113.6 M241.3,117.5c1.9-0.4,3.2-1.8,2.7-4.1
						l-1.4-7.1l-0.8,0.2l0.2,1.2c-0.7-0.7-1.7-1.1-2.8-0.8c-1.8,0.3-2.8,2.1-2.4,4.3c0.4,2.3,2.1,3.5,3.8,3.1
						c1.1-0.2,1.9-0.9,2.3-1.8l0.2,1c0.3,1.8-0.7,2.8-2.1,3.1c-1,0.2-1.9,0-2.5-0.4l-0.3,0.7C239.1,117.6,240.1,117.8,241.3,117.5
						 M230.7,116.4l-0.9-4.5c-0.2-1.3,0.5-2.3,1.7-2.6c1.3-0.3,2.2,0.4,2.5,1.7l0.9,4.6l0.9-0.2l-0.9-4.8c-0.3-1.7-1.6-2.5-3.2-2.2
						c-0.9,0.2-1.7,0.7-2.1,1.6l-1-5l-0.9,0.2l2.2,11.3L230.7,116.4z M225.7,117.5c1-0.2,1.8-0.8,2.2-1.6l-0.7-0.4
						c-0.4,0.6-0.9,1.1-1.7,1.2c-1.4,0.3-2.7-0.7-3-2.5c-0.4-1.8,0.5-3.2,1.9-3.5c0.7-0.1,1.4,0.1,2,0.5l0.5-0.6
						c-0.7-0.6-1.7-0.9-2.6-0.7c-2,0.4-3,2.2-2.6,4.4C222.1,116.6,223.7,117.9,225.7,117.5 M218.3,118.9c1.7-0.3,2.6-1.3,2.4-2.7
						c-0.2-1.1-1.1-1.6-2.5-1.6l-0.8,0c-1.1,0-1.6-0.3-1.8-1c-0.2-0.8,0.5-1.4,1.5-1.6c0.8-0.2,1.7,0,2.2,0.3l0.3-0.7
						c-0.7-0.4-1.6-0.5-2.7-0.3c-1.5,0.3-2.4,1.3-2.2,2.6c0.2,1,0.9,1.6,2.4,1.6l0.8,0c1.1,0,1.6,0.3,1.8,1c0.2,0.9-0.5,1.5-1.7,1.7
						c-1,0.2-1.8,0-2.4-0.3l-0.3,0.7C216.3,119,217.3,119.1,218.3,118.9 M212.9,120c0.8-0.2,1.4-0.5,1.8-1l-0.5-0.6
						c-0.3,0.4-0.8,0.7-1.3,0.8c-0.9,0.2-1.5-0.2-1.7-1.3l-0.8-4.3l2.9-0.6l-0.2-0.8l-2.9,0.6l-0.4-2.3l-0.9,0.2l0.4,2.3l-1.5,0.3
						l0.2,0.8l1.5-0.3l0.8,4.4C210.6,119.6,211.5,120.2,212.9,120 M204.8,121.5c1.7-0.3,2.7-1.6,2.4-3.5l-0.9-4.6l-0.8,0.2l0.9,4.5
						c0.3,1.4-0.4,2.3-1.6,2.5c-1.2,0.2-2.2-0.3-2.5-1.7l-0.9-4.5l-0.8,0.2l0.9,4.6C201.7,121.1,203.1,121.9,204.8,121.5
						 M194.1,123.5l-1-5.1l1.2-0.2l5.4,4.2l1.2-0.2l-6-4.6l3.5-6.3l-1.1,0.2l-3.2,5.8l-1.2,0.2l-1-5l-0.9,0.2l2.1,11L194.1,123.5z"
						/>
					<path style="clip-path:url(#SVGID_00000130624723244140006090000008873384673474771631_);fill:#1C355E;" d="M272,232.3
						c-0.1-1.6,0.7-2.8,2-2.9c1.3-0.2,2.3,0.7,2.6,2.3L272,232.3z M275,236.3c1-0.1,1.9-0.5,2.6-1.5l-0.6-0.5
						c-0.5,0.7-1.1,1.1-2.1,1.3c-1.4,0.2-2.5-0.7-2.9-2.4l5.5-0.7c0-0.1,0-0.2,0-0.3c-0.3-2.3-1.8-3.7-3.6-3.4
						c-1.9,0.2-3.1,1.9-2.8,4.3C271.5,235.3,273,236.6,275,236.3 M267.4,237.3c1.6-0.2,2.7-1.5,2.5-3.5c-0.2-1.4-1.2-2.5-2.3-2.6
						c0.9-0.4,1.5-1.5,1.3-2.9c-0.2-1.8-1.7-2.8-3.5-2.6c-2,0.3-2.9,1.8-2.7,3.6l1.1,8.3l0.9-0.1l-1.1-8.3c-0.2-1.5,0.6-2.5,1.9-2.7
						c1.3-0.2,2.4,0.5,2.6,2c0.2,1.5-0.7,2.4-1.9,2.5l-0.4,0.1l0.1,0.8l0.6-0.1c1.4-0.2,2.4,0.6,2.6,2c0.2,1.5-0.6,2.5-1.8,2.6
						c-0.6,0.1-1,0-1.4-0.1l-0.1,0.8C266.1,237.3,266.7,237.4,267.4,237.3 M258,237.7c-1.5,0.2-2.6-0.9-2.9-2.7
						c-0.2-1.8,0.6-3.2,2.1-3.3c1.5-0.2,2.6,0.9,2.9,2.7C260.3,236.2,259.4,237.5,258,237.7 M257.9,238.5c1.2-0.2,2-0.8,2.4-1.8
						l0.2,1.3l0.8-0.1l-1-7.5l-0.8,0.1l0.2,1.3c-0.7-0.8-1.6-1.2-2.8-1.1c-1.9,0.2-3,2-2.7,4.3C254.5,237.4,256.1,238.8,257.9,238.5
						 M250.8,239.4l-0.6-4.5c-0.2-1.3,0.4-2.4,1.6-2.5c0.4,0,0.8,0,1.1,0.1l0.1-0.9c-0.3-0.1-0.7-0.2-1.2-0.1
						c-0.9,0.1-1.6,0.6-1.9,1.4l-0.1-1l-0.8,0.1l1,7.5L250.8,239.4z M246.5,240c0.8-0.1,1.4-0.4,1.8-0.9l-0.5-0.6
						c-0.3,0.4-0.8,0.6-1.3,0.7c-0.9,0.1-1.5-0.3-1.7-1.4l-0.6-4.3l3-0.4l-0.1-0.8l-3,0.4l-0.3-2.3l-0.9,0.1l0.3,2.3l-1.5,0.2
						l0.1,0.8l1.5-0.2l0.6,4.4C244.2,239.6,245.2,240.2,246.5,240 M239,241c1.7-0.2,2.7-1.2,2.5-2.5c-0.1-1.1-1-1.7-2.4-1.7l-0.8,0
						c-1.1,0-1.6-0.4-1.7-1.1c-0.1-0.8,0.5-1.4,1.6-1.5c0.8-0.1,1.7,0.1,2.2,0.4l0.3-0.7c-0.7-0.4-1.6-0.6-2.6-0.5
						c-1.5,0.2-2.5,1.1-2.3,2.4c0.1,1,0.8,1.7,2.3,1.7l0.8,0c1.1,0.1,1.6,0.4,1.7,1.1c0.1,0.9-0.6,1.5-1.8,1.6
						c-1,0.1-1.8-0.1-2.3-0.5l-0.3,0.7C237,241,238,241.2,239,241 M229.5,242.2l-0.6-4.6c-0.2-1.3,0.6-2.3,1.8-2.5
						c1.3-0.2,2.2,0.5,2.4,1.9l0.6,4.6l0.9-0.1l-0.6-4.9c-0.2-1.7-1.4-2.6-3.1-2.3c-1,0.1-1.8,0.6-2.2,1.6l-0.1-1.1l-0.8,0.1l1,7.5
						L229.5,242.2z M224,242.9l-0.6-4.5c-0.2-1.3,0.4-2.4,1.6-2.5c0.4,0,0.8,0,1.1,0.1l0.1-0.9c-0.3-0.1-0.7-0.2-1.2-0.1
						c-0.9,0.1-1.6,0.6-1.9,1.4l-0.1-1l-0.8,0.1l1,7.5L224,242.9z M215.2,239.8c-0.1-1.6,0.7-2.8,2-2.9c1.3-0.2,2.3,0.7,2.6,2.3
						L215.2,239.8z M218.2,243.8c1-0.1,1.9-0.5,2.6-1.5l-0.6-0.5c-0.5,0.7-1.1,1.1-2.1,1.3c-1.4,0.2-2.5-0.7-2.9-2.4l5.5-0.7
						c0-0.1,0-0.2,0-0.3c-0.3-2.3-1.8-3.7-3.6-3.4c-1.9,0.3-3.1,1.9-2.8,4.3C214.6,242.7,216.2,244,218.2,243.8 M212,244.6
						c0.8-0.1,1.4-0.5,1.8-0.9l-0.5-0.6c-0.3,0.3-0.8,0.6-1.3,0.7c-0.9,0.1-1.5-0.3-1.7-1.4l-0.6-4.3l3-0.4l-0.1-0.8l-3,0.4
						l-0.3-2.3l-0.9,0.1l0.3,2.3l-1.5,0.2l0.1,0.8l1.5-0.2l0.6,4.4C209.7,244.1,210.6,244.8,212,244.6 M203.4,245.7
						c2.2-0.3,3.7-1.6,3.4-3.6c-0.2-1.7-1.5-2.4-3.3-2.5l-1.1-0.1c-1.7-0.1-2.5-0.7-2.6-1.8c-0.2-1.3,0.8-2.3,2.4-2.5
						c1.3-0.2,2.3,0.2,3.1,0.8l0.5-0.7c-0.9-0.8-2.1-1.2-3.7-1c-2,0.3-3.5,1.6-3.2,3.5c0.2,1.6,1.3,2.4,3.3,2.5l1.1,0.1
						c1.6,0.1,2.5,0.6,2.7,1.8c0.2,1.4-1,2.3-2.6,2.6c-1.4,0.2-2.6-0.3-3.4-0.9l-0.5,0.7C200.3,245.4,201.8,245.9,203.4,245.7"/>
					<path style="clip-path:url(#SVGID_00000130624723244140006090000008873384673474771631_);fill:#1C355E;" d="M143.4,257.5
						c0.2,0.3,0.6,0.4,0.9,0.2c0.3-0.2,0.4-0.6,0.2-0.9c-0.2-0.3-0.6-0.4-0.9-0.2C143.3,256.7,143.2,257.2,143.4,257.5 M141.4,253.9
						l3.9-2.3c1.1-0.7,2.3-0.5,2.9,0.5c0.2,0.3,0.3,0.7,0.3,1l0.8-0.2c0-0.4-0.2-0.7-0.4-1.1c-0.5-0.8-1.2-1.2-2.1-1.2l0.9-0.5
						l-0.4-0.7l-6.5,3.8L141.4,253.9z M139.1,250.3c0.4,0.7,1,1.1,1.6,1.3l0.4-0.7c-0.5-0.2-0.9-0.5-1.2-0.9
						c-0.5-0.8-0.3-1.5,0.6-2.1l3.7-2.3l1.6,2.5l0.7-0.4l-1.6-2.5l2-1.2l-0.5-0.8l-2,1.2l-0.8-1.3l-0.7,0.4l0.8,1.3l-3.8,2.3
						C138.6,248,138.4,249.1,139.1,250.3 M134.5,242.9c1.2,1.8,3,2.7,4.8,1.6c1.5-0.9,1.6-2.4,0.9-4.1l-0.4-1
						c-0.6-1.6-0.4-2.5,0.5-3.1c1.1-0.7,2.4-0.2,3.2,1.1c0.7,1.1,0.8,2.2,0.6,3.2l0.8,0.1c0.3-1.1,0.2-2.4-0.7-3.8
						c-1.1-1.7-2.9-2.4-4.6-1.4c-1.3,0.9-1.6,2.2-0.9,4l0.4,1.1c0.6,1.5,0.5,2.5-0.5,3.2c-1.2,0.8-2.5,0.1-3.4-1.3
						c-0.7-1.2-0.9-2.5-0.6-3.4l-0.9-0.2C133.4,240,133.6,241.6,134.5,242.9 M130,228.5c1.4-0.8,2.8-0.6,3.5,0.5
						c0.7,1,0.4,2.4-0.9,3.4L130,228.5z M127.8,232.9c0.6,0.8,1.3,1.4,2.5,1.6l0.2-0.7c-0.8-0.1-1.5-0.5-2-1.3
						c-0.8-1.2-0.6-2.6,0.9-3.7l3.1,4.5c0.1,0,0.2-0.1,0.3-0.2c1.9-1.3,2.4-3.3,1.4-4.8c-1.1-1.6-3.1-1.9-5.1-0.5
						C127.2,229.3,126.7,231.3,127.8,232.9 M122,224.4l3.8-2.7c1.1-0.8,2.3-0.5,3,0.5c0.8,1.1,0.5,2.2-0.5,2.9l-3.8,2.7l0.5,0.7
						l4-2.8c1.4-1,1.6-2.5,0.6-3.8c-0.5-0.8-1.4-1.3-2.3-1.2l4.1-2.9l-0.5-0.7l-9.4,6.7L122,224.4z M119,220.3
						c0.6,0.8,1.4,1.3,2.4,1.3l0.1-0.8c-0.7-0.1-1.4-0.4-1.8-1c-0.8-1.2-0.5-2.7,1-3.8c1.5-1.1,3.1-0.9,3.9,0.2
						c0.4,0.6,0.6,1.3,0.4,2l0.8,0.1c0.3-0.9,0.1-1.9-0.5-2.7c-1.2-1.6-3.2-1.8-5.1-0.5C118.2,216.7,117.8,218.7,119,220.3
						 M114.5,214.3c1,1.4,2.4,1.8,3.5,1c0.9-0.7,1-1.7,0.4-2.9l-0.4-0.8c-0.5-1-0.4-1.6,0.1-2c0.7-0.5,1.5-0.2,2.1,0.6
						c0.5,0.7,0.7,1.5,0.7,2.1l0.8-0.1c0-0.8-0.2-1.7-0.9-2.5c-0.9-1.2-2.2-1.6-3.3-0.8c-0.8,0.6-1.1,1.5-0.4,2.9l0.4,0.8
						c0.5,1,0.4,1.6-0.1,2c-0.7,0.5-1.6,0.2-2.3-0.8c-0.6-0.8-0.8-1.6-0.7-2.3l-0.8,0C113.6,212.5,113.9,213.4,114.5,214.3
						 M111.9,210.6l6-4.5l-0.5-0.7l-6,4.5L111.9,210.6z M119.3,204.4c0.2,0.3,0.6,0.3,0.8,0.1c0.3-0.2,0.3-0.6,0.1-0.8
						c-0.2-0.3-0.6-0.3-0.8-0.1C119.2,203.8,119.1,204.1,119.3,204.4 M106.8,204l3.7-2.8c1-0.8,2.3-0.6,3,0.3c0.8,1,0.6,2.1-0.4,3
						l-3.7,2.8l0.5,0.7l3.9-3c1.3-1,1.5-2.5,0.5-3.8c-0.6-0.8-1.5-1.2-2.5-1.1l0.9-0.7l-0.5-0.7l-6,4.6L106.8,204z M101.7,197.4
						l3.6-2.9c1-0.8,2.3-0.6,3.1,0.3c0.8,1,0.7,2.1-0.4,3l-3.7,2.9l0.5,0.7l3.9-3.1c1.3-1.1,1.5-2.6,0.5-3.8
						c-0.6-0.8-1.5-1.2-2.5-1.1l0.9-0.7l-0.5-0.7l-5.9,4.7L101.7,197.4z M98.1,191.8c-0.9-1.2-0.6-2.7,0.8-3.9c1.4-1.1,3-1.1,3.9,0
						c0.9,1.1,0.6,2.7-0.8,3.9C100.6,193,99,192.9,98.1,191.8 M97.4,192.2c0.7,0.9,1.7,1.3,2.8,1.1l-1,0.8l0.5,0.7l5.9-4.7l-0.5-0.7
						l-1,0.8c0.3-1,0.2-2-0.5-2.9c-1.2-1.5-3.3-1.5-5.1-0.1C96.5,188.7,96.2,190.8,97.4,192.2 M98.5,177.3l1.7,2.1
						c1.1,1.3,1.1,2.5-0.1,3.4c-1.1,1-2.3,0.7-3.4-0.5l-1.7-2.1L98.5,177.3z M90.6,183.9l3.8-3.2l0.9,1.1l-1.4,6l0.7,0.9l1.4-6.1
						l0.1,0.2c1.4,1.7,3.2,2,4.7,0.7c1.5-1.3,1.6-3,0.1-4.7l-2.3-2.8l-8.6,7.2L90.6,183.9z"/>
					<path style="clip-path:url(#SVGID_00000130624723244140006090000008873384673474771631_);fill:#1C355E;" d="M85,106.5
						c0.5,0.6,1.1,0.9,1.7,1l0.3-0.7c-0.5-0.1-0.9-0.3-1.3-0.8c-0.6-0.7-0.6-1.5,0.3-2.2l3.3-2.8l1.9,2.3l0.6-0.5l-1.9-2.3l1.8-1.5
						l-0.6-0.7l-1.8,1.5l-1-1.2l-0.6,0.5l1,1.2l-3.4,2.9C84.1,104.3,84.1,105.5,85,106.5 M79.1,99.2l2.8-2.2l0.7,0.8l-1.1,4.4
						l0.7,0.8l1.2-5l4.7,0.3l-0.7-0.8l-4.2-0.2l-0.7-0.8l5.6-4.4l-0.5-0.7l-9.1,7.1L79.1,99.2z M75.8,94.7l3.6-2.6
						c1.1-0.8,2.3-0.7,2.9,0.2c0.2,0.3,0.4,0.7,0.4,1l0.8-0.3c-0.1-0.4-0.2-0.7-0.5-1.1c-0.5-0.7-1.3-1.1-2.2-1l0.9-0.6l-0.5-0.7
						L75.3,94L75.8,94.7z M72.6,88.9c-0.8-1.2-0.4-2.8,1.1-3.8c1.5-1,3.1-0.9,3.9,0.4c0.8,1.2,0.4,2.7-1.1,3.8
						C75,90.3,73.4,90.1,72.6,88.9 M71.8,89.2c0.7,1,1.6,1.4,2.6,1.4l-1.1,0.7l0.5,0.7l6.3-4.2l-0.5-0.7l-1.1,0.7
						c0.4-0.9,0.4-2-0.3-2.9c-1-1.6-3.1-1.8-5-0.5C71.3,85.6,70.8,87.7,71.8,89.2 M64.3,76.8l8.6-5L68,78.9l0.5,0.8l8.6-0.8
						l-8.6,5.1l0.5,0.8l9.7-5.7l-0.7-1.1l-8.7,0.8l5-7.2l-0.7-1.1L63.8,76L64.3,76.8z M60,68.6l4-2c1.2-0.6,2.4-0.4,2.9,0.6
						c0.2,0.3,0.3,0.7,0.3,1.1l0.9-0.2c0-0.4-0.1-0.8-0.3-1.1c-0.4-0.8-1.1-1.3-2-1.3l0.9-0.5l-0.4-0.8l-6.7,3.4L60,68.6z
						 M60.2,59.3c1.5-0.6,2.8-0.2,3.4,1c0.5,1.1,0,2.4-1.4,3.2L60.2,59.3z M57.3,63.4c0.4,0.9,1.1,1.6,2.2,2l0.3-0.7
						c-0.8-0.3-1.4-0.7-1.8-1.6c-0.6-1.3-0.1-2.6,1.5-3.5l2.3,5c0.1,0,0.2-0.1,0.3-0.1c2.1-1,2.9-2.8,2.2-4.5
						c-0.8-1.7-2.8-2.3-4.9-1.3C57.3,59.7,56.5,61.6,57.3,63.4 M54.8,57.7c0.3,0.7,0.8,1.2,1.3,1.5l0.5-0.6c-0.4-0.2-0.8-0.6-1-1.1
						c-0.3-0.8-0.1-1.6,0.9-2l4-1.7l1.2,2.7l0.7-0.3l-1.2-2.7l2.1-0.9l-0.3-0.8l-2.1,0.9l-0.6-1.4l-0.7,0.3l0.6,1.4l-4.1,1.7
						C54.6,55.3,54.2,56.4,54.8,57.7 M52.8,52.7l10.7-4.3l-0.3-0.8l-10.7,4.3L52.8,52.7z M59.9,42.7l-5,4.2l-1.5-4.1L59.9,42.7z
						 M49.1,42.8l3.4,0l1.7,4.7l-2.7,2.2l0.3,0.9l9.1-7.7l-0.4-1l-11.9,0L49.1,42.8z"/>
				</g>
			</g>
		</g>
	</g>
</g>
</svg>
