<?xml version="1.0" encoding="utf-8"?>
<!-- Generator: Adobe Illustrator 25.4.1, SVG Export Plug-In . SVG Version: 6.00 Build 0)  -->
<svg version="1.1" id="Ebene_1" xmlns="http://www.w3.org/2000/svg" xmlns:xlink="http://www.w3.org/1999/xlink" x="0px" y="0px"
	 viewBox="0 0 842 550" style="enable-background:new 0 0 842 550;" xml:space="preserve">
<style type="text/css">
	.st0{clip-path:url(#SVGID_00000096032229661785046180000013548211907803692165_);}
	.st1{clip-path:url(#SVGID_00000125596831496447123950000011720027093994382998_);}
	.st2{clip-path:url(#SVGID_00000065786129065239276470000006946049503246678663_);}
	.st3{clip-path:url(#SVGID_00000175308127092760227490000006862270767149866660_);fill:#1C355E;}
	.st4{clip-path:url(#SVGID_00000065786129065239276470000006946049503246678663_);fill:#1C355E;}
	.st5{clip-path:url(#SVGID_00000149372592180120993390000014010609860919917964_);fill:#1C355E;}
	.st6{clip-path:url(#SVGID_00000149372592180120993390000014010609860919917964_);fill:none;stroke:#FFFFFF;stroke-width:15;}
	.st7{clip-path:url(#SVGID_00000065786129065239276470000006946049503246678663_);fill:none;stroke:#FFFFFF;stroke-width:15;}
	.st8{clip-path:url(#SVGID_00000130618905661510787960000014076895397690982275_);fill:none;stroke:#FFFFFF;stroke-width:15;}
	.st9{clip-path:url(#SVGID_00000130618905661510787960000014076895397690982275_);fill:none;stroke:#FFFFFF;stroke-width:10;}
	.st10{clip-path:url(#SVGID_00000065786129065239276470000006946049503246678663_);fill:none;stroke:#FFFFFF;stroke-width:10;}
</style>
<g>
	<defs>
		<rect id="SVGID_1_" x="1" y="-0.3" width="842" height="550"/>
	</defs>
	<clipPath id="SVGID_00000156568316891414422170000002719682009136029092_">
		<use xlink:href="#SVGID_1_"  style="overflow:visible;"/>
	</clipPath>
	<g style="clip-path:url(#SVGID_00000156568316891414422170000002719682009136029092_);">
		<defs>
			<rect id="SVGID_00000181808234564666853880000013730289885958112150_" x="1" y="-0.3" width="842" height="550"/>
		</defs>
		<clipPath id="SVGID_00000070828664643022408920000003976657379313691527_">
			<use xlink:href="#SVGID_00000181808234564666853880000013730289885958112150_"  style="overflow:visible;"/>
		</clipPath>
		<g style="clip-path:url(#SVGID_00000070828664643022408920000003976657379313691527_);">
			<g>
				<defs>
					<rect id="SVGID_00000085226796404457232160000001925784476444478119_" x="-8" y="-7.3" width="860" height="558"/>
				</defs>
				<clipPath id="SVGID_00000060718655022301078390000000207782054229780357_">
					<use xlink:href="#SVGID_00000085226796404457232160000001925784476444478119_"  style="overflow:visible;"/>
				</clipPath>
				<g style="clip-path:url(#SVGID_00000060718655022301078390000000207782054229780357_);">
					<defs>
						<rect id="SVGID_00000058549027665301481330000004888532584907857845_" x="1" y="-0.3" width="842" height="550"/>
					</defs>
					<clipPath id="SVGID_00000178189242016831436890000015190764923268176274_">
						<use xlink:href="#SVGID_00000058549027665301481330000004888532584907857845_"  style="overflow:visible;"/>
					</clipPath>
					<path style="clip-path:url(#SVGID_00000178189242016831436890000015190764923268176274_);fill:#1C355E;" d="M705.1,481.9
						c1.6-0.1,2.7,0.7,2.9,2c0.2,1.3-0.8,2.3-2.3,2.6L705.1,481.9z M701.1,484.9c0.1,1,0.5,1.9,1.5,2.6l0.5-0.6
						c-0.6-0.5-1.1-1.1-1.2-2.1c-0.2-1.4,0.7-2.5,2.5-2.8l0.7,5.5c0.1,0,0.2,0,0.3,0c2.3-0.3,3.7-1.8,3.4-3.6
						c-0.2-1.9-1.9-3.1-4.3-2.8C702.2,481.4,700.8,482.9,701.1,484.9 M700.1,477.3c0.2,1.6,1.5,2.7,3.5,2.5c1.4-0.2,2.5-1.2,2.6-2.3
						c0.4,0.9,1.5,1.5,2.9,1.3c1.8-0.2,2.8-1.7,2.6-3.5c-0.2-2-1.7-3-3.6-2.7l-8.3,1l0.1,0.9l8.3-1c1.5-0.2,2.5,0.6,2.7,1.9
						c0.2,1.3-0.5,2.4-2,2.5c-1.5,0.2-2.4-0.7-2.5-1.9l-0.1-0.4l-0.8,0.1l0.1,0.6c0.2,1.4-0.6,2.4-2.1,2.6c-1.5,0.2-2.5-0.6-2.6-1.8
						c-0.1-0.6,0-1,0.2-1.4l-0.8-0.1C700.1,476,700.1,476.6,700.1,477.3 M699.8,467.9c-0.2-1.5,0.9-2.6,2.7-2.8
						c1.8-0.2,3.1,0.6,3.3,2.1c0.2,1.5-0.9,2.6-2.7,2.8C701.3,470.2,700,469.4,699.8,467.9 M699,467.9c0.1,1.2,0.8,2,1.7,2.4
						l-1.3,0.2l0.1,0.9l7.5-0.9l-0.1-0.9l-1.3,0.2c0.8-0.6,1.2-1.6,1.1-2.8c-0.2-1.9-2-3-4.2-2.7C700.1,464.5,698.8,466,699,467.9
						 M698.2,460.7l4.5-0.5c1.3-0.2,2.4,0.5,2.5,1.6c0,0.4,0,0.8-0.1,1.1l0.9,0.1c0.1-0.3,0.2-0.7,0.1-1.2c-0.1-0.9-0.6-1.6-1.4-1.9
						l1-0.1l-0.1-0.8l-7.5,0.9L698.2,460.7z M697.6,456.4c0.1,0.8,0.4,1.4,0.9,1.8l0.6-0.5c-0.3-0.3-0.6-0.8-0.7-1.3
						c-0.1-0.9,0.3-1.5,1.4-1.7l4.4-0.5l0.4,3l0.8-0.1l-0.4-3l2.3-0.3l-0.1-0.9l-2.3,0.3l-0.2-1.5l-0.8,0.1l0.2,1.5l-4.4,0.5
						C698.1,454.1,697.4,455.1,697.6,456.4 M696.7,448.9c0.2,1.7,1.2,2.7,2.5,2.6c1.1-0.1,1.7-0.9,1.8-2.3l0-0.8
						c0.1-1.1,0.4-1.6,1.1-1.7c0.8-0.1,1.4,0.6,1.5,1.6c0.1,0.8-0.1,1.7-0.4,2.2l0.7,0.3c0.4-0.7,0.6-1.6,0.5-2.6
						c-0.2-1.5-1.1-2.5-2.4-2.3c-1,0.1-1.7,0.8-1.8,2.3l-0.1,0.8c-0.1,1.1-0.4,1.6-1.1,1.7c-0.9,0.1-1.5-0.6-1.6-1.8
						c-0.1-1,0.1-1.8,0.5-2.3l-0.7-0.3C696.7,446.9,696.5,447.9,696.7,448.9 M695.9,442.2l4.5-0.5c1.3-0.2,2.4,0.5,2.5,1.6
						c0,0.4,0,0.8-0.1,1.1l0.9,0.1c0.1-0.3,0.2-0.7,0.1-1.2c-0.1-0.9-0.6-1.6-1.4-1.9l1-0.1l-0.1-0.8l-7.5,0.9L695.9,442.2z
						 M699.1,433.4c1.6-0.1,2.7,0.7,2.9,2c0.2,1.3-0.8,2.3-2.3,2.6L699.1,433.4z M695.1,436.4c0.1,1,0.5,1.9,1.5,2.6l0.5-0.6
						c-0.6-0.5-1.1-1.1-1.2-2.1c-0.2-1.4,0.7-2.5,2.5-2.9l0.7,5.5c0.1,0,0.2,0,0.3,0c2.3-0.3,3.7-1.8,3.4-3.6
						c-0.2-1.9-1.9-3.1-4.3-2.8C696.2,432.9,694.9,434.4,695.1,436.4 M694.1,427.4l3.5-0.4l0.1,1l-3.2,3.2l0.1,1.1l3.6-3.7l3.9,2.7
						l-0.1-1l-3.5-2.3l-0.1-1l7.1-0.9l-0.1-0.9l-11.4,1.4L694.1,427.4z M693.4,421.8l4.5-0.5c1.3-0.2,2.4,0.5,2.5,1.6
						c0,0.4,0,0.8-0.1,1.1l0.9,0.1c0.1-0.3,0.2-0.7,0.1-1.2c-0.1-0.9-0.6-1.6-1.4-1.9l1-0.1l-0.1-0.8l-7.5,0.9L693.4,421.8z
						 M693.3,415.2c-0.2-1.5,0.9-2.6,2.7-2.8c1.8-0.2,3.1,0.6,3.3,2.1c0.2,1.5-0.9,2.6-2.7,2.8C694.9,417.5,693.5,416.6,693.3,415.2
						 M692.5,415.1c0.1,1.2,0.8,2,1.7,2.4l-1.3,0.2l0.1,0.8l7.5-0.9l-0.1-0.8l-1.3,0.2c0.8-0.6,1.2-1.6,1.1-2.8
						c-0.2-1.9-2-3-4.2-2.7C693.7,411.7,692.3,413.3,692.5,415.1 M702.1,415.7c0,0.3,0.3,0.6,0.7,0.5c0.3,0,0.6-0.3,0.5-0.7
						c0-0.3-0.3-0.5-0.7-0.5C702.3,415.1,702.1,415.4,702.1,415.7 M701.8,412.8c0,0.3,0.3,0.5,0.7,0.5c0.3,0,0.6-0.3,0.5-0.7
						c0-0.3-0.3-0.5-0.7-0.5C702,412.1,701.7,412.4,701.8,412.8 M690.8,400.7l9.9-1.2l-7.3,4.6l0.1,0.9l8.2,2.7l-9.9,1.2l0.1,0.9
						l11.1-1.4l-0.2-1.3l-8.3-2.7l7.4-4.7l-0.2-1.3l-11.1,1.4L690.8,400.7z M693.6,388.2c1.6-0.1,2.7,0.7,2.9,2
						c0.2,1.3-0.8,2.3-2.3,2.6L693.6,388.2z M689.6,391.2c0.1,1,0.5,1.9,1.5,2.6l0.5-0.6c-0.6-0.5-1.1-1.1-1.2-2.1
						c-0.2-1.4,0.7-2.5,2.5-2.9l0.7,5.5c0.1,0,0.2,0,0.3,0c2.3-0.3,3.7-1.8,3.4-3.6c-0.2-1.9-1.9-3.1-4.3-2.8
						C690.6,387.6,689.3,389.2,689.6,391.2 M688.6,383.6c0.2,1.6,1.5,2.7,3.5,2.5c1.4-0.2,2.5-1.2,2.6-2.3c0.4,0.9,1.5,1.5,2.9,1.3
						c1.8-0.2,2.8-1.7,2.6-3.5c-0.3-2-1.7-3-3.6-2.7l-8.3,1l0.1,0.9l8.3-1c1.5-0.2,2.5,0.6,2.7,1.9c0.2,1.3-0.5,2.4-2,2.5
						c-1.5,0.2-2.4-0.7-2.5-1.9l0-0.4L694,382l0.1,0.6c0.2,1.4-0.6,2.4-2.1,2.6c-1.5,0.2-2.5-0.6-2.6-1.8c-0.1-0.6,0-1,0.2-1.4
						l-0.8-0.1C688.6,382.3,688.5,382.8,688.6,383.6 M688.4,374.5c-0.2-1.5,0.9-2.6,2.7-2.9c1.8-0.2,3.2,0.7,3.3,2.1
						c0.2,1.5-0.9,2.7-2.7,2.9C689.9,376.9,688.5,376,688.4,374.5 M687.5,374.6c0.2,2,2,3.2,4.3,2.9c2.3-0.3,3.7-1.9,3.4-3.9
						c-0.2-2-2-3.2-4.3-2.9C688.7,371.1,687.3,372.7,687.5,374.6 M686.7,367.3l4.5-0.5c1.3-0.2,2.4,0.5,2.5,1.6c0,0.4,0,0.8-0.1,1.1
						l0.9,0.1c0.1-0.3,0.2-0.7,0.1-1.2c-0.1-0.9-0.6-1.6-1.4-1.9l1-0.1l-0.1-0.8l-7.5,0.9L686.7,367.3z M685.7,360
						c0.3,2.8,2.8,4.3,6.2,3.9c0.1,0,0.2,0,0.3-0.1l-0.5-4.2l-0.8,0.1l0.4,3.3c-2.7,0.2-4.4-0.9-4.7-3.1c-0.3-2.2,1.3-4.1,4.3-4.5
						c3-0.4,5,1.1,5.3,3.3c0.2,1.3-0.3,2.4-1.3,3.3l0.6,0.6c1.2-1,1.8-2.4,1.6-4c-0.3-2.8-2.8-4.6-6.3-4.2
						C687.2,354.9,685.4,357.3,685.7,360"/>
					<path style="clip-path:url(#SVGID_00000178189242016831436890000015190764923268176274_);fill:#1C355E;" d="M553.9,290.3
						c-0.1-1.6,0.6-2.8,1.9-3c1.2-0.2,2.3,0.7,2.6,2.3L553.9,290.3z M557.1,294.2c1-0.2,1.9-0.6,2.5-1.6l-0.6-0.5
						c-0.5,0.7-1.1,1.2-2,1.3c-1.4,0.2-2.6-0.6-2.9-2.4l5.4-0.9c0-0.1,0-0.2,0-0.3c-0.4-2.3-1.9-3.6-3.7-3.3c-1.9,0.3-3,2-2.6,4.4
						C553.5,293.3,555.1,294.5,557.1,294.2 M549.5,295.4c1.6-0.3,2.7-1.6,2.4-3.6c-0.2-1.4-1.3-2.4-2.4-2.5c0.9-0.4,1.4-1.5,1.2-2.9
						c-0.3-1.8-1.8-2.8-3.6-2.5c-2,0.3-2.9,1.8-2.6,3.7l1.3,8.3l0.9-0.1l-1.3-8.3c-0.2-1.5,0.5-2.5,1.8-2.8c1.3-0.2,2.4,0.4,2.6,1.9
						c0.2,1.5-0.6,2.4-1.8,2.6l-0.4,0.1l0.1,0.8l0.6-0.1c1.4-0.2,2.4,0.5,2.7,2c0.2,1.5-0.5,2.5-1.7,2.7c-0.6,0.1-1,0-1.4-0.1
						l-0.1,0.8C548.2,295.5,548.8,295.5,549.5,295.4 M540.1,296.1c-1.5,0.2-2.7-0.8-2.9-2.6c-0.3-1.8,0.5-3.2,2-3.4
						c1.4-0.2,2.6,0.8,2.9,2.6C542.4,294.5,541.5,295.9,540.1,296.1 M540.1,296.9c1.2-0.2,2-0.9,2.4-1.8l0.2,1.3l0.8-0.1l-1.2-7.4
						l-0.8,0.1l0.2,1.3c-0.7-0.8-1.6-1.2-2.8-1c-1.8,0.3-3,2.1-2.6,4.3C536.6,295.9,538.2,297.2,540.1,296.9 M532.9,297.9l-0.7-4.4
						c-0.2-1.3,0.4-2.4,1.5-2.5c0.4-0.1,0.8,0,1.1,0.1l0.1-0.9c-0.3-0.1-0.8-0.1-1.2-0.1c-0.9,0.1-1.5,0.7-1.8,1.5l-0.2-1l-0.8,0.1
						l1.2,7.4L532.9,297.9z M528.7,298.7c0.8-0.1,1.4-0.5,1.8-0.9l-0.5-0.6c-0.3,0.4-0.8,0.6-1.3,0.7c-0.9,0.1-1.5-0.3-1.7-1.4
						l-0.7-4.3l2.9-0.5l-0.1-0.8l-2.9,0.5l-0.4-2.3l-0.9,0.1l0.4,2.3l-1.5,0.2l0.1,0.8l1.5-0.2l0.7,4.4
						C526.4,298.3,527.3,298.9,528.7,298.7 M521.2,299.9c1.7-0.3,2.7-1.3,2.5-2.6c-0.2-1.1-1-1.6-2.4-1.7l-0.8,0
						c-1.1,0-1.6-0.4-1.7-1c-0.1-0.8,0.5-1.4,1.5-1.6c0.8-0.1,1.7,0.1,2.2,0.3l0.3-0.7c-0.7-0.4-1.6-0.6-2.6-0.4
						c-1.5,0.2-2.5,1.2-2.3,2.5c0.2,1,0.9,1.7,2.4,1.7l0.8,0c1.1,0,1.6,0.4,1.7,1c0.1,0.9-0.6,1.5-1.7,1.7c-1,0.2-1.8-0.1-2.4-0.4
						l-0.3,0.7C519.2,299.9,520.2,300.1,521.2,299.9 M511.8,301.3l-0.7-4.6c-0.2-1.3,0.6-2.3,1.8-2.5c1.3-0.2,2.2,0.5,2.4,1.8
						l0.7,4.6l0.9-0.1l-0.8-4.9c-0.3-1.7-1.5-2.5-3.1-2.3c-1,0.2-1.8,0.7-2.2,1.6l-0.2-1.1l-0.8,0.1l1.2,7.4L511.8,301.3z
						 M506.2,302.2l-0.7-4.4c-0.2-1.3,0.4-2.4,1.5-2.5c0.4-0.1,0.8,0,1.1,0.1l0.1-0.9c-0.3-0.1-0.8-0.1-1.2-0.1
						c-0.9,0.1-1.5,0.7-1.8,1.5l-0.2-1l-0.8,0.1l1.2,7.4L506.2,302.2z M497.3,299.3c-0.1-1.6,0.6-2.8,1.9-3c1.2-0.2,2.3,0.7,2.6,2.3
						L497.3,299.3z M500.4,303.2c1-0.2,1.9-0.6,2.5-1.6l-0.6-0.5c-0.5,0.7-1.1,1.2-2,1.3c-1.4,0.2-2.6-0.6-2.9-2.4l5.4-0.9
						c0-0.1,0-0.2,0-0.3c-0.4-2.3-1.9-3.6-3.7-3.3c-1.9,0.3-3,2-2.6,4.4C496.9,302.2,498.5,303.5,500.4,303.2 M494.3,304.2
						c0.8-0.1,1.4-0.5,1.8-0.9l-0.5-0.6c-0.3,0.4-0.8,0.6-1.3,0.7c-0.9,0.1-1.5-0.3-1.7-1.4l-0.7-4.3l2.9-0.5l-0.1-0.8l-2.9,0.5
						l-0.4-2.3l-0.9,0.1l0.4,2.3l-1.5,0.2l0.1,0.8l1.5-0.2l0.7,4.4C492,303.7,492.9,304.4,494.3,304.2 M485.7,305.5
						c2.1-0.3,3.7-1.7,3.3-3.7c-0.3-1.7-1.6-2.4-3.4-2.4l-1.1,0c-1.7,0-2.5-0.6-2.7-1.7c-0.2-1.3,0.8-2.3,2.3-2.5
						c1.3-0.2,2.3,0.1,3.1,0.7l0.5-0.7c-0.9-0.7-2.2-1.1-3.7-0.9c-2,0.3-3.4,1.7-3.1,3.6c0.2,1.6,1.4,2.4,3.3,2.4l1.1,0
						c1.6,0,2.5,0.5,2.7,1.7c0.2,1.4-0.9,2.4-2.5,2.6c-1.4,0.2-2.6-0.2-3.4-0.8l-0.5,0.7C482.6,305.3,484.1,305.8,485.7,305.5"/>
					<path style="clip-path:url(#SVGID_00000178189242016831436890000015190764923268176274_);fill:#1C355E;" d="M390.2,480.3
						c0.1,0.4,0.4,0.6,0.8,0.6c0.4-0.1,0.6-0.4,0.6-0.8c-0.1-0.4-0.4-0.6-0.8-0.6C390.4,479.6,390.2,480,390.2,480.3 M389.7,476.3
						l4.4-0.7c1.3-0.2,2.4,0.4,2.5,1.5c0.1,0.4,0,0.8-0.1,1.1l0.9,0.1c0.1-0.3,0.1-0.8,0.1-1.2c-0.1-0.9-0.7-1.5-1.5-1.8l1-0.2
						l-0.1-0.8l-7.4,1.2L389.7,476.3z M388.9,472.1c0.1,0.8,0.5,1.4,0.9,1.8l0.6-0.5c-0.4-0.3-0.6-0.8-0.7-1.3
						c-0.1-0.9,0.3-1.5,1.4-1.7l4.3-0.7l0.5,2.9l0.8-0.1l-0.5-2.9l2.3-0.4l-0.1-0.9l-2.3,0.4l-0.2-1.5l-0.8,0.1l0.2,1.5l-4.4,0.7
						C389.3,469.8,388.7,470.7,388.9,472.1 M387.5,463.5c0.3,2.2,1.7,3.7,3.7,3.3c1.7-0.3,2.4-1.6,2.4-3.4l0-1.1
						c0-1.7,0.6-2.5,1.7-2.7c1.3-0.2,2.3,0.8,2.5,2.3c0.2,1.3-0.1,2.3-0.7,3.1l0.7,0.5c0.7-0.9,1.1-2.2,0.9-3.7
						c-0.3-2-1.7-3.4-3.6-3.1c-1.6,0.2-2.4,1.4-2.4,3.3l0,1.1c0,1.6-0.5,2.5-1.7,2.7c-1.4,0.2-2.4-0.9-2.6-2.5
						c-0.2-1.4,0.2-2.6,0.8-3.4l-0.7-0.5C387.7,460.4,387.3,461.9,387.5,463.5 M389.5,448.5c1.6-0.1,2.8,0.6,3,1.9
						c0.2,1.2-0.7,2.3-2.3,2.6L389.5,448.5z M385.7,451.7c0.2,1,0.6,1.9,1.6,2.5l0.5-0.6c-0.7-0.5-1.2-1.1-1.3-2
						c-0.2-1.4,0.6-2.6,2.4-2.9l0.9,5.4c0.1,0,0.2,0,0.3,0c2.3-0.4,3.6-1.9,3.3-3.7c-0.3-1.9-2-3-4.4-2.6
						C386.6,448.1,385.4,449.7,385.7,451.7 M384.2,441.5l4.6-0.7c1.3-0.2,2.3,0.6,2.5,1.8c0.2,1.3-0.5,2.2-1.8,2.4l-4.6,0.7l0.1,0.9
						l4.9-0.8c1.7-0.3,2.5-1.5,2.3-3.1c-0.1-0.9-0.7-1.8-1.5-2.2l5-0.8l-0.1-0.9l-11.4,1.8L384.2,441.5z M383.3,436.4
						c0.2,1,0.7,1.8,1.5,2.2l0.5-0.6c-0.6-0.4-1.1-1-1.2-1.7c-0.2-1.4,0.8-2.6,2.6-2.9c1.8-0.3,3.2,0.6,3.4,2c0.1,0.8-0.1,1.4-0.6,2
						l0.6,0.5c0.7-0.7,0.9-1.6,0.8-2.6c-0.3-2-2.1-3.1-4.4-2.7C384.3,432.9,382.9,434.5,383.3,436.4 M382.1,429
						c0.3,1.7,1.3,2.7,2.6,2.5c1.1-0.2,1.6-1,1.7-2.4l0-0.8c0-1.1,0.4-1.6,1-1.7c0.8-0.1,1.4,0.5,1.6,1.5c0.1,0.8-0.1,1.7-0.3,2.2
						l0.7,0.3c0.4-0.7,0.6-1.6,0.4-2.6c-0.2-1.5-1.2-2.5-2.5-2.3c-1,0.2-1.7,0.9-1.7,2.4l0,0.8c0,1.1-0.4,1.6-1,1.7
						c-0.9,0.1-1.5-0.6-1.7-1.7c-0.2-1,0.1-1.8,0.4-2.4l-0.7-0.3C382.1,427,381.9,428,382.1,429 M381.5,424.5l7.4-1.2l-0.1-0.9
						l-7.4,1.2L381.5,424.5z M390.9,422.6c0.1,0.3,0.3,0.5,0.7,0.5c0.3-0.1,0.6-0.3,0.5-0.7c-0.1-0.3-0.4-0.5-0.7-0.5
						C391.1,422,390.9,422.2,390.9,422.6 M380.2,416.3l4.6-0.7c1.3-0.2,2.3,0.6,2.5,1.8c0.2,1.3-0.5,2.2-1.8,2.4l-4.6,0.7l0.1,0.9
						l4.9-0.8c1.7-0.3,2.5-1.5,2.3-3.1c-0.2-1-0.7-1.8-1.6-2.2l1.1-0.2l-0.1-0.8l-7.4,1.2L380.2,416.3z M378.9,408.1l4.6-0.7
						c1.3-0.2,2.3,0.6,2.5,1.8c0.2,1.3-0.5,2.2-1.8,2.4l-4.6,0.7l0.1,0.9l4.9-0.8c1.7-0.3,2.5-1.5,2.3-3.1c-0.2-1-0.7-1.8-1.6-2.2
						l1.1-0.2l-0.1-0.8l-7.4,1.2L378.9,408.1z M378.5,401.4c-0.2-1.5,0.8-2.7,2.6-2.9c1.8-0.3,3.2,0.5,3.4,2
						c0.2,1.4-0.8,2.6-2.6,2.9C380.1,403.7,378.8,402.9,378.5,401.4 M377.7,401.4c0.2,1.2,0.9,2,1.8,2.4l-1.3,0.2l0.1,0.8l7.4-1.2
						l-0.1-0.8l-1.3,0.2c0.8-0.7,1.2-1.6,1-2.8c-0.3-1.8-2.1-3-4.3-2.6C378.7,398,377.4,399.6,377.7,401.4 M386.3,389.2l0.4,2.6
						c0.3,1.6-0.4,2.7-1.8,2.9c-1.5,0.2-2.4-0.6-2.7-2.2l-0.4-2.6L386.3,389.2z M376.1,390.8l4.9-0.8l0.2,1.4l-4.3,4.4l0.2,1.1
						l4.3-4.5l0,0.2c0.3,2.2,1.7,3.3,3.6,3c2-0.3,2.9-1.8,2.5-4l-0.6-3.6l-11.1,1.8L376.1,390.8z"/>
					<path style="clip-path:url(#SVGID_00000178189242016831436890000015190764923268176274_);fill:#1C355E;" d="M79.4,440.1
						c1.6,0.2,2.6,1.1,2.6,2.5c0,1.3-1.1,2.1-2.7,2.2L79.4,440.1z M75,442.5c0,1,0.2,1.9,1.1,2.8l0.6-0.5c-0.6-0.6-0.9-1.3-0.9-2.2
						c0-1.4,1.1-2.4,2.9-2.4l-0.2,5.5c0.1,0,0.2,0,0.3,0c2.3,0.1,3.9-1.2,4-3c0.1-1.9-1.4-3.3-3.8-3.4C76.6,439.2,75,440.5,75,442.5
						 M75.2,436.2c0,0.8,0.2,1.4,0.6,1.9l0.7-0.4c-0.3-0.4-0.5-0.9-0.4-1.4c0-0.9,0.6-1.4,1.7-1.4l4.4,0.2l-0.1,3l0.8,0l0.1-3
						l2.3,0.1l0-0.9l-2.3-0.1l0.1-1.5l-0.8,0l-0.1,1.5l-4.4-0.2C76.1,434,75.2,434.9,75.2,436.2 M75.6,428.4l4.5,0.2
						c1.3,0,2.3,0.8,2.2,2c0,0.4-0.1,0.8-0.3,1.1l0.8,0.3c0.2-0.3,0.3-0.7,0.3-1.1c0-0.9-0.4-1.6-1.1-2.1l1.1,0l0-0.8l-7.5-0.3
						L75.6,428.4z M76.5,421.8c0.1-1.5,1.3-2.5,3.1-2.4c1.8,0.1,3,1.1,3,2.6c-0.1,1.5-1.3,2.4-3.1,2.4
						C77.6,424.4,76.5,423.3,76.5,421.8 M75.7,421.7c0,1.2,0.5,2.1,1.3,2.7l-1.3,0l0,0.9l7.5,0.3l0-0.9l-1.3,0
						c0.9-0.5,1.5-1.4,1.5-2.5c0.1-1.9-1.5-3.3-3.8-3.4C77.4,418.5,75.8,419.8,75.7,421.7 M76.3,407.8L86,411l-9.9,2.5l0,1.1
						l11.1,3.7l0-1l-10-3.2l10.2-2.6l0-1l-10-3.3l10.2-2.5l0-1l-11.3,2.9L76.3,407.8z M76.6,396.1c-0.1,1.7,0.7,2.9,2.1,2.9
						c1.1,0,1.8-0.7,2.1-2l0.2-0.8c0.2-1.1,0.7-1.5,1.3-1.5c0.8,0,1.3,0.8,1.3,1.8c0,0.9-0.4,1.6-0.8,2.1l0.6,0.4
						c0.5-0.6,0.9-1.5,0.9-2.5c0.1-1.5-0.7-2.6-2-2.7c-1,0-1.8,0.5-2.1,2l-0.2,0.8c-0.2,1-0.7,1.5-1.3,1.5c-0.9,0-1.3-0.9-1.3-2
						c0-1,0.4-1.7,0.9-2.2l-0.6-0.4C77,394.2,76.6,395.1,76.6,396.1 M77.7,388.8c0.1-1.5,1.3-2.5,3.1-2.4c1.8,0.1,3,1.2,3,2.6
						s-1.3,2.5-3.1,2.4C78.8,391.3,77.6,390.2,77.7,388.8 M76.8,388.7c-0.1,2,1.4,3.5,3.8,3.5c2.3,0.1,3.9-1.3,4-3.3
						c0.1-2-1.4-3.5-3.8-3.5C78.5,385.4,76.9,386.7,76.8,388.7 M77.3,378.4l4.6,0.2c1.3,0,2.2,1,2.1,2.2c0,1.3-0.9,2.1-2.2,2
						l-4.7-0.2l0,0.9l4.9,0.2c1.7,0.1,2.8-1,2.8-2.6c0-1-0.3-1.9-1.2-2.4l1.1,0l0-0.8l-7.5-0.3L77.3,378.4z M77.4,372.2
						c-0.1,1.7,0.9,3,2.8,3.1l4.7,0.2l0-0.9l-4.6-0.2c-1.4,0-2.2-0.9-2.1-2.2c0-1.3,0.8-2.1,2.3-2l4.6,0.2l0-0.9l-4.7-0.2
						C78.5,369.2,77.5,370.5,77.4,372.2 M77.8,364.6l4.5,0.2c1.3,0,2.3,0.8,2.2,2c0,0.4-0.1,0.8-0.3,1.1l0.8,0.3
						c0.2-0.3,0.3-0.7,0.3-1.1c0-0.9-0.4-1.6-1.1-2.1l1.1,0l0-0.8l-7.5-0.3L77.8,364.6z M83.4,355.3l-0.1,2.9
						c-0.1,1.6-0.7,2.7-2.3,2.6c-1.6-0.1-2.2-1.1-2.1-2.8l0.1-2.9L83.4,355.3z M88.5,355.5l-0.1,2.8c-0.1,1.6-0.7,2.6-2.2,2.6
						c-1.6-0.1-2.1-1.1-2-2.7l0.1-2.8L88.5,355.5z M78,358.1c-0.1,2.2,0.8,3.7,2.9,3.7c1.5,0.1,2.4-0.8,2.8-2.1c0.3,1.2,1.1,2,2.5,2
						c2,0.1,3-1.3,3-3.5l0.1-3.7l-11.2-0.4L78,358.1z"/>
					<path style="clip-path:url(#SVGID_00000178189242016831436890000015190764923268176274_);fill:#1C355E;" d="M164.6,117.9
						c0.8,0,1.4-0.3,1.9-0.7l-0.4-0.7c-0.4,0.3-0.9,0.5-1.4,0.5c-0.9,0-1.5-0.5-1.5-1.6v-4.4h3v-0.8h-3V108h-0.9v2.3h-1.5v0.8h1.5
						v4.4C162.4,117.1,163.2,117.9,164.6,117.9 M155.2,117.8v-3.5h1.1l2.8,3.5h1.1l-3.2-4l3.1-3.6H159l-2.7,3.2h-1.1v-7.2h-0.9v11.5
						H155.2z M149.6,117.8v-4.5c0-1.3,0.7-2.3,1.9-2.3c0.4,0,0.8,0.1,1.1,0.2l0.2-0.8c-0.3-0.2-0.7-0.2-1.2-0.2
						c-0.9,0-1.6,0.4-2.1,1.2v-1.1h-0.8v7.5H149.6z M143,117.1c-1.5,0-2.5-1.2-2.5-3c0-1.8,1-3,2.5-3c1.5,0,2.5,1.2,2.5,3
						C145.5,115.9,144.4,117.1,143,117.1 M142.8,117.9c1.2,0,2.1-0.6,2.6-1.4v1.3h0.9v-7.5h-0.9v1.3c-0.5-0.9-1.4-1.4-2.6-1.4
						c-1.9,0-3.2,1.6-3.2,3.9C139.6,116.3,141,117.9,142.8,117.9 M128.3,117.8v-9.9l3.7,7.8h0.9l3.7-7.8v10h0.9v-11.2h-1.3l-3.7,7.9
						l-3.7-7.9h-1.3v11.2H128.3z M119.1,117.8v-4.5c0-1.3,0.7-2.3,1.9-2.3c0.4,0,0.8,0.1,1.1,0.2l0.2-0.8c-0.3-0.2-0.7-0.2-1.2-0.2
						c-0.9,0-1.6,0.4-2.1,1.2v-1.1h-0.8v7.5H119.1z M110.7,113.6c0.1-1.6,1.1-2.6,2.4-2.6c1.3,0,2.2,1,2.3,2.6H110.7z M113.2,117.9
						c1,0,1.9-0.3,2.7-1.2l-0.5-0.6c-0.6,0.6-1.3,1-2.2,1c-1.4,0-2.4-1-2.5-2.8h5.5c0-0.1,0-0.2,0-0.3c0-2.4-1.3-3.9-3.1-3.9
						c-1.9,0-3.3,1.5-3.3,3.9C109.8,116.4,111.2,117.9,113.2,117.9 M107,117.9c0.8,0,1.4-0.3,1.9-0.7l-0.4-0.7
						c-0.4,0.3-0.9,0.5-1.4,0.5c-0.9,0-1.5-0.5-1.5-1.6v-4.4h3v-0.8h-3V108h-0.9v2.3h-1.5v0.8h1.5v4.4
						C104.8,117.1,105.6,117.9,107,117.9 M101.6,106.3h-0.9v11.5h0.9V106.3z M94.6,107.6l2.2,6.1h-4.4L94.6,107.6z M91,117.8
						l1.2-3.2h5l1.2,3.2h1l-4.1-11.2h-1.1L90,117.8H91z"/>
					<path style="clip-path:url(#SVGID_00000178189242016831436890000015190764923268176274_);fill:#1C355E;" d="M300.2,163.7
						c0.5,0.6,1.1,1,1.7,1.1l0.3-0.7c-0.5-0.1-0.9-0.4-1.3-0.8c-0.5-0.7-0.5-1.5,0.4-2.2l3.5-2.7l1.8,2.4l0.6-0.5l-1.8-2.4l1.8-1.4
						l-0.5-0.7l-1.8,1.4l-0.9-1.2l-0.6,0.5l0.9,1.2l-3.5,2.7C299.5,161.5,299.4,162.7,300.2,163.7 M294.6,156.3l2.8-2.2l0.7,0.8
						l-1.1,4.4l0.7,0.8l1.2-5l4.7,0.3l-0.6-0.8l-4.2-0.2l-0.7-0.8l5.6-4.4l-0.5-0.7l-9.1,7.1L294.6,156.3z M291.1,151.9l3.5-2.8
						c1.1-0.8,2.3-0.8,3,0.1c0.2,0.3,0.4,0.7,0.5,1l0.8-0.3c-0.1-0.4-0.2-0.7-0.5-1.1c-0.6-0.7-1.3-1-2.2-0.9l0.8-0.6l-0.5-0.7
						l-5.9,4.6L291.1,151.9z M287.6,146.2c-0.9-1.2-0.6-2.7,0.9-3.8c1.4-1.1,3-1.1,3.9,0.1c0.9,1.2,0.6,2.7-0.9,3.8
						C290.1,147.4,288.5,147.4,287.6,146.2 M286.9,146.6c0.7,0.9,1.7,1.3,2.7,1.2l-1,0.8l0.5,0.7l5.9-4.6l-0.5-0.7l-1,0.8
						c0.3-1,0.2-2-0.5-2.9c-1.2-1.5-3.2-1.6-5.1-0.2C286.1,143.1,285.7,145.1,286.9,146.6 M278,135.1l7.8-6.1l-3.9,7.7l0.6,0.7
						l8.4-1.9l-7.9,6.1l0.6,0.7l8.8-6.9l-0.8-1l-8.5,1.9l4-7.8l-0.8-1l-8.8,6.9L278,135.1z M272.3,127.8l3.5-2.8
						c1.1-0.8,2.3-0.8,3,0.1c0.2,0.3,0.4,0.7,0.5,1l0.8-0.3c-0.1-0.4-0.2-0.7-0.5-1.1c-0.6-0.7-1.3-1-2.2-0.9l0.8-0.6l-0.5-0.7
						l-5.9,4.6L272.3,127.8z M270.5,118.7c1.4-0.9,2.7-0.8,3.5,0.3c0.8,1,0.5,2.3-0.7,3.4L270.5,118.7z M268.6,123.3
						c0.6,0.8,1.4,1.3,2.6,1.4l0.2-0.7c-0.8-0.1-1.5-0.4-2.1-1.1c-0.9-1.1-0.7-2.5,0.7-3.7l3.4,4.3c0.1-0.1,0.2-0.1,0.3-0.2
						c1.9-1.4,2.2-3.4,1.1-4.8c-1.2-1.5-3.2-1.7-5.1-0.2C267.7,119.7,267.4,121.7,268.6,123.3 M264.8,118.4c0.5,0.6,1.1,1,1.7,1.1
						l0.3-0.7c-0.5-0.1-0.9-0.4-1.3-0.8c-0.5-0.7-0.5-1.5,0.4-2.2l3.5-2.7l1.8,2.4l0.6-0.5l-1.8-2.4l1.8-1.4l-0.5-0.7l-1.8,1.4
						l-0.9-1.2l-0.6,0.5l0.9,1.2l-3.5,2.7C264,116.1,263.9,117.3,264.8,118.4 M261.6,114.1l9.1-7.1l-0.5-0.7l-9.1,7.1L261.6,114.1z
						 M265.3,102.3l-3.5,5.5l-2.7-3.4L265.3,102.3z M255,105.7l3.3-1.1l3.1,3.9l-1.8,2.9l0.6,0.8l6.3-10.1l-0.7-0.9l-11.3,3.7
						L255,105.7z"/>
					<path style="clip-path:url(#SVGID_00000178189242016831436890000015190764923268176274_);fill:#1C355E;" d="M533.8,134.2
						c-0.2-1.6,0.5-2.8,1.8-3c1.2-0.2,2.3,0.6,2.7,2.2L533.8,134.2z M537,138c1-0.2,1.8-0.6,2.5-1.7l-0.6-0.5c-0.4,0.7-1,1.2-2,1.4
						c-1.4,0.3-2.6-0.5-3-2.3l5.4-1.1c0-0.1,0-0.2,0-0.3c-0.4-2.3-2-3.5-3.8-3.2c-1.9,0.4-2.9,2.1-2.5,4.4
						C533.4,137.2,535.1,138.4,537,138 M529.6,139.5c1.7-0.3,2.6-1.3,2.4-2.7c-0.2-1.1-1.1-1.6-2.5-1.6l-0.8,0c-1.1,0-1.6-0.3-1.8-1
						c-0.2-0.8,0.5-1.4,1.5-1.6c0.8-0.2,1.7,0,2.2,0.3l0.3-0.7c-0.7-0.4-1.6-0.5-2.7-0.3c-1.5,0.3-2.4,1.3-2.2,2.6
						c0.2,1,0.9,1.6,2.4,1.6l0.8,0c1.1,0,1.6,0.3,1.8,1c0.2,0.9-0.5,1.5-1.7,1.7c-1,0.2-1.8,0-2.4-0.3l-0.3,0.7
						C527.6,139.5,528.6,139.7,529.6,139.5 M523,140.7c1.7-0.3,2.6-1.3,2.4-2.7c-0.2-1.1-1.1-1.6-2.5-1.6l-0.8,0
						c-1.1,0-1.6-0.3-1.8-1c-0.2-0.8,0.5-1.4,1.5-1.6c0.8-0.2,1.7,0,2.2,0.3l0.3-0.7c-0.7-0.4-1.6-0.5-2.7-0.3
						c-1.5,0.3-2.4,1.3-2.2,2.6c0.2,1,0.9,1.6,2.4,1.6l0.8,0c1.1,0,1.6,0.3,1.8,1c0.2,0.9-0.5,1.5-1.7,1.7c-1,0.2-1.8,0-2.4-0.3
						l-0.3,0.7C521,140.8,522,140.9,523,140.7 M515.2,141.4c-1.5,0.3-2.7-0.7-3-2.5c-0.3-1.8,0.4-3.2,1.9-3.5c1.4-0.3,2.7,0.7,3,2.5
						C517.4,139.8,516.6,141.1,515.2,141.4 M515.2,142.3c1.2-0.2,1.9-0.9,2.3-1.9l0.3,1.3l0.8-0.2l-1.4-7.4l-0.8,0.2l0.2,1.3
						c-0.7-0.7-1.7-1.1-2.8-0.9c-1.8,0.4-2.9,2.2-2.4,4.4C511.7,141.3,513.4,142.6,515.2,142.3 M506.7,142.9c-1.4,0.3-2.7-0.7-3-2.5
						c-0.3-1.7,0.4-3.1,1.9-3.4c1.4-0.3,2.7,0.7,3,2.5C508.9,141.3,508.1,142.7,506.7,142.9 M507.3,146.9c1.9-0.4,3.2-1.8,2.7-4.1
						l-1.4-7.1l-0.8,0.2l0.2,1.2c-0.7-0.7-1.7-1.1-2.8-0.8c-1.8,0.3-2.8,2.1-2.4,4.3c0.4,2.3,2.1,3.5,3.8,3.1
						c1.1-0.2,1.9-0.9,2.3-1.8l0.2,1c0.3,1.8-0.7,2.8-2.1,3.1c-1,0.2-1.9,0-2.5-0.4l-0.3,0.7C505.1,146.9,506.2,147.1,507.3,146.9
						 M496.7,145.7l-0.9-4.5c-0.2-1.3,0.5-2.3,1.7-2.6c1.3-0.3,2.2,0.4,2.5,1.7l0.9,4.6l0.9-0.2l-0.9-4.8c-0.3-1.7-1.6-2.5-3.2-2.2
						c-0.9,0.2-1.7,0.7-2.1,1.6l-1-5l-0.9,0.2l2.2,11.3L496.7,145.7z M491.8,146.8c1-0.2,1.8-0.8,2.2-1.6l-0.7-0.4
						c-0.4,0.6-0.9,1.1-1.7,1.2c-1.4,0.3-2.7-0.7-3-2.5c-0.4-1.8,0.5-3.2,1.9-3.5c0.7-0.1,1.4,0.1,2,0.5l0.5-0.6
						c-0.7-0.6-1.7-0.9-2.6-0.7c-2,0.4-3,2.2-2.6,4.4C488.1,145.9,489.8,147.2,491.8,146.8 M484.4,148.3c1.7-0.3,2.6-1.3,2.4-2.7
						c-0.2-1.1-1.1-1.6-2.5-1.6l-0.8,0c-1.1,0-1.6-0.3-1.8-1c-0.2-0.8,0.5-1.4,1.5-1.6c0.8-0.2,1.7,0,2.2,0.3l0.3-0.7
						c-0.7-0.4-1.6-0.5-2.7-0.3c-1.5,0.3-2.4,1.3-2.2,2.6c0.2,1,0.9,1.6,2.4,1.6l0.8,0c1.1,0,1.6,0.3,1.8,1c0.2,0.9-0.5,1.5-1.7,1.7
						c-1,0.2-1.8,0-2.4-0.3l-0.3,0.7C482.3,148.3,483.3,148.5,484.4,148.3 M478.9,149.3c0.8-0.2,1.4-0.5,1.8-1l-0.5-0.6
						c-0.3,0.4-0.8,0.7-1.3,0.8c-0.9,0.2-1.5-0.2-1.7-1.3l-0.8-4.3l2.9-0.6l-0.2-0.8l-2.9,0.6l-0.4-2.3l-0.9,0.2l0.4,2.3l-1.5,0.3
						l0.2,0.8l1.5-0.3l0.8,4.4C476.6,149,477.6,149.6,478.9,149.3 M470.8,150.9c1.7-0.3,2.7-1.6,2.4-3.5l-0.9-4.6l-0.8,0.2l0.9,4.5
						c0.3,1.4-0.4,2.3-1.6,2.5c-1.2,0.2-2.2-0.3-2.5-1.7l-0.9-4.5l-0.8,0.2l0.9,4.6C467.7,150.5,469.2,151.2,470.8,150.9
						 M460.2,152.9l-1-5.1l1.2-0.2l5.4,4.2l1.2-0.2l-6-4.6l3.5-6.3l-1.1,0.2l-3.2,5.8l-1.2,0.2l-1-5l-0.9,0.2l2.1,11L460.2,152.9z"
						/>
					<path style="clip-path:url(#SVGID_00000178189242016831436890000015190764923268176274_);fill:#1C355E;" d="M369.8,134.2
						c-10.6,0-19.2,8.6-19.2,19.2s8.6,19.2,19.2,19.2c10.6,0,19.2-8.6,19.2-19.2S380.4,134.2,369.8,134.2 M369.8,173.8
						c-11.3,0-20.5-9.2-20.5-20.5c0-11.3,9.2-20.5,20.5-20.5c11.3,0,20.5,9.2,20.5,20.5C390.2,164.6,381.1,173.8,369.8,173.8"/>
				</g>
				
					<rect x="369.1" y="147" style="clip-path:url(#SVGID_00000060718655022301078390000000207782054229780357_);fill:#1C355E;" width="1.3" height="17.6"/>
				<g style="clip-path:url(#SVGID_00000060718655022301078390000000207782054229780357_);">
					<defs>
						<rect id="SVGID_00000119835727463092761040000012982499330261713575_" x="1" y="-0.3" width="842" height="550"/>
					</defs>
					<clipPath id="SVGID_00000176005612348345438390000000099916857118843574_">
						<use xlink:href="#SVGID_00000119835727463092761040000012982499330261713575_"  style="overflow:visible;"/>
					</clipPath>
					<path style="clip-path:url(#SVGID_00000176005612348345438390000000099916857118843574_);fill:#1C355E;" d="M372.2,144.6h-1.3
						c0-0.6-0.5-1.1-1.2-1.1c-0.6,0-1.2,0.5-1.2,1.1h-1.3c0-1.3,1.1-2.4,2.4-2.4C371.1,142.1,372.2,143.2,372.2,144.6"/>
					<path style="clip-path:url(#SVGID_00000176005612348345438390000000099916857118843574_);fill:#1C355E;" d="M372.7,156.4v-1.3
						c1.9,0,3.4-1.5,3.4-3.4s-1.5-3.4-3.4-3.4V147c2.6,0,4.7,2.1,4.7,4.7C377.4,154.3,375.3,156.4,372.7,156.4"/>
					<path style="clip-path:url(#SVGID_00000176005612348345438390000000099916857118843574_);fill:#1C355E;" d="M366.8,164.5
						c-2.6,0-4.7-2.1-4.7-4.7c0-2.6,2.1-4.7,4.7-4.7v1.3c-1.9,0-3.4,1.5-3.4,3.4s1.5,3.4,3.4,3.4V164.5z"/>
					
						<path style="clip-path:url(#SVGID_00000176005612348345438390000000099916857118843574_);fill:none;stroke:#FFFFFF;stroke-width:15;" d="
						M280.6-173.7c0,0-148.3,181.4-20.8,324.6s154,154.5,168.2,420.9l384.6-5.2"/>
					
						<path style="clip-path:url(#SVGID_00000176005612348345438390000000099916857118843574_);fill:none;stroke:#FFFFFF;stroke-width:15;" d="
						M-189.9,176.3c0,0,371.3-70.4,463.9-9.4"/>
					
						<line style="clip-path:url(#SVGID_00000176005612348345438390000000099916857118843574_);fill:none;stroke:#FFFFFF;stroke-width:15;" x1="652" y1="-173.7" x2="758.8" y2="699.3"/>
					
						<path style="clip-path:url(#SVGID_00000176005612348345438390000000099916857118843574_);fill:none;stroke:#FFFFFF;stroke-width:15;" d="
						M1016.7,225.9l-223.9,51c0,0-15-99.7-19.8-129c-5.7-34-16.1-32.1-101.1-15.6c-98.5,19.2-360,75.1-360,75.1"/>
				</g>
				
					<line style="clip-path:url(#SVGID_00000060718655022301078390000000207782054229780357_);fill:none;stroke:#FFFFFF;stroke-width:15;" x1="707.7" y1="295.4" x2="395.9" y2="337"/>
				<g style="clip-path:url(#SVGID_00000060718655022301078390000000207782054229780357_);">
					<defs>
						<rect id="SVGID_00000152224321042171407730000014645410301157156539_" x="1" y="-0.3" width="842" height="550"/>
					</defs>
					<clipPath id="SVGID_00000098939005480445007890000005289744472224097979_">
						<use xlink:href="#SVGID_00000152224321042171407730000014645410301157156539_"  style="overflow:visible;"/>
					</clipPath>
					
						<path style="clip-path:url(#SVGID_00000098939005480445007890000005289744472224097979_);fill:none;stroke:#FFFFFF;stroke-width:15;" d="
						M-188,524c0,0,315.6-0.9,337.3-0.5s52-4.3,51,51c-1,60-1.9,127.6-1.9,127.6"/>
					
						<path style="clip-path:url(#SVGID_00000098939005480445007890000005289744472224097979_);fill:none;stroke:#FFFFFF;stroke-width:15;" d="
						M102.1,524l7.6-166.3c0,0,8.5-47.2-36.8-52.4c-45.4-5.2-87.9-10.9-87.9-10.9"/>
					
						<path style="clip-path:url(#SVGID_00000098939005480445007890000005289744472224097979_);fill:none;stroke:#FFFFFF;stroke-width:15;" d="
						M121-102.9c0,0,23.6,65.2-61.4,148.8"/>
					
						<path style="clip-path:url(#SVGID_00000098939005480445007890000005289744472224097979_);fill:none;stroke:#FFFFFF;stroke-width:10;" d="
						M683.2,97L566,98.9c0,0-17,1.4-17-17.5c0-18.9,0-23.1,19.8-24.1c19.8-0.9,76.5,0,76.5,0"/>
					
						<polygon style="clip-path:url(#SVGID_00000098939005480445007890000005289744472224097979_);fill:none;stroke:#FFFFFF;stroke-width:10;" points="
						806,567.5 823,671 1000.6,654 1003.5,570.3 982.7,549.6 					"/>
				</g>
				
					<line style="clip-path:url(#SVGID_00000060718655022301078390000000207782054229780357_);fill:none;stroke:#FFFFFF;stroke-width:10;" x1="789.1" y1="280.2" x2="706.9" y2="298.6"/>
			</g>
		</g>
	</g>
</g>
</svg>
