<?xml version="1.0" encoding="utf-8"?>
<!-- Generator: Adobe Illustrator 26.0.3, SVG Export Plug-In . SVG Version: 6.00 Build 0)  -->
<svg version="1.1" id="Ebene_1" xmlns="http://www.w3.org/2000/svg" xmlns:xlink="http://www.w3.org/1999/xlink" x="0px" y="0px"
	 viewBox="0 0 320 320" style="enable-background:new 0 0 320 320;" xml:space="preserve">
<style type="text/css">
	.st0{clip-path:url(#SVGID_00000114768922999330044550000012536596116217850280_);}
	.st1{clip-path:url(#SVGID_00000170262107381798955030000001907759678389964463_);}
	.st2{clip-path:url(#SVGID_00000066498231622681870460000002265913936088039049_);}
	.st3{clip-path:url(#SVGID_00000176764255692007832010000014320781879638761112_);fill:none;stroke:#FFFFFF;stroke-width:4.862;}
	.st4{clip-path:url(#SVGID_00000176764255692007832010000014320781879638761112_);fill:none;stroke:#FFFFFF;stroke-width:14.445;}
	.st5{clip-path:url(#SVGID_00000176764255692007832010000014320781879638761112_);fill:none;stroke:#FFFFFF;stroke-width:10.834;}
	.st6{clip-path:url(#SVGID_00000176764255692007832010000014320781879638761112_);fill:#1C355E;}
	.st7{clip-path:url(#SVGID_00000066498231622681870460000002265913936088039049_);fill:#1C355E;}
	.st8{clip-path:url(#SVGID_00000056410223070317998560000009801762430730702766_);fill:#1C355E;}
</style>
<g>
	<defs>
		<rect id="SVGID_1_" width="320" height="320"/>
	</defs>
	<clipPath id="SVGID_00000047058906081316427390000003278499858912530614_">
		<use xlink:href="#SVGID_1_"  style="overflow:visible;"/>
	</clipPath>
	<g style="clip-path:url(#SVGID_00000047058906081316427390000003278499858912530614_);">
		<defs>
			<rect id="SVGID_00000075863651239854157510000010921108476075784606_" width="320" height="320"/>
		</defs>
		<clipPath id="SVGID_00000000929345494896870870000015306380944231123595_">
			<use xlink:href="#SVGID_00000075863651239854157510000010921108476075784606_"  style="overflow:visible;"/>
		</clipPath>
		<g style="clip-path:url(#SVGID_00000000929345494896870870000015306380944231123595_);">
			<g>
				<defs>
					<rect id="SVGID_00000002346985415637803240000016647664885234597257_" x="-9" y="-7" width="338" height="328"/>
				</defs>
				<clipPath id="SVGID_00000015343190243457096080000007741734697543469985_">
					<use xlink:href="#SVGID_00000002346985415637803240000016647664885234597257_"  style="overflow:visible;"/>
				</clipPath>
				<g style="clip-path:url(#SVGID_00000015343190243457096080000007741734697543469985_);">
					<defs>
						<rect id="SVGID_00000052796748590186049810000016599171941287340933_" width="320" height="320"/>
					</defs>
					<clipPath id="SVGID_00000000194559507635538790000001439274489914923401_">
						<use xlink:href="#SVGID_00000052796748590186049810000016599171941287340933_"  style="overflow:visible;"/>
					</clipPath>
					
						<path style="clip-path:url(#SVGID_00000000194559507635538790000001439274489914923401_);fill:none;stroke:#FFFFFF;stroke-width:4.862;" d="
						M473.5,257.6l6.9,31.1 M462.4,250.5l6.9,31.1 M451.3,243.5l6.9,31.1 M440.3,236.5l6.9,31.1 M429.2,229.4l6.9,31.1 M418.2,222.4
						l6.9,31.1 M407.1,215.4l6.9,31.1 M396,208.3l6.9,31.1 M385,201.3l6.9,31.1 M373.9,194.3l6.9,31.1 M362.8,187.2l6.9,31.1
						 M351.8,180.2l6.9,31.1 M340.7,173.2l6.9,31.1 M329.7,166.2l6.9,31.1 M318.6,159.1l6.9,31.1 M307.5,152.1l6.9,31.1
						 M296.5,145.1l6.9,31.1 M285.4,138l6.9,31.1 M274.4,131l6.9,31.1 M263.3,124l6.9,31.1 M252.2,116.9l6.9,31.1 M241.2,109.9
						l6.9,31.1 M228.1,103.5l9,30.5 M216.2,98l11.1,29.9 M204.2,92.5l11.1,29.9 M192.3,87l11.1,29.9 M180.4,81.6l11.1,29.9
						 M168.5,76.1l11.1,29.9 M156.6,70.6l11.1,29.9 M147.9,64.4l7.9,30.6 M137.5,56.5l4.5,31.6 M127,48.7l4.5,31.6 M116.5,40.8
						l4.5,31.6 M106,32.9l4.5,31.6 M95.5,25.1l4.5,31.6 M85,17.2l4.5,31.6 M74.6,9.3l4.5,31.6 M64.1,1.5l4.5,31.6 M53.6-6.4
						l4.5,31.6 M43.1-14.3l4.5,31.6 M32.6-22.1l4.5,31.6 M22.2-30l4.5,31.6 M11.7-37.9l4.5,31.6 M1.2-45.8l4.5,31.6 M-9.3-53.6
						L-4.8-22 M-19.8-61.5l4.5,31.6 M-30.2-69.4l4.5,31.6 M-40.7-77.2l4.5,31.6 M-51.2-85.1l4.5,31.6 M-61.7-93l4.5,31.6
						 M-72.2-100.8l4.5,31.6 M-82.6-108.7l4.5,31.6 M-93.1-116.6l4.5,31.6 M-103.6-124.4l4.5,31.6 M-114.1-132.3l4.5,31.6
						 M-124.6-140.2l4.5,31.6 M-135.1-148l4.5,31.6 M-145.5-155.9l4.5,31.6"/>
					
						<polyline style="clip-path:url(#SVGID_00000000194559507635538790000001439274489914923401_);fill:none;stroke:#FFFFFF;stroke-width:14.445;" points="
						120.1,-59.8 201.8,147.2 173.8,372.4 370.9,552.5 					"/>
					
						<path style="clip-path:url(#SVGID_00000000194559507635538790000001439274489914923401_);fill:none;stroke:#FFFFFF;stroke-width:10.834;" d="
						M166.3,59.1L130.1,154l-25.2,169.2c0,0-2,23.2-36.2,34.8c-34.1,11.6-197.9,39.6-197.9,39.6l-94.9,13.3"/>
					
						<path style="clip-path:url(#SVGID_00000000194559507635538790000001439274489914923401_);fill:none;stroke:#FFFFFF;stroke-width:10.834;" d="
						M195.6,219.5l66.2-2.7c0,0,20.5-2.7,29.3,15c8.9,17.7,17.7,36.9,17.7,36.9"/>
					
						<path style="clip-path:url(#SVGID_00000000194559507635538790000001439274489914923401_);fill:none;stroke:#FFFFFF;stroke-width:10.834;" d="
						M4.5,184l15.7-91.4L7.9,78.2l-86,104.4c0,0-32.8,77.8-43.7,96.2c-4.9,8.3-10.9,15.4-47.8,19.4s-59.4,10.2-59.4,10.2"/>
					<path style="clip-path:url(#SVGID_00000000194559507635538790000001439274489914923401_);fill:#1C355E;" d="M177.2,193.7
						l-4.6-0.6c-1.3-0.2-2.1-1.2-1.9-2.4c0.2-1.3,1-2,2.4-1.8l4.6,0.6l0.1-0.9l-4.6-0.6c-1.3-0.2-2.1-1.2-1.9-2.4
						c0.2-1.3,1-2,2.4-1.8l4.6,0.6l0.1-0.9l-4.9-0.6c-1.7-0.2-2.8,0.8-3,2.4c-0.1,1.1,0.2,2.2,1.1,2.8c-0.9,0.3-1.5,1.1-1.7,2.2
						c-0.1,0.9,0.1,1.9,0.9,2.5l-1-0.1l-0.1,0.8l7.5,0.9L177.2,193.7z M176.5,199.3l-4.5-0.5c-1.3-0.2-2.2-1-2-2.1
						c0-0.4,0.2-0.8,0.4-1l-0.8-0.3c-0.2,0.3-0.3,0.7-0.4,1.1c-0.1,0.9,0.2,1.7,0.9,2.2l-1-0.1l-0.1,0.8l7.5,0.9L176.5,199.3z
						 M175.9,205.5c0.2-1.7-0.6-3.1-2.6-3.3l-4.7-0.6l-0.1,0.9l4.6,0.6c1.4,0.2,2.1,1.1,1.9,2.4c-0.2,1.2-1,2-2.4,1.8l-4.6-0.6
						l-0.1,0.9l4.7,0.6C174.5,208.3,175.7,207.1,175.9,205.5 M175,212.1l-10.3-1.3l0.4-3.5l-0.9-0.1l-1,7.9l0.9,0.1l0.4-3.5
						l10.3,1.3L175,212.1z M173.6,223.3l-4.5-0.5c-1.3-0.2-2.2-1-2-2.1c0-0.4,0.2-0.8,0.4-1l-0.8-0.3c-0.2,0.3-0.3,0.7-0.4,1.1
						c-0.1,0.9,0.2,1.7,0.9,2.2l-1-0.1l-0.1,0.8l7.5,0.9L173.6,223.3z M168.4,231c-1.6-0.3-2.5-1.4-2.3-2.7c0.2-1.3,1.3-2,2.9-1.9
						L168.4,231z M173,229.1c0.1-1,0-1.9-0.8-2.9l-0.6,0.4c0.5,0.6,0.8,1.4,0.7,2.3c-0.2,1.4-1.3,2.3-3.1,2.2l0.7-5.5
						c-0.1,0-0.2,0-0.3-0.1c-2.3-0.3-4,0.8-4.2,2.6c-0.2,1.9,1.1,3.5,3.5,3.7C171.1,232.3,172.7,231.1,173,229.1 M171,237.5
						c-0.2,1.5-1.5,2.3-3.3,2.1c-1.8-0.2-2.8-1.4-2.7-2.8c0.2-1.4,1.5-2.3,3.3-2.1C170.1,234.9,171.2,236.1,171,237.5 M174.9,238.2
						c0.2-1.9-0.7-3.6-3-3.8l-7.1-0.9l-0.1,0.8l1.2,0.2c-0.9,0.5-1.5,1.3-1.7,2.4c-0.2,1.8,1.1,3.4,3.4,3.6c2.3,0.3,4-0.9,4.2-2.7
						c0.1-1.2-0.2-2.1-1-2.8l1.1,0.1c1.8,0.2,2.5,1.5,2.3,2.9c-0.1,1-0.6,1.8-1.2,2.3l0.6,0.5C174.3,240.3,174.8,239.3,174.9,238.2
						 M171.2,242.9l-7.5-0.9l-0.1,0.9l7.5,0.9L171.2,242.9z M161.5,242.1c0-0.3-0.2-0.6-0.5-0.7c-0.3,0-0.6,0.2-0.7,0.5
						c0,0.3,0.2,0.6,0.5,0.7C161.2,242.7,161.5,242.5,161.5,242.1 M170.8,245.8l-0.8-0.1l-0.6,4.6L164,245l-0.7-0.1l-0.7,5.5
						l0.8,0.1l0.5-4.4l5.5,5.3l0.7,0.1L170.8,245.8z M168.8,256.1c-0.2,1.5-1.5,2.3-3.3,2.1c-1.8-0.2-2.9-1.4-2.7-2.8
						c0.2-1.5,1.5-2.3,3.3-2.1C167.9,253.5,169,254.6,168.8,256.1 M172.3,259l-4.3-0.5c0.9-0.4,1.6-1.2,1.7-2.4
						c0.2-1.9-1.2-3.4-3.4-3.7c-2.3-0.3-4,0.9-4.2,2.7c-0.1,1.2,0.3,2.1,1.1,2.8l-1.3-0.2l-0.1,0.8l10.5,1.3L172.3,259z
						 M168.8,261.9l-7.5-0.9l-0.1,0.9l7.5,0.9L168.8,261.9z M159.2,261.2c0-0.3-0.2-0.6-0.5-0.7c-0.3,0-0.6,0.2-0.7,0.5
						c0,0.3,0.2,0.6,0.5,0.7C158.9,261.7,159.2,261.5,159.2,261.2 M163.6,269.6c-1.6-0.3-2.5-1.4-2.3-2.7c0.2-1.3,1.3-2,2.9-1.9
						L163.6,269.6z M168.2,267.7c0.1-1,0-1.9-0.8-2.9l-0.6,0.4c0.5,0.6,0.8,1.4,0.7,2.3c-0.2,1.4-1.3,2.3-3.1,2.2l0.7-5.5
						c-0.1,0-0.2,0-0.3-0.1c-2.3-0.3-4,0.8-4.2,2.6c-0.2,1.9,1.1,3.5,3.5,3.7C166.3,270.9,168,269.7,168.2,267.7 M167.6,272
						l-0.9-0.1l-0.7,5.6l-10.3-1.3l-0.1,0.9l11.1,1.4L167.6,272z M164.8,294.7l-4.6-0.6c-1.3-0.2-2.1-1.2-1.9-2.4
						c0.2-1.3,1-2,2.4-1.8l4.6,0.6l0.1-0.9l-4.6-0.6c-1.3-0.2-2.1-1.2-1.9-2.4c0.2-1.3,1-2,2.4-1.8l4.6,0.6l0.1-0.9l-4.9-0.6
						c-1.7-0.2-2.8,0.8-3,2.4c-0.1,1.1,0.2,2.2,1.1,2.8c-0.9,0.3-1.5,1.1-1.7,2.2c-0.1,0.9,0.1,1.9,0.9,2.5l-1-0.1l-0.1,0.8l7.5,0.9
						L164.8,294.7z M153.8,300.4l6.3-1.4l-0.5,4.3L153.8,300.4z M163.5,305.3l-3.1-1.5l0.6-5l3.4-0.8l0.1-1l-11.6,2.7l-0.1,1.1
						l10.6,5.4L163.5,305.3z"/>
					<path style="clip-path:url(#SVGID_00000000194559507635538790000001439274489914923401_);fill:#1C355E;" d="M271.1,201.3
						c0.4,0,0.7-0.3,0.6-0.7c0-0.4-0.3-0.7-0.7-0.6c-0.4,0-0.7,0.3-0.6,0.7C270.4,201,270.7,201.3,271.1,201.3 M264.4,201.5
						c2.8-0.1,4.6-2.4,4.4-5.8c0-0.1,0-0.2,0-0.4l-4.2,0.1l0,0.8l3.3-0.1c0,2.7-1.3,4.3-3.5,4.4c-2.2,0.1-4-1.6-4.1-4.7
						c-0.1-3,1.5-4.9,3.8-4.9c1.3,0,2.4,0.5,3.1,1.6l0.7-0.6c-0.9-1.3-2.3-2-3.9-1.9c-2.8,0.1-4.8,2.4-4.7,5.9
						C259.4,199.6,261.7,201.6,264.4,201.5 M248.6,197.7c0.1-1.6,1-2.7,2.3-2.7c1.3,0,2.2,1,2.3,2.6L248.6,197.7z M251.3,202
						c1,0,1.9-0.3,2.7-1.3l-0.5-0.6c-0.5,0.6-1.2,1-2.2,1.1c-1.4,0-2.5-0.9-2.6-2.7l5.5-0.2c0-0.1,0-0.2,0-0.3
						c-0.1-2.4-1.4-3.8-3.3-3.7c-1.9,0.1-3.2,1.6-3.2,4C247.8,200.6,249.3,202,251.3,202 M246.6,202l0-0.8l-4.6,0.2l4.4-6.2l0-0.7
						l-5.6,0.2l0,0.8l4.5-0.2l-4.4,6.2l0,0.7L246.6,202z M236.5,202.4l-0.2-4.5c0-1.3,0.7-2.3,1.8-2.3c0.4,0,0.8,0.1,1.1,0.2
						l0.2-0.8c-0.3-0.2-0.7-0.2-1.2-0.2c-0.9,0-1.6,0.5-2,1.2l0-1.1l-0.8,0l0.3,7.5L236.5,202.4z M230.3,202.7
						c1.7-0.1,2.9-1.1,2.9-3L233,195l-0.9,0l0.2,4.6c0,1.4-0.8,2.2-2,2.3c-1.3,0-2.1-0.7-2.2-2.1l-0.2-4.6l-0.9,0l0.2,4.7
						C227.3,201.8,228.6,202.7,230.3,202.7 M219.5,203l-0.2-5.2l1.2,0l4.7,5l1.2,0l-5.2-5.5l4.5-5.7l-1.1,0l-4.1,5.3l-1.3,0
						l-0.2-5.1l-0.9,0l0.4,11.2L219.5,203z"/>
					<path style="clip-path:url(#SVGID_00000000194559507635538790000001439274489914923401_);fill:#1C355E;" d="M112.3,160
						c-0.2,1.5-1.5,2.3-3.3,2c-1.8-0.2-2.8-1.4-2.6-2.9c0.2-1.4,1.5-2.3,3.3-2C111.4,157.3,112.5,158.5,112.3,160 M116.2,160.7
						c0.3-1.9-0.7-3.6-3-3.9l-7.1-1l-0.1,0.8l1.2,0.2c-0.9,0.4-1.6,1.3-1.7,2.4c-0.3,1.8,1,3.4,3.3,3.7c2.3,0.3,4-0.8,4.2-2.6
						c0.2-1.2-0.2-2.1-1-2.8l1.1,0.1c1.8,0.2,2.5,1.5,2.3,3c-0.1,1-0.6,1.8-1.2,2.2l0.6,0.5C115.5,162.8,116,161.8,116.2,160.7
						 M111.7,170.3l-4.6-0.6c-1.3-0.2-2-1.2-1.9-2.4c0.2-1.3,1.1-2,2.4-1.8l4.6,0.6l0.1-0.9l-4.9-0.7c-1.7-0.2-2.9,0.7-3.1,2.3
						c-0.1,1,0.1,1.9,0.9,2.6l-1.1-0.2l-0.1,0.8l7.5,1L111.7,170.3z M111.2,173.6l-7.5-1l-0.1,0.9l7.5,1L111.2,173.6z M101.6,172.7
						c0-0.3-0.2-0.6-0.5-0.7c-0.3,0-0.6,0.2-0.7,0.5c0,0.3,0.2,0.6,0.5,0.7C101.3,173.2,101.6,173,101.6,172.7 M110.4,179.2
						l-4.5-0.6c-1.3-0.2-2.2-1.1-2-2.2c0.1-0.4,0.2-0.8,0.4-1l-0.8-0.4c-0.2,0.3-0.3,0.7-0.4,1.1c-0.1,0.9,0.2,1.7,0.9,2.2l-1-0.1
						l-0.1,0.8l7.5,1L110.4,179.2z M109.8,184.7c0.2-1.7-0.4-2.9-1.8-3.1c-1.1-0.2-1.9,0.5-2.3,1.8l-0.3,0.8c-0.3,1-0.8,1.4-1.5,1.3
						c-0.8-0.1-1.2-0.9-1.1-1.9c0.1-0.8,0.5-1.6,1-2l-0.6-0.5c-0.6,0.5-1,1.4-1.2,2.4c-0.2,1.5,0.4,2.7,1.7,2.9
						c1,0.1,1.8-0.4,2.3-1.8l0.3-0.8c0.3-1,0.8-1.5,1.5-1.4c0.9,0.1,1.2,1,1.1,2.2c-0.1,1-0.6,1.7-1.1,2.1l0.6,0.5
						C109.2,186.6,109.6,185.7,109.8,184.7 M108.7,192c0.2-1.7-0.6-3.1-2.5-3.3l-4.7-0.7l-0.1,0.9l4.6,0.6c1.4,0.2,2,1.2,1.9,2.4
						c-0.2,1.2-1,2-2.5,1.8l-4.6-0.6l-0.1,0.9l4.7,0.7C107.3,194.8,108.5,193.7,108.7,192 M106.7,200.5c-0.2,1.5-1.6,2.3-3.4,2
						c-1.8-0.3-2.9-1.4-2.7-2.9c0.2-1.5,1.5-2.3,3.4-2C105.9,197.8,106.9,199,106.7,200.5 M107.5,200.7c0.2-1.2-0.3-2.1-1.1-2.8
						l1.3,0.2l0.1-0.8l-7.5-1l-0.1,0.8l1.3,0.2c-0.9,0.4-1.6,1.2-1.8,2.4c-0.3,1.9,1.1,3.4,3.4,3.7
						C105.5,203.7,107.3,202.6,107.5,200.7 M106,210.8l-4.6-0.6c-1.3-0.2-2-1.2-1.9-2.4c0.2-1.3,1.1-1.9,2.4-1.8l4.6,0.7l0.1-0.9
						l-4.9-0.7c-1.7-0.2-2.9,0.7-3.1,2.3c-0.1,0.9,0.1,1.9,0.9,2.5l-5-0.7l-0.1,0.9l11.4,1.6L106,210.8z M104.8,219.1l-4.6-0.6
						c-1.3-0.2-2-1.2-1.9-2.4c0.2-1.3,1.1-2,2.4-1.8l4.6,0.6l0.1-0.9l-4.9-0.7c-1.7-0.2-2.9,0.7-3.1,2.3c-0.1,1,0.1,1.9,0.9,2.6
						l-1.1-0.2l-0.1,0.8l7.5,1L104.8,219.1z M99.5,226.7c-1.6-0.4-2.5-1.4-2.3-2.7c0.2-1.3,1.3-2,2.9-1.9L99.5,226.7z M104.1,224.9
						c0.1-1,0-1.9-0.8-2.9l-0.6,0.4c0.5,0.6,0.8,1.4,0.7,2.3c-0.2,1.4-1.3,2.3-3.1,2.1l0.8-5.5c-0.1,0-0.2,0-0.3-0.1
						c-2.3-0.3-4,0.8-4.3,2.6c-0.3,1.9,1.1,3.5,3.4,3.8C102.2,228,103.8,226.9,104.1,224.9 M103.1,232.3c0.2-1.7-0.4-2.9-1.8-3.1
						c-1.1-0.2-1.9,0.5-2.3,1.8l-0.3,0.8c-0.3,1-0.8,1.4-1.5,1.3c-0.8-0.1-1.2-0.9-1.1-1.9c0.1-0.8,0.5-1.6,1-2l-0.6-0.5
						c-0.6,0.5-1,1.4-1.2,2.4c-0.2,1.5,0.4,2.7,1.7,2.9c1,0.1,1.8-0.4,2.3-1.8l0.3-0.8c0.3-1,0.8-1.5,1.5-1.4c0.9,0.1,1.2,1,1.1,2.2
						c-0.1,1-0.6,1.7-1.1,2.1l0.6,0.5C102.5,234.3,102.9,233.4,103.1,232.3 M102.3,236.8l-7.5-1l-0.1,0.9l7.5,1L102.3,236.8z
						 M92.7,235.9c0-0.3-0.2-0.6-0.5-0.7c-0.3,0-0.6,0.2-0.7,0.5c0,0.3,0.2,0.6,0.5,0.7C92.4,236.4,92.7,236.2,92.7,235.9
						 M100.7,243.2c-0.2,1.5-1.6,2.3-3.4,2c-1.8-0.3-2.9-1.4-2.7-2.9c0.2-1.5,1.5-2.3,3.4-2C99.9,240.6,100.9,241.8,100.7,243.2
						 M101.5,243.5c0.2-1.2-0.3-2.1-1.1-2.8l1.3,0.2l0.1-0.8l-7.5-1l-0.1,0.8l1.3,0.2c-0.9,0.4-1.6,1.2-1.8,2.4
						c-0.3,1.9,1.1,3.4,3.4,3.7C99.5,246.5,101.2,245.3,101.5,243.5 M99.5,257.2l-9.3-4.2l10.2-1.5l0.2-1.1l-10.6-4.8l-0.1,0.9
						l9.6,4.3l-10.4,1.5l-0.1,1l9.6,4.3l-10.4,1.5l-0.1,1l11.5-1.7L99.5,257.2z"/>
					
						<polyline style="clip-path:url(#SVGID_00000000194559507635538790000001439274489914923401_);fill:none;stroke:#FFFFFF;stroke-width:10.834;" points="
						317.1,-61.2 314.4,21.9 438.6,132.8 568.2,277.9 663.1,314.7 					"/>
					
						<path style="clip-path:url(#SVGID_00000000194559507635538790000001439274489914923401_);fill:none;stroke:#FFFFFF;stroke-width:10.834;" d="
						M366.2,70L244.1,57.8c0,0-13-74.4,68.9-69.6"/>
					<path style="clip-path:url(#SVGID_00000000194559507635538790000001439274489914923401_);fill:#1C355E;" d="M225.6,237.2
						c-10.6,0-19.2,8.6-19.2,19.2c0,10.6,8.6,19.2,19.2,19.2c10.6,0,19.2-8.6,19.2-19.2C244.8,245.8,236.2,237.2,225.6,237.2
						 M225.6,276.8c-11.3,0-20.5-9.2-20.5-20.5c0-11.3,9.2-20.5,20.5-20.5c11.3,0,20.5,9.2,20.5,20.5
						C246.1,267.6,236.9,276.8,225.6,276.8"/>
				</g>
				
					<rect x="225" y="250" style="clip-path:url(#SVGID_00000015343190243457096080000007741734697543469985_);fill:#1C355E;" width="1.3" height="17.6"/>
				<g style="clip-path:url(#SVGID_00000015343190243457096080000007741734697543469985_);">
					<defs>
						<rect id="SVGID_00000141447887749613667860000008462106307657796028_" width="320" height="320"/>
					</defs>
					<clipPath id="SVGID_00000103240837965486514420000006511518004984223638_">
						<use xlink:href="#SVGID_00000141447887749613667860000008462106307657796028_"  style="overflow:visible;"/>
					</clipPath>
					<path style="clip-path:url(#SVGID_00000103240837965486514420000006511518004984223638_);fill:#1C355E;" d="M228.1,247.6h-1.3
						c0-0.6-0.5-1.1-1.2-1.1c-0.6,0-1.2,0.5-1.2,1.1h-1.3c0-1.3,1.1-2.4,2.4-2.4S228.1,246.2,228.1,247.6"/>
					<path style="clip-path:url(#SVGID_00000103240837965486514420000006511518004984223638_);fill:#1C355E;" d="M228.6,259.4v-1.3
						c1.9,0,3.4-1.5,3.4-3.4s-1.5-3.4-3.4-3.4V250c2.6,0,4.7,2.1,4.7,4.7C233.2,257.3,231.1,259.4,228.6,259.4"/>
					<path style="clip-path:url(#SVGID_00000103240837965486514420000006511518004984223638_);fill:#1C355E;" d="M222.7,267.6
						c-2.6,0-4.7-2.1-4.7-4.7c0-2.6,2.1-4.7,4.7-4.7v1.3c-1.9,0-3.4,1.5-3.4,3.4c0,1.9,1.5,3.4,3.4,3.4V267.6z"/>
					<path style="clip-path:url(#SVGID_00000103240837965486514420000006511518004984223638_);fill:#1C355E;" d="M115.5,88.8
						c1.1-1.2,2.4-1.5,3.5-0.7c1,0.8,1.1,2.1,0.2,3.5L115.5,88.8z M114.9,93.8c0.8,0.6,1.7,0.9,2.9,0.7l0-0.8
						c-0.8,0.1-1.6,0-2.3-0.5c-1.1-0.8-1.4-2.2-0.4-3.8l4.4,3.3c0.1-0.1,0.1-0.2,0.2-0.2c1.4-1.9,1.2-3.9-0.2-5
						c-1.5-1.1-3.6-0.7-5,1.2C113.1,90.6,113.3,92.6,114.9,93.8 M108.8,89.2c1.3,1,3,0.8,4.2-0.8c0.9-1.2,0.9-2.6,0.1-3.5
						c0.9,0.3,2.1,0,2.9-1.2c1.1-1.5,0.7-3.2-0.7-4.3c-1.7-1.2-3.3-0.8-4.4,0.7l-5,6.8l0.7,0.5l5-6.7c0.9-1.2,2.2-1.4,3.3-0.6
						c1,0.8,1.4,2,0.5,3.2c-0.9,1.3-2.1,1.2-3.1,0.5l-0.3-0.2l-0.5,0.6l0.5,0.3c1.1,0.8,1.4,2.1,0.5,3.3c-0.9,1.2-2.1,1.4-3.1,0.7
						c-0.5-0.3-0.8-0.7-0.9-1.1l-0.6,0.5C107.8,88.3,108.2,88.8,108.8,89.2 M101.7,83c-1.2-0.9-1.3-2.5-0.2-3.9
						c1.1-1.5,2.6-1.8,3.8-1c1.2,0.9,1.3,2.5,0.2,3.9C104.4,83.5,102.9,83.8,101.7,83 M101.1,83.5c1,0.7,2,0.8,2.9,0.4l-0.8,1.1
						l0.7,0.5l4.5-6.1l-0.7-0.5l-0.8,1c0.1-1-0.3-2-1.2-2.7c-1.5-1.1-3.5-0.7-4.9,1.2C99.4,80.3,99.6,82.4,101.1,83.5 M95.4,79.2
						l2.7-3.6c0.8-1.1,2-1.4,2.9-0.7c0.3,0.2,0.6,0.5,0.7,0.8l0.7-0.5c-0.2-0.3-0.4-0.6-0.8-0.9c-0.7-0.5-1.6-0.6-2.3-0.3l0.6-0.8
						l-0.7-0.5l-4.5,6.1L95.4,79.2z M91.8,76.7c0.6,0.5,1.3,0.6,1.9,0.6l0.1-0.8c-0.5,0-1-0.1-1.4-0.4c-0.7-0.5-0.9-1.3-0.2-2.2
						l2.6-3.5l2.4,1.8l0.5-0.6l-2.4-1.8l1.4-1.9L96,67.4l-1.4,1.9l-1.2-0.9L92.9,69l1.2,0.9l-2.6,3.6C90.5,74.7,90.7,75.9,91.8,76.7
						 M84.9,71.5c1.7,1.3,3.8,1.4,5-0.2c1-1.4,0.6-2.8-0.6-4.1l-0.8-0.8c-1.1-1.2-1.3-2.2-0.7-3.1c0.8-1.1,2.2-1.1,3.4-0.1
						c1.1,0.8,1.5,1.8,1.7,2.8l0.8-0.2c-0.1-1.2-0.7-2.3-2-3.3c-1.7-1.2-3.6-1.2-4.8,0.3c-0.9,1.3-0.7,2.7,0.6,4.1l0.8,0.8
						c1.1,1.2,1.4,2.2,0.7,3.1c-0.9,1.2-2.3,1-3.7,0c-1.1-0.8-1.7-2-1.8-3l-0.9,0.2C82.9,69.2,83.6,70.6,84.9,71.5 M75.6,64.5
						l2.7-3.6c0.8-1.1,2-1.4,2.9-0.7c0.3,0.2,0.6,0.5,0.7,0.8l0.7-0.5c-0.2-0.3-0.4-0.6-0.8-0.9c-0.7-0.5-1.6-0.6-2.3-0.3l0.6-0.8
						L79.4,58L74.9,64L75.6,64.5z M71.4,56.2c1.1-1.2,2.4-1.5,3.5-0.7c1,0.8,1.1,2.1,0.2,3.5L71.4,56.2z M70.8,61.1
						c0.8,0.6,1.7,0.9,2.9,0.7l0-0.8c-0.8,0.1-1.6,0-2.3-0.5c-1.1-0.8-1.4-2.2-0.4-3.8l4.4,3.3c0.1-0.1,0.1-0.2,0.2-0.2
						c1.4-1.9,1.2-3.9-0.2-5c-1.5-1.1-3.6-0.7-5,1.2C69,57.9,69.2,60,70.8,61.1 M64.5,55.3c-1.2-0.9-1.3-2.4-0.2-3.9
						c1.1-1.4,2.6-1.8,3.8-0.9c1.2,0.9,1.3,2.4,0.2,3.9C67.2,55.8,65.7,56.1,64.5,55.3 M62,58.4c1.5,1.1,3.5,1.1,4.8-0.7l4.3-5.8
						l-0.7-0.5l-0.7,1c0.1-1-0.4-2-1.3-2.6c-1.5-1.1-3.5-0.7-4.8,1.2c-1.4,1.9-1.2,3.9,0.3,4.9c0.9,0.7,2,0.8,2.9,0.5l-0.6,0.9
						c-1.1,1.4-2.5,1.4-3.7,0.6c-0.8-0.6-1.2-1.4-1.4-2.2l-0.7,0.3C60.5,56.8,61.1,57.7,62,58.4 M59.7,52.8l4.5-6.1l-0.7-0.5
						L59,52.3L59.7,52.8z M65.1,44.8c0.3,0.2,0.6,0.1,0.8-0.1c0.2-0.3,0.2-0.6-0.1-0.8c-0.3-0.2-0.6-0.1-0.8,0.1
						C64.8,44.2,64.9,44.6,65.1,44.8 M57.4,51.1l0.5-0.6l-3.7-2.8l7.3-2.1l0.4-0.5l-4.5-3.3l-0.5,0.6l3.6,2.7l-7.3,2.1l-0.4,0.5
						L57.4,51.1z M49.4,44.2c-1.2-0.9-1.3-2.5-0.2-3.9c1.1-1.5,2.6-1.8,3.8-1c1.2,0.9,1.3,2.5,0.2,3.9
						C52.1,44.7,50.6,45.1,49.4,44.2 M45.2,45.8l2.6-3.5c-0.1,1,0.3,2,1.3,2.7c1.5,1.1,3.5,0.7,4.9-1.2c1.4-1.9,1.2-3.9-0.3-5
						c-1-0.7-2-0.8-2.9-0.4l0.8-1.1l-0.7-0.5l-6.3,8.5L45.2,45.8z M44.3,41.4l4.5-6.1l-0.7-0.5l-4.5,6.1L44.3,41.4z M49.7,33.4
						c0.3,0.2,0.6,0.1,0.8-0.1c0.2-0.3,0.2-0.6-0.1-0.8c-0.3-0.2-0.6-0.1-0.8,0.1C49.4,32.8,49.5,33.2,49.7,33.4 M40.1,33.1
						c1.1-1.2,2.4-1.5,3.5-0.7c1,0.8,1.1,2.1,0.2,3.5L40.1,33.1z M39.6,38c0.8,0.6,1.7,0.9,2.9,0.7l0-0.8c-0.8,0.1-1.6,0-2.3-0.5
						c-1.1-0.8-1.4-2.2-0.4-3.8l4.4,3.3c0.1-0.1,0.1-0.2,0.2-0.2c1.4-1.9,1.2-3.9-0.2-5c-1.5-1.1-3.6-0.7-5,1.2
						C37.7,34.8,37.9,36.8,39.6,38 M36.2,35.4l0.5-0.7l-4.6-3.4l6.1-8.3l-0.7-0.6l-6.7,9L36.2,35.4z"/>
					<path style="clip-path:url(#SVGID_00000103240837965486514420000006511518004984223638_);fill:#1C355E;" d="M300,126.3
						c0.9-1.4,2.2-1.8,3.4-1.2c1.1,0.6,1.4,1.9,0.7,3.4L300,126.3z M300.1,131.3c0.9,0.5,1.8,0.7,3,0.3l-0.2-0.7
						c-0.8,0.2-1.6,0.3-2.4-0.2c-1.2-0.7-1.7-2-0.9-3.7l4.8,2.6c0.1-0.1,0.1-0.2,0.2-0.3c1.1-2.1,0.7-4-0.9-4.9
						c-1.7-0.9-3.6-0.2-4.8,1.8C297.9,128.4,298.4,130.3,300.1,131.3 M293.4,127.7c1.4,0.8,3.1,0.4,4.1-1.4c0.7-1.3,0.5-2.7-0.4-3.4
						c1,0.2,2.1-0.3,2.8-1.6c0.9-1.6,0.3-3.3-1.3-4.2c-1.8-1-3.4-0.3-4.3,1.3l-4,7.4l0.8,0.4l4-7.3c0.7-1.3,2-1.7,3.1-1.1
						c1.1,0.6,1.6,1.8,0.9,3.1c-0.7,1.4-1.9,1.5-3,0.9l-0.4-0.2l-0.4,0.7l0.5,0.3c1.2,0.7,1.6,1.9,0.9,3.2c-0.7,1.4-1.9,1.7-3,1.1
						c-0.5-0.3-0.8-0.6-1-0.9l-0.6,0.5C292.4,126.9,292.8,127.3,293.4,127.7 M285.5,122.4c-1.3-0.7-1.6-2.3-0.7-3.9
						c0.9-1.6,2.3-2.2,3.6-1.5c1.3,0.7,1.6,2.2,0.7,3.9C288.3,122.6,286.8,123.1,285.5,122.4 M285,123.1c1,0.6,2.1,0.5,3,0l-0.6,1.2
						l0.8,0.4l3.6-6.6l-0.8-0.4l-0.6,1.1c-0.1-1-0.6-1.9-1.6-2.5c-1.6-0.9-3.6-0.2-4.7,1.9C282.9,120.2,283.4,122.2,285,123.1
						 M278.8,119.6l2.1-4c0.6-1.2,1.7-1.6,2.7-1.1c0.3,0.2,0.6,0.4,0.8,0.7l0.6-0.6c-0.2-0.3-0.5-0.6-0.9-0.8
						c-0.8-0.4-1.6-0.4-2.4,0l0.5-0.9l-0.7-0.4l-3.6,6.6L278.8,119.6z M274.9,117.6c0.7,0.4,1.4,0.5,2,0.3l0-0.8
						c-0.5,0.1-1,0-1.5-0.2c-0.8-0.4-1-1.2-0.5-2.1l2.1-3.9l2.6,1.4l0.4-0.7l-2.6-1.4l1.1-2l-0.8-0.4l-1.1,2l-1.4-0.7l-0.4,0.7
						l1.4,0.7l-2.1,3.9C273.3,115.9,273.7,117,274.9,117.6 M267.3,113.5c1.9,1,3.9,0.9,4.9-0.9c0.8-1.5,0.2-2.8-1.2-4l-0.9-0.7
						c-1.3-1.1-1.6-2-1.1-3c0.6-1.2,2-1.3,3.4-0.6c1.2,0.6,1.8,1.5,2,2.5l0.8-0.3c-0.3-1.1-1-2.2-2.4-3c-1.8-1-3.7-0.7-4.7,1
						c-0.8,1.4-0.3,2.7,1.2,3.9l0.9,0.7c1.2,1,1.7,2,1.1,3c-0.7,1.3-2.2,1.3-3.6,0.5c-1.2-0.7-2-1.8-2.2-2.7l-0.8,0.3
						C265,111.4,265.9,112.7,267.3,113.5 M257.1,107.8l2.1-4c0.6-1.2,1.7-1.6,2.7-1.1c0.3,0.2,0.6,0.4,0.8,0.7l0.6-0.6
						c-0.2-0.3-0.5-0.6-0.9-0.8c-0.8-0.4-1.6-0.4-2.4,0l0.5-0.9l-0.7-0.4l-3.6,6.6L257.1,107.8z M251.8,100.2
						c0.9-1.4,2.2-1.8,3.4-1.2c1.1,0.6,1.4,1.9,0.7,3.4L251.8,100.2z M251.9,105.1c0.9,0.5,1.8,0.7,3,0.3l-0.2-0.7
						c-0.8,0.2-1.6,0.3-2.4-0.2c-1.2-0.7-1.7-2-0.9-3.7l4.8,2.6c0.1-0.1,0.1-0.2,0.2-0.3c1.1-2.1,0.7-4-0.9-4.9
						c-1.7-0.9-3.6-0.2-4.8,1.8C249.7,102.2,250.2,104.2,251.9,105.1 M244.8,100.2c-1.3-0.7-1.6-2.2-0.7-3.8
						c0.8-1.6,2.3-2.1,3.6-1.4c1.3,0.7,1.6,2.2,0.8,3.8C247.6,100.3,246.1,100.9,244.8,100.2 M242.8,103.6c1.7,0.9,3.6,0.6,4.7-1.4
						l3.4-6.3l-0.8-0.4l-0.6,1.1c-0.1-1-0.6-1.9-1.6-2.4c-1.6-0.9-3.5-0.2-4.6,1.8c-1.1,2-0.6,4,0.9,4.9c1,0.6,2.1,0.5,3,0.1
						l-0.5,0.9c-0.9,1.6-2.3,1.8-3.6,1.1c-0.9-0.5-1.4-1.2-1.7-1.9l-0.7,0.4C241.1,102.2,241.8,103.1,242.8,103.6 M239.8,98.4
						l3.6-6.6l-0.8-0.4L239,98L239.8,98.4z M244,89.7c0.3,0.2,0.6,0.1,0.8-0.2c0.2-0.3,0.1-0.6-0.2-0.8c-0.3-0.2-0.6,0-0.8,0.2
						C243.6,89.2,243.7,89.6,244,89.7 M237.2,97l0.4-0.7l-4.1-2.2l6.9-3.1l0.3-0.6l-4.9-2.7l-0.4,0.7l3.9,2.1l-7,3.1l-0.3,0.6
						L237.2,97z M228.3,91.4c-1.3-0.7-1.6-2.3-0.7-3.9c0.9-1.6,2.4-2.2,3.6-1.5c1.3,0.7,1.6,2.3,0.7,3.9
						C231.1,91.5,229.6,92.1,228.3,91.4 M224.4,93.5l2.1-3.8c0.1,1,0.6,1.9,1.6,2.5c1.6,0.9,3.6,0.2,4.7-1.9c1.1-2,0.6-4.1-1-5
						c-1-0.6-2.1-0.5-3,0l0.6-1.2l-0.8-0.4l-5.1,9.3L224.4,93.5z M222.9,89.3l3.6-6.6l-0.8-0.4l-3.6,6.6L222.9,89.3z M227.2,80.6
						c0.3,0.2,0.6,0.1,0.8-0.2c0.2-0.3,0.1-0.6-0.2-0.8c-0.3-0.2-0.6,0-0.8,0.2C226.8,80.1,226.9,80.4,227.2,80.6 M217.7,81.6
						c0.9-1.4,2.2-1.8,3.4-1.2c1.1,0.6,1.4,1.9,0.7,3.4L217.7,81.6z M217.8,86.6c0.9,0.5,1.8,0.7,3,0.3l-0.2-0.7
						c-0.8,0.2-1.6,0.3-2.4-0.2c-1.2-0.7-1.7-2-0.9-3.7l4.8,2.6c0.1-0.1,0.1-0.2,0.2-0.3c1.1-2.1,0.7-4-0.9-4.9
						c-1.7-0.9-3.6-0.2-4.8,1.8C215.5,83.7,216,85.6,217.8,86.6 M214,84.4l0.4-0.8l-5-2.7l4.9-9.1l-0.8-0.4l-5.3,9.8L214,84.4z"/>
				</g>
			</g>
		</g>
	</g>
</g>
</svg>
