<?xml version="1.0" encoding="utf-8"?>
<!-- Generator: Adobe Illustrator 26.0.3, SVG Export Plug-In . SVG Version: 6.00 Build 0)  -->
<svg version="1.1" id="Ebene_1" xmlns="http://www.w3.org/2000/svg" xmlns:xlink="http://www.w3.org/1999/xlink" x="0px" y="0px"
	 viewBox="0 0 842 550" style="enable-background:new 0 0 842 550;" xml:space="preserve">
<style type="text/css">
	.st0{clip-path:url(#SVGID_00000183217393449280993620000009244649982114657924_);}
	.st1{clip-path:url(#SVGID_00000032616398915234587920000000695717931608010173_);}
	.st2{clip-path:url(#SVGID_00000088116294889416958760000008482637252881881996_);}
	.st3{clip-path:url(#SVGID_00000159437792011246308590000004863562654139524763_);fill:none;stroke:#FFFFFF;stroke-width:4.862;}
	.st4{clip-path:url(#SVGID_00000159437792011246308590000004863562654139524763_);fill:none;stroke:#FFFFFF;stroke-width:14.445;}
	.st5{clip-path:url(#SVGID_00000159437792011246308590000004863562654139524763_);fill:none;stroke:#FFFFFF;stroke-width:10.834;}
	.st6{clip-path:url(#SVGID_00000159437792011246308590000004863562654139524763_);fill:none;stroke:#FFFFFF;stroke-width:14.431;}
	.st7{clip-path:url(#SVGID_00000159437792011246308590000004863562654139524763_);fill:#1C355E;}
	.st8{clip-path:url(#SVGID_00000088116294889416958760000008482637252881881996_);fill:#1C355E;}
	.st9{clip-path:url(#SVGID_00000116225742910481513050000005975027489294647182_);fill:#1C355E;}
</style>
<g>
	<defs>
		<rect id="SVGID_1_" width="842" height="550"/>
	</defs>
	<clipPath id="SVGID_00000009586424980768992250000003399710465516289667_">
		<use xlink:href="#SVGID_1_"  style="overflow:visible;"/>
	</clipPath>
	<g style="clip-path:url(#SVGID_00000009586424980768992250000003399710465516289667_);">
		<defs>
			<rect id="SVGID_00000016761105480448611310000016347415471882655652_" width="842" height="550"/>
		</defs>
		<clipPath id="SVGID_00000049204373615920368430000016911609543776014986_">
			<use xlink:href="#SVGID_00000016761105480448611310000016347415471882655652_"  style="overflow:visible;"/>
		</clipPath>
		<g style="clip-path:url(#SVGID_00000049204373615920368430000016911609543776014986_);">
			<g>
				<defs>
					<rect id="SVGID_00000029033433411198195990000017971915055658895281_" x="-9" y="-7" width="860" height="558"/>
				</defs>
				<clipPath id="SVGID_00000119835799118223159960000010161400525907565487_">
					<use xlink:href="#SVGID_00000029033433411198195990000017971915055658895281_"  style="overflow:visible;"/>
				</clipPath>
				<g style="clip-path:url(#SVGID_00000119835799118223159960000010161400525907565487_);">
					<defs>
						<rect id="SVGID_00000170263028497766773950000009360801073816189882_" width="842" height="550"/>
					</defs>
					<clipPath id="SVGID_00000097458152789302686440000010805054936988508606_">
						<use xlink:href="#SVGID_00000170263028497766773950000009360801073816189882_"  style="overflow:visible;"/>
					</clipPath>
					
						<path style="clip-path:url(#SVGID_00000097458152789302686440000010805054936988508606_);fill:none;stroke:#FFFFFF;stroke-width:4.862;" d="
						M841.5,364.9l15.1,28.1 M829,361.1l15.1,28.1 M816.6,357.4l15.1,28.1 M804.1,353.6l15.1,28.1 M791.7,349.8l15.1,28.1
						 M779.2,346.1l15.1,28.1 M766.7,342.3l15.1,28.1 M754.3,338.6l15.1,28.1 M745.1,335.1l11.8,27.8 M734.1,328.1l10.4,31
						 M723.1,321.2l6.9,31.1 M712.2,314.2l6.9,31.1 M701.2,307.2l6.9,31.1 M690.2,300.2l6.9,31.1 M679.2,293.3l6.9,31.1
						 M668.3,286.3l6.9,31.1 M657.3,279.3l6.9,31.1 M646.3,272.3l6.9,31.1 M635.3,265.3l6.9,31.1 M624.4,258.4l6.9,31.1
						 M613.4,251.4l6.9,31.1 M602.4,244.4l6.9,31.1 M591.4,237.4l6.9,31.1 M580.5,230.5l6.9,31.1 M569.5,223.5l6.9,31.1
						 M558.5,216.5l6.9,31.1 M547.5,209.5l6.9,31.1 M536.5,202.5l6.9,31.1 M525.6,195.6l6.9,31.1 M514.6,188.6l6.9,31.1
						 M503.6,181.6l6.9,31.1 M491.2,174.1l8.4,31.6 M479.4,168.7l9.2,30.1 M467.6,163.3l11.1,29.9 M455.7,157.8l11.1,29.9
						 M443.9,152.4l11.1,29.9 M432.1,146.9l11.1,29.9 M420.3,141.5l11.1,29.9 M410.6,137.2l9,28.8 M400.2,129.4l7.5,31.1
						 M389.8,121.6l4.5,31.6 M379.4,113.8l4.5,31.6 M369,106l4.5,31.6 M358.6,98.2l4.5,31.6 M348.2,90.4l4.5,31.6 M337.8,82.5
						l4.5,31.6 M327.4,74.7l4.5,31.6 M317,66.9l4.5,31.6 M306.6,59.1l4.5,31.6 M296.2,51.3l4.5,31.6 M285.8,43.5l4.5,31.6
						 M275.4,35.7l4.5,31.6 M265,27.9l4.5,31.6 M254.6,20.1l4.5,31.6 M244.2,12.3l4.5,31.6 M233.8,4.5l4.5,31.6 M223.4-3.4l4.5,31.6
						 M213-11.2l4.5,31.6 M202.6-19l4.5,31.6 M192.2-26.8l4.5,31.6 M181.8-34.6L186.3-3 M171.4-42.4l4.5,31.6 M161-50.2l4.5,31.6
						 M150.6-58l4.5,31.6 M140.2-65.8l4.5,31.6 M129.8-73.6l4.5,31.6 M119.4-81.4l4.5,31.6 M109-89.2l4.5,31.6"/>
					
						<polyline style="clip-path:url(#SVGID_00000097458152789302686440000010805054936988508606_);fill:none;stroke:#FFFFFF;stroke-width:14.445;" points="
						324.8,-18.8 406.5,188.1 378.5,413.3 575.6,593.4 					"/>
					
						<line style="clip-path:url(#SVGID_00000097458152789302686440000010805054936988508606_);fill:none;stroke:#FFFFFF;stroke-width:14.445;" x1="244.7" y1="580.7" x2="377.1" y2="413.3"/>
					
						<path style="clip-path:url(#SVGID_00000097458152789302686440000010805054936988508606_);fill:none;stroke:#FFFFFF;stroke-width:10.834;" d="
						M371,100l-36.2,94.9l-25.2,169.2c0,0-2,23.2-36.2,34.8c-34.1,11.6-197.9,39.6-197.9,39.6l-94.9,13.3"/>
					
						<path style="clip-path:url(#SVGID_00000097458152789302686440000010805054936988508606_);fill:none;stroke:#FFFFFF;stroke-width:10.834;" d="
						M400.3,260.4l66.2-2.7c0,0,20.5-2.7,29.3,15c8.9,17.7,17.7,36.9,17.7,36.9"/>
					
						<path style="clip-path:url(#SVGID_00000097458152789302686440000010805054936988508606_);fill:none;stroke:#FFFFFF;stroke-width:10.834;" d="
						M209.2,224.9l15.7-91.4l-12.3-14.3l-86,104.4c0,0-32.8,77.8-43.7,96.2c-4.9,8.3-10.9,15.4-47.8,19.4s-59.4,10.2-59.4,10.2"/>
					
						<path style="clip-path:url(#SVGID_00000097458152789302686440000010805054936988508606_);fill:none;stroke:#FFFFFF;stroke-width:14.431;" d="
						M322.5,599.5c-0.5-0.6-54.7-61.2-97.8-82.5c-47.4-23.4-189.8,6.6-243.3,17.9c-7.7,1.6-14,2.9-18.5,3.8"/>
					
						<path style="clip-path:url(#SVGID_00000097458152789302686440000010805054936988508606_);fill:none;stroke:#FFFFFF;stroke-width:14.431;" d="
						M344.1,580.3c-2.4-2.7-58.4-65.5-106.6-89.2c-49.7-24.5-160.4-5.9-262.1,15.5c-7.5,1.6-13.6,2.9-18,3.7"/>
					
						<line style="clip-path:url(#SVGID_00000097458152789302686440000010805054936988508606_);fill:none;stroke:#FFFFFF;stroke-width:10.834;" x1="70.7" y1="104.8" x2="-30.3" y2="113"/>
					<path style="clip-path:url(#SVGID_00000097458152789302686440000010805054936988508606_);fill:#1C355E;" d="M381.9,234.6
						l-4.6-0.6c-1.3-0.2-2.1-1.2-1.9-2.4c0.2-1.3,1-2,2.4-1.8l4.6,0.6l0.1-0.9l-4.6-0.6c-1.3-0.2-2.1-1.2-1.9-2.4
						c0.2-1.3,1-2,2.4-1.8l4.6,0.6l0.1-0.9l-4.9-0.6c-1.7-0.2-2.8,0.8-3,2.4c-0.1,1.1,0.2,2.2,1.1,2.8c-0.9,0.3-1.5,1.1-1.7,2.2
						c-0.1,0.9,0.1,1.9,0.9,2.5l-1-0.1l-0.1,0.8l7.5,0.9L381.9,234.6z M381.2,240.2l-4.5-0.5c-1.3-0.2-2.2-1-2-2.1
						c0-0.4,0.2-0.8,0.4-1l-0.8-0.3c-0.2,0.3-0.3,0.7-0.4,1.1c-0.1,0.9,0.2,1.7,0.9,2.2l-1-0.1l-0.1,0.8l7.5,0.9L381.2,240.2z
						 M380.6,246.4c0.2-1.7-0.6-3.1-2.6-3.3l-4.7-0.6l-0.1,0.9l4.6,0.6c1.4,0.2,2.1,1.1,1.9,2.4c-0.2,1.2-1,2-2.4,1.8l-4.6-0.6
						l-0.1,0.9l4.7,0.6C379.2,249.2,380.4,248.1,380.6,246.4 M379.7,253l-10.3-1.3l0.4-3.5l-0.9-0.1l-1,7.9l0.9,0.1l0.4-3.5
						l10.3,1.3L379.7,253z M378.3,264.2l-4.5-0.5c-1.3-0.2-2.2-1-2-2.1c0-0.4,0.2-0.8,0.4-1l-0.8-0.3c-0.2,0.3-0.3,0.7-0.4,1.1
						c-0.1,0.9,0.2,1.7,0.9,2.2l-1-0.1l-0.1,0.8l7.5,0.9L378.3,264.2z M373.1,271.9c-1.6-0.3-2.5-1.4-2.3-2.7c0.2-1.3,1.3-2,2.9-1.9
						L373.1,271.9z M377.7,270c0.1-1,0-1.9-0.8-2.9l-0.6,0.4c0.5,0.6,0.8,1.4,0.7,2.3c-0.2,1.4-1.3,2.3-3.1,2.2l0.7-5.5
						c-0.1,0-0.2,0-0.3-0.1c-2.3-0.3-4,0.8-4.2,2.6c-0.2,1.9,1.1,3.5,3.5,3.7C375.8,273.2,377.4,272,377.7,270 M375.7,278.4
						c-0.2,1.5-1.5,2.3-3.3,2.1c-1.8-0.2-2.8-1.4-2.7-2.8c0.2-1.4,1.5-2.3,3.3-2.1C374.8,275.8,375.9,277,375.7,278.4 M379.6,279.1
						c0.2-1.9-0.7-3.6-3-3.8l-7.1-0.9l-0.1,0.8l1.2,0.2c-0.9,0.5-1.5,1.3-1.7,2.4c-0.2,1.8,1.1,3.4,3.4,3.6c2.3,0.3,4-0.9,4.2-2.7
						c0.1-1.2-0.2-2.1-1-2.8l1.1,0.1c1.8,0.2,2.5,1.5,2.3,2.9c-0.1,1-0.6,1.8-1.2,2.3l0.6,0.5C379,281.2,379.5,280.2,379.6,279.1
						 M375.9,283.8l-7.5-0.9l-0.1,0.9l7.5,0.9L375.9,283.8z M366.2,283c0-0.3-0.2-0.6-0.5-0.7c-0.3,0-0.6,0.2-0.7,0.5
						c0,0.3,0.2,0.6,0.5,0.7C365.9,283.6,366.2,283.4,366.2,283 M375.5,286.7l-0.8-0.1l-0.6,4.6l-5.5-5.3l-0.7-0.1l-0.7,5.5l0.8,0.1
						l0.5-4.4l5.5,5.3l0.7,0.1L375.5,286.7z M373.5,297c-0.2,1.5-1.5,2.3-3.3,2.1c-1.8-0.2-2.9-1.4-2.7-2.8c0.2-1.5,1.5-2.3,3.3-2.1
						C372.6,294.4,373.7,295.5,373.5,297 M377,299.9l-4.3-0.5c0.9-0.4,1.6-1.2,1.7-2.4c0.2-1.9-1.2-3.4-3.4-3.7
						c-2.3-0.3-4,0.9-4.2,2.7c-0.1,1.2,0.3,2.1,1.1,2.8l-1.3-0.2l-0.1,0.8l10.5,1.3L377,299.9z M373.5,302.8l-7.5-0.9l-0.1,0.9
						l7.5,0.9L373.5,302.8z M363.9,302.1c0-0.3-0.2-0.6-0.5-0.7c-0.3,0-0.6,0.2-0.7,0.5c0,0.3,0.2,0.6,0.5,0.7
						C363.6,302.6,363.9,302.4,363.9,302.1 M368.3,310.6c-1.6-0.3-2.5-1.4-2.3-2.7c0.2-1.3,1.3-2,2.9-1.9L368.3,310.6z M372.9,308.6
						c0.1-1,0-1.9-0.8-2.9l-0.6,0.4c0.5,0.6,0.8,1.4,0.7,2.3c-0.2,1.4-1.3,2.3-3.1,2.2l0.7-5.5c-0.1,0-0.2,0-0.3-0.1
						c-2.3-0.3-4,0.8-4.2,2.6c-0.2,1.9,1.1,3.5,3.5,3.7C371,311.8,372.7,310.6,372.9,308.6 M372.3,312.9l-0.9-0.1l-0.7,5.6
						l-10.3-1.3l-0.1,0.9l11.1,1.4L372.3,312.9z M369.5,335.6l-4.6-0.6c-1.3-0.2-2.1-1.2-1.9-2.4c0.2-1.3,1-2,2.4-1.8l4.6,0.6
						l0.1-0.9l-4.6-0.6c-1.3-0.2-2.1-1.2-1.9-2.4c0.2-1.3,1-2,2.4-1.8l4.6,0.6l0.1-0.9l-4.9-0.6c-1.7-0.2-2.8,0.8-3,2.4
						c-0.1,1.1,0.2,2.2,1.1,2.8c-0.9,0.3-1.5,1.1-1.7,2.2c-0.1,0.9,0.1,1.9,0.9,2.5l-1-0.1l-0.1,0.8l7.5,0.9L369.5,335.6z
						 M358.5,341.3l6.3-1.4l-0.5,4.3L358.5,341.3z M368.2,346.2l-3.1-1.5l0.6-5l3.4-0.8l0.1-1l-11.6,2.7l-0.1,1.1l10.6,5.4
						L368.2,346.2z"/>
					<path style="clip-path:url(#SVGID_00000097458152789302686440000010805054936988508606_);fill:#1C355E;" d="M738.2,250.9
						c1.3-1,2.7-0.9,3.6,0.1c0.8,1,0.6,2.3-0.5,3.4L738.2,250.9z M736.6,255.6c0.6,0.7,1.5,1.3,2.7,1.3l0.1-0.7
						c-0.8,0-1.6-0.3-2.2-1c-0.9-1.1-0.8-2.5,0.5-3.7l3.6,4.2c0.1-0.1,0.2-0.1,0.3-0.2c1.8-1.5,2-3.5,0.9-4.9
						c-1.3-1.4-3.3-1.5-5.1,0.1C735.5,252.1,735.3,254.1,736.6,255.6 M731.5,249.8c1.1,1.2,2.8,1.4,4.3,0.1c1.1-0.9,1.4-2.4,0.8-3.3
						c0.8,0.5,2.1,0.4,3.1-0.5c1.4-1.2,1.4-3,0.2-4.4c-1.3-1.6-3.1-1.5-4.5-0.3l-6.3,5.5l0.6,0.7l6.3-5.5c1.2-1,2.4-0.9,3.3,0.1
						c0.9,1,0.9,2.2-0.2,3.2c-1.2,1-2.3,0.7-3.1-0.2l-0.3-0.3l-0.6,0.5l0.4,0.4c0.9,1,0.9,2.3-0.3,3.3c-1.2,1-2.4,0.9-3.2,0
						c-0.4-0.4-0.6-0.9-0.6-1.2l-0.7,0.3C730.8,248.7,731.1,249.3,731.5,249.8 M726,242.2c-1-1.1-0.7-2.7,0.7-3.9
						c1.4-1.2,3-1.2,3.9-0.1c1,1.1,0.7,2.7-0.7,3.9C728.6,243.3,727,243.3,726,242.2 M725.3,242.6c0.8,0.9,1.8,1.2,2.8,1l-1,0.9
						l0.6,0.6l5.7-4.9l-0.6-0.6l-1,0.9c0.3-1,0.1-2-0.6-2.9c-1.2-1.4-3.3-1.4-5.1,0.1C724.3,239.1,724.1,241.2,725.3,242.6
						 M720.6,237.1l3.4-3c1-0.9,2.2-0.9,3-0.1c0.2,0.3,0.4,0.6,0.5,0.9l0.8-0.4c-0.1-0.4-0.3-0.7-0.6-1c-0.6-0.7-1.4-1-2.2-0.8
						l0.8-0.7l-0.6-0.6l-5.7,4.9L720.6,237.1z M717.7,233.9c0.5,0.6,1.1,0.9,1.8,1l0.3-0.7c-0.5-0.1-0.9-0.3-1.3-0.7
						c-0.6-0.7-0.6-1.4,0.3-2.2l3.3-2.9l2,2.3l0.6-0.5l-2-2.3l1.7-1.5l-0.6-0.7l-1.7,1.5l-1-1.2l-0.6,0.5l1,1.2l-3.3,2.9
						C716.9,231.7,716.8,232.9,717.7,233.9 M712.8,228.2c1.1,1.3,2.5,1.6,3.5,0.7c0.8-0.7,0.9-1.7,0.1-2.9l-0.4-0.7
						c-0.6-0.9-0.5-1.6,0-2c0.6-0.5,1.5-0.3,2.2,0.5c0.6,0.6,0.8,1.5,0.9,2.1l0.8-0.1c0-0.8-0.4-1.7-1.1-2.5c-1-1.2-2.3-1.4-3.3-0.6
						c-0.8,0.7-0.9,1.6-0.2,2.9l0.4,0.7c0.5,0.9,0.6,1.6,0,2c-0.7,0.6-1.6,0.3-2.3-0.6c-0.7-0.8-0.9-1.5-0.9-2.2l-0.8,0.1
						C711.7,226.5,712.1,227.4,712.8,228.2 M706.6,220.9l3.5-3c1-0.9,2.3-0.7,3.1,0.2c0.9,1,0.8,2.1-0.3,3l-3.5,3.1l0.6,0.7l3.7-3.2
						c1.3-1.1,1.3-2.6,0.3-3.8c-0.6-0.7-1.5-1.2-2.5-1l0.9-0.8l-0.6-0.6l-5.7,4.9L706.6,220.9z M704.4,218.4l5.7-4.9l-0.6-0.7
						l-5.7,4.9L704.4,218.4z M711.4,211.8c0.2,0.3,0.6,0.3,0.8,0.1c0.3-0.2,0.3-0.6,0.1-0.8c-0.2-0.2-0.6-0.3-0.8-0.1
						C711.2,211.2,711.2,211.5,711.4,211.8 M701.5,215.3c0.5,0.6,1.1,0.9,1.8,1l0.3-0.7c-0.5-0.1-0.9-0.3-1.3-0.7
						c-0.6-0.7-0.6-1.4,0.3-2.2l3.3-2.9l2,2.3l0.6-0.5l-2-2.3l1.7-1.5l-0.6-0.7l-1.7,1.5l-1-1.2l-0.6,0.5l1,1.2l-3.3,2.9
						C700.7,213.1,700.6,214.2,701.5,215.3 M696.5,209.3l3.4-3c1-0.9,2.2-0.9,3-0.1c0.2,0.3,0.4,0.6,0.5,0.9l0.8-0.4
						c-0.1-0.4-0.3-0.7-0.6-1c-0.6-0.7-1.4-1-2.2-0.8l0.8-0.7l-0.6-0.6l-5.7,4.9L696.5,209.3z M692.7,203.8c-1-1.1-0.7-2.7,0.7-3.9
						c1.4-1.2,3-1.2,3.9-0.1c1,1.1,0.7,2.7-0.7,3.9C695.2,204.9,693.6,204.9,692.7,203.8 M691.9,204.2c0.8,0.9,1.8,1.2,2.8,1l-1,0.9
						l0.6,0.6l5.7-4.9l-0.6-0.6l-1,0.9c0.3-1,0.1-2-0.6-2.9c-1.2-1.4-3.3-1.4-5.1,0.1C691,200.8,690.7,202.8,691.9,204.2
						 M682.5,193.2l7.5-6.5l-3.5,7.9l0.6,0.7l8.3-2.4l-7.5,6.5l0.6,0.7l8.5-7.4l-0.9-1l-8.4,2.4l3.5-8l-0.9-1l-8.5,7.4L682.5,193.2z
						"/>
					<path style="clip-path:url(#SVGID_00000097458152789302686440000010805054936988508606_);fill:#1C355E;" d="M475.8,242.2
						c0.4,0,0.7-0.3,0.6-0.7c0-0.4-0.3-0.7-0.7-0.6c-0.4,0-0.7,0.3-0.6,0.7C475.1,241.9,475.4,242.2,475.8,242.2 M469.1,242.4
						c2.8-0.1,4.6-2.4,4.4-5.8c0-0.1,0-0.2,0-0.4l-4.2,0.1l0,0.8l3.3-0.1c0,2.7-1.3,4.3-3.5,4.4c-2.2,0.1-4-1.6-4.1-4.7
						c-0.1-3,1.5-4.9,3.8-4.9c1.3,0,2.4,0.5,3.1,1.6l0.7-0.6c-0.9-1.3-2.3-2-3.9-1.9c-2.8,0.1-4.8,2.4-4.7,5.9
						C464.1,240.5,466.4,242.5,469.1,242.4 M453.3,238.6c0.1-1.6,1-2.7,2.3-2.7c1.3,0,2.2,1,2.3,2.6L453.3,238.6z M456,242.9
						c1,0,1.9-0.3,2.7-1.3l-0.5-0.6c-0.5,0.6-1.2,1-2.2,1.1c-1.4,0-2.5-0.9-2.6-2.7l5.5-0.2c0-0.1,0-0.2,0-0.3
						c-0.1-2.4-1.4-3.8-3.3-3.7c-1.9,0.1-3.2,1.6-3.2,4C452.6,241.5,454,242.9,456,242.9 M451.3,242.9l0-0.8l-4.6,0.2l4.4-6.2l0-0.7
						l-5.6,0.2l0,0.8l4.5-0.2l-4.4,6.2l0,0.7L451.3,242.9z M441.2,243.3l-0.2-4.5c0-1.3,0.7-2.3,1.8-2.3c0.4,0,0.8,0.1,1.1,0.2
						l0.2-0.8c-0.3-0.2-0.7-0.2-1.2-0.2c-0.9,0-1.6,0.5-2,1.2l0-1.1l-0.8,0l0.3,7.5L441.2,243.3z M435,243.6c1.7-0.1,2.9-1.1,2.9-3
						l-0.2-4.7l-0.9,0l0.2,4.6c0,1.4-0.8,2.2-2,2.3c-1.3,0-2.1-0.7-2.2-2.1l-0.2-4.6l-0.9,0l0.2,4.7
						C432,242.7,433.3,243.7,435,243.6 M424.2,243.9l-0.2-5.2l1.2,0l4.7,5l1.2,0l-5.2-5.5l4.5-5.7l-1.1,0l-4.1,5.3l-1.3,0l-0.2-5.1
						l-0.9,0l0.4,11.2L424.2,243.9z"/>
					<path style="clip-path:url(#SVGID_00000097458152789302686440000010805054936988508606_);fill:#1C355E;" d="M752.1,97.6
						c-0.6-1.5-0.2-2.8,1-3.4c1.1-0.6,2.4,0,3.2,1.4L752.1,97.6z M756.2,100.4c0.9-0.4,1.6-1.1,2-2.3l-0.7-0.3
						c-0.2,0.8-0.7,1.4-1.5,1.8c-1.3,0.6-2.6,0.2-3.5-1.4l5-2.4c0-0.1-0.1-0.2-0.1-0.3c-1-2.1-2.9-2.9-4.5-2.1
						c-1.7,0.8-2.3,2.8-1.3,4.9C752.5,100.5,754.4,101.3,756.2,100.4 M749.3,103.8c1.5-0.7,2.1-2.3,1.2-4.1c-0.6-1.3-1.9-2-3-1.7
						c0.7-0.7,0.9-1.9,0.3-3.2c-0.8-1.6-2.5-2.1-4.2-1.3c-1.8,0.9-2.2,2.6-1.4,4.3l3.7,7.5l0.8-0.4l-3.7-7.5c-0.7-1.4-0.3-2.6,1-3.2
						c1.2-0.6,2.4-0.3,3.1,1.1c0.7,1.4,0.1,2.5-1,3l-0.4,0.2l0.3,0.7l0.5-0.2c1.2-0.6,2.5-0.2,3.1,1.1c0.7,1.4,0.2,2.5-0.9,3.1
						c-0.5,0.3-1,0.3-1.4,0.3l0.1,0.8C748.1,104.2,748.6,104.1,749.3,103.8 M740.5,107.1c-1.3,0.6-2.8,0-3.6-1.6
						c-0.8-1.6-0.4-3.2,0.9-3.8c1.3-0.6,2.8,0,3.6,1.6C742.2,105,741.8,106.5,740.5,107.1 M740.7,108c1.1-0.5,1.6-1.4,1.7-2.4
						l0.6,1.2l0.8-0.4l-3.3-6.8l-0.8,0.4l0.6,1.2c-0.9-0.5-1.9-0.6-3-0.1c-1.7,0.8-2.2,2.8-1.2,4.9C737.1,108,739,108.8,740.7,108
						 M734.2,111l-2-4c-0.6-1.2-0.3-2.4,0.7-2.9c0.3-0.2,0.7-0.3,1.1-0.3l-0.2-0.9c-0.4,0-0.8,0.1-1.1,0.3c-0.8,0.4-1.3,1.1-1.3,2
						l-0.5-0.9l-0.8,0.4l3.3,6.8L734.2,111z M730.4,113c0.7-0.3,1.2-0.9,1.4-1.4l-0.6-0.4c-0.2,0.4-0.6,0.8-1.1,1.1
						c-0.8,0.4-1.5,0.2-2-0.8l-1.9-3.9l2.7-1.3l-0.4-0.7l-2.7,1.3l-1-2.1L724,105l1,2.1l-1.4,0.7l0.4,0.7l1.4-0.7l1.9,4
						C728,113.3,729.1,113.6,730.4,113 M723.6,116.3c1.5-0.7,2.2-2,1.6-3.2c-0.5-1-1.4-1.3-2.8-0.9l-0.8,0.2c-1,0.3-1.6,0.1-1.9-0.5
						c-0.4-0.7,0.1-1.5,1-2c0.8-0.4,1.6-0.4,2.2-0.3l0.1-0.8c-0.8-0.2-1.7-0.1-2.7,0.4c-1.4,0.7-2,1.9-1.4,3.1
						c0.4,0.9,1.3,1.3,2.8,0.9l0.8-0.2c1-0.3,1.7-0.1,2,0.5c0.4,0.8-0.1,1.6-1.2,2.1c-0.9,0.5-1.7,0.5-2.4,0.3l-0.1,0.8
						C721.6,116.9,722.6,116.8,723.6,116.3 M718.6,118.7c0.7-0.3,1.2-0.9,1.4-1.4l-0.6-0.4c-0.2,0.4-0.6,0.8-1.1,1.1
						c-0.8,0.4-1.5,0.2-2-0.8l-1.9-3.9l2.7-1.3l-0.4-0.7l-2.7,1.3l-1-2.1l-0.8,0.4l1,2.1l-1.4,0.7l0.3,0.7l1.4-0.7l1.9,4
						C716.2,119,717.4,119.3,718.6,118.7 M711.8,122.1c1.5-0.7,2.2-2,1.6-3.2c-0.5-1-1.4-1.3-2.8-0.9l-0.8,0.2
						c-1,0.3-1.6,0.1-1.9-0.5c-0.4-0.7,0.1-1.5,1-2c0.8-0.4,1.6-0.4,2.2-0.3l0.1-0.8c-0.8-0.2-1.7-0.1-2.7,0.4
						c-1.4,0.7-2,1.9-1.4,3.1c0.4,0.9,1.3,1.3,2.8,0.9l0.8-0.2c1-0.3,1.7-0.1,2,0.5c0.4,0.8-0.1,1.6-1.2,2.1
						c-0.9,0.5-1.7,0.5-2.4,0.3l-0.1,0.8C709.8,122.7,710.8,122.5,711.8,122.1 M705.1,125.3c1.5-0.7,2.2-2.2,1.4-3.9l-2.1-4.2
						l-0.8,0.4l2,4.2c0.6,1.3,0.2,2.3-0.9,2.9c-1.1,0.6-2.2,0.2-2.9-1l-2-4.2l-0.8,0.4l2.1,4.2C702,125.7,703.6,126.1,705.1,125.3
						 M696.9,128.3c-1.3,0.6-2.8,0-3.5-1.6c-0.8-1.6-0.4-3.1,0.9-3.8c1.3-0.6,2.8,0,3.5,1.6C698.6,126.1,698.2,127.6,696.9,128.3
						 M698.5,131.9c1.7-0.8,2.6-2.6,1.6-4.6l-3.2-6.5l-0.8,0.4l0.5,1.1c-0.9-0.5-1.9-0.6-2.9-0.1c-1.6,0.8-2.2,2.7-1.2,4.8
						c1,2.1,2.9,2.8,4.5,2c1-0.5,1.6-1.4,1.8-2.4l0.5,1c0.8,1.6,0.1,2.9-1.2,3.5c-0.9,0.4-1.8,0.5-2.5,0.2l-0.1,0.8
						C696.4,132.5,697.5,132.4,698.5,131.9 M690,132.7c1.5-0.7,2.2-2.2,1.4-3.9l-2.1-4.2l-0.8,0.4l2,4.2c0.6,1.3,0.2,2.3-0.9,2.9
						c-1.1,0.6-2.2,0.2-2.9-1l-2-4.2l-0.8,0.4l2.1,4.2C686.9,133.1,688.5,133.4,690,132.7 M677.4,127.3l4.7,4.5l-3.9,1.9
						L677.4,127.3z M678.6,138.1l-0.4-3.4l4.5-2.2l2.5,2.4l0.9-0.4l-8.6-8.3l-1,0.5l1.3,11.9L678.6,138.1z"/>
					<path style="clip-path:url(#SVGID_00000097458152789302686440000010805054936988508606_);fill:#1C355E;" d="M524,521.8l3-3.3
						c0.9-1,2.1-1.2,2.9-0.4c0.3,0.2,0.5,0.6,0.6,0.9l0.7-0.5c-0.1-0.3-0.4-0.7-0.7-1c-0.7-0.6-1.5-0.8-2.3-0.5l0.7-0.8l-0.6-0.6
						l-5.1,5.6L524,521.8z M520.7,513.1c1.2-1.1,2.6-1.2,3.5-0.3c0.9,0.9,0.9,2.2-0.1,3.5L520.7,513.1z M519.6,517.9
						c0.7,0.7,1.6,1.1,2.8,1l0-0.8c-0.8,0.1-1.6-0.1-2.3-0.8c-1-1-1.1-2.4,0-3.8l4.1,3.7c0.1-0.1,0.2-0.1,0.2-0.2
						c1.6-1.7,1.6-3.7,0.3-5c-1.4-1.3-3.5-1.1-5.1,0.6C518.2,514.6,518.1,516.6,519.6,517.9 M513.6,512.4c1.2,1.1,2.9,1.3,4.2-0.2
						l3.2-3.5l-0.6-0.6l-3.1,3.4c-1,1.1-2.1,1-3,0.2c-0.9-0.8-1-2-0.1-3l3.1-3.4l-0.6-0.6l-3.2,3.5
						C512.1,509.7,512.3,511.3,513.6,512.4 M507.8,506c-1.1-1-1-2.6,0.2-3.9c1.2-1.3,2.8-1.6,3.9-0.6c1.1,1,1,2.6-0.2,3.9
						C510.4,506.7,508.8,507,507.8,506 M507.1,506.5c0.9,0.8,1.9,1,2.9,0.7l-0.9,1l0.6,0.6l5.1-5.6l-0.6-0.6l-0.9,1
						c0.2-1-0.1-2-1-2.8c-1.4-1.3-3.4-1-5,0.7C505.8,503.1,505.7,505.2,507.1,506.5 M495.9,496.1l3.1-3.4c0.9-1,2.2-1,3.1-0.2
						c1,0.9,1,2,0.1,3l-3.2,3.4l0.6,0.6l3.1-3.4c0.9-1,2.2-1,3.1-0.2c1,0.9,1,2,0.1,3l-3.2,3.4l0.6,0.6l3.3-3.6
						c1.1-1.3,1-2.8-0.2-3.9c-0.8-0.7-1.9-1.1-2.9-0.8c0.3-0.9,0-1.9-0.9-2.7c-0.7-0.6-1.6-1-2.6-0.8l0.7-0.8l-0.6-0.6l-5.1,5.6
						L495.9,496.1z M491.7,492.4c1.2,1.1,2.7,1.3,3.6,0.3c0.8-0.8,0.7-1.8-0.2-2.9l-0.5-0.7c-0.7-0.9-0.7-1.5-0.3-2
						c0.6-0.6,1.4-0.5,2.2,0.2c0.6,0.6,1,1.4,1.1,1.9l0.7-0.2c-0.1-0.8-0.6-1.6-1.3-2.3c-1.1-1-2.5-1.2-3.4-0.2
						c-0.7,0.8-0.8,1.7,0.2,2.9l0.5,0.7c0.6,0.9,0.7,1.5,0.3,2c-0.6,0.7-1.5,0.5-2.4-0.3c-0.8-0.7-1.1-1.4-1.1-2.1l-0.7,0.2
						C490.5,490.8,491,491.7,491.7,492.4 M486.3,487.4c1.2,1.1,2.9,1.3,4.2-0.2l3.2-3.5l-0.6-0.6l-3.1,3.4c-1,1-2.1,1-3,0.2
						c-0.9-0.8-1-2-0.1-3l3.1-3.4l-0.6-0.6l-3.2,3.5C484.8,484.6,485,486.2,486.3,487.4 M480.4,480.9c-1.1-1-1-2.6,0.2-3.9
						c1.2-1.3,2.8-1.6,3.9-0.6c1.1,1,1,2.6-0.2,3.9C483.1,481.7,481.5,481.9,480.4,480.9 M479.8,481.4c0.9,0.8,1.9,1,2.9,0.7l-0.9,1
						l0.6,0.6l5.1-5.6l-0.6-0.6l-0.9,1c0.2-1-0.1-2-1-2.8c-1.4-1.3-3.4-1-5,0.7C478.4,478.1,478.4,480.2,479.8,481.4 M472.3,474.5
						l3.1-3.4c0.9-1,2.2-1,3.1-0.2c1,0.9,1,2,0.1,3l-3.2,3.4l0.6,0.6l3.3-3.6c1.1-1.3,1-2.8-0.2-3.9c-0.7-0.6-1.6-1-2.6-0.7l3.4-3.7
						l-0.6-0.6l-7.8,8.5L472.3,474.5z M466.2,468.9l3.1-3.4c0.9-1,2.2-1,3.1-0.2c1,0.9,1,2,0.1,3l-3.2,3.4l0.6,0.6l3.3-3.6
						c1.1-1.3,1-2.8-0.2-3.8c-0.7-0.7-1.7-1-2.6-0.7l0.8-0.8l-0.6-0.6l-5.1,5.6L466.2,468.9z M462.9,460.1c1.2-1.1,2.6-1.2,3.5-0.3
						c0.9,0.9,0.9,2.2-0.1,3.5L462.9,460.1z M461.8,465c0.7,0.7,1.6,1.1,2.8,1l0-0.8c-0.8,0.1-1.6-0.1-2.3-0.8c-1-1-1.1-2.4,0-3.8
						l4.1,3.7c0.1-0.1,0.2-0.1,0.2-0.2c1.6-1.7,1.6-3.7,0.3-5c-1.4-1.3-3.5-1.1-5.1,0.6C460.3,461.6,460.3,463.6,461.8,465
						 M456.3,459.9c1.2,1.1,2.7,1.3,3.6,0.3c0.8-0.8,0.7-1.8-0.2-2.9l-0.5-0.7c-0.7-0.9-0.7-1.5-0.3-2c0.6-0.6,1.4-0.5,2.2,0.2
						c0.6,0.6,1,1.4,1.1,1.9l0.7-0.2c-0.1-0.8-0.6-1.6-1.3-2.3c-1.1-1-2.5-1.2-3.4-0.2c-0.7,0.8-0.8,1.7,0.2,2.9l0.5,0.7
						c0.6,0.9,0.7,1.5,0.3,2c-0.6,0.7-1.5,0.5-2.4-0.3c-0.8-0.7-1.1-1.4-1.1-2.1l-0.7,0.2C455,458.3,455.5,459.2,456.3,459.9
						 M453,456.8l5.1-5.6l-0.6-0.6l-5.1,5.6L453,456.8z M459.2,449.3c0.2,0.2,0.6,0.2,0.8,0c0.2-0.2,0.2-0.6,0-0.8
						c-0.2-0.2-0.6-0.2-0.8,0C458.9,448.8,459,449.1,459.2,449.3 M448.6,451.8c-1.1-1-1-2.6,0.2-3.9c1.2-1.3,2.8-1.6,3.9-0.6
						c1.1,1,1,2.6-0.2,3.9C451.3,452.5,449.7,452.7,448.6,451.8 M447.9,452.3c0.9,0.8,1.9,1,2.9,0.7l-0.9,1l0.6,0.6l5.1-5.6
						l-0.6-0.6l-0.9,1c0.2-1-0.1-2-1-2.8c-1.4-1.3-3.4-1-5,0.7C446.6,448.9,446.6,451,447.9,452.3 M437.8,442.8l8.8-5.3l-4.5,9.2
						l0.8,0.8l10-6l-0.7-0.6l-9,5.5l4.7-9.4l-0.7-0.7l-9,5.5l4.7-9.4l-0.7-0.7l-5.1,10.5L437.8,442.8z M429.2,435l3-3.3
						c0.9-1,2.1-1.2,2.9-0.4c0.3,0.2,0.5,0.6,0.6,0.9l0.7-0.5c-0.1-0.3-0.4-0.7-0.7-1c-0.7-0.6-1.5-0.8-2.3-0.5l0.7-0.8l-0.6-0.6
						l-5.1,5.6L429.2,435z M426,426.3c1.2-1.1,2.6-1.2,3.5-0.3c0.9,0.9,0.9,2.2-0.1,3.5L426,426.3z M424.9,431.1
						c0.7,0.7,1.6,1.1,2.8,1l0-0.8c-0.8,0.1-1.6-0.1-2.3-0.8c-1-1-1.1-2.4,0-3.8l4.1,3.7c0.1-0.1,0.2-0.1,0.2-0.2
						c1.6-1.7,1.6-3.7,0.3-5c-1.4-1.3-3.5-1.1-5.1,0.6C423.4,427.7,423.4,429.8,424.9,431.1 M419.1,424.7c-1.1-1-1-2.6,0.2-3.9
						c1.2-1.3,2.8-1.6,3.9-0.6c1.1,1,1,2.6-0.2,3.9C421.7,425.5,420.1,425.7,419.1,424.7 M418.4,425.2c0.9,0.8,1.9,1,2.8,0.8
						l-0.8,0.9l0.6,0.6l7.8-8.5l-0.6-0.6l-3.5,3.8c0.1-1-0.2-2-1-2.7c-1.4-1.3-3.4-1-5,0.7C417.1,421.9,417,423.9,418.4,425.2
						 M408.3,415.8l3.1-3.4c0.9-1,2.2-1,3.1-0.2c1,0.9,1,2,0.1,3l-3.2,3.4l0.6,0.6l3.3-3.6c1.1-1.2,1-2.8-0.2-3.8
						c-0.7-0.7-1.7-1-2.6-0.7l0.8-0.8l-0.6-0.6l-5.1,5.6L408.3,415.8z M410.1,403.5l-2.5,6l-3.2-3L410.1,403.5z M400.5,408.6l3-1.6
						l3.7,3.4l-1.3,3.2l0.7,0.7l4.6-11l-0.8-0.8l-10.6,5.5L400.5,408.6z"/>
					<path style="clip-path:url(#SVGID_00000097458152789302686440000010805054936988508606_);fill:#1C355E;" d="M317,200.9
						c-0.2,1.5-1.5,2.3-3.3,2c-1.8-0.2-2.8-1.4-2.6-2.9c0.2-1.4,1.5-2.3,3.3-2C316.1,198.3,317.2,199.5,317,200.9 M320.9,201.6
						c0.3-1.9-0.7-3.6-3-3.9l-7.1-1l-0.1,0.8l1.2,0.2c-0.9,0.4-1.6,1.3-1.7,2.4c-0.3,1.8,1,3.4,3.3,3.7c2.3,0.3,4-0.8,4.2-2.6
						c0.2-1.2-0.2-2.1-1-2.8l1.1,0.1c1.8,0.2,2.5,1.5,2.3,3c-0.1,1-0.6,1.8-1.2,2.2l0.6,0.5C320.2,203.7,320.7,202.7,320.9,201.6
						 M316.4,211.2l-4.6-0.6c-1.3-0.2-2-1.2-1.9-2.4c0.2-1.3,1.1-2,2.4-1.8l4.6,0.6l0.1-0.9l-4.9-0.7c-1.7-0.2-2.9,0.7-3.1,2.3
						c-0.1,1,0.1,1.9,0.9,2.6l-1.1-0.2l-0.1,0.8l7.5,1L316.4,211.2z M315.9,214.5l-7.5-1l-0.1,0.9l7.5,1L315.9,214.5z M306.3,213.6
						c0-0.3-0.2-0.6-0.5-0.7c-0.3,0-0.6,0.2-0.7,0.5c0,0.3,0.2,0.6,0.5,0.7C306,214.1,306.3,213.9,306.3,213.6 M315.1,220.1
						l-4.5-0.6c-1.3-0.2-2.2-1.1-2-2.2c0.1-0.4,0.2-0.8,0.4-1l-0.8-0.4c-0.2,0.3-0.3,0.7-0.4,1.1c-0.1,0.9,0.2,1.7,0.9,2.2l-1-0.1
						l-0.1,0.8l7.5,1L315.1,220.1z M314.5,225.6c0.2-1.7-0.4-2.9-1.8-3.1c-1.1-0.2-1.9,0.5-2.3,1.8l-0.3,0.8c-0.3,1-0.8,1.4-1.5,1.3
						c-0.8-0.1-1.2-0.9-1.1-1.9c0.1-0.8,0.5-1.6,1-2L308,222c-0.6,0.5-1,1.4-1.2,2.4c-0.2,1.5,0.4,2.7,1.7,2.9
						c1,0.1,1.8-0.4,2.3-1.8l0.3-0.8c0.3-1,0.8-1.5,1.5-1.4c0.9,0.1,1.2,1,1.1,2.2c-0.1,1-0.6,1.7-1.1,2.1l0.6,0.5
						C313.9,227.5,314.3,226.6,314.5,225.6 M313.4,232.9c0.2-1.7-0.6-3.1-2.5-3.3l-4.6-0.7l-0.1,0.9l4.6,0.6c1.4,0.2,2,1.2,1.9,2.4
						c-0.2,1.2-1,2-2.5,1.8l-4.6-0.6l-0.1,0.9l4.7,0.7C312,235.8,313.2,234.6,313.4,232.9 M311.4,241.4c-0.2,1.5-1.6,2.3-3.4,2
						c-1.8-0.3-2.9-1.4-2.7-2.9c0.2-1.5,1.5-2.3,3.4-2C310.6,238.8,311.6,239.9,311.4,241.4 M312.2,241.7c0.2-1.2-0.3-2.1-1.1-2.8
						l1.3,0.2l0.1-0.8l-7.5-1L305,238l1.3,0.2c-0.9,0.4-1.6,1.2-1.8,2.4c-0.3,1.9,1.1,3.4,3.4,3.7
						C310.2,244.6,312,243.5,312.2,241.7 M310.7,251.7l-4.6-0.6c-1.3-0.2-2-1.2-1.9-2.4c0.2-1.3,1.1-1.9,2.4-1.8l4.6,0.7l0.1-0.9
						l-4.9-0.7c-1.7-0.2-2.9,0.7-3.1,2.3c-0.1,0.9,0.1,1.9,0.9,2.5l-5-0.7l-0.1,0.9l11.4,1.6L310.7,251.7z M309.5,260l-4.6-0.6
						c-1.3-0.2-2-1.2-1.9-2.4c0.2-1.3,1.1-2,2.4-1.8l4.6,0.6l0.1-0.9l-4.9-0.7c-1.7-0.2-2.9,0.7-3.1,2.3c-0.1,1,0.1,1.9,0.9,2.6
						l-1.1-0.2l-0.1,0.8l7.5,1L309.5,260z M304.2,267.6c-1.6-0.4-2.5-1.4-2.3-2.7c0.2-1.3,1.3-2,2.9-1.9L304.2,267.6z M308.8,265.8
						c0.1-1,0-1.9-0.8-2.9l-0.6,0.4c0.5,0.6,0.8,1.4,0.7,2.3c-0.2,1.4-1.3,2.3-3.1,2.1l0.8-5.5c-0.1,0-0.2,0-0.3-0.1
						c-2.3-0.3-4,0.8-4.3,2.6c-0.3,1.9,1.1,3.5,3.4,3.8C306.9,268.9,308.6,267.8,308.8,265.8 M307.8,273.2c0.2-1.7-0.4-2.9-1.8-3.1
						c-1.1-0.2-1.9,0.5-2.3,1.8l-0.3,0.8c-0.3,1-0.8,1.4-1.5,1.3c-0.8-0.1-1.2-0.9-1.1-1.9c0.1-0.8,0.5-1.6,1-2l-0.6-0.5
						c-0.6,0.5-1,1.4-1.2,2.4c-0.2,1.5,0.4,2.7,1.7,2.9c1,0.1,1.8-0.4,2.3-1.8l0.3-0.8c0.3-1,0.8-1.5,1.5-1.4c0.9,0.1,1.2,1,1.1,2.2
						c-0.1,1-0.6,1.7-1.1,2.1l0.6,0.5C307.2,275.2,307.6,274.3,307.8,273.2 M307,277.7l-7.5-1l-0.1,0.9l7.5,1L307,277.7z
						 M297.4,276.8c0-0.3-0.2-0.6-0.5-0.7c-0.3,0-0.6,0.2-0.7,0.5c0,0.3,0.2,0.6,0.5,0.7C297.1,277.3,297.4,277.1,297.4,276.8
						 M305.4,284.2c-0.2,1.5-1.6,2.3-3.4,2c-1.8-0.3-2.9-1.4-2.7-2.9c0.2-1.5,1.5-2.3,3.4-2C304.6,281.5,305.6,282.7,305.4,284.2
						 M306.2,284.4c0.2-1.2-0.3-2.1-1.1-2.8l1.3,0.2l0.1-0.8l-7.5-1l-0.1,0.8l1.3,0.2c-0.9,0.4-1.6,1.2-1.8,2.4
						c-0.3,1.9,1.1,3.4,3.4,3.7C304.2,287.4,306,286.3,306.2,284.4 M304.2,298.1l-9.3-4.2l10.2-1.5l0.2-1.1l-10.6-4.8l-0.1,0.9
						l9.6,4.3l-10.4,1.5l-0.1,1l9.6,4.3l-10.4,1.5l-0.1,1l11.5-1.7L304.2,298.1z"/>
					<path style="clip-path:url(#SVGID_00000097458152789302686440000010805054936988508606_);fill:#1C355E;" d="M194.3,108
						c-1.2-1.1-1.4-2.5-0.5-3.5c0.8-1,2.2-1,3.5-0.1L194.3,108z M199.2,108.9c0.6-0.8,1-1.7,0.8-2.9l-0.8,0c0.1,0.8,0,1.6-0.6,2.3
						c-0.9,1.1-2.3,1.2-3.8,0.2l3.5-4.3c-0.1-0.1-0.2-0.2-0.2-0.2c-1.8-1.5-3.8-1.4-5,0c-1.2,1.5-0.9,3.5,0.9,5
						C196,110.5,198,110.4,199.2,108.9 M194.4,114.8c1-1.3,0.9-3-0.6-4.2c-1.1-0.9-2.6-1-3.4-0.3c0.4-0.9,0.1-2.1-1-3
						c-1.4-1.1-3.2-0.9-4.3,0.5c-1.3,1.6-1,3.3,0.5,4.5l6.5,5.3l0.6-0.7l-6.5-5.3c-1.2-1-1.3-2.2-0.4-3.3c0.8-1,2.1-1.3,3.2-0.3
						c1.2,1,1.1,2.2,0.4,3.1l-0.3,0.3l0.6,0.5l0.4-0.4c0.9-1.1,2.2-1.2,3.3-0.3c1.2,1,1.3,2.2,0.5,3.2c-0.4,0.4-0.8,0.7-1.1,0.8
						l0.4,0.6C193.5,115.7,193.9,115.4,194.4,114.8 M187.8,121.5c-0.9,1.1-2.5,1.1-3.9,0c-1.4-1.2-1.7-2.7-0.8-3.9
						c0.9-1.1,2.5-1.2,3.9,0C188.4,118.8,188.7,120.4,187.8,121.5 M188.3,122.2c0.8-0.9,0.9-1.9,0.6-2.9l1,0.8l0.5-0.7l-5.8-4.8
						l-0.5,0.7l1,0.8c-1-0.1-2,0.2-2.7,1.1c-1.2,1.4-0.9,3.5,0.9,5C185,123.7,187.1,123.6,188.3,122.2 M183.6,127.7l-3.5-2.9
						c-1-0.9-1.3-2-0.6-2.9c0.2-0.3,0.6-0.5,0.9-0.7l-0.5-0.7c-0.3,0.1-0.7,0.4-0.9,0.7c-0.6,0.7-0.7,1.5-0.4,2.3l-0.8-0.7l-0.5,0.7
						l5.8,4.8L183.6,127.7z M181,131c0.5-0.6,0.7-1.3,0.7-1.9l-0.8-0.1c0,0.5-0.2,1-0.5,1.4c-0.6,0.7-1.3,0.8-2.2,0.1l-3.4-2.8
						l1.9-2.3l-0.6-0.5l-1.9,2.3l-1.8-1.5l-0.6,0.7l1.8,1.5l-1,1.2l0.6,0.5l1-1.2l3.4,2.8C179,132.2,180.1,132.1,181,131
						 M176.2,136.9c1.1-1.3,1.2-2.7,0.1-3.6c-0.9-0.7-1.8-0.6-2.9,0.3l-0.6,0.5c-0.8,0.7-1.4,0.8-2,0.4c-0.6-0.5-0.6-1.4,0.1-2.2
						c0.5-0.7,1.3-1.1,1.9-1.2l-0.2-0.7c-0.8,0.2-1.6,0.6-2.3,1.4c-1,1.2-1,2.5,0,3.4c0.8,0.7,1.8,0.7,2.9-0.3l0.6-0.5
						c0.8-0.7,1.5-0.8,2-0.4c0.7,0.6,0.5,1.5-0.2,2.4c-0.7,0.8-1.4,1.1-2.1,1.2l0.2,0.7C174.6,138.2,175.5,137.7,176.2,136.9
						 M171.9,142.1c1.1-1.3,1.2-2.7,0.1-3.6c-0.9-0.7-1.8-0.6-2.9,0.3l-0.6,0.5c-0.8,0.7-1.4,0.8-2,0.4c-0.6-0.5-0.6-1.4,0.1-2.2
						c0.5-0.7,1.3-1.1,1.9-1.2l-0.2-0.7c-0.8,0.2-1.6,0.6-2.3,1.4c-1,1.2-1,2.5,0,3.4c0.8,0.7,1.8,0.7,2.9-0.3l0.6-0.5
						c0.8-0.7,1.5-0.8,2-0.4c0.7,0.6,0.5,1.5-0.2,2.4c-0.7,0.8-1.4,1.1-2.1,1.2l0.2,0.7C170.4,143.4,171.2,142.9,171.9,142.1
						 M167.2,147.8c1.1-1.3,1.1-2.9-0.4-4.2l-3.6-3l-0.6,0.7l3.6,2.9c1.1,0.9,1.1,2,0.3,3c-0.8,1-1.9,1.1-3,0.2l-3.6-2.9l-0.6,0.7
						l3.6,3C164.5,149.5,166.1,149.1,167.2,147.8 M161,154c-0.9,1.1-2.5,1.1-3.9,0c-1.4-1.2-1.7-2.7-0.8-3.9c0.9-1.1,2.5-1.2,3.9,0
						C161.7,151.3,162,152.8,161,154 M161.6,154.6c0.8-0.9,0.9-1.9,0.6-2.9l1,0.8l0.5-0.7l-5.8-4.8l-0.5,0.7l1,0.8
						c-1-0.1-2,0.2-2.7,1.1c-1.2,1.4-0.9,3.5,0.9,5C158.3,156.1,160.4,156,161.6,154.6 M155,162.4l-3.6-2.9c-1-0.8-1.1-2.1-0.3-3.1
						c0.8-1,1.9-1.1,3-0.2l3.6,3l0.6-0.7l-3.8-3.1c-1.3-1.1-2.8-0.9-3.8,0.4c-0.6,0.7-0.9,1.7-0.6,2.6l-3.9-3.2l-0.6,0.7l8.9,7.3
						L155,162.4z M151.1,167.3c1.1-1.3,1.1-2.9-0.4-4.2l-3.6-3l-0.6,0.7l3.6,2.9c1.1,0.9,1.1,2.1,0.3,3c-0.8,1-1.9,1.1-3,0.2
						l-3.6-2.9l-0.6,0.7l3.6,3C148.5,168.9,150.1,168.6,151.1,167.3 M145,173.4c-0.9,1.1-2.5,1.1-3.9,0c-1.4-1.2-1.7-2.7-0.8-3.9
						c0.9-1.1,2.5-1.2,3.9,0C145.6,170.7,145.9,172.3,145,173.4 M145.5,174c0.8-0.9,0.9-1.9,0.6-2.9l1,0.8l0.5-0.7l-5.8-4.8
						l-0.5,0.7l1,0.8c-1-0.1-2,0.2-2.7,1.1c-1.2,1.4-0.9,3.5,0.9,5C142.3,175.5,144.4,175.5,145.5,174 M140.9,179.5l-3.5-2.9
						c-1-0.9-1.3-2-0.6-2.9c0.2-0.3,0.6-0.5,0.8-0.7l-0.5-0.7c-0.3,0.1-0.6,0.4-0.9,0.7c-0.6,0.7-0.7,1.5-0.4,2.3l-0.8-0.7l-0.5,0.7
						l5.8,4.8L140.9,179.5z M130.8,183.4l1.8-2.2c1-1.3,2.2-1.7,3.4-0.7c1.2,1,1,2.2,0,3.5l-1.8,2.2L130.8,183.4z M126.9,180.2
						l1.8-2.1c1-1.2,2.1-1.7,3.3-0.7c1.2,1,0.9,2.2-0.1,3.4l-1.8,2.1L126.9,180.2z M136.8,184.5c1.4-1.7,1.6-3.4,0-4.7
						c-1.2-1-2.4-0.9-3.5-0.1c0.5-1.1,0.4-2.2-0.7-3.1c-1.6-1.3-3.2-0.7-4.5,0.9l-2.4,2.9l8.6,7.1L136.8,184.5z M123.9,193.5
						c-1.2-1.1-1.4-2.5-0.5-3.5c0.8-1,2.2-1,3.5-0.1L123.9,193.5z M128.8,194.3c0.6-0.8,1-1.7,0.8-2.9l-0.8,0c0.1,0.8,0,1.6-0.6,2.3
						c-0.9,1.1-2.3,1.2-3.8,0.2l3.5-4.3c-0.1-0.1-0.2-0.1-0.2-0.2c-1.8-1.5-3.8-1.4-5,0c-1.2,1.5-0.9,3.5,0.9,5
						C125.5,196,127.5,195.9,128.8,194.3 M123.9,200.2c1-1.3,0.9-3-0.6-4.2c-1.1-0.9-2.6-1-3.4-0.3c0.4-0.9,0.1-2.1-1-3
						c-1.4-1.1-3.2-0.9-4.3,0.5c-1.3,1.6-1,3.3,0.5,4.5l6.5,5.3l0.6-0.7l-6.5-5.3c-1.2-1-1.3-2.2-0.4-3.3c0.8-1,2.1-1.2,3.2-0.3
						c1.2,1,1.1,2.2,0.4,3.1l-0.3,0.3l0.6,0.5l0.4-0.4c0.9-1.1,2.2-1.2,3.3-0.3c1.2,1,1.3,2.2,0.5,3.2c-0.4,0.5-0.8,0.7-1.1,0.8
						l0.4,0.6C123,201.1,123.5,200.8,123.9,200.2 M117.6,206.7c-0.9,1.1-2.5,1.2-4,0c-1.4-1.2-1.7-2.8-0.7-3.9c0.9-1.1,2.5-1.2,4,0
						C118.3,203.9,118.5,205.5,117.6,206.7 M118.2,207.2c1.3-1.5,1-3.6-0.8-5.1c-1.8-1.5-3.9-1.4-5.2,0.2c-1.3,1.5-1,3.6,0.8,5.1
						C114.8,208.8,117,208.7,118.2,207.2 M113.5,212.8l-3.5-2.9c-1-0.9-1.3-2-0.6-2.9c0.2-0.3,0.6-0.5,0.8-0.7l-0.5-0.7
						c-0.3,0.1-0.6,0.4-0.9,0.7c-0.6,0.7-0.7,1.5-0.4,2.3l-0.8-0.7l-0.5,0.7l5.8,4.8L113.5,212.8z M108.8,218.6
						c1.8-2.2,1.2-5-1.4-7.2c-0.1-0.1-0.2-0.2-0.3-0.2l-2.7,3.3l0.6,0.5l2.1-2.5c2,1.8,2.4,3.9,1,5.5c-1.4,1.7-3.9,1.9-6.2,0
						c-2.3-1.9-2.6-4.4-1.2-6.1c0.8-1,2-1.4,3.3-1.3l0-0.9c-1.5-0.2-3,0.4-4,1.6c-1.8,2.2-1.4,5.2,1.3,7.4
						C104.1,221,107.1,220.7,108.8,218.6"/>
					
						<polyline style="clip-path:url(#SVGID_00000097458152789302686440000010805054936988508606_);fill:none;stroke:#FFFFFF;stroke-width:10.834;" points="
						521.8,-20.3 519.1,62.9 643.3,173.7 772.9,318.8 867.8,355.6 					"/>
					
						<line style="clip-path:url(#SVGID_00000097458152789302686440000010805054936988508606_);fill:none;stroke:#FFFFFF;stroke-width:10.834;" x1="850" y1="72.1" x2="641.2" y2="174.4"/>
					
						<polyline style="clip-path:url(#SVGID_00000097458152789302686440000010805054936988508606_);fill:none;stroke:#FFFFFF;stroke-width:10.834;" points="
						718.1,-18.1 799.5,98 854.1,186 					"/>
					
						<path style="clip-path:url(#SVGID_00000097458152789302686440000010805054936988508606_);fill:none;stroke:#FFFFFF;stroke-width:10.834;" d="
						M570.9,111L448.8,98.7c0,0-13-74.4,68.9-69.6"/>
					<path style="clip-path:url(#SVGID_00000097458152789302686440000010805054936988508606_);fill:#1C355E;" d="M430.3,278.1
						c-10.6,0-19.2,8.6-19.2,19.2s8.6,19.2,19.2,19.2c10.6,0,19.2-8.6,19.2-19.2S440.9,278.1,430.3,278.1 M430.3,317.7
						c-11.3,0-20.5-9.2-20.5-20.5c0-11.3,9.2-20.5,20.5-20.5c11.3,0,20.5,9.2,20.5,20.5C450.8,308.6,441.6,317.7,430.3,317.7"/>
				</g>
				
					<rect x="429.7" y="290.9" style="clip-path:url(#SVGID_00000119835799118223159960000010161400525907565487_);fill:#1C355E;" width="1.3" height="17.6"/>
				<g style="clip-path:url(#SVGID_00000119835799118223159960000010161400525907565487_);">
					<defs>
						<rect id="SVGID_00000130619421751969191620000004369620573964715906_" width="842" height="550"/>
					</defs>
					<clipPath id="SVGID_00000006704612186262488110000001760188218410059422_">
						<use xlink:href="#SVGID_00000130619421751969191620000004369620573964715906_"  style="overflow:visible;"/>
					</clipPath>
					<path style="clip-path:url(#SVGID_00000006704612186262488110000001760188218410059422_);fill:#1C355E;" d="M432.8,288.5h-1.3
						c0-0.6-0.5-1.1-1.2-1.1c-0.6,0-1.2,0.5-1.2,1.1h-1.3c0-1.3,1.1-2.4,2.4-2.4C431.7,286.1,432.8,287.2,432.8,288.5"/>
					<path style="clip-path:url(#SVGID_00000006704612186262488110000001760188218410059422_);fill:#1C355E;" d="M433.3,300.3v-1.3
						c1.9,0,3.4-1.5,3.4-3.4s-1.5-3.4-3.4-3.4v-1.3c2.6,0,4.7,2.1,4.7,4.7C437.9,298.2,435.9,300.3,433.3,300.3"/>
					<path style="clip-path:url(#SVGID_00000006704612186262488110000001760188218410059422_);fill:#1C355E;" d="M427.4,308.5
						c-2.6,0-4.7-2.1-4.7-4.7c0-2.6,2.1-4.7,4.7-4.7v1.3c-1.9,0-3.4,1.5-3.4,3.4s1.5,3.4,3.4,3.4V308.5z"/>
					<path style="clip-path:url(#SVGID_00000006704612186262488110000001760188218410059422_);fill:#1C355E;" d="M244.7,473.5
						l1.9-4.1c0.6-1.2,1.7-1.7,2.7-1.2c0.3,0.2,0.7,0.4,0.9,0.7l0.6-0.7c-0.2-0.3-0.5-0.5-0.9-0.7c-0.8-0.4-1.6-0.3-2.4,0.2l0.5-1
						l-0.8-0.4l-3.3,6.8L244.7,473.5z M238.7,466.2c0.8-1.4,2-2,3.2-1.5c1.2,0.5,1.6,1.8,1.1,3.3L238.7,466.2z M239.3,471.2
						c0.9,0.4,1.9,0.5,3,0l-0.2-0.7c-0.7,0.3-1.5,0.4-2.4,0c-1.3-0.5-1.9-1.9-1.2-3.6l5.1,2.1c0-0.1,0.1-0.2,0.1-0.3
						c0.9-2.2,0.3-4.1-1.4-4.8c-1.8-0.7-3.6,0.1-4.5,2.3C236.8,468.5,237.4,470.4,239.3,471.2 M231.6,468.4c1.6,0.5,3.1-0.1,3.7-1.9
						l1.4-4.5l-0.8-0.3l-1.4,4.4c-0.4,1.4-1.5,1.8-2.7,1.5c-1.2-0.4-1.8-1.4-1.4-2.7l1.4-4.4l-0.8-0.3l-1.4,4.5
						C229,466.5,230,467.9,231.6,468.4 M223.4,465.4c-1.4-0.3-2.1-1.8-1.7-3.5c0.4-1.8,1.7-2.7,3.1-2.4c1.4,0.3,2.1,1.8,1.7,3.5
						C226.1,464.7,224.8,465.7,223.4,465.4 M223.1,466.1c1.2,0.3,2.1-0.1,2.9-0.8l-0.3,1.3l0.8,0.2l1.8-7.3l-0.8-0.2l-0.3,1.3
						c-0.3-1-1.1-1.7-2.2-2c-1.8-0.4-3.5,0.8-4.1,3C220.3,463.8,221.3,465.7,223.1,466.1 M208.1,463.3l0.7-4.6
						c0.2-1.3,1.3-2,2.5-1.8c1.3,0.2,1.9,1.1,1.7,2.4l-0.7,4.6l0.9,0.1l0.7-4.6c0.2-1.3,1.3-2,2.5-1.8c1.3,0.2,1.9,1.1,1.7,2.4
						l-0.7,4.6l0.9,0.1l0.8-4.9c0.3-1.7-0.7-2.9-2.3-3.1c-1.1-0.2-2.2,0.1-2.8,1c-0.3-0.9-1.1-1.6-2.2-1.8c-0.9-0.1-1.9,0.1-2.6,0.8
						l0.2-1l-0.8-0.1l-1.2,7.4L208.1,463.3z M202.5,462.8c1.7,0.2,2.9-0.5,3.1-1.9c0.1-1.1-0.6-1.8-1.9-2.2l-0.8-0.2
						c-1-0.3-1.5-0.8-1.4-1.4c0.1-0.8,0.9-1.2,1.9-1.1c0.9,0.1,1.6,0.5,2,0.9l0.5-0.6c-0.6-0.5-1.4-1-2.5-1.1
						c-1.5-0.2-2.7,0.5-2.8,1.8c-0.1,1,0.4,1.8,1.9,2.2l0.8,0.2c1,0.3,1.5,0.8,1.4,1.4c-0.1,0.9-1,1.3-2.1,1.2c-1-0.1-1.7-0.5-2.2-1
						l-0.5,0.6C200.6,462.3,201.5,462.7,202.5,462.8 M195.1,462.2c1.7,0.1,3-0.8,3.2-2.7l0.3-4.7l-0.9-0.1l-0.3,4.6
						c-0.1,1.4-1,2.1-2.3,2c-1.3-0.1-2.1-0.9-1.9-2.3l0.3-4.6l-0.9-0.1l-0.3,4.7C192.2,461,193.4,462.1,195.1,462.2 M186.5,460.9
						c-1.5-0.1-2.4-1.3-2.4-3.1c0.1-1.8,1.1-3,2.6-2.9c1.5,0.1,2.4,1.3,2.4,3.1C189.1,459.8,188,461,186.5,460.9 M186.4,461.7
						c1.2,0,2.1-0.5,2.7-1.3l-0.1,1.3l0.9,0l0.3-7.5l-0.9,0l-0.1,1.3c-0.5-0.9-1.4-1.5-2.5-1.5c-1.9-0.1-3.3,1.4-3.4,3.7
						C183.2,460,184.5,461.7,186.4,461.7 M176.2,461.4l0.1-4.6c0-1.3,1-2.2,2.2-2.2c1.3,0,2.1,0.8,2.1,2.2l-0.1,4.7l0.9,0l0.1-4.9
						c0-1.7-1.1-2.7-2.7-2.8c-1,0-1.8,0.4-2.4,1.2l0.1-5.1l-0.9,0l-0.1,11.5L176.2,461.4z M167.9,461.4l0-4.6c0-1.3,0.9-2.2,2.1-2.2
						c1.3,0,2.1,0.8,2.1,2.1l0,4.7l0.9,0l0-4.9c0-1.7-1.1-2.7-2.7-2.7c-1,0-1.9,0.4-2.4,1.3l0-1.1l-0.8,0l0.1,7.5L167.9,461.4z
						 M159.4,457.4c0.1-1.6,1-2.7,2.3-2.7c1.3,0,2.2,1,2.3,2.6L159.4,457.4z M162,461.7c1,0,1.9-0.3,2.7-1.2l-0.5-0.6
						c-0.5,0.6-1.2,1-2.2,1c-1.4,0-2.5-0.9-2.6-2.7l5.5-0.1c0-0.1,0-0.2,0-0.3c-0.1-2.4-1.4-3.8-3.2-3.8c-1.9,0-3.3,1.6-3.2,4
						C158.6,460.3,160,461.7,162,461.7 M154.5,461.9c1.7-0.1,2.8-0.9,2.8-2.3c0-1.1-0.8-1.7-2.2-1.9l-0.8-0.1
						c-1.1-0.1-1.6-0.5-1.6-1.2c0-0.8,0.7-1.4,1.7-1.4c0.9,0,1.7,0.2,2.1,0.6l0.4-0.7c-0.6-0.5-1.5-0.8-2.6-0.7
						c-1.5,0.1-2.6,0.9-2.5,2.2c0,1,0.7,1.7,2.2,2l0.8,0.1c1.1,0.1,1.6,0.6,1.6,1.2c0,0.9-0.8,1.4-1.9,1.5c-1,0-1.8-0.3-2.3-0.7
						l-0.4,0.7C152.5,461.7,153.4,462,154.5,461.9 M150,462.1l-0.4-7.5l-0.9,0l0.4,7.5L150,462.1z M149,452.4c0.3,0,0.6-0.3,0.6-0.6
						c0-0.3-0.3-0.6-0.6-0.6c-0.3,0-0.6,0.3-0.6,0.6C148.4,452.2,148.7,452.4,149,452.4 M143.3,461.7c-1.5,0.1-2.6-1.1-2.7-2.9
						c-0.1-1.8,0.8-3.1,2.3-3.2c1.5-0.1,2.6,1,2.7,2.9C145.7,460.4,144.8,461.6,143.3,461.7 M143.2,462.6c1.2-0.1,2-0.7,2.5-1.6
						l0.1,1.3l0.9-0.1l-0.5-7.5l-0.9,0.1l0.1,1.3c-0.6-0.8-1.5-1.3-2.7-1.2c-1.9,0.1-3.1,1.8-3,4.1
						C139.9,461.2,141.4,462.7,143.2,462.6 M129.4,463.5l2.1-10.1l3.7,9.6l1.1-0.1l2.3-11.4l-0.9,0.1l-2,10.3l-3.8-9.8l-1,0.1
						l-2.1,10.3l-3.7-9.8l-1,0.1l4.2,10.9L129.4,463.5z M117.9,464.6l-0.5-4.5c-0.1-1.3,0.5-2.3,1.6-2.5c0.4,0,0.8,0,1.1,0.1
						l0.2-0.9c-0.3-0.1-0.7-0.2-1.2-0.1c-0.9,0.1-1.6,0.6-1.9,1.4l-0.1-1l-0.8,0.1l0.8,7.5L117.9,464.6z M109.1,461.4
						c0-1.6,0.8-2.7,2.1-2.9c1.3-0.1,2.3,0.8,2.5,2.4L109.1,461.4z M112.1,465.4c1-0.1,1.9-0.5,2.6-1.5l-0.5-0.5
						c-0.5,0.6-1.1,1.1-2.1,1.2c-1.4,0.2-2.5-0.7-2.8-2.5l5.5-0.6c0-0.1,0-0.2,0-0.3c-0.3-2.3-1.7-3.7-3.5-3.5
						c-1.9,0.2-3.1,1.9-2.8,4.2C108.5,464.3,110.1,465.6,112.1,465.4 M103.4,465.6c-1.5,0.2-2.6-0.9-2.8-2.7s0.6-3.2,2.1-3.3
						c1.5-0.2,2.6,0.9,2.8,2.7C105.7,464.1,104.9,465.4,103.4,465.6 M103.4,466.4c1.2-0.1,2-0.8,2.4-1.6l0.2,1.2l0.8-0.1l-1.4-11.4
						l-0.9,0.1l0.6,5.2c-0.7-0.7-1.6-1.2-2.7-1c-1.9,0.2-3,1.9-2.7,4.2C100,465.3,101.5,466.6,103.4,466.4 M89.7,468.1l-0.6-4.6
						c-0.2-1.3,0.6-2.3,1.8-2.5c1.3-0.2,2.2,0.5,2.4,1.9l0.6,4.6l0.9-0.1l-0.7-4.9c-0.2-1.7-1.5-2.6-3.1-2.3c-1,0.1-1.8,0.7-2.2,1.6
						l-0.2-1.1l-0.8,0.1l1,7.5L89.7,468.1z M81.3,459l3.1,5.7l-4.3,0.6L81.3,459z M79.2,469.6l0.7-3.4l4.9-0.7l1.6,3l1-0.1
						l-5.7-10.5l-1.1,0.2l-2.4,11.7L79.2,469.6z"/>
					<path style="clip-path:url(#SVGID_00000006704612186262488110000001760188218410059422_);fill:#1C355E;" d="M298.9,115.6
						c1.1-1.2,2.4-1.5,3.5-0.7c1,0.8,1.1,2.1,0.2,3.5L298.9,115.6z M298.4,120.5c0.8,0.6,1.7,0.9,2.9,0.7l0-0.8
						c-0.8,0.1-1.6,0-2.3-0.5c-1.1-0.8-1.4-2.2-0.4-3.8l4.4,3.3c0.1-0.1,0.1-0.2,0.2-0.2c1.4-1.9,1.2-3.9-0.2-5
						c-1.5-1.1-3.6-0.7-5,1.2C296.5,117.3,296.7,119.3,298.4,120.5 M292.2,116c1.3,1,3,0.8,4.2-0.8c0.9-1.2,0.9-2.6,0.1-3.5
						c0.9,0.3,2.1,0,3-1.2c1.1-1.5,0.7-3.2-0.7-4.3c-1.7-1.2-3.3-0.8-4.4,0.7l-5,6.8l0.7,0.5l5-6.7c0.9-1.2,2.2-1.4,3.3-0.6
						c1,0.8,1.4,2,0.5,3.2c-0.9,1.3-2.1,1.2-3.1,0.5l-0.3-0.2l-0.5,0.6l0.5,0.3c1.1,0.8,1.4,2.1,0.5,3.3c-0.9,1.2-2.1,1.4-3.1,0.7
						c-0.5-0.3-0.8-0.7-0.9-1.1l-0.6,0.5C291.3,115.1,291.6,115.5,292.2,116 M285.1,109.7c-1.2-0.9-1.3-2.5-0.2-3.9
						c1.1-1.5,2.6-1.8,3.8-1c1.2,0.9,1.3,2.5,0.2,3.9C287.9,110.2,286.3,110.6,285.1,109.7 M284.5,110.3c1,0.7,2,0.8,2.9,0.4
						l-0.8,1.1l0.7,0.5l4.5-6.1l-0.7-0.5l-0.8,1c0.1-1-0.3-2-1.2-2.7c-1.5-1.1-3.5-0.7-4.9,1.2C282.9,107.1,283,109.2,284.5,110.3
						 M278.8,105.9l2.7-3.6c0.8-1.1,2-1.4,2.9-0.7c0.3,0.2,0.6,0.5,0.7,0.8l0.7-0.5c-0.2-0.3-0.4-0.6-0.8-0.9
						c-0.7-0.5-1.6-0.6-2.3-0.3l0.6-0.8l-0.7-0.5l-4.5,6.1L278.8,105.9z M275.3,103.4c0.6,0.5,1.3,0.6,1.9,0.6l0.1-0.8
						c-0.5,0-1-0.1-1.4-0.4c-0.7-0.5-0.9-1.3-0.2-2.2l2.6-3.5l2.4,1.8l0.5-0.6l-2.4-1.8l1.4-1.9l-0.7-0.5L278,96l-1.2-0.9l-0.5,0.6
						l1.2,0.9l-2.6,3.6C274,101.5,274.2,102.6,275.3,103.4 M268.3,98.3c1.7,1.3,3.8,1.4,5-0.2c1-1.4,0.6-2.8-0.6-4.1l-0.8-0.8
						c-1.1-1.2-1.3-2.2-0.7-3.1c0.8-1.1,2.2-1.1,3.4-0.1c1.1,0.8,1.5,1.8,1.7,2.8l0.8-0.2c-0.1-1.2-0.7-2.3-2-3.3
						c-1.7-1.2-3.6-1.2-4.8,0.3c-0.9,1.3-0.7,2.7,0.6,4.1l0.8,0.8c1.1,1.2,1.4,2.2,0.7,3.1c-0.9,1.2-2.3,1-3.7,0
						c-1.1-0.8-1.7-2-1.8-3l-0.9,0.2C266.3,95.9,267,97.3,268.3,98.3 M259,91.3l2.7-3.6c0.8-1.1,2-1.4,2.9-0.7
						c0.3,0.2,0.6,0.5,0.7,0.8l0.7-0.5c-0.2-0.3-0.4-0.6-0.8-0.9c-0.7-0.5-1.6-0.6-2.3-0.3l0.6-0.8l-0.7-0.5l-4.5,6.1L259,91.3z
						 M254.9,82.9c1.1-1.2,2.4-1.5,3.5-0.7c1,0.8,1.1,2.1,0.2,3.5L254.9,82.9z M254.3,87.9c0.8,0.6,1.7,0.9,2.9,0.7l0-0.8
						c-0.8,0.1-1.6,0-2.3-0.5c-1.1-0.8-1.4-2.2-0.4-3.8l4.4,3.3c0.1-0.1,0.1-0.2,0.2-0.2c1.4-1.9,1.2-3.9-0.2-5
						c-1.5-1.1-3.6-0.7-5,1.2C252.5,84.7,252.7,86.7,254.3,87.9 M247.9,82c-1.2-0.9-1.3-2.4-0.2-3.9c1.1-1.4,2.6-1.8,3.8-0.9
						c1.2,0.9,1.3,2.4,0.2,3.9C250.6,82.5,249.1,82.9,247.9,82 M245.4,85.1c1.5,1.1,3.5,1.1,4.8-0.7l4.3-5.8l-0.7-0.5l-0.7,1
						c0.1-1-0.4-2-1.3-2.6c-1.5-1.1-3.5-0.7-4.8,1.2c-1.4,1.9-1.2,3.9,0.3,4.9c0.9,0.7,2,0.8,2.9,0.5l-0.6,0.9
						c-1.1,1.4-2.5,1.4-3.7,0.6c-0.8-0.6-1.2-1.4-1.4-2.2l-0.7,0.3C243.9,83.5,244.5,84.4,245.4,85.1 M243.2,79.5l4.5-6.1L247,73
						l-4.5,6.1L243.2,79.5z M248.6,71.5c0.3,0.2,0.6,0.1,0.8-0.1c0.2-0.3,0.2-0.6-0.1-0.8c-0.3-0.2-0.6-0.1-0.8,0.1
						C248.3,71,248.3,71.3,248.6,71.5 M240.8,77.8l0.5-0.6l-3.7-2.8l7.3-2.1l0.4-0.5l-4.5-3.3l-0.5,0.6l3.6,2.7l-7.3,2.1l-0.4,0.5
						L240.8,77.8z M232.8,71c-1.2-0.9-1.3-2.5-0.2-3.9c1.1-1.5,2.6-1.8,3.8-1c1.2,0.9,1.3,2.5,0.2,3.9C235.6,71.5,234,71.9,232.8,71
						 M228.6,72.6l2.6-3.5c-0.1,1,0.3,2,1.3,2.7c1.5,1.1,3.5,0.7,4.9-1.2c1.4-1.9,1.2-3.9-0.3-5c-1-0.7-2-0.8-2.9-0.4l0.8-1.1
						l-0.7-0.5l-6.3,8.5L228.6,72.6z M227.8,68.1l4.5-6.1l-0.7-0.5l-4.5,6.1L227.8,68.1z M233.2,60.1c0.3,0.2,0.6,0.1,0.8-0.1
						c0.2-0.3,0.2-0.6-0.1-0.8c-0.3-0.2-0.6-0.1-0.8,0.1C232.8,59.6,232.9,59.9,233.2,60.1 M223.6,59.8c1.1-1.2,2.4-1.5,3.5-0.7
						c1,0.8,1.1,2.1,0.2,3.5L223.6,59.8z M223,64.7c0.8,0.6,1.7,0.9,2.9,0.7l-0.1-0.8c-0.8,0.1-1.6,0-2.3-0.5
						c-1.1-0.8-1.4-2.2-0.4-3.8l4.4,3.3c0.1-0.1,0.1-0.2,0.2-0.2c1.4-1.9,1.2-3.9-0.2-5c-1.5-1.1-3.6-0.7-5,1.2
						C221.2,61.5,221.4,63.6,223,64.7 M219.6,62.1l0.5-0.7l-4.6-3.4l6.1-8.3l-0.7-0.6l-6.7,9L219.6,62.1z"/>
					<path style="clip-path:url(#SVGID_00000006704612186262488110000001760188218410059422_);fill:#1C355E;" d="M574.1,209.8
						c0.9-1.3,2.2-1.7,3.4-1.1c1.1,0.6,1.3,2,0.6,3.4L574.1,209.8z M574,214.8c0.8,0.5,1.8,0.7,3,0.4l-0.1-0.7
						c-0.8,0.2-1.6,0.2-2.4-0.3c-1.2-0.7-1.6-2.1-0.8-3.7l4.7,2.8c0.1-0.1,0.1-0.2,0.2-0.3c1.2-2,0.8-4-0.7-4.9
						c-1.7-1-3.6-0.4-4.8,1.7C571.9,211.8,572.3,213.8,574,214.8 M567.4,210.9c1.4,0.8,3.1,0.5,4.1-1.3c0.7-1.2,0.6-2.7-0.3-3.4
						c1,0.2,2.1-0.3,2.8-1.5c0.9-1.6,0.4-3.3-1.2-4.2c-1.8-1-3.4-0.4-4.3,1.2l-4.3,7.2l0.8,0.4l4.2-7.2c0.8-1.3,2-1.6,3.2-1
						c1.1,0.7,1.6,1.8,0.8,3.1c-0.8,1.3-2,1.4-3,0.8l-0.4-0.2l-0.4,0.7l0.5,0.3c1.2,0.7,1.6,1.9,0.8,3.2c-0.8,1.3-2,1.6-3,1
						c-0.5-0.3-0.8-0.6-1-1l-0.6,0.5C566.4,210.1,566.8,210.5,567.4,210.9 M559.7,205.4c-1.3-0.8-1.5-2.3-0.6-3.9
						c0.9-1.6,2.4-2.1,3.7-1.4c1.3,0.7,1.5,2.3,0.6,3.9C562.5,205.6,561,206.2,559.7,205.4 M559.2,206.1c1,0.6,2.1,0.6,3,0.1
						l-0.7,1.1l0.7,0.4l3.8-6.5l-0.7-0.4l-0.7,1.1c0-1-0.5-1.9-1.5-2.5c-1.6-1-3.6-0.3-4.8,1.7C557.2,203.1,557.6,205.1,559.2,206.1
						 M553,202.3l2.3-3.9c0.7-1.2,1.8-1.6,2.8-1c0.3,0.2,0.6,0.5,0.8,0.7l0.6-0.6c-0.2-0.3-0.5-0.6-0.9-0.8c-0.8-0.5-1.6-0.5-2.4,0
						l0.5-0.9l-0.7-0.4l-3.8,6.5L553,202.3z M549.3,200.2c0.7,0.4,1.4,0.5,2,0.4l0-0.8c-0.5,0.1-1,0-1.5-0.3c-0.8-0.5-1-1.2-0.4-2.1
						l2.2-3.8l2.6,1.5l0.4-0.7L552,193l1.2-2l-0.8-0.4l-1.2,2l-1.3-0.8l-0.4,0.7l1.3,0.8l-2.2,3.8
						C547.8,198.4,548.1,199.5,549.3,200.2 M541.8,195.8c1.9,1.1,3.9,1,4.9-0.7c0.9-1.5,0.3-2.8-1.1-4l-0.8-0.7
						c-1.3-1.1-1.5-2.1-1-3c0.7-1.2,2.1-1.3,3.4-0.5c1.1,0.7,1.7,1.6,2,2.6l0.8-0.3c-0.3-1.2-1-2.2-2.3-3.1c-1.8-1-3.7-0.9-4.7,0.8
						c-0.8,1.4-0.4,2.7,1,4l0.9,0.8c1.2,1,1.6,2,1,3.1c-0.7,1.3-2.2,1.2-3.6,0.4c-1.2-0.7-1.9-1.8-2.1-2.8l-0.8,0.2
						C539.6,193.7,540.4,195,541.8,195.8 M531.8,189.8l2.3-3.9c0.7-1.2,1.8-1.6,2.8-1c0.3,0.2,0.6,0.5,0.8,0.7l0.6-0.6
						c-0.2-0.3-0.5-0.6-0.9-0.8c-0.8-0.5-1.6-0.5-2.4,0l0.5-0.9l-0.7-0.4l-3.8,6.5L531.8,189.8z M526.8,182c0.9-1.3,2.2-1.7,3.4-1.1
						c1.1,0.6,1.3,2,0.6,3.4L526.8,182z M526.7,187c0.8,0.5,1.8,0.7,3,0.4l-0.1-0.7c-0.8,0.2-1.6,0.2-2.4-0.3
						c-1.2-0.7-1.6-2.1-0.8-3.7l4.7,2.8c0.1-0.1,0.1-0.2,0.2-0.3c1.2-2,0.8-4-0.7-4.9c-1.7-1-3.6-0.4-4.8,1.7
						C524.6,184,525,185.9,526.7,187 M519.8,181.8c-1.3-0.7-1.5-2.3-0.6-3.8c0.9-1.5,2.4-2.1,3.6-1.3c1.3,0.7,1.5,2.3,0.6,3.8
						C522.6,182,521.1,182.5,519.8,181.8 M517.7,185.1c1.7,1,3.6,0.7,4.7-1.2l3.7-6.2l-0.7-0.4l-0.6,1.1c0-1-0.6-1.9-1.6-2.5
						c-1.6-0.9-3.5-0.3-4.7,1.7c-1.2,2-0.7,4,0.8,4.9c1,0.6,2,0.6,3,0.2l-0.5,0.9c-0.9,1.5-2.4,1.7-3.6,1c-0.8-0.5-1.4-1.3-1.6-2
						l-0.7,0.4C516,183.7,516.7,184.6,517.7,185.1 M514.8,179.8l3.8-6.5l-0.7-0.4l-3.8,6.5L514.8,179.8z M519.4,171.3
						c0.3,0.2,0.6,0.1,0.8-0.2c0.2-0.3,0.1-0.6-0.2-0.8c-0.3-0.2-0.6-0.1-0.8,0.2C519,170.8,519.1,171.1,519.4,171.3 M512.3,178.3
						l0.4-0.7l-4-2.4l7-2.9l0.3-0.6l-4.8-2.8l-0.4,0.7l3.9,2.3l-7.1,2.9l-0.3,0.6L512.3,178.3z M503.6,172.4
						c-1.3-0.7-1.5-2.3-0.6-3.9c0.9-1.6,2.4-2.1,3.7-1.4c1.3,0.8,1.5,2.3,0.6,3.9C506.4,172.6,504.9,173.1,503.6,172.4 M499.6,174.4
						l2.2-3.7c0,1,0.5,1.9,1.5,2.5c1.6,0.9,3.6,0.3,4.8-1.7c1.2-2,0.8-4-0.8-5c-1-0.6-2.1-0.6-3-0.1l0.7-1.1l-0.7-0.4l-5.4,9.1
						L499.6,174.4z M498.3,170.1l3.8-6.5l-0.7-0.4l-3.8,6.5L498.3,170.1z M502.8,161.5c0.3,0.2,0.6,0.1,0.8-0.2
						c0.2-0.3,0.1-0.6-0.2-0.8c-0.3-0.2-0.6-0.1-0.8,0.2C502.5,161,502.6,161.4,502.8,161.5 M493.3,162.2c0.9-1.3,2.2-1.7,3.4-1.1
						c1.1,0.6,1.3,2,0.6,3.4L493.3,162.2z M493.2,167.2c0.8,0.5,1.8,0.7,3,0.4l-0.1-0.7c-0.8,0.2-1.6,0.2-2.4-0.3
						c-1.2-0.7-1.6-2.1-0.8-3.7l4.7,2.8c0.1-0.1,0.1-0.2,0.2-0.3c1.2-2,0.8-4-0.7-4.9c-1.7-1-3.6-0.4-4.8,1.7
						C491.1,164.2,491.5,166.2,493.2,167.2 M489.6,164.9l0.4-0.8l-4.9-2.9l5.2-8.9l-0.8-0.5l-5.7,9.7L489.6,164.9z"/>
				</g>
			</g>
		</g>
	</g>
</g>
</svg>
