<?xml version="1.0" encoding="utf-8"?>
<!-- Generator: Adobe Illustrator 25.4.1, SVG Export Plug-In . SVG Version: 6.00 Build 0)  -->
<svg version="1.1" id="Ebene_1" xmlns="http://www.w3.org/2000/svg" xmlns:xlink="http://www.w3.org/1999/xlink" x="0px" y="0px"
	 viewBox="0 0 70 70" style="enable-background:new 0 0 70 70;" xml:space="preserve">
<style type="text/css">
	.st0{fill:none;stroke:#17365D;stroke-miterlimit:10;}
	.st1{fill:none;stroke:#17365D;stroke-width:1.5;stroke-linecap:round;stroke-linejoin:round;stroke-miterlimit:10;}
	.st2{fill:#FFFFFF;stroke:#17365D;stroke-miterlimit:10;}
</style>
<path class="st0" d="M31.6,60.1l31.5-31.5l0.1,0.1c0.8,0.8,2.1,0.9,2.9,0.2c1-0.8,1-2.3,0.2-3.1l-9.3-9.3c-0.8-0.8-2.1-0.9-2.9-0.2
	c-1,0.8-1,2.3-0.2,3.1l0.2,0.2L22.6,51.1c-2.5,2.5-2.5,6.5,0,9C25.1,62.6,29.1,62.6,31.6,60.1"/>
<path class="st1" d="M47,26.2V10H9.8v52.2H47V45.4 M53.4,16.9V6.1c0-1.1-0.9-2.1-2.1-2.1H5.5C4.3,4,3.4,4.9,3.4,6.1v61
	c0,1.1,0.9,2.1,2.1,2.1h45.8c1.1,0,2.1-0.9,2.1-2.1V38.4"/>
<path class="st2" d="M21.7,51.8h-5.5v-7.6h7.6v5.4 M30.5,34.8h8.3 M23.9,38.6h-7.6V31h7.6V38.6z M30.5,21.6h10 M23.9,25.4h-7.6v-7.6
	h7.6V25.4z M49.6,24.7l8.4,8.4"/>
<path class="st1" d="M21.7,51.8h-5.5v-7.6h7.6v5.4 M30.5,34.8h8.3 M23.9,38.6h-7.6V31h7.6V38.6z M30.5,21.6h10 M23.9,25.4h-7.6v-7.6
	h7.6V25.4z M31.6,60.1l21.8-21.8l9.7-9.7l0.1,0.1c0.8,0.8,2.1,0.9,2.9,0.2c1-0.8,1-2.3,0.2-3.1l-9.3-9.3c-0.8-0.8-2.1-0.9-2.9-0.2
	c-1,0.8-1,2.3-0.2,3.1l0.2,0.2L22.6,51.1c-2.5,2.5-2.5,6.5,0,9C25.1,62.6,29.1,62.6,31.6,60.1z M49.6,24.7l8.4,8.4"/>
</svg>
