<?xml version="1.0" encoding="utf-8"?>
<!-- Generator: Adobe Illustrator 25.4.1, SVG Export Plug-In . SVG Version: 6.00 Build 0)  -->
<svg version="1.1" id="Ebene_1" xmlns="http://www.w3.org/2000/svg" xmlns:xlink="http://www.w3.org/1999/xlink" x="0px" y="0px"
	 viewBox="0 0 80 80" style="enable-background:new 0 0 80 80;" xml:space="preserve">
<style type="text/css">
	.st0{fill:#E1E6ED;}
	.st1{clip-path:url(#SVGID_00000003082201854333799790000009092137094926807450_);}
	.st2{fill:none;stroke:#1B3055;stroke-width:1.5;}
	.st3{clip-path:url(#SVGID_00000005978080033689093570000010339802871816309650_);}
	.st4{fill:none;stroke:#1B3055;stroke-width:1.3333;}
</style>
<g id="Gruppe_1059" transform="translate(-155 -888)">
	<g id="Gruppe_1011_00000010274778431589426730000004677522308271650184_" transform="translate(155 888)">
		<circle id="Ellipse_15_00000170269059195091365340000016677459956858986138_" class="st0" cx="40" cy="40" r="40"/>
	</g>
</g>
<g id="Gruppe_1058" transform="translate(-155 -888)">
</g>
<g id="Gruppe_1089" transform="translate(23 55.701)">
	<g>
		<g>
			<defs>
				<rect id="SVGID_1_" y="-55" width="34.3" height="23.6"/>
			</defs>
			<clipPath id="SVGID_00000018943017876191297360000006449583772402693818_">
				<use xlink:href="#SVGID_1_"  style="overflow:visible;"/>
			</clipPath>
			
				<g id="Gruppe_1088" transform="translate(0 -27.5)" style="clip-path:url(#SVGID_00000018943017876191297360000006449583772402693818_);">
				<path id="Pfad_651" class="st2" d="M0.6,23h33V0.6h-33C0.6,0.6,0.6,23,0.6,23z"/>
				<g id="Gruppe_1087" transform="translate(0.623 0.476)">
					<path id="Pfad_652" class="st2" d="M0,0l16,14.5l0.4,0.4l0.4-0.4L33.1,0"/>
				</g>
			</g>
		</g>
	</g>
</g>
<g id="Gruppe_1220" transform="translate(18.25 37.734)">
	<g>
		<g>
			<defs>
				<rect id="SVGID_00000137108998757370690560000013492491558922960264_" x="6.1" y="-8.1" width="30" height="20.7"/>
			</defs>
			<clipPath id="SVGID_00000070815318976588159210000010142483064857110167_">
				<use xlink:href="#SVGID_00000137108998757370690560000013492491558922960264_"  style="overflow:visible;"/>
			</clipPath>
			<g id="Gruppe_1219" style="clip-path:url(#SVGID_00000070815318976588159210000010142483064857110167_);">
				<path id="Pfad_732" class="st4" d="M6.8,11.9h28.7V-7.4H6.8V11.9z"/>
				<g id="Gruppe_1218" transform="translate(0.356 -15.099)">
					<path id="Pfad_733" class="st4" d="M6.2,7.5l14,12.7l0.4,0.4l0.4-0.4L35.3,7.5"/>
				</g>
			</g>
		</g>
	</g>
</g>
</svg>
