<?xml version="1.0" encoding="utf-8"?>
<!-- Generator: Adobe Illustrator 25.4.1, SVG Export Plug-In . SVG Version: 6.00 Build 0)  -->
<svg version="1.1" id="Ebene_1" xmlns="http://www.w3.org/2000/svg" xmlns:xlink="http://www.w3.org/1999/xlink" x="0px" y="0px"
	 viewBox="0 0 70 70" style="enable-background:new 0 0 70 70;" xml:space="preserve">
<style type="text/css">
	.st0{fill:none;stroke:#1F365A;stroke-width:1.5;stroke-linecap:round;stroke-linejoin:round;}
</style>
<g id="Gruppe_1176" transform="translate(0 66.814)">
	<g>
		<g id="Gruppe_1171">
			<g id="Gruppe_1169" transform="translate(2.91 -0.844)">
				<path id="Pfad_712" class="st0" d="M1.2,3.2H47c1.1,0,2.1-0.9,2.1-2.1v-61c0-1.1-0.9-2.1-2.1-2.1h0H1.2c-1.1,0-2.1,0.9-2.1,2.1
					c0,0,0,0,0,0v61C-0.9,2.3,0.1,3.2,1.2,3.2C1.2,3.2,1.2,3.2,1.2,3.2z M5.5-55.9v52.2h37.2v-52.2H5.5L5.5-55.9z"/>
			</g>
			<g id="Gruppe_1170" transform="translate(58.357 -29.156)">
				<path id="Pfad_713" class="st0" d="M1.2,3.2l3.5,8.5c0.3,0.4,0.8,0.5,1.2,0.2c0.1,0,0.1-0.1,0.2-0.2l3.5-8.5v-33.9
					c0-1.4-1.2-2.6-2.6-2.6H3.8c-1.4,0-2.6,1.2-2.6,2.6V3.2z M9.2-28.2H1.6 M9.2-23.2H1.6 M9.2,3H1.6"/>
			</g>
		</g>
	</g>
	<g id="Gruppe_1172" transform="translate(18.067 -24.917)">
		<path id="Pfad_715" class="st0" d="M1.2,3.2l5.1,5.1"/>
	</g>
	<g id="Gruppe_1173" transform="translate(33.578 -30.185)">
		<path id="Pfad_716" class="st0" d="M1.2,3.2L-9.1,13.6"/>
	</g>
	<g id="Gruppe_1174" transform="translate(18.067 -41.694)">
		<path id="Pfad_717" class="st0" d="M1.2,3.2l5.1,5.1"/>
	</g>
	<g id="Gruppe_1175" transform="translate(33.578 -46.963)">
		<path id="Pfad_718" class="st0" d="M1.2,3.2L-9.1,13.6"/>
	</g>
</g>
</svg>
