<?xml version="1.0" encoding="utf-8"?>
<!-- Generator: Adobe Illustrator 25.4.1, SVG Export Plug-In . SVG Version: 6.00 Build 0)  -->
<svg version="1.1" id="Ebene_1" xmlns="http://www.w3.org/2000/svg" xmlns:xlink="http://www.w3.org/1999/xlink" x="0px" y="0px"
	 viewBox="0 0 80 80" style="enable-background:new 0 0 80 80;" xml:space="preserve">
<style type="text/css">
	.st0{fill:#E1E6ED;}
	.st1{fill:none;stroke:#1C355E;stroke-width:1.5;}
</style>
<g id="Gruppe_1058_00000097476479576549143870000005026622606907333516_" transform="translate(-155 -888)">
	<g id="Gruppe_1011" transform="translate(155 888)">
		<circle id="Ellipse_15" class="st0" cx="40" cy="40" r="40"/>
	</g>
</g>
<g id="Gruppe_1058" transform="translate(-155 -888)">
</g>
<g>
	<path class="st1" d="M45.2,54.4c-4,0-8.3-2.3-12.8-6.8C27.2,42.4,25,37.5,25.7,33c0.7-4.1,3.8-6.3,4.8-6.8c1-0.6,1.9-0.7,2.6-0.5
		c1.4,0.4,2.2,2,3.1,4c0.2,0.5,0.5,1.1,0.8,1.6c1.3,2.5-0.1,3.6-0.9,4.3c-0.3,0.3-0.7,0.5-1,0.7c-0.6,0.3-1.1,0.6-1,1.2
		c0.2,0.5,1.4,3.1,3.4,5.1c2,2,4.5,3.2,5,3.4c0.6,0.2,0.9-0.3,1.1-0.8c0.2-0.4,0.5-0.8,0.7-1.2c0.8-0.9,1.9-2.2,4.3-1
		c0.6,0.3,1.1,0.5,1.6,0.8c1.9,0.9,3.5,1.7,4,3.1c0.3,0.8,0.1,1.7-0.5,2.7c-0.4,0.8-2.6,4-6.8,4.7C46.4,54.4,45.8,54.4,45.2,54.4z"
		/>
</g>
</svg>
