<?xml version="1.0" encoding="utf-8"?>
<!-- Generator: Adobe Illustrator 25.4.1, SVG Export Plug-In . SVG Version: 6.00 Build 0)  -->
<svg version="1.1" id="Ebene_1" xmlns="http://www.w3.org/2000/svg" xmlns:xlink="http://www.w3.org/1999/xlink" x="0px" y="0px"
	 viewBox="0 0 70 70" style="enable-background:new 0 0 70 70;" xml:space="preserve">
<style type="text/css">
	.st0{fill:none;stroke:#1F365A;stroke-width:1.5;stroke-linecap:round;stroke-linejoin:round;}
</style>
<g>
	<g id="Gruppe_1181" transform="translate(0 66.814)">
		<g id="Gruppe_1180" transform="translate(62.939 -8.207)">
			<path id="Pfad_722" class="st0" d="M1.6,3.2h-59.1c-1.7,0-3,1.4-3,3c0,0,0,0,0,0v4.3H4.6V6.2C4.6,4.5,3.3,3.2,1.6,3.2
				C1.6,3.2,1.6,3.2,1.6,3.2z M-32.6-2.3v-3.5c0-1.6-1.3-2.8-2.8-2.8c0,0,0,0,0,0h-20.1c-1.6,0-2.8,1.3-2.8,2.8c0,0,0,0,0,0v3.5
				H-32.6z M-54.4-1.8v4.4 M-36.1,2.6v-4.4 M-8.8-52.4l2.2-1.7c1.1-0.8,2.5-0.6,3.3,0.5l3.8,5C1.3-47.5,1.1-46,0-45.2l-2.2,1.7
				 M-34.6-19l-7.2-9.6c-0.8-1-0.6-2.5,0.5-3.3l28.9-21.4c1-0.8,2.5-0.6,3.3,0.5h0l7.2,9.6c0.8,1,0.6,2.5-0.5,3.3c0,0,0,0,0,0
				l-28.9,21.4C-32.3-17.8-33.8-18-34.6-19C-34.6-19-34.6-19-34.6-19z M-34.3-18.7l-4.4,3.4l-7.8-10.4l4.4-3.4 M-40-16.5l-1.6,1.4
				c-1.3,1-3.3,0.7-4.3-0.6l-2-2.6c-1-1.3-0.7-3.3,0.6-4.3l1.6-1.4 M-19.1-37.8L-19.1-37.8c-0.9-1.2-0.7-3,0.6-3.9l5-3.7
				c1.2-0.9,3-0.7,3.9,0.6c0.9,1.2,0.7,3-0.6,3.9l-5,3.7C-16.5-36.3-18.2-36.6-19.1-37.8z M-7.8-23.1c-0.6,2.8,1.2,5.5,4.1,6.1
				c0,0,0,0,0,0c2.8,0.6,5.5-1.3,6.1-4.1c0,0,0,0,0,0c0.6-2.8-1.3-5.5-4.1-6.1C-4.5-27.7-7.2-25.9-7.8-23.1
				C-7.8-23.1-7.8-23.1-7.8-23.1z M-2.9-16.8c-0.1,1.1-0.3,2.2-0.5,3.3C-4.6-7.3-7.6-1.6-11.9,3 M-6.1-36.6c1.4,2.9,2.4,6,2.9,9.1"
				/>
		</g>
	</g>
</g>
</svg>
