<?xml version="1.0" encoding="utf-8"?>
<!-- Generator: Adobe Illustrator 25.4.1, SVG Export Plug-In . SVG Version: 6.00 Build 0)  -->
<svg version="1.1" id="Ebene_1" xmlns="http://www.w3.org/2000/svg" xmlns:xlink="http://www.w3.org/1999/xlink" x="0px" y="0px"
	 viewBox="0 0 200 200" style="enable-background:new 0 0 200 200;" xml:space="preserve">
<style type="text/css">
	.st0{fill:#1265EA;}
	.st1{enable-background:new    ;}
	.st2{fill:#FFFFFF;}
	.st3{fill:none;stroke:#FFFFFF;stroke-width:2;stroke-linecap:round;stroke-linejoin:round;}
	.st4{fill:none;}
</style>
<g id="Gruppe_1010" transform="translate(-1372 -757)">
	<path id="Pfad_582" class="st0" d="M1472,757c55.2,0,100,44.8,100,100s-44.8,100-100,100s-100-44.8-100-100S1416.8,757,1472,757z"
		/>
	<g class="st1">
		<path class="st2" d="M1429.9,873l-4.4-12.7h1.6l3.9,11.4h-0.6l4.1-11.4h1.2l3.9,11.4h-0.6l4-11.4h1.5l-4.5,12.7h-1.3l-3.7-11h0.4
			l-3.9,11H1429.9z"/>
		<path class="st2" d="M1447.3,873v-12.7h1.5V873H1447.3z"/>
		<path class="st2" d="M1458.4,873.2c-1.3,0-2.4-0.3-3.2-0.8c-0.9-0.5-1.6-1.3-2-2.2c-0.5-1-0.7-2.1-0.7-3.5c0-1.3,0.2-2.5,0.7-3.5
			c0.5-1,1.2-1.7,2-2.2c0.9-0.5,2-0.8,3.2-0.8c0.9,0,1.7,0.1,2.4,0.4c0.7,0.3,1.3,0.7,1.9,1.2l-0.6,1.2c-0.6-0.5-1.1-0.9-1.7-1.1
			c-0.6-0.2-1.2-0.4-2-0.4c-1.5,0-2.6,0.5-3.3,1.3c-0.8,0.9-1.1,2.2-1.1,3.8c0,1.1,0.2,2,0.5,2.8c0.3,0.8,0.8,1.4,1.5,1.8
			s1.5,0.6,2.4,0.6c0.8,0,1.4-0.1,2-0.4c0.6-0.2,1.1-0.6,1.7-1.1l0.6,1.2c-0.5,0.5-1.1,0.9-1.9,1.2
			C1460.1,873,1459.3,873.2,1458.4,873.2z"/>
		<path class="st2" d="M1466.1,873v-12.7h1.5v5.6h7.6v-5.6h1.5V873h-1.5v-5.8h-7.6v5.8H1466.1z"/>
		<path class="st2" d="M1483.9,873v-11.4h-4.5v-1.3h10.4v1.3h-4.5V873H1483.9z"/>
		<path class="st2" d="M1492.6,873v-12.7h1.5V873H1492.6z"/>
		<path class="st2" d="M1504,873.2c-1.4,0-2.6-0.3-3.5-0.8c-0.9-0.5-1.6-1.3-2.1-2.2c-0.5-1-0.7-2.1-0.7-3.5c0-1.3,0.2-2.5,0.7-3.5
			c0.5-1,1.2-1.7,2.1-2.2c0.9-0.5,2-0.8,3.3-0.8c0.9,0,1.7,0.1,2.4,0.4c0.7,0.3,1.3,0.7,1.8,1.2l-0.6,1.2c-0.4-0.3-0.8-0.6-1.1-0.8
			s-0.7-0.4-1.1-0.5c-0.4-0.1-0.9-0.2-1.4-0.2c-1.5,0-2.6,0.5-3.4,1.4s-1.2,2.2-1.2,3.8c0,1.7,0.4,2.9,1.2,3.8
			c0.8,0.9,2,1.3,3.6,1.3c0.6,0,1.2-0.1,1.7-0.2c0.5-0.1,1.1-0.3,1.6-0.5l-0.3,0.8v-4.5h-3.2v-1.2h4.5v5.9c-0.3,0.2-0.7,0.3-1.2,0.5
			c-0.5,0.1-1,0.2-1.5,0.3C1505,873.1,1504.5,873.2,1504,873.2z"/>
		<path class="st2" d="M1512.2,873v-12.7h8.1v1.2h-6.6v4.4h6.2v1.2h-6.2v4.6h6.6v1.2H1512.2z"/>
	</g>
	<g class="st1">
		<path class="st2" d="M1418.6,895.2c-1.3,0-2.4-0.3-3.2-0.8c-0.9-0.5-1.6-1.3-2-2.2c-0.5-1-0.7-2.1-0.7-3.5c0-1.3,0.2-2.5,0.7-3.5
			c0.5-1,1.2-1.7,2-2.2c0.9-0.5,2-0.8,3.2-0.8c0.9,0,1.7,0.1,2.4,0.4c0.7,0.3,1.3,0.7,1.9,1.2l-0.6,1.2c-0.6-0.5-1.1-0.9-1.7-1.1
			c-0.6-0.2-1.2-0.4-2-0.4c-1.5,0-2.6,0.5-3.3,1.3c-0.8,0.9-1.1,2.2-1.1,3.8c0,1.1,0.2,2,0.5,2.8c0.3,0.8,0.8,1.4,1.5,1.8
			s1.5,0.6,2.4,0.6c0.8,0,1.4-0.1,2-0.4s1.1-0.6,1.7-1.1l0.6,1.2c-0.5,0.5-1.1,0.9-1.9,1.2C1420.3,895,1419.5,895.2,1418.6,895.2z"
			/>
		<path class="st2" d="M1425.5,888.6c0-1.3,0.2-2.5,0.7-3.5c0.5-1,1.1-1.7,2-2.2c0.9-0.5,1.9-0.8,3.1-0.8c1.2,0,2.2,0.3,3.1,0.8
			c0.9,0.5,1.6,1.3,2,2.2c0.5,1,0.7,2.1,0.7,3.4c0,1.3-0.2,2.5-0.7,3.5c-0.5,1-1.2,1.7-2,2.3c-0.9,0.5-1.9,0.8-3.1,0.8
			c-1.2,0-2.3-0.3-3.1-0.8c-0.9-0.5-1.5-1.3-2-2.3C1425.7,891.1,1425.5,890,1425.5,888.6z M1427,888.6c0,1.1,0.2,2,0.5,2.8
			c0.3,0.8,0.8,1.4,1.4,1.8c0.6,0.4,1.4,0.6,2.3,0.6c1.3,0,2.4-0.5,3.1-1.4s1.1-2.2,1.1-3.8c0-1.1-0.2-2-0.5-2.8
			c-0.3-0.8-0.8-1.4-1.5-1.8c-0.6-0.4-1.4-0.6-2.3-0.6c-1.4,0-2.5,0.5-3.2,1.4C1427.4,885.7,1427,887,1427,888.6z"/>
		<path class="st2" d="M1444.5,895l-5.5-12.7h1.6l4.9,11.5h-0.6l4.9-11.5h1.5l-5.6,12.7H1444.5z"/>
		<path class="st2" d="M1453.9,895v-12.7h1.5V895H1453.9z"/>
		<path class="st2" d="M1459.5,895v-12.7h4.2c1.4,0,2.6,0.2,3.6,0.7c1,0.5,1.7,1.2,2.2,2.1c0.5,0.9,0.8,2.1,0.8,3.5
			c0,1.4-0.3,2.5-0.8,3.5c-0.5,0.9-1.2,1.7-2.2,2.2c-1,0.5-2.2,0.7-3.6,0.7H1459.5z M1461,893.7h2.6c1.7,0,3-0.4,3.9-1.3
			c0.8-0.8,1.3-2.1,1.3-3.8c0-1.7-0.4-3-1.3-3.8c-0.8-0.8-2.1-1.3-3.9-1.3h-2.6V893.7z"/>
		<path class="st2" d="M1479.4,895v-12.7h1.5V895H1479.4z"/>
		<path class="st2" d="M1485,895v-12.7h1.2l8.1,10.8h-0.4v-10.8h1.4V895h-1.2l-8.1-10.8h0.4V895H1485z"/>
		<path class="st2" d="M1499.3,895v-12.7h7.9v1.2h-6.4v4.4h6v1.2h-6v5.8H1499.3z"/>
		<path class="st2" d="M1509.6,888.6c0-1.3,0.2-2.5,0.7-3.5c0.5-1,1.1-1.7,2-2.2c0.9-0.5,1.9-0.8,3.1-0.8c1.2,0,2.2,0.3,3.1,0.8
			c0.9,0.5,1.6,1.3,2,2.2c0.5,1,0.7,2.1,0.7,3.4c0,1.3-0.2,2.5-0.7,3.5c-0.5,1-1.2,1.7-2,2.3s-1.9,0.8-3.1,0.8
			c-1.2,0-2.3-0.3-3.1-0.8c-0.9-0.5-1.5-1.3-2-2.3C1509.8,891.1,1509.6,890,1509.6,888.6z M1511.1,888.6c0,1.1,0.2,2,0.5,2.8
			c0.3,0.8,0.8,1.4,1.4,1.8c0.6,0.4,1.4,0.6,2.3,0.6c1.3,0,2.4-0.5,3.1-1.4s1.1-2.2,1.1-3.8c0-1.1-0.2-2-0.5-2.8
			c-0.3-0.8-0.8-1.4-1.5-1.8s-1.4-0.6-2.3-0.6c-1.4,0-2.5,0.5-3.2,1.4C1511.5,885.7,1511.1,887,1511.1,888.6z"/>
		<path class="st2" d="M1529,895.2c-1,0-1.9-0.1-2.7-0.4c-0.8-0.3-1.5-0.6-2.1-1.1l0.5-1.2c0.4,0.3,0.8,0.6,1.3,0.8
			c0.4,0.2,0.9,0.4,1.4,0.5c0.5,0.1,1,0.2,1.7,0.2c1.1,0,1.9-0.2,2.4-0.6c0.5-0.4,0.8-0.9,0.8-1.6c0-0.6-0.2-1-0.5-1.3
			s-1-0.5-1.9-0.7l-1.9-0.4c-1.2-0.2-2-0.6-2.6-1.2c-0.6-0.5-0.9-1.3-0.9-2.2c0-0.8,0.2-1.4,0.6-2c0.4-0.6,0.9-1,1.6-1.3
			c0.7-0.3,1.5-0.5,2.5-0.5c0.9,0,1.7,0.1,2.5,0.4c0.7,0.3,1.4,0.7,1.9,1.2l-0.5,1.2c-0.6-0.5-1.2-0.9-1.8-1.1
			c-0.6-0.2-1.3-0.3-2.1-0.3c-1,0-1.8,0.2-2.3,0.6c-0.6,0.4-0.9,1-0.9,1.7c0,0.6,0.2,1,0.5,1.4c0.4,0.3,1,0.6,1.8,0.7l1.9,0.4
			c1.2,0.3,2.1,0.6,2.7,1.1c0.6,0.5,0.9,1.2,0.9,2.1c0,0.7-0.2,1.3-0.6,1.9s-0.9,1-1.6,1.3S1529.9,895.2,1529,895.2z"/>
	</g>
	<g id="Gruppe_776" transform="translate(1456.5 795.5)">
		<path id="Pfad_463" class="st3" d="M7.1,19.5c0-6.8,5.5-12.4,12.4-12.4l0,0c6.8,0,12.4,5.5,12.4,12.4l0,0
			c0,6.8-5.5,12.4-12.4,12.4l0,0C12.7,31.9,7.1,26.3,7.1,19.5L7.1,19.5z M19.5,7.1V0.2 M22.1,0h-5.3 M28.2,10.8l4.9-4.9 M35.2,7.6
			l-3.7-3.7 M31.9,19.5h6.9 M39,22.1v-5.3 M28.2,28.2l4.9,4.9 M31.4,35.2l3.7-3.7 M19.5,31.9v6.9 M16.9,39h5.3 M10.8,28.2l-4.9,4.9
			 M3.8,31.4l3.7,3.7 M7.1,19.5H0.2 M0,16.9v5.3 M10.8,10.8L5.8,5.8 M7.6,3.8L3.8,7.6"/>
	</g>
	<path id="Pfad_464" class="st4" d="M1452,835h40v-40h-40V835z"/>
</g>
</svg>
