<?xml version="1.0" encoding="utf-8"?>
<!-- Generator: Adobe Illustrator 25.4.1, SVG Export Plug-In . SVG Version: 6.00 Build 0)  -->
<svg version="1.1" id="Ebene_1" xmlns="http://www.w3.org/2000/svg" xmlns:xlink="http://www.w3.org/1999/xlink" x="0px" y="0px"
	 viewBox="0 0 80 80" style="enable-background:new 0 0 80 80;" xml:space="preserve">
<style type="text/css">
	.st0{fill:#E1E6ED;}
	.st1{clip-path:url(#SVGID_00000078762667048395750700000006547381691470993281_);}
	.st2{fill:none;stroke:#1B3055;stroke-width:1.5;}
</style>
<g id="Gruppe_1057" transform="translate(-155 -888)">
	<g id="Gruppe_1011" transform="translate(155 888)">
		<circle id="Ellipse_15" class="st0" cx="40" cy="40" r="40"/>
	</g>
</g>
<g id="Gruppe_1095" transform="translate(25.571 60.634)">
	<g>
		<defs>
			<rect id="SVGID_1_" x="0" y="-40.6" width="28.9" height="40.6"/>
		</defs>
		<clipPath id="SVGID_00000015344579005748402990000005526793135441228961_">
			<use xlink:href="#SVGID_1_"  style="overflow:visible;"/>
		</clipPath>
		<g id="Gruppe_1094" style="clip-path:url(#SVGID_00000015344579005748402990000005526793135441228961_);">
			<g id="Gruppe_1093" transform="translate(28.107 -26.188)">
				<path id="Pfad_656" class="st2" d="M0,0c0-7.6-6.1-13.7-13.7-13.7c0,0,0,0,0,0c-7.6,0-13.7,6.1-13.7,13.7c0,0,0,0,0,0
					c0,10.3,13.7,25.1,13.7,25.1S0,10.3,0,0z M-18.2,0c0-2.5,2-4.6,4.6-4.6c0,0,0,0,0,0c2.5,0,4.6,2,4.6,4.6c0,0,0,0,0,0
					c0,2.5-2,4.6-4.6,4.6c0,0,0,0,0,0C-16.2,4.6-18.2,2.5-18.2,0C-18.2,0-18.2,0-18.2,0z"/>
			</g>
		</g>
	</g>
</g>
</svg>
