<?xml version="1.0" encoding="utf-8"?>
<!-- Generator: Adobe Illustrator 25.4.1, SVG Export Plug-In . SVG Version: 6.00 Build 0)  -->
<svg version="1.1" id="Ebene_1" xmlns="http://www.w3.org/2000/svg" xmlns:xlink="http://www.w3.org/1999/xlink" x="0px" y="0px"
	 viewBox="0 0 70 70" style="enable-background:new 0 0 70 70;" xml:space="preserve">
<style type="text/css">
	.st0{fill:none;stroke:#17365D;stroke-width:1.5;stroke-linecap:round;stroke-linejoin:round;}
</style>
<g id="Gruppe_1168" transform="translate(0 66.814)">
	<g>
		<g id="Gruppe_1167">
			<g id="Gruppe_1166" transform="translate(59.687 -0.844)">
				<path id="Pfad_710" class="st0" d="M1.6,3.2H-51c-3.5,0-6.3-2.8-6.3-6.3v-52.6c0-3.5,2.8-6.3,6.3-6.3H1.6c3.5,0,6.3,2.8,6.3,6.3
					l0,0V-3C7.9,0.4,5.1,3.2,1.6,3.2z M-24.7-41.8c-8.1-13.3-25.9-4.4-22.4,10.7c3.4,14.7,22.4,22.5,22.4,22.5s19.1-7.8,22.4-22.5
					C1.2-46.2-16.6-55.1-24.7-41.8z M-45.9-27.5h7.7l5.7-12.2l9.3,19.5l7.1-15.7l4.9,7.5H-3"/>
			</g>
		</g>
	</g>
</g>
</svg>
