<?xml version="1.0" encoding="utf-8"?>
<!-- Generator: Adobe Illustrator 25.4.1, SVG Export Plug-In . SVG Version: 6.00 Build 0)  -->
<svg version="1.1" id="Ebene_1" xmlns="http://www.w3.org/2000/svg" xmlns:xlink="http://www.w3.org/1999/xlink" x="0px" y="0px"
	 viewBox="0 0 70 70" style="enable-background:new 0 0 70 70;" xml:space="preserve">
<style type="text/css">
	.st0{fill:none;stroke:#17365D;stroke-width:1.5;stroke-linecap:round;stroke-linejoin:round;}
</style>
<g id="Gruppe_1165" transform="translate(0 66.818)">
	<g>
		<g id="Gruppe_1164">
			<g id="Gruppe_1163" transform="translate(34.556 -55.529)">
				<path id="Pfad_708" class="st0" d="M1.6,3.3L1.6,3.3C-0.6,3-2.1,1-1.9-1.2l0.3-2.5c0.3-2.2,2.2-3.7,4.4-3.5
					C5-6.9,6.6-4.9,6.3-2.7L6-0.2C5.8,2,3.8,3.5,1.6,3.3z M-20.8,3.3L-20.8,3.3C-18.6,3-17,1-17.3-1.2l-0.3-2.5
					c-0.3-2.2-2.2-3.7-4.4-3.5c-2.2,0.3-3.7,2.2-3.5,4.4l0.3,2.5C-25,2-23,3.5-20.8,3.3z M-25.5-1.1c-8.8,8.8-8.8,23,0,31.8
					c8.8,8.8,23,8.8,31.8,0c8.8-8.8,8.8-23,0-31.8 M27.7,40.5c0-5.2-4.2-9.4-9.4-9.4s-9.4,4.2-9.4,9.4v8c0,5.2-4.2,9.4-9.4,9.4
					c0,0,0,0,0,0c-5.2,0-9.4-4.2-9.4-9.4c0,0,0,0,0,0v-3.5 M-14.1,37v4.4c0,1.9,1.5,3.4,3.4,3.4c0,0,0,0,0,0h1.5
					c1.9,0,3.4-1.5,3.4-3.4c0,0,0,0,0,0V37 M22.3,45.9c0,2.9,2.4,5.3,5.3,5.3s5.3-2.4,5.3-5.3s-2.4-5.3-5.3-5.3l0,0
					C24.7,40.6,22.3,43,22.3,45.9z"/>
			</g>
		</g>
	</g>
</g>
</svg>
