<?xml version="1.0" encoding="utf-8"?>
<!-- Generator: Adobe Illustrator 25.4.1, SVG Export Plug-In . SVG Version: 6.00 Build 0)  -->
<svg version="1.1" id="Ebene_1" xmlns="http://www.w3.org/2000/svg" xmlns:xlink="http://www.w3.org/1999/xlink" x="0px" y="0px"
	 viewBox="0 0 40 40" style="enable-background:new 0 0 40 40;" xml:space="preserve">
<style type="text/css">
	.st0{fill:#1265EA;}
	.st1{fill:none;stroke:#FFFFFF;stroke-width:0.8888;stroke-linecap:round;stroke-linejoin:round;}
	.st2{fill:none;}
</style>
<g id="Gruppe_1154" transform="translate(-166 -1376)">
	<g id="Gruppe_1155">
		<path id="Pfad_582" class="st0" d="M186,1376c11,0,20,9,20,20s-9,20-20,20s-20-9-20-20S175,1376,186,1376z"/>
		<path id="Pfad_463" class="st1" d="M180.1,1396.2c0-3.4,2.8-6.2,6.2-6.2l0,0c3.4,0,6.2,2.8,6.2,6.2c0,3.4-2.8,6.2-6.2,6.2
			C182.8,1402.4,180.1,1399.7,180.1,1396.2L180.1,1396.2z M186.2,1389.8v-3.2 M187.6,1386.5H185 M190.8,1391.7l2.3-2.3
			 M194.1,1390.3l-1.9-1.9 M192.5,1396.2h3.4 M196,1397.6v-2.6 M190.8,1400.8l2.3,2.3 M192.2,1404.1l1.9-1.9 M186.2,1402.4v3.5
			 M184.9,1406h2.6 M181.7,1400.8l-2.3,2.3 M178.4,1402.2l1.9,1.9 M180.1,1396.2h-3.5 M176.5,1394.9v2.6 M181.7,1391.7l-2.3-2.3
			 M180.3,1388.4l-1.9,1.9"/>
		<path id="Pfad_464" class="st2" d="M176,1406h20v-20h-20V1406z"/>
	</g>
</g>
</svg>
